<?xml version="1.0" encoding="utf-8"?>
<!-- Generator: Adobe Illustrator 27.1.1, SVG Export Plug-In . SVG Version: 6.00 Build 0)  -->
<svg version="1.1" id="레이어_1" xmlns="http://www.w3.org/2000/svg" xmlns:xlink="http://www.w3.org/1999/xlink" x="0px"
	 y="0px" viewBox="0 0 32 32" style="enable-background:new 0 0 32 32;" xml:space="preserve">
<style type="text/css">
	.st0{fill:#99E7E5;}
	.st1{fill:#1D1D1B;}
	.st2{fill:#FFFFFF;}
</style>
<g>
	<g>
		<path class="st0" d="M2.6,8.8V16v8.8c9.3,0,13.8-1.4,13.8,0.6v-16C16.5,7.4,11.9,8.8,2.6,8.8z"/>
		<path class="st1" d="M16.5,25.9c-0.3,0-0.6-0.3-0.6-0.6c0-0.1,0-0.2-0.1-0.2c-0.4-0.4-2.5-0.3-5-0.1c-2.2,0.1-4.8,0.3-8.2,0.3
			C2.3,25.3,2,25,2,24.7v-16c0-0.3,0.3-0.6,0.6-0.6c3.3,0,6-0.2,8.1-0.3c3.4-0.2,5.1-0.3,5.9,0.4c0.3,0.3,0.4,0.6,0.4,1v16
			C17,25.7,16.8,25.9,16.5,25.9z M3.2,9.3v14.9c3,0,5.5-0.2,7.5-0.3c2.6-0.2,4.2-0.3,5.2,0V9.4c0-0.1,0-0.2-0.1-0.2
			c-0.4-0.4-2.5-0.3-5-0.1C8.8,9.2,6.3,9.3,3.2,9.3z"/>
	</g>
	<g>
		<path class="st0" d="M30.3,8.8V16v8.8c-9.3,0-13.8-1.4-13.8,0.6v-16C16.5,7.4,21,8.8,30.3,8.8z"/>
		<path class="st1" d="M16.5,25.9c-0.3,0-0.6-0.3-0.6-0.6v-16c0-0.4,0.1-0.8,0.4-1c0.8-0.8,2.5-0.6,5.9-0.4C24.3,8,27,8.2,30.3,8.2
			c0.3,0,0.6,0.3,0.6,0.6v16c0,0.3-0.3,0.6-0.6,0.6c-3.3,0-6-0.2-8.2-0.3c-2.6-0.2-4.6-0.3-5,0.1c0,0-0.1,0.1-0.1,0.2
			C17,25.7,16.8,25.9,16.5,25.9z M18.8,23.7c0.9,0,2,0.1,3.4,0.2c2,0.1,4.5,0.3,7.5,0.3V9.3c-3.1,0-5.6-0.2-7.6-0.3
			c-2.6-0.2-4.6-0.3-5,0.1c0,0-0.1,0.1-0.1,0.2v14.6C17.5,23.8,18.1,23.7,18.8,23.7z"/>
	</g>
	<g>
		<path class="st2" d="M6.1,5.8V13v8.8c6.6,0,10.4,1.6,10.4,3.6v-16C16.5,7.4,12.6,5.8,6.1,5.8z"/>
		<path class="st1" d="M16.5,25.9c-0.3,0-0.6-0.3-0.6-0.6c0-1.5-3.4-3-9.8-3c-0.3,0-0.6-0.3-0.6-0.6v-16c0-0.3,0.3-0.6,0.6-0.6
			c6.7,0,11,1.6,11,4.2v16C17,25.7,16.8,25.9,16.5,25.9z M6.6,21.2c4.4,0.1,7.6,0.8,9.3,2.1v-14c0-1.4-3.2-2.9-9.3-3
			C6.6,6.3,6.6,21.2,6.6,21.2z"/>
	</g>
	<g>
		<path class="st2" d="M13.5,10.5c-1.1-0.4-2.6-0.7-4.3-0.8"/>
		<path class="st1" d="M13.5,11c-0.1,0-0.1,0-0.2,0c-1.1-0.4-2.6-0.6-4.2-0.8c-0.3,0-0.5-0.3-0.5-0.6s0.3-0.5,0.6-0.5
			c1.7,0.2,3.2,0.4,4.5,0.8c0.3,0.1,0.5,0.4,0.4,0.7C13.9,10.9,13.7,11,13.5,11z"/>
	</g>
	<g>
		<path class="st2" d="M13.5,14.3c-1.1-0.4-2.6-0.7-4.3-0.8"/>
		<path class="st1" d="M13.5,14.8c-0.1,0-0.1,0-0.2,0c-1.1-0.4-2.6-0.6-4.2-0.8c-0.3,0-0.5-0.3-0.5-0.6s0.3-0.5,0.6-0.5
			c1.7,0.2,3.2,0.4,4.5,0.8c0.3,0.1,0.5,0.4,0.4,0.7C13.9,14.7,13.7,14.8,13.5,14.8z"/>
	</g>
	<g>
		<path class="st2" d="M13.5,18c-1.1-0.4-2.6-0.7-4.3-0.8"/>
		<path class="st1" d="M13.5,18.6c-0.1,0-0.1,0-0.2,0c-1.1-0.4-2.6-0.6-4.2-0.8c-0.3,0-0.5-0.3-0.5-0.6c0-0.3,0.3-0.6,0.6-0.5
			c1.7,0.2,3.2,0.4,4.5,0.8c0.3,0.1,0.5,0.4,0.4,0.7C13.9,18.5,13.7,18.6,13.5,18.6z"/>
	</g>
	<g>
		<path class="st2" d="M26.9,5.8V13v8.8c-6.6,0-10.4,1.6-10.4,3.6v-16C16.5,7.4,20.3,5.8,26.9,5.8z"/>
		<path class="st1" d="M16.5,25.9c-0.3,0-0.6-0.3-0.6-0.6v-16c0-2.5,4.3-4.2,11-4.2c0.3,0,0.6,0.3,0.6,0.6v16c0,0.3-0.3,0.6-0.6,0.6
			c-6.4,0-9.8,1.6-9.8,3C17,25.7,16.8,25.9,16.5,25.9z M26.3,6.4c-6,0.1-9.3,1.6-9.3,3v14c1.6-1.3,4.9-2.1,9.3-2.1V6.4z"/>
	</g>
	<g>
		<path class="st2" d="M19.5,10.5c1.1-0.4,2.6-0.7,4.3-0.8"/>
		<path class="st1" d="M19.5,11c-0.2,0-0.5-0.2-0.5-0.4c-0.1-0.3,0.1-0.6,0.4-0.7c1.2-0.4,2.7-0.7,4.5-0.8c0.3,0,0.6,0.2,0.6,0.5
			s-0.2,0.6-0.5,0.6c-1.6,0.1-3,0.4-4.2,0.8C19.6,11,19.6,11,19.5,11z"/>
	</g>
	<g>
		<path class="st2" d="M19.5,14.3c1.1-0.4,2.6-0.7,4.3-0.8"/>
		<path class="st1" d="M19.5,14.8c-0.2,0-0.5-0.2-0.5-0.4c-0.1-0.3,0.1-0.6,0.4-0.7c1.2-0.4,2.7-0.7,4.5-0.8c0.3,0,0.6,0.2,0.6,0.5
			S24.3,14,24,14c-1.6,0.1-3.1,0.4-4.2,0.8C19.6,14.8,19.6,14.8,19.5,14.8z"/>
	</g>
	<g>
		<path class="st2" d="M19.5,18c1.1-0.4,2.6-0.7,4.3-0.8"/>
		<path class="st1" d="M19.5,18.6c-0.2,0-0.5-0.2-0.5-0.4c-0.1-0.3,0.1-0.6,0.4-0.7c1.2-0.4,2.7-0.7,4.5-0.8c0.3,0,0.6,0.2,0.6,0.5
			s-0.2,0.6-0.5,0.6c-1.6,0.1-3.1,0.4-4.2,0.8C19.6,18.6,19.6,18.6,19.5,18.6z"/>
	</g>
</g>
</svg>
