<svg width="42" height="42" xmlns="http://www.w3.org/2000/svg"><g fill="none" fill-rule="evenodd"><path d="M22.8.5c5.164 0 9.839 2.093 13.223 5.477A18.641 18.641 0 0 1 41.5 19.2v3.6c0 5.164-2.093 9.839-5.477 13.223A18.641 18.641 0 0 1 22.8 41.5h-3.6a18.641 18.641 0 0 1-13.223-5.477A18.641 18.641 0 0 1 .5 22.8v-3.6c0-5.164 2.093-9.839 5.477-13.223A18.641 18.641 0 0 1 19.2.5z" stroke="#EAEAEA" fill="#FFF"/><path d="M9 9h24v24H9z"/><path d="M29.4 23.4v2.8a2 2 0 0 1-2 2H14.6a2 2 0 0 1-2-2v-2.8h0m8.4 0v-9.6M16.8 18l4.243-4.243L25.285 18" stroke="#1d1d1d" stroke-width="1.5" stroke-linecap="round" stroke-linejoin="round"/></g></svg>