<?xml version="1.0" encoding="utf-8"?>
<!-- Generator: Adobe Illustrator 27.1.1, SVG Export Plug-In . SVG Version: 6.00 Build 0)  -->
<svg version="1.1" id="레이어_1" xmlns="http://www.w3.org/2000/svg" xmlns:xlink="http://www.w3.org/1999/xlink" x="0px"
	 y="0px" viewBox="0 0 24 24" style="enable-background:new 0 0 24 24;" xml:space="preserve">
<style type="text/css">
	.st0{fill:#333333;}
</style>
<g id="_레이어_1-2">
	<path id="_통화" class="st0" d="M8.7,10.9c-0.1-0.2-0.2-0.3-0.2-0.5c0.8-0.4,1.4-0.7,1.5-0.8c0.3-0.2,0.5-0.6,0.3-1.4
		C10.1,7.4,8.5,4.8,7.2,4C6,3.2,3.7,6.5,3.6,7.8c-0.1,1.3,0,2,1.4,4.3c0.9,1.5,2.1,3,3.5,4.3c3.3,2.9,5.8,4.4,7.7,4.4
		c2.8,0,5.1-2.7,3.9-4c-1.3-1.3-2.5-2.2-3.8-2.7c-0.9-0.4-1.5-0.1-1.9,0.7l-0.5,1.1c-1.3-0.8-2.2-1.4-2.7-1.9
		C10.2,13,9.4,12,8.7,10.9z"/>
</g>
</svg>
