<?xml version="1.0" encoding="utf-8"?>
<!-- Generator: Adobe Illustrator 27.1.1, SVG Export Plug-In . SVG Version: 6.00 Build 0)  -->
<svg version="1.1" id="레이어_1" xmlns="http://www.w3.org/2000/svg" xmlns:xlink="http://www.w3.org/1999/xlink" x="0px"
	 y="0px" viewBox="0 0 32 32" style="enable-background:new 0 0 32 32;" xml:space="preserve">
<style type="text/css">
	.st0{fill:none;}
	.st1{fill:#1D1D1B;}
	.st2{fill:#99E7E5;}
	.st3{fill:#FFFFFF;}
</style>
<g>
	<g>
		<line class="st0" x1="20.7" y1="2.3" x2="20.7" y2="15.3"/>
		<path class="st1" d="M20.7,15.9c-0.3,0-0.6-0.3-0.6-0.6v-13c0-0.3,0.3-0.6,0.6-0.6c0.3,0,0.6,0.3,0.6,0.6v13
			C21.2,15.6,21,15.9,20.7,15.9z"/>
	</g>
	<g>
		<line class="st0" x1="17.5" y1="15.3" x2="17.5" y2="2.3"/>
		<path class="st1" d="M17.5,15.9c-0.3,0-0.6-0.3-0.6-0.6v-13c0-0.3,0.3-0.6,0.6-0.6c0.3,0,0.6,0.3,0.6,0.6v13
			C18,15.6,17.8,15.9,17.5,15.9z"/>
	</g>
	<g>
		<circle class="st2" cx="11.2" cy="14.5" r="7.4"/>
		<path class="st1" d="M11.2,22.5c-4.4,0-8-3.6-8-8s3.6-8,8-8s8,3.6,8,8S15.6,22.5,11.2,22.5z M11.2,7.7c-3.8,0-6.9,3.1-6.9,6.9
			s3.1,6.9,6.9,6.9s6.9-3.1,6.9-6.9S15,7.7,11.2,7.7z"/>
	</g>
	<g>
		<path class="st2" d="M11.2,19.2c-2.6,0-4.7-2.1-4.7-4.7s2.1-4.7,4.7-4.7s4.7,2.1,4.7,4.7S13.8,19.2,11.2,19.2z"/>
		<path class="st1" d="M11.2,19.8c-2.9,0-5.2-2.4-5.2-5.3s2.4-5.2,5.2-5.2s5.2,2.4,5.2,5.2C16.5,17.4,14.1,19.8,11.2,19.8z
			 M11.2,10.4c-2.3,0-4.1,1.8-4.1,4.1s1.8,4.1,4.1,4.1s4.1-1.8,4.1-4.1C15.3,12.3,13.5,10.4,11.2,10.4z"/>
	</g>
	<g>
		<path class="st2" d="M10.6,16.5c-1.1,0-1.9-0.9-1.9-1.9s0.9-1.9,1.9-1.9s1.9,0.9,1.9,1.9S11.6,16.5,10.6,16.5z"/>
		<path class="st1" d="M10.6,17.1c-1.4,0-2.5-1.1-2.5-2.5s1.1-2.5,2.5-2.5s2.5,1.1,2.5,2.5S11.9,17.1,10.6,17.1z M10.6,13.2
			c-0.8,0-1.4,0.6-1.4,1.4S9.8,16,10.6,16s1.4-0.6,1.4-1.4C11.9,13.8,11.3,13.2,10.6,13.2z"/>
	</g>
	<g>
		<path class="st2" d="M23.3,19.2c-2.6,0-4.7-2.1-4.7-4.7s2.1-4.7,4.7-4.7s4.7,2.1,4.7,4.7S25.9,19.2,23.3,19.2z"/>
		<path class="st1" d="M23.3,19.8c-2.9,0-5.2-2.4-5.2-5.2c0-2.9,2.4-5.2,5.2-5.2s5.2,2.4,5.2,5.2C28.6,17.4,26.2,19.8,23.3,19.8z
			 M23.3,10.4c-2.3,0-4.1,1.8-4.1,4.1s1.8,4.1,4.1,4.1s4.1-1.8,4.1-4.1C27.4,12.3,25.6,10.4,23.3,10.4z"/>
	</g>
	<g>
		<path class="st2" d="M22.7,16.5c-1.1,0-1.9-0.9-1.9-1.9s0.9-1.9,1.9-1.9c1.1,0,1.9,0.9,1.9,1.9S23.7,16.5,22.7,16.5z"/>
		<path class="st1" d="M22.7,17.1c-1.4,0-2.5-1.1-2.5-2.5s1.1-2.5,2.5-2.5s2.5,1.1,2.5,2.5S24.1,17.1,22.7,17.1z M22.7,13.2
			c-0.8,0-1.4,0.6-1.4,1.4s0.6,1.4,1.4,1.4s1.4-0.6,1.4-1.4C24,13.8,23.4,13.2,22.7,13.2z"/>
	</g>
	<g>
		<path class="st3" d="M16,26.4c7.3,0,13.2-4.6,13.2-11.9H2.8C2.8,21.8,8.7,26.4,16,26.4z"/>
		<path class="st1" d="M16,27C8,27,2.2,21.8,2.2,14.5c0-0.3,0.3-0.6,0.6-0.6h26.4c0.3,0,0.6,0.3,0.6,0.6C29.8,21.8,24,27,16,27z
			 M3.4,15.1C3.7,21.4,8.9,25.9,16,25.9s12.3-4.5,12.6-10.8C28.6,15.1,3.4,15.1,3.4,15.1z"/>
	</g>
	<g>
		<rect x="9.8" y="25.2" class="st3" width="12.3" height="2.9"/>
		<path class="st1" d="M22.2,28.7H9.8c-0.3,0-0.6-0.3-0.6-0.6v-2.9c0-0.3,0.3-0.6,0.6-0.6h12.3c0.3,0,0.6,0.3,0.6,0.6v2.9
			C22.7,28.4,22.5,28.7,22.2,28.7z M10.4,27.6h11.2v-1.8H10.4V27.6z"/>
	</g>
</g>
</svg>
