<?xml version="1.0" encoding="UTF-8"?><svg id="_레이어_1" xmlns="http://www.w3.org/2000/svg" xmlns:xlink="http://www.w3.org/1999/xlink" viewBox="0 0 30.04 28.07"><defs><style>.cls-1{fill:#ffdbdb;}.cls-2{fill:#fff;}.cls-3{fill:#ffb5b5;}.cls-4{clip-path:url(#clippath);}.cls-5{fill:none;}.cls-6{fill:#3b2a2a;}.cls-7{fill:#ffc852;}</style><clipPath id="clippath"><rect class="cls-5" width="30.04" height="28.07"/></clipPath></defs><g class="cls-4"><path class="cls-2" d="m14.6,19.35H.18v-1.02c0-3.08,2.03-5.71,4.81-6.23l2.4-.45,2.4.45c2.78.52,4.81,3.15,4.81,6.23v1.02Z"/><path d="m14.6,19.53H.18c-.1,0-.18-.08-.18-.18v-1.02c0-3.18,2.09-5.87,4.96-6.41l2.4-.45s.04,0,.07,0l2.4.45c2.87.54,4.96,3.23,4.96,6.41v1.02c0,.1-.08.18-.18.18m-14.25-.36h14.07v-.84c0-3-1.96-5.55-4.67-6.05l-2.37-.44-2.37.44c-2.7.5-4.67,3.05-4.67,6.05v.84Z"/><path class="cls-1" d="m5.83,10.34v1.82c0,.86.7,1.56,1.56,1.56s1.56-.7,1.56-1.56v-1.82h-3.12Z"/><path d="m7.39,13.9c-.96,0-1.74-.78-1.74-1.74v-1.82c0-.1.08-.18.18-.18h3.12c.1,0,.18.08.18.18v1.82c0,.96-.78,1.74-1.74,1.74m-1.38-3.38v1.64c0,.76.62,1.38,1.38,1.38s1.38-.62,1.38-1.38v-1.64h-2.76Z"/><path class="cls-1" d="m14.16,7.99c0,1.02-.83,1.85-1.85,1.85s-1.85-.83-1.85-1.85.83-1.85,1.85-1.85,1.85.83,1.85,1.85"/><path class="cls-1" d="m4.33,7.99c0,1.02-.83,1.85-1.85,1.85s-1.85-.83-1.85-1.85.83-1.85,1.85-1.85,1.85.83,1.85,1.85"/><path d="m12.31,10.02c-1.12,0-2.03-.91-2.03-2.03s.91-2.03,2.03-2.03,2.03.91,2.03,2.03-.91,2.03-2.03,2.03m0-3.7c-.92,0-1.67.75-1.67,1.67s.75,1.67,1.67,1.67,1.67-.75,1.67-1.67-.75-1.67-1.67-1.67"/><path d="m2.47,10.02c-1.12,0-2.03-.91-2.03-2.03s.91-2.03,2.03-2.03,2.03.91,2.03,2.03-.91,2.03-2.03,2.03m0-3.7c-.92,0-1.67.75-1.67,1.67s.75,1.67,1.67,1.67,1.67-.75,1.67-1.67-.75-1.67-1.67-1.67"/><path class="cls-1" d="m12.1,3.22H2.68c-.24,0-.43.19-.43.43v3.09c0,2.84,2.3,5.14,5.14,5.14s5.14-2.3,5.14-5.14v-3.09c0-.24-.19-.43-.43-.43"/><path class="cls-3" d="m11.41,8.84c0,.61-.5,1.11-1.11,1.11s-1.11-.5-1.11-1.11.5-1.11,1.11-1.11,1.11.5,1.11,1.11"/><path class="cls-3" d="m5.59,8.84c0,.61-.5,1.11-1.11,1.11s-1.11-.5-1.11-1.11.5-1.11,1.11-1.11,1.11.5,1.11,1.11"/><path d="m7.39,12.06c-2.93,0-5.32-2.39-5.32-5.32v-3.09c0-.34.28-.61.61-.61h9.42c.34,0,.61.28.61.61v3.09c0,2.93-2.39,5.32-5.32,5.32M2.68,3.4c-.14,0-.25.11-.25.25v3.09c0,2.74,2.23,4.96,4.96,4.96s4.96-2.23,4.96-4.96v-3.09c0-.14-.11-.25-.25-.25H2.68Z"/><path class="cls-6" d="m10.85,1.08c-2.97-1.9-5.62-.23-5.62-.23C2.35.65.48,3.98,2.1,6.84c0,0,3.01-.72,3.77-2.58,1.48,3.61,6.98,2.58,6.98,2.58.39-1.84.2-4.36-2-5.76"/><path d="m11.14,7.16c-.38,0-.81-.02-1.24-.07-1.95-.24-3.33-1.07-4.03-2.41-.98,1.66-3.61,2.31-3.73,2.34-.08.02-.16-.02-.2-.09-.83-1.47-.83-3.22.01-4.56.72-1.14,1.93-1.77,3.23-1.7.4-.22,2.96-1.53,5.76.26,2.73,1.74,2.28,4.99,2.08,5.95-.02.07-.07.13-.14.14-.04,0-.76.14-1.74.14m-5.27-3.07c.07,0,.14.04.17.11,1.29,3.14,5.86,2.61,6.66,2.49.2-1.02.49-3.9-1.94-5.45-2.83-1.81-5.4-.25-5.43-.23-.03.02-.07.03-.11.03-1.2-.08-2.3.49-2.96,1.53-.75,1.19-.77,2.74-.07,4.07.58-.16,2.89-.9,3.52-2.44.03-.07.09-.11.17-.11h0Z"/><path d="m5.92,7.71c0,.34-.21.62-.47.62s-.47-.28-.47-.62.21-.62.47-.62.47.28.47.62"/><path d="m9.81,7.71c0,.34-.21.62-.47.62s-.47-.28-.47-.62.21-.62.47-.62.47.28.47.62"/><path d="m7.39,9.75c-.9,0-1.31-.46-1.32-.48-.06-.08-.06-.19.02-.25.07-.06.19-.06.25.02.01.02.33.36,1.05.36s1.04-.34,1.05-.36c.07-.07.18-.08.25-.02.07.07.08.18.02.25-.02.02-.42.48-1.32.48"/><path class="cls-6" d="m28.27,5.8h-11.37s-.39,7-1.18,8.42h13.73c-.79-1.43-1.18-8.42-1.18-8.42"/><path d="m29.45,14.4h-13.73c-.06,0-.12-.03-.15-.09-.03-.05-.03-.12,0-.18.76-1.37,1.15-8.27,1.15-8.34,0-.1.08-.17.18-.17h11.37c.1,0,.17.07.18.17,0,.07.39,6.97,1.15,8.34.03.06.03.12,0,.18-.03.05-.09.09-.15.09m-13.45-.36h13.17c-.66-1.72-1.01-7.02-1.07-8.06h-11.03c-.06,1.04-.41,6.35-1.07,8.06"/><path class="cls-2" d="m29.86,19.43h-14.43v-1.02c0-3.08,2.03-5.71,4.81-6.23l2.4-.45,2.4.45c2.78.52,4.81,3.15,4.81,6.23v1.02Z"/><path d="m29.86,19.61h-14.43c-.1,0-.18-.08-.18-.18v-1.02c0-3.18,2.09-5.87,4.96-6.41l2.4-.45s.04,0,.07,0l2.4.45c2.87.54,4.96,3.23,4.96,6.41v1.02c0,.1-.08.18-.18.18m-14.25-.36h14.07v-.84c0-3-1.96-5.55-4.67-6.05l-2.37-.44-2.37.44c-2.7.5-4.67,3.05-4.67,6.05v.84Z"/><path class="cls-1" d="m21.08,10.43v1.82c0,.86.7,1.56,1.56,1.56s1.56-.7,1.56-1.56v-1.82h-3.12Z"/><path d="m22.65,13.98c-.96,0-1.74-.78-1.74-1.74v-1.82c0-.1.08-.18.18-.18h3.12c.1,0,.18.08.18.18v1.82c0,.96-.78,1.74-1.74,1.74m-1.38-3.38v1.64c0,.76.62,1.38,1.38,1.38s1.38-.62,1.38-1.38v-1.64h-2.76Z"/><path class="cls-1" d="m29.41,8.07c0,1.02-.83,1.85-1.85,1.85s-1.85-.83-1.85-1.85.83-1.85,1.85-1.85,1.85.83,1.85,1.85"/><path class="cls-1" d="m19.58,8.07c0,1.02-.83,1.85-1.85,1.85s-1.85-.83-1.85-1.85.83-1.85,1.85-1.85,1.85.83,1.85,1.85"/><path d="m27.56,10.1c-1.12,0-2.03-.91-2.03-2.03s.91-2.03,2.03-2.03,2.03.91,2.03,2.03-.91,2.03-2.03,2.03m0-3.7c-.92,0-1.67.75-1.67,1.67s.75,1.67,1.67,1.67,1.67-.75,1.67-1.67-.75-1.67-1.67-1.67"/><path d="m17.73,10.1c-1.12,0-2.03-.91-2.03-2.03s.91-2.03,2.03-2.03,2.03.91,2.03,2.03-.91,2.03-2.03,2.03m0-3.7c-.92,0-1.67.75-1.67,1.67s.75,1.67,1.67,1.67,1.67-.75,1.67-1.67-.75-1.67-1.67-1.67"/><path class="cls-1" d="m27.35,3.3h-9.42c-.24,0-.43.19-.43.43v3.09c0,2.84,2.3,5.14,5.14,5.14s5.14-2.3,5.14-5.14v-3.09c0-.24-.19-.43-.43-.43"/><path class="cls-3" d="m26.67,8.92c0,.61-.5,1.11-1.11,1.11s-1.11-.5-1.11-1.11.5-1.11,1.11-1.11,1.11.5,1.11,1.11"/><path class="cls-3" d="m20.84,8.92c0,.61-.5,1.11-1.11,1.11s-1.11-.5-1.11-1.11.5-1.11,1.11-1.11,1.11.5,1.11,1.11"/><path d="m22.65,12.14c-2.93,0-5.32-2.39-5.32-5.32v-3.09c0-.34.28-.61.61-.61h9.42c.34,0,.61.28.61.61v3.09c0,2.93-2.39,5.32-5.32,5.32m-4.71-8.66c-.14,0-.25.11-.25.25v3.09c0,2.74,2.23,4.96,4.96,4.96s4.96-2.23,4.96-4.96v-3.09c0-.14-.11-.25-.25-.25h-9.42Z"/><path class="cls-6" d="m26.11,1.16c-2.97-1.9-5.62-.23-5.62-.23-2.89-.2-4.88,3.37-3.25,6.24,0,0,3.13-.96,3.89-2.82,1.48,3.61,6.98,2.58,6.98,2.58.39-1.84.2-4.36-2-5.76"/><path d="m17.23,7.35c-.06,0-.12-.03-.16-.09-.84-1.48-.8-3.29.09-4.71.75-1.2,1.97-1.86,3.28-1.79.4-.22,2.96-1.53,5.76.26,2.73,1.74,2.28,4.99,2.08,5.95-.02.07-.07.13-.14.14-.06.01-1.42.26-2.99.06-1.95-.24-3.33-1.07-4.03-2.41-.99,1.69-3.71,2.54-3.84,2.58-.02,0-.04,0-.05,0m3.03-6.24c-1.11,0-2.14.6-2.79,1.63-.8,1.27-.85,2.87-.15,4.21.61-.21,3.01-1.13,3.64-2.67.03-.07.09-.11.17-.11h0c.07,0,.14.04.17.11,1.29,3.14,5.86,2.61,6.66,2.49.2-1.02.49-3.9-1.94-5.45-2.83-1.81-5.4-.25-5.43-.23-.03.02-.07.03-.11.03-.07,0-.14,0-.21,0m7.84,5.82h0,0Z"/><path d="m21.17,7.79c0,.34-.21.62-.47.62s-.47-.28-.47-.62.21-.62.47-.62.47.28.47.62"/><path d="m25.06,7.79c0,.34-.21.62-.47.62s-.47-.28-.47-.62.21-.62.47-.62.47.28.47.62"/><path d="m22.64,9.83c-.9,0-1.31-.46-1.32-.48-.06-.08-.06-.19.02-.25.07-.06.19-.06.25.02.01.02.33.36,1.05.36s1.05-.35,1.05-.36c.06-.08.18-.08.25-.02.08.06.08.18.02.25-.02.02-.42.48-1.32.48"/><path class="cls-6" d="m18.57,16.87s1.78-1.43,3.42.29c1.64,1.72-.73,6.06-.13,7.06,0,0-3.02-3.64-3.02-5.75,0-.42-.27-1.6-.27-1.6"/><path d="m21.85,24.4c-.05,0-.1-.02-.14-.06-.13-.15-3.06-3.72-3.06-5.87,0-.4-.26-1.55-.26-1.56-.02-.07,0-.14.06-.18.02-.02,1.92-1.51,3.66.31,1.07,1.12.56,3.21.15,4.88-.24.97-.46,1.88-.26,2.21.05.08.03.18-.05.24-.03.02-.07.03-.1.03m-3.09-7.46c.07.31.24,1.16.24,1.52,0,1.56,1.75,4.04,2.57,5.11.03-.46.17-1.06.34-1.74.39-1.59.87-3.57-.07-4.55-1.32-1.39-2.72-.59-3.09-.34"/><path class="cls-6" d="m11.47,16.87s-1.78-1.43-3.42.29c-1.64,1.72.73,6.06.13,7.06,0,0,3.02-3.64,3.02-5.75,0-.42.27-1.6.27-1.6"/><path d="m8.18,24.4s-.07-.01-.1-.03c-.08-.05-.1-.16-.05-.24.2-.33-.03-1.24-.26-2.21-.41-1.68-.92-3.76.15-4.88,1.74-1.82,3.64-.33,3.66-.31.05.04.08.11.06.18,0,.01-.26,1.16-.26,1.56,0,2.15-2.94,5.72-3.06,5.87-.04.04-.09.06-.14.06m1.69-7.91c-.51,0-1.11.19-1.69.8-.93.98-.45,2.96-.07,4.55.17.68.31,1.28.34,1.74.82-1.07,2.57-3.56,2.57-5.11,0-.36.18-1.21.24-1.52-.2-.14-.74-.45-1.4-.45"/><path class="cls-7" d="m21.27,27.89h-12.21v-.86c0-2.61,1.72-4.84,4.07-5.27l2.03-.38,2.03.38c2.35.44,4.07,2.67,4.07,5.27v.86Z"/><path d="m21.27,28.07h-12.21c-.1,0-.18-.08-.18-.18v-.86c0-2.7,1.78-4.99,4.22-5.45l2.03-.38s.04,0,.07,0l2.03.38c2.45.46,4.22,2.75,4.22,5.45v.86c0,.1-.08.18-.18.18m-12.03-.36h11.85v-.68c0-2.53-1.65-4.67-3.93-5.1l-2-.37-2,.37c-2.28.42-3.93,2.57-3.93,5.1v.68Z"/><path class="cls-1" d="m13.85,20.27v1.54c0,.73.59,1.32,1.32,1.32s1.32-.59,1.32-1.32v-1.54h-2.64Z"/><path d="m15.17,23.31c-.83,0-1.5-.67-1.5-1.5v-1.54c0-.1.08-.18.18-.18h2.64c.1,0,.18.08.18.18v1.54c0,.83-.67,1.5-1.5,1.5m-1.14-2.86v1.36c0,.63.51,1.14,1.14,1.14s1.14-.51,1.14-1.14v-1.36h-2.28Z"/><path class="cls-1" d="m20.9,18.84c0,.87-.7,1.57-1.57,1.57s-1.57-.7-1.57-1.57.7-1.57,1.57-1.57,1.57.7,1.57,1.57"/><path class="cls-1" d="m12.57,18.84c0,.87-.7,1.57-1.57,1.57s-1.57-.7-1.57-1.57.7-1.57,1.57-1.57,1.57.7,1.57,1.57"/><path d="m19.33,20.58c-.96,0-1.75-.78-1.75-1.75s.78-1.75,1.75-1.75,1.75.78,1.75,1.75-.78,1.75-1.75,1.75m0-3.13c-.76,0-1.39.62-1.39,1.39s.62,1.39,1.39,1.39,1.39-.62,1.39-1.39-.62-1.39-1.39-1.39"/><path d="m11.01,20.58c-.96,0-1.75-.78-1.75-1.75s.78-1.75,1.75-1.75,1.75.78,1.75,1.75-.78,1.75-1.75,1.75m0-3.13c-.76,0-1.39.62-1.39,1.39s.62,1.39,1.39,1.39,1.39-.62,1.39-1.39-.62-1.39-1.39-1.39"/><path class="cls-1" d="m19.15,15.59h-7.97c-.2,0-.37.13-.37.3v2.13c0,1.96,1.95,3.55,4.35,3.55s4.35-1.59,4.35-3.55v-2.13c0-.17-.16-.3-.37-.3"/><path class="cls-3" d="m18.57,19.11c0,.52-.42.94-.94.94s-.94-.42-.94-.94.42-.94.94-.94.94.42.94.94"/><path class="cls-3" d="m13.64,19.11c0,.52-.42.94-.94.94s-.94-.42-.94-.94.42-.94.94-.94.94.42.94.94"/><path d="m15.17,21.75c-2.5,0-4.53-1.67-4.53-3.73v-2.13c0-.26.25-.48.55-.48h7.97c.3,0,.55.22.55.48v2.13c0,2.06-2.03,3.73-4.53,3.73m-3.98-5.98c-.11,0-.19.06-.19.12v2.13c0,1.86,1.87,3.37,4.17,3.37s4.17-1.51,4.17-3.37v-2.13c0-.06-.08-.12-.19-.12h-7.97Z"/><path class="cls-6" d="m15.17,11.79c-4.62-.59-5.72,3.69-4.4,6.11,0,0,1.19-.62,1.81-2.19v1.61h1.4l.23-1.76.34,1.76h1.25l.34-1.76.23,1.76h1.4v-1.61c.62,1.57,1.81,2.19,1.81,2.19,1.32-2.43.22-6.7-4.4-6.11"/><path d="m19.57,18.08s-.06,0-.08-.02c-.04-.02-.9-.47-1.55-1.57v.83c0,.1-.08.18-.18.18h-1.4c-.09,0-.17-.07-.18-.16l-.09-.66-.13.68c-.02.08-.09.15-.18.15h-1.25c-.09,0-.16-.06-.18-.15l-.13-.68-.09.66c-.01.09-.09.16-.18.16h-1.4c-.1,0-.18-.08-.18-.18v-.83c-.65,1.1-1.5,1.55-1.55,1.57-.09.04-.19.01-.24-.07-.79-1.45-.71-3.4.2-4.74.89-1.3,2.43-1.88,4.36-1.64,1.92-.24,3.47.35,4.36,1.64.91,1.33.99,3.28.2,4.74-.03.06-.09.09-.16.09m-1.81-2.55c.07,0,.14.04.17.11.46,1.16,1.24,1.78,1.57,2,.64-1.32.53-3.02-.27-4.19-.57-.84-1.74-1.78-4.04-1.49-.01,0-.03,0-.05,0-2.3-.29-3.47.65-4.04,1.49-.8,1.18-.91,2.87-.27,4.19.33-.22,1.11-.84,1.57-2,.03-.08.12-.13.2-.11.08.02.15.09.15.18v1.43h1.06l.21-1.6c.01-.09.08-.15.17-.16.09,0,.16.06.18.15l.31,1.61h.95l.31-1.61c.02-.09.09-.15.18-.15.09,0,.16.07.17.16l.21,1.6h1.06v-1.43c0-.09.06-.16.15-.18.01,0,.02,0,.03,0"/><path d="m13.92,18.16c0,.29-.18.53-.4.53s-.4-.24-.4-.53.18-.53.4-.53.4.24.4.53"/><path d="m17.22,18.16c0,.29-.18.53-.4.53s-.4-.24-.4-.53.18-.53.4-.53.4.24.4.53"/><path d="m15.17,19.91c-.77,0-1.13-.4-1.14-.42-.06-.08-.06-.19.02-.25.07-.06.19-.06.25.02.01.01.27.29.87.29s.87-.29.87-.29c.06-.08.18-.08.25-.02.08.06.08.18.02.25-.01.02-.37.42-1.14.42"/></g></svg>