<?xml version="1.0" encoding="UTF-8"?><svg id="_레이어_1" xmlns="http://www.w3.org/2000/svg" viewBox="0 0 27.79 29.56"><defs><style>.cls-1{fill:#94e8ff;}.cls-2{fill:red;}.cls-3{fill:#0a5733;}.cls-4{fill:#fdc960;}.cls-5{fill:teal;}.cls-6{fill:#707070;}</style></defs><rect class="cls-4" x="22.01" y="9.92" width=".74" height="5.56" transform="translate(-2.42 19.54) rotate(-45)"/><path class="cls-4" d="M26.41,12.6c.18-.18.27-.41.27-.66s-.1-.48-.27-.66l-2.62-2.62c-.36-.36-.95-.36-1.31,0l-1.02,1.02,3.93,3.93,1.02-1.02Z"/><path class="cls-6" d="M11.99,22.84c-.03.1.02.17.05.2.03.03.1.08.2.05l1.14-.31-1.08-1.08-.31,1.14Z"/><rect class="cls-1" x="14.41" y="13.83" width="8.11" height="5.56" transform="translate(-6.34 17.92) rotate(-45)"/><polygon class="cls-4" points="14.62 22.45 16.49 21.94 13.14 18.58 12.63 20.46 13.62 21.45 14.62 22.45"/><path class="cls-2" d="M16.59,7.5s0,0,0,0c.04,0,.07-.01.11-.02-.04.01-.08.02-.11.02Z"/><path class="cls-2" d="M16.5,7.5s0,0,0,0c0,0,.02,0,.03,0-.01,0-.02,0-.03,0Z"/><path class="cls-2" d="M11.03,7.5s0,0,0,0c.04,0,.07-.01.11-.02-.04.01-.08.02-.11.02Z"/><polygon class="cls-2" points="3.24 2.44 3.25 2.44 3.24 2.44 3.24 2.44"/><path class="cls-2" d="M10.94,7.5s0,0,0,0c0,0,.02,0,.03,0-.01,0-.02,0-.03,0Z"/><polygon class="cls-2" points="8.8 2.44 8.8 2.44 8.8 2.44 8.8 2.44"/><path class="cls-2" d="M5.47,7.5s0,0,0,0c.04,0,.07-.01.11-.02-.04.01-.08.02-.11.02Z"/><path class="cls-2" d="M5.38,7.5s0,0,0,0c0,0,.02,0,.03,0-.01,0-.02,0-.03,0Z"/><path class="cls-3" d="M9.6,1.48s0,0,0,0c.02-.02.04-.03.05-.05-.02.02-.04.03-.06.05Z"/><polygon class="cls-3" points="14.56 2.31 14.56 2.31 14.56 2.31 14.56 2.31"/><polygon class="cls-3" points="14.5 2.36 14.5 2.36 14.5 2.37 14.5 2.36"/><path class="cls-3" d="M14.37,2.43s0,0-.01,0t0,0s0,0,.01,0Z"/><path class="cls-3" d="M9.26,1.9s0-.01.01-.02c0,0,0,0,0-.01,0,.01-.01.02-.02.03Z"/><path class="cls-3" d="M8.78,2.45s.01,0,.02,0c0,0,0,0,0,0,0,0-.01,0-.02,0Z"/><path class="cls-3" d="M14.34,2.45s.01,0,.02,0h0s-.01,0-.02,0Z"/><path class="cls-3" d="M14.82,1.9s0,0,0,0c0,0,.01-.02.02-.03,0,.01-.01.02-.02.03Z"/><path class="cls-3" d="M15.16,1.48h0s.04-.04.05-.05c-.02.02-.04.03-.06.05Z"/><polygon class="cls-3" points="8.81 2.43 8.8 2.44 8.8 2.44 8.81 2.43"/><polygon class="cls-3" points="14.36 2.44 14.36 2.44 14.36 2.44 14.36 2.44"/><path class="cls-3" d="M3.22,2.45s.01,0,.02,0c0,0,0,0,0,0,0,0-.01,0-.02,0Z"/><path class="cls-5" d="M.08,26.7c0,.55-.11,1.26.09,1.79.36.95,1.28.97,2.12.97h9.03c2.75,0,5.6.23,8.34,0,1.54-.13,1.52-1.42,1.52-2.62v-4.78c0-.72-1.11-.72-1.11,0v3.51c0,.7.37,2.49-.47,2.77-.58.2-1.58,0-2.18,0H4.24c-.73,0-1.78.2-2.49,0-.63-.18-.55-.51-.55-1.05V7.1c0-.65-.16-1.54,0-2.18.27-1.1,3.24-.57,4.12-.57h1.18c-.14,1-.63,1.82-1.25,2.06-.22.09-.38.29-.38.53,0,.2.11.37.26.47,0,0-.01,0-.02-.01.02.01.03.02.05.03.02.01.04.02.06.03,0,0,.02,0,.03,0,0,0,0,0,0,0,.02,0,.03.01.05.01h0s0,0,0,0c.02,0,.03.01.05.01.02,0,.04,0,.05,0,0,0,0,0,0,0,.01,0,.02,0,.03,0,0,0-.02,0-.03,0,0,0,.02,0,.03,0s.02,0,.03,0c0,0,.01,0,.02,0,0,0,.01,0,.02,0,0,0,0,0,0,0,.04,0,.08-.01.11-.02-.03.01-.07.02-.11.02.04,0,.07-.01.11-.02,0,0,0,0,0,0,1.07-.38,1.86-1.59,2.02-3.12h4.44c-.14,1-.63,1.82-1.25,2.06-.22.09-.38.29-.38.53,0,.2.11.37.26.47,0,0-.01,0-.02-.01.02.01.03.02.05.03.02.01.04.02.06.03,0,0,.02,0,.03,0,0,0,0,0,0,0,.02,0,.03.01.05.01h0s0,0,0,0c.02,0,.03.01.05.01.02,0,.04,0,.05,0,0,0,0,0,0,0,.01,0,.02,0,.03,0,0,0-.02,0-.03,0,0,0,.02,0,.03,0,0,0,.02,0,.03,0,0,0,.01,0,.02,0,0,0,.01,0,.02,0,0,0,0,0,0,0,.04,0,.08-.01.11-.02-.03.01-.07.02-.11.02.04,0,.07-.01.11-.02,0,0,0,0,0,0,1.07-.38,1.86-1.59,2.02-3.12h2.55c.62,0,1.26-.03,1.9-.05-.13,1.02-.63,1.86-1.26,2.1-.22.09-.38.29-.38.53,0,.2.11.37.26.47,0,0-.01,0-.02-.01.02.01.03.02.05.03.02.01.04.02.06.03,0,0,.02,0,.03,0,0,0,0,0,0,0,.02,0,.03.01.05.01,0,0,0,0,0,0,.02,0,.03.01.05.01.02,0,.04,0,.05,0,0,0,0,0,0,0,.01,0,.02,0,.03,0,0,0-.02,0-.03,0,0,0,.02,0,.03,0,0,0,.02,0,.03,0,0,0,.01,0,.02,0,0,0,.01,0,.02,0,0,0,0,0,0,0,.04,0,.08-.01.11-.02-.03.01-.07.02-.11.02.04,0,.07-.01.11-.02,0,0,0,0,0,0,1.08-.38,1.88-1.61,2.02-3.15.15,0,.31.02.46.03.36.04.43-.08.7.2.4.42.18,1.54.18,2.11,0,.72,1.11.72,1.11,0,0-1.27.34-3.11-1.33-3.41-.36-.06-.75-.06-1.13-.04-.2-1.84-1.33-3.22-2.75-3.22-.11,0-.22.01-.33.03,0,0,0,0,0,0,0,0-.02,0-.03,0-.03,0-.07.02-.1.02-.06.01-.12.03-.18.05-.01,0-.03,0-.04.01,0,0-.01,0-.02,0-.03.01-.06.03-.09.04-.05.02-.1.04-.14.06-.02.01-.04.02-.07.03,0,0-.02,0-.03.01-.02.01-.04.03-.06.04-.04.02-.08.05-.13.08-.04.03-.08.05-.12.08,0,0,0,0,0,0-.01,0-.03.02-.04.03,0,0,0,0,0,0-.05.04-.09.08-.14.12.04-.04.08-.08.13-.11-.07.06-.14.12-.21.18-.02.02-.04.04-.07.06-.05.05-.1.11-.15.17.03-.04.07-.07.1-.11-.05.05-.1.11-.15.17,0,0,0,0,0,0,0,0,0,0,0,0,0,0-.02.02-.02.03-.05.07-.11.14-.16.22.03-.05.06-.09.1-.13-.14.18-.26.38-.37.6-.18.37.09.8.5.8h0c.07,0,.13-.02.19-.04,0,0,0,0,0,0,0,0,0,0,.01,0,.01,0,.02,0,.03-.01.01,0,.03-.01.04-.02,0,0,0,0,0,0,.02-.01.04-.02.05-.04.02-.02.04-.03.06-.05.01-.01.03-.03.04-.04.03-.03.06-.07.08-.11,0,0,0,0,0,0,.04-.08.08-.16.13-.23,0-.01.01-.02.02-.03,0,0,0,0,0,0,0-.01.01-.02.02-.03,0,0-.01.02-.02.03.04-.06.08-.12.12-.18,0,0,.01-.02.02-.02,0,0,0,0,0,0,.06-.07.12-.14.18-.2,0,0-.02.01-.02.02.01-.01.02-.02.04-.03h0s.04-.03.06-.05c-.02.02-.04.03-.05.05.06-.06.12-.11.18-.15,0,0,.01,0,.02-.01.14-.09.28-.16.43-.18.06-.01.12-.02.19-.02.79,0,1.47.93,1.63,2.13h-4.44c-.19-1.86-1.33-3.24-2.75-3.24-.11,0-.22.01-.33.03,0,0,0,0,0,0,0,0-.02,0-.03,0-.03,0-.07.02-.1.02-.06.01-.12.03-.18.05-.01,0-.03,0-.04.01,0,0-.01,0-.02,0-.03.01-.06.03-.09.04-.05.02-.1.04-.14.06-.02.01-.04.02-.07.03,0,0-.02,0-.03.01-.02.01-.04.03-.06.04-.04.02-.08.05-.13.08-.04.03-.08.05-.12.08,0,0,0,0,0,0-.01,0-.03.02-.04.03,0,0,0,0,0,0-.05.04-.09.08-.14.12.04-.04.08-.08.13-.11-.07.06-.14.12-.21.18-.02.02-.04.04-.07.06-.05.05-.1.11-.15.17.03-.04.07-.07.1-.11-.05.05-.1.11-.15.17,0,0,0,0,0,0,0,0,0,0,0,0,0,0-.02.02-.02.03-.05.07-.11.14-.16.22.03-.05.06-.09.1-.13-.14.18-.26.38-.37.6-.18.37.09.8.5.8h0c.07,0,.13-.02.19-.04,0,0,0,0,0,0,0,0,0,0,0,0,.01,0,.02,0,.03-.01.01,0,.03-.01.04-.02,0,0,0,0,0,0,.02-.01.04-.03.05-.04,0,0,0,0,0,0,.02-.02.04-.03.06-.05.01-.01.03-.03.04-.04.03-.03.06-.07.08-.11,0,0,0,0,0,0,.04-.08.08-.16.13-.23.01-.02.02-.03.03-.05,0,0,0,.01-.01.02,0-.01.01-.02.02-.03,0,0,0,0,0,.01.04-.06.07-.11.11-.16,0,0,.01-.02.02-.02,0,0,0,0,0,0,.06-.07.12-.14.18-.2,0,0-.02.01-.02.02.01-.01.03-.02.04-.04,0,0,0,0,0,0,.02-.02.04-.04.06-.05-.02.02-.04.03-.05.05.06-.06.12-.1.18-.15,0,0,.01,0,.02-.01.14-.09.28-.16.43-.18.06-.01.12-.02.19-.02.79,0,1.47.93,1.63,2.13h-4c-.15,0-.29,0-.44,0-.19-1.85-1.33-3.24-2.75-3.24-.11,0-.22.01-.33.03,0,0,0,0,0,0,0,0-.02,0-.03,0-.03,0-.07.02-.1.02-.06.01-.12.03-.18.05-.01,0-.03,0-.04.01,0,0-.01,0-.02,0-.03.01-.06.03-.09.04-.05.02-.1.04-.14.06-.02.01-.04.02-.07.03,0,0-.02,0-.03.01-.02.01-.04.03-.06.04-.04.02-.08.05-.13.08-.04.03-.08.05-.12.08,0,0,0,0,0,0-.01,0-.03.02-.04.03,0,0,0,0,0,0-.05.04-.09.08-.14.12.04-.04.08-.08.13-.11-.07.06-.14.12-.21.18-.02.02-.04.04-.07.06-.05.05-.1.11-.15.17.03-.04.07-.07.1-.11-.05.05-.1.11-.15.17,0,0,0,0,0,0,0,0,0,0,0,0,0,0-.02.02-.02.03-.05.07-.11.14-.16.22.03-.05.07-.09.1-.13-.14.18-.26.38-.37.6-.18.37.09.8.5.8h0c.07,0,.13-.02.19-.04,0,0,0,0,0,0,0,0,0,0,0,0,.01,0,.02,0,.03-.01.01,0,.03-.01.04-.02,0,0,0,0,0,0,.02-.01.04-.03.05-.04,0,0,0,0,0,0,.02-.02.04-.03.06-.05.01-.01.03-.03.04-.04.03-.03.06-.07.08-.11,0,0,0,0,0,0,.04-.08.08-.16.13-.23.01-.02.03-.04.04-.06.03-.05.07-.1.1-.15,0,0,.01-.02.02-.02,0,0,0,0,0,0,.06-.07.12-.14.18-.2,0,0-.02.01-.02.02.01-.01.03-.02.04-.04,0,0,0,0,0,0,.02-.02.04-.04.06-.05-.02.02-.04.03-.05.05.06-.06.12-.1.18-.15,0,0,.01,0,.02-.01.14-.09.28-.16.43-.18.06-.01.12-.02.19-.02.78,0,1.45.92,1.62,2.1-1.64-.05-3.33-.14-4.93.03C-.51,3.46.08,6.41.08,7.85v18.85Z"/><path class="cls-3" d="M4.04,1.48s0,0,0,0c.02-.02.04-.03.05-.05-.02.02-.04.03-.06.05Z"/><polygon class="cls-3" points="9 2.31 9 2.31 9 2.31 9 2.31"/><path class="cls-5" d="M11,12.6c-1.56,1.88-3.12,3.77-4.69,5.65-.83-1.09-1.67-2.18-2.5-3.26-.43-.56-1.4,0-.96.56.99,1.29,1.98,2.58,2.96,3.87.2.26.62.42.87.11,1.7-2.05,3.4-4.09,5.1-6.14.45-.55-.33-1.34-.79-.79Z"/><path class="cls-5" d="M12.4,17.42c-.09.09-.16.21-.19.34l-.48,1.8h0s-.81,2.99-.81,2.99c-.12.46,0,.94.34,1.28.25.25.58.39.93.39.12,0,.23-.02.35-.05l1.76-.47,3.03-.82h0c.13-.04.24-.1.34-.19.17-.02.33-.09.46-.22l9.07-9.07c.39-.38.6-.9.6-1.44s-.21-1.06-.6-1.44l-2.62-2.62c-.79-.79-2.09-.79-2.88,0l-9.07,9.07c-.13.13-.2.3-.22.47ZM12.24,23.09c-.1.03-.17-.02-.2-.05-.03-.03-.08-.1-.05-.2l.31-1.14,1.08,1.08-1.14.31ZM22.48,8.67c.36-.36.95-.36,1.31,0l2.62,2.62c.18.18.27.41.27.66s-.1.48-.27.66l-1.02,1.02-3.93-3.93,1.02-1.02ZM20.68,10.47l3.93,3.93-.52.52-3.93-3.93.52-.52ZM19.37,11.78l3.93,3.93-5.73,5.73-3.93-3.93,5.73-5.73ZM13.14,18.58l3.36,3.36-1.88.51-.99-.99-.99-.99.51-1.88Z"/><polygon class="cls-3" points="3.44 2.31 3.44 2.31 3.44 2.31 3.44 2.31"/><polygon class="cls-3" points="3.26 2.43 3.25 2.44 3.24 2.44 3.26 2.43"/></svg>