<?xml version="1.0" encoding="UTF-8"?><svg id="_타이틀" xmlns="http://www.w3.org/2000/svg" xmlns:xlink="http://www.w3.org/1999/xlink" viewBox="0 0 38.07 58.88"><defs><style>.cls-1{fill:#fff;}.cls-2,.cls-3{stroke-linecap:round;stroke-linejoin:round;}.cls-2,.cls-3,.cls-4,.cls-5{fill:none;}.cls-2,.cls-3,.cls-5{stroke:#ccc;}.cls-2,.cls-5{stroke-width:2px;}.cls-3{stroke-width:1.5px;}.cls-6{clip-path:url(#clippath);}.cls-7{fill:#ccc;}</style><clipPath id="clippath"><rect class="cls-4" width="38.07" height="58.88"/></clipPath></defs><g class="cls-6"><path class="cls-7" d="m32.81,11.76c0-5.94-4.82-10.76-10.77-10.76h-6.39c-5.95,0-10.77,4.82-10.77,10.76v10.59h27.92v-10.59Z"/><path class="cls-5" d="m32.81,11.76c0-5.94-4.82-10.76-10.77-10.76h-6.39c-5.95,0-10.77,4.82-10.77,10.76v10.59h27.92v-10.59Z"/><path class="cls-2" d="m37.07,57.88v-3.86c0-8.53-6.59-15.45-14.73-15.45h-6.62c-8.13,0-14.72,6.92-14.72,15.45v3.86h36.07Z"/><path class="cls-7" d="m22.35,38.57c3,0,5.78.95,8.11,2.56v-18.25H7.61v18.25c2.33-1.61,5.11-2.56,8.11-2.56h6.62Z"/><path class="cls-5" d="m22.35,38.57c3,0,5.78.95,8.11,2.56v-18.25H7.61v18.25c2.33-1.61,5.11-2.56,8.11-2.56h6.62Z"/><path class="cls-1" d="m23.99,38.77c0,2.08-2.22,3.76-4.95,3.76s-4.95-1.68-4.95-3.76v-14.26c0-2.08,2.22-3.76,4.95-3.76s4.95,1.69,4.95,3.76v14.26Z"/><path class="cls-2" d="m23.99,38.77c0,2.08-2.22,3.76-4.95,3.76s-4.95-1.68-4.95-3.76v-14.26c0-2.08,2.22-3.76,4.95-3.76s4.95,1.69,4.95,3.76v14.26Z"/><path class="cls-1" d="m9.76,23.92c.29,1.77-.65,3.4-2.09,3.63-1.44.24-2.85-1.01-3.14-2.78-.29-1.77.65-3.4,2.09-3.63s2.85,1.01,3.14,2.78"/><path class="cls-2" d="m9.76,23.92c.29,1.77-.65,3.4-2.09,3.63-1.44.24-2.85-1.01-3.14-2.78-.29-1.77.65-3.4,2.09-3.63s2.85,1.01,3.14,2.78Z"/><path class="cls-1" d="m28.31,23.92c-.29,1.77.65,3.4,2.09,3.63,1.44.24,2.85-1.01,3.14-2.78.29-1.77-.65-3.4-2.09-3.63-1.44-.24-2.85,1.01-3.14,2.78"/><path class="cls-2" d="m28.31,23.92c-.29,1.77.65,3.4,2.09,3.63,1.44.24,2.85-1.01,3.14-2.78.29-1.77-.65-3.4-2.09-3.63-1.44-.24-2.85,1.01-3.14,2.78Z"/><path class="cls-1" d="m7.9,17.48v7.81c0,6.15,4.98,11.13,11.14,11.13s11.13-4.98,11.13-11.13v-11.13c-10.22,4.8-17.65,4.5-22.27,3.32"/><path class="cls-2" d="m7.9,17.48v7.81c0,6.15,4.98,11.13,11.14,11.13s11.13-4.98,11.13-11.13v-11.13c-10.22,4.8-17.65,4.5-22.27,3.32Z"/><path class="cls-1" d="m12.33,24.9v-1.49c0-.89.72-1.62,1.62-1.62s1.62.73,1.62,1.62v1.49"/><path class="cls-3" d="m12.33,24.9v-1.49c0-.89.72-1.62,1.62-1.62s1.62.73,1.62,1.62v1.49"/><path class="cls-1" d="m22.51,24.9v-1.49c0-.89.72-1.62,1.62-1.62s1.62.73,1.62,1.62v1.49"/><path class="cls-3" d="m22.51,24.9v-1.49c0-.89.72-1.62,1.62-1.62s1.62.73,1.62,1.62v1.49"/></g></svg>