<svg width="52" height="52" xmlns="http://www.w3.org/2000/svg" xmlns:xlink="http://www.w3.org/1999/xlink"><defs><path id="a" d="M0 0h52v52H0z"/></defs><g fill="none" fill-rule="evenodd"><mask id="b" fill="#fff"><use xlink:href="#a"/></mask><g mask="url(#b)"><g transform="translate(14 5)"><rect fill="#FFF" width="24" height="42" rx="2"/><g stroke-linejoin="round"><path d="m11.978 13-6.87 2.497C4.46 22.4 6.719 26.902 11.883 29c5.36-1.98 7.693-6.455 6.998-13.426-3.88-1.49-6.182-2.348-6.902-2.574z" stroke="#1D1D1B" fill="#0573E8"/><path stroke="#FFF" stroke-linecap="round" d="m9.073 20.38 2.504 1.85 3.86-3.692"/></g><path d="M3 0h18a3 3 0 0 1 3 3v2H0V3a3 3 0 0 1 3-3zm0 42h18a3 3 0 0 0 3-3v-2H0v2a3 3 0 0 0 3 3z" fill="#A0A0A0"/><rect stroke="#1D1D1B" width="24" height="42" rx="2.158"/><circle fill="#1D1D1B" cx="12.25" cy="39.25" r="1"/><rect fill="#1D1D1B" x="8.5" y="2.2" width="7" height="1" rx=".5"/></g></g></g></svg>