<svg width="64" height="64" xmlns="http://www.w3.org/2000/svg" xmlns:xlink="http://www.w3.org/1999/xlink"><defs><path id="a" d="M0 0h64v64H0z"/></defs><g fill="none" fill-rule="evenodd"><mask id="b" fill="#fff"><use xlink:href="#a"/></mask><path d="M32 9c12.703 0 23 10.297 23 23 0 12.505-9.98 22.679-22.409 22.993l.017.007-.516-.001L32 55l-.002-.001L15.699 55c-1.528 0-2.767-1.258-2.767-2.81l-.018-7.351-.26-.396A22.892 22.892 0 0 1 9 32C9 19.297 19.297 9 32 9Z" stroke="#1D1D1B" stroke-width="2" fill="#7324DA" stroke-linecap="round" stroke-linejoin="round" mask="url(#b)"/><path d="M27.425 37.166c.708 0 1.333-.155 1.876-.465.542-.31.957-.728 1.245-1.255a3.597 3.597 0 0 0 .431-1.753c0-.443-.08-.857-.239-1.242a3.066 3.066 0 0 0-.657-1 3.067 3.067 0 0 0-.973-.66 2.969 2.969 0 0 0-1.192-.239c-.531 0-1.111.168-1.74.505l.379-2.152h3.154c.328 0 .575-.07.744-.212a.694.694 0 0 0 .252-.558c0-.527-.345-.79-1.036-.79h-3.506c-.38 0-.655.086-.824.259-.168.172-.283.449-.345.83l-.558 3.18c-.048.28-.073.43-.073.452 0 .2.084.377.253.535a.82.82 0 0 0 .577.235c.2 0 .453-.116.76-.348.308-.233.544-.395.708-.488.164-.093.436-.14.817-.14.31 0 .59.074.843.223.252.148.454.373.604.674.15.3.226.664.226 1.089 0 .394-.07.746-.209 1.056a1.73 1.73 0 0 1-.594.73 1.54 1.54 0 0 1-.897.266c-.372 0-.708-.11-1.01-.33-.3-.218-.54-.525-.716-.919-.182-.43-.459-.644-.83-.644a.708.708 0 0 0-.542.232c-.144.155-.216.32-.216.492 0 .283.103.614.31.993.205.378.555.714 1.048 1.006.494.292 1.137.438 1.93.438Zm9.362 0c.641 0 1.235-.073 1.78-.22a7.885 7.885 0 0 0 1.7-.696c.203-.111.37-.226.5-.346a.955.955 0 0 0 .27-.401c.048-.149.073-.347.073-.595v-1.866c0-.336-.06-.589-.176-.757a.787.787 0 0 0-.462-.325 2.855 2.855 0 0 0-.697-.073h-2.238c-.27 0-.484.07-.64.212a.693.693 0 0 0-.237.538c0 .266.094.454.283.565.188.11.466.166.833.166h1.527v1.58a6.508 6.508 0 0 1-1.218.511c-.4.12-.83.18-1.285.18-.939 0-1.67-.308-2.195-.923-.525-.616-.787-1.495-.787-2.637 0-.527.068-1.007.203-1.44.135-.435.33-.8.584-1.1.255-.299.561-.527.92-.684a3.016 3.016 0 0 1 1.222-.235c.442 0 .807.066 1.092.199.286.133.512.296.68.491.169.195.375.483.618.863a.927.927 0 0 0 1.398.117.844.844 0 0 0 .276-.635c0-.23-.08-.493-.24-.79a2.946 2.946 0 0 0-.71-.843c-.314-.266-.724-.486-1.228-.66-.505-.176-1.085-.263-1.74-.263-.797 0-1.51.116-2.139.348a4.372 4.372 0 0 0-1.6 1.007c-.438.438-.77.971-.996 1.6a6.11 6.11 0 0 0-.339 2.078c0 .77.117 1.468.349 2.092a4.427 4.427 0 0 0 1 1.594c.433.438.958.772 1.573 1.003.616.23 1.297.345 2.046.345Z" fill="#FFF" fill-rule="nonzero" mask="url(#b)"/></g></svg>