<svg width="56" height="56" xmlns="http://www.w3.org/2000/svg" xmlns:xlink="http://www.w3.org/1999/xlink"><defs><path id="a" d="M0 0h32v32H0z"/></defs><g fill="none" fill-rule="evenodd"><circle stroke="#EAEAEA" fill="#FFF" cx="28" cy="28" r="27.5"/><g transform="translate(12 12)"><mask id="b" fill="#fff"><use xlink:href="#a"/></mask><g mask="url(#b)" stroke="#1D1D1B"><g transform="translate(4 4)"><rect fill="#36E970" x="1" y="9" width="22" height="13" rx=".88"/><rect fill="#36E970" y="5" width="24" height="5" rx=".8"/><path d="m9.135.5.2.01a2.823 2.823 0 0 1 1.816.872c.823.868.888 2.769.869 3.674-.922-.076-2.906-.313-4.047-1.004-.633-.383-1-.929-1.08-1.492a1.628 1.628 0 0 1 .592-1.502C7.995.636 8.667.454 9.335.51z"/><path d="m14.865.5-.2.01a2.823 2.823 0 0 0-1.816.872c-.695.732-.829 2.216-.855 3.19.596.255.973.265 1.384.23.895-.076 1.94-.32 2.649-.75.633-.383 1-.929 1.08-1.492a1.628 1.628 0 0 0-.592-1.502c-.51-.422-1.182-.604-1.85-.548z"/><path fill="#FFF" stroke-linejoin="round" d="M10 5h4v17h-4z"/></g></g></g></g></svg>