<svg width="56" height="56" xmlns="http://www.w3.org/2000/svg" xmlns:xlink="http://www.w3.org/1999/xlink"><defs><circle id="a" cx="28" cy="28" r="28"/></defs><g fill="none" fill-rule="evenodd"><mask id="b" fill="#fff"><use xlink:href="#a"/></mask><use fill="#0C071D" xlink:href="#a"/><g mask="url(#b)"><path d="M28 12.32c8.66 0 15.68 7.02 15.68 15.68S36.66 43.68 28 43.68a15.61 15.61 0 0 1-7.496-1.904l-3.065 1.543a.646.646 0 0 1-.913-.75l.848-3.038A15.638 15.638 0 0 1 12.32 28c0-8.66 7.02-15.68 15.68-15.68z" fill="#FFF"/><path d="M24.21 33.214v-8.79h-2.134l-2.167 1.33v1.974l1.936-1.167h.051v6.653h2.314zm3.936-5.198c.206 0 .399-.053.58-.159a1.204 1.204 0 0 0 .596-1.017 1.119 1.119 0 0 0-.17-.582 1.239 1.239 0 0 0-.431-.425 1.172 1.172 0 0 0-1.17 0 1.176 1.176 0 0 0-.431.423 1.088 1.088 0 0 0-.155.584c-.003.214.049.412.155.592s.25.323.431.427c.182.105.38.157.595.157zm0 4.236c.206 0 .399-.053.58-.159a1.204 1.204 0 0 0 .596-1.017 1.119 1.119 0 0 0-.17-.581 1.239 1.239 0 0 0-.431-.425 1.172 1.172 0 0 0-1.17 0 1.176 1.176 0 0 0-.431.422 1.088 1.088 0 0 0-.155.584c-.003.215.049.412.155.592a1.18 1.18 0 0 0 1.026.584zm7.537.962v-8.79H33.55l-2.168 1.33v1.974l1.936-1.167h.051v6.653h2.314z" fill="#0C071D" fill-rule="nonzero"/></g></g></svg>