<svg width="52" height="52" xmlns="http://www.w3.org/2000/svg" xmlns:xlink="http://www.w3.org/1999/xlink"><defs><path id="a" d="M0 0h52v52H0z"/></defs><g fill="none" fill-rule="evenodd"><mask id="b" fill="#fff"><use xlink:href="#a"/></mask><g mask="url(#b)"><g transform="translate(14 5)"><rect fill="#FFF" width="24" height="42" rx="2"/><path d="M6.802 27.987a1.95 1.95 0 1 0 0-3.9 1.95 1.95 0 0 0 0 3.9z" fill="#1D1D1B"/><path fill="#0573E8" d="m8.643 15.086 8.46-1.53v3.518l-8.46 1.738z"/><path d="M15.904 26.683a1.95 1.95 0 1 0 0-3.9 1.95 1.95 0 0 0 0 3.9z" fill="#1D1D1B"/><path d="M8.25 26.043V15.31c0-.324.23-.603.548-.664l7.748-1.491a.676.676 0 0 1 .804.664v10.775h0M8.5 19.261l8.75-1.778" stroke="#1D1D1B" stroke-linecap="round" stroke-linejoin="round"/><path d="M3 0h18a3 3 0 0 1 3 3v2H0V3a3 3 0 0 1 3-3zm0 42h18a3 3 0 0 0 3-3v-2H0v2a3 3 0 0 0 3 3z" fill="#A0A0A0"/><rect stroke="#1D1D1B" width="24" height="42" rx="2.158"/><circle fill="#1D1D1B" cx="12.25" cy="39.25" r="1"/><rect fill="#1D1D1B" x="8.5" y="2.2" width="7" height="1" rx=".5"/></g></g></g></svg>