<svg width="96" height="96" xmlns="http://www.w3.org/2000/svg" xmlns:xlink="http://www.w3.org/1999/xlink"><defs><path id="a" d="M0 0h96v96H0z"/></defs><g fill="none" fill-rule="evenodd"><mask id="b" fill="#fff"><use xlink:href="#a"/></mask><g mask="url(#b)"><path d="M69.526 26.875c7.559 6.88 11.377 14.338 11.456 22.373.078 8.035-3.182 16.087-9.782 24.158L63.601 66.3c3.607-4.545 5.382-9.756 5.324-15.632-.057-5.876-2.544-11.17-7.461-15.88l8.062-7.914z" fill="#FF3C3C"/><path d="m25.152 27.688 7.513 8.229c-4.38 3.503-6.541 8.32-6.481 14.452.06 6.132 1.91 11.274 5.553 15.427l-8.193 7.61c-6.046-6.806-9.109-14.247-9.188-22.325-.079-8.078 3.52-15.876 10.796-23.393z" fill="#FAB74B"/><path d="M47.924 17.985c9.567 0 17.163 3.234 22.788 9.703l-7.505 8.379c-3.835-4-8.93-6.137-15.283-6.41-6.354-.273-11.565 1.92-15.634 6.581l-7.714-7.71c5.998-7.029 13.78-10.543 23.348-10.543z" fill="#FF5100"/><path d="M80.982 50.669c0 9.031-3.734 17.207-9.77 23.123l-7.589-7.912c7.772-8.365 7.464-21.576-.832-29.872-8.484-8.484-22.11-8.614-30.435-.29-8.124 8.124-8.196 21.299-.308 29.814l-7.923 8.26c-6.035-5.916-9.769-14.092-9.769-23.123 0-18.051 14.915-32.684 33.313-32.684 18.398 0 33.313 14.633 33.313 32.684z" stroke="#1D1D1B" stroke-width="2" stroke-linejoin="round"/><path d="m66.727 32.343-15.672 21.22L45.347 48l20.3-16.682a.75.75 0 0 1 1.08 1.025z" fill="#1D1D1B"/><path d="M71.545 64.86c3.707-5.547 4.585-12.62 2.637-21.218" stroke="#1D1D1B" stroke-width="2" stroke-linecap="round" stroke-linejoin="round"/></g><circle stroke="#1D1D1B" stroke-width="2" fill="#FFF" mask="url(#b)" cx="48" cy="51" r="3"/></g></svg>