<svg width="118" height="26" xmlns="http://www.w3.org/2000/svg" xmlns:xlink="http://www.w3.org/1999/xlink"><defs><path id="a" d="M0 0h118v26H0z"/><path id="c" d="M0 0h3.863v3.865H0z"/><path id="e" d="M0 0h117v18.115H0z"/></defs><g fill="none" fill-rule="evenodd"><mask id="b" fill="#fff"><use xlink:href="#a"/></mask><use fill-opacity="0" fill="#FFF" xlink:href="#a"/><g mask="url(#b)"><g transform="translate(7.85 2)"><mask id="d" fill="#fff"><use xlink:href="#c"/></mask><path d="M3.863 1.932A1.932 1.932 0 1 1 0 1.934a1.932 1.932 0 0 1 3.864-.002" fill="#A5CD38" mask="url(#d)"/></g><path d="M7.056 5.823a1.93 1.93 0 1 1-3.863 0c0-1.067.864-1.934 1.933-1.934 1.065 0 1.93.867 1.93 1.934" fill="#75BDE8"/><path d="M12.546 5.746a1.93 1.93 0 0 0 1.93 1.93 1.93 1.93 0 1 0 0-3.864c-1.065 0-1.93.865-1.93 1.934" fill="#F89C1C"/><g transform="translate(0 3.885)"><mask id="f" fill="#fff"><use xlink:href="#e"/></mask><path d="M56.282 8.251v6.26h3.296V8.54c0-.547.096-1.178.412-1.652.316-.467.83-.811 1.787-.815 1.455 0 1.513-1.291 1.513-1.489v-1.57h-1.987c-5.191 0-5.021 5.236-5.021 5.236zm-38.968.736A1.783 1.783 0 0 0 15.16 10.3l-.007.031a5.54 5.54 0 0 1-5.371 4.216 5.538 5.538 0 0 1-5.372-4.222l-.005-.027a1.788 1.788 0 0 0-2.157-1.311 1.786 1.786 0 0 0-1.312 2.158c.958 3.997 4.553 6.97 8.846 6.97 4.292 0 7.887-2.973 8.845-6.97a1.785 1.785 0 0 0-1.312-2.158zm84.4 1.363s-.932.926-2.455.926h-.002c-.75 0-1.42-.304-1.794-.783a2.994 2.994 0 0 1-.662-1.854c0-.715.235-1.375.662-1.857.427-.481 1.044-.781 1.794-.781s1.368.3 1.793.781c.428.482.665 1.142.665 1.857v1.71zm-2.522-7.676c-1.63 0-3.088.614-4.135 1.69-1.046 1.077-1.678 2.61-1.676 4.434 0 1.536.405 2.96 1.28 4.01.871 1.052 2.216 1.702 4.013 1.702a4.85 4.85 0 0 0 1.94-.43c.39-.175.74-.393 1.02-.648v1.09h3.291v-6.68c.002-1.488-.452-2.79-1.48-3.71-1.025-.921-2.492-1.458-4.253-1.458zM91.778.506h-3.282v10.89s.001.068-.062.078c-.055.009-.076-.055-.076-.055l-1.98-4.657s-.546-1.397-1.842-1.432h-.046c-1.295.035-1.842 1.432-1.842 1.432l-1.98 4.657s-.02.064-.075.055c-.064-.01-.06-.078-.06-.078L80.53 2.3c0-1.87-1.795-1.795-1.795-1.795H77.25v10.541s-.201 3.225 2.418 3.609c2.815.416 3.854-2.325 3.854-2.325l.969-2.498.884 2.808s.97 2.676 4.054 2.015c2.604-.556 2.35-3.609 2.35-3.609V.507zM35.265 9.914c-.037-1.267-.486-2.187-1.25-2.84-.76-.652-1.81-1.047-3.06-1.361-1.041-.256-1.606-.444-1.996-.662 0 0-.694-.323-.451-1.18.22-.777 1.551-.79 1.551-.79.664-.02 1.405.126 2.055.376 0 0 1.446.666 2.246-.903l.562-1.092-.135-.103C33.687.538 31.85-.037 30.26.002c-.176.007-.35.018-.523.038-1.29.162-2.41.631-3.205 1.402-.8.764-1.394 1.838-1.377 3.136l.001.041.002.095c.03 1.382.606 2.353 1.43 2.922.766.528 1.857.922 3.08 1.244 1.79.472 2.492 1.075 2.33 1.765-.16.693-.89.965-1.618.986-1.845.052-3.739-1.574-3.739-1.574l-1.893 2.665s2.554 2.193 5.753 2.095c1.365-.04 2.574-.538 3.438-1.366.862-.829 1.366-2.013 1.328-3.464l-.003-.035v-.038zm4.655-7.848s.038-1.56-1.567-1.56h-1.755v9.822c.001 1.23.206 2.27.79 3.018.584.752 1.537 1.164 2.91 1.164h2.15v-3.077h-1.726c-.251 0-.437-.08-.572-.231-.136-.155-.23-.405-.23-.774V6.072l2.527.002v-3.06H39.92v-.948zm11.144 8.567c-.45.489-1.104.793-1.897.79h-.002c-.795.003-1.448-.301-1.898-.79-.451-.485-.702-1.151-.702-1.875s.25-1.391.702-1.878c.45-.489 1.103-.79 1.898-.79.794 0 1.448.301 1.899.79.452.487.701 1.154.701 1.878s-.25 1.39-.701 1.875zm-1.899-7.838c-1.773 0-3.235.678-4.243 1.766-1.009 1.089-1.569 2.58-1.569 4.196 0 1.618.56 3.11 1.569 4.196 1.008 1.09 2.47 1.771 4.243 1.769h.004c1.771 0 3.23-.679 4.24-1.769 1.009-1.086 1.568-2.578 1.568-4.196 0-1.616-.559-3.107-1.568-4.196-1.01-1.088-2.472-1.766-4.244-1.766zm64.518.22V8.8s-.031 1.722-1.872 1.722c-1.84 0-1.863-1.722-1.863-1.722V4.87c0-1.853-1.85-1.857-1.85-1.857h-1.457V9.11s-.114 2.739 2.614 3.763c2.465.928 4.432-.119 4.432-.119s-.03 1.65-1.801 1.924c-1.831.279-3.233-.872-3.233-.872l-1.562 2.482s1.844 1.377 4.74 1.272c1.508-.052 2.762-.536 3.723-1.43.955-.885 1.449-2.254 1.446-3.464v-9.65h-3.317zM71.528 8.8s-.032 1.722-1.87 1.722c-1.841 0-1.866-1.722-1.866-1.722V4.87c0-1.853-1.85-1.857-1.85-1.857h-1.456V9.11s-.114 2.739 2.616 3.763c2.463.928 4.43-.119 4.43-.119s-.03 1.65-1.8 1.924c-1.833.279-3.234-.872-3.234-.872l-1.563 2.482s1.845 1.377 4.738 1.272c1.512-.052 2.766-.536 3.725-1.43.957-.885 1.45-2.254 1.448-3.464v-9.65h-3.318V8.8zm-53.9-4.788a1.932 1.932 0 1 0 .005 3.869 1.932 1.932 0 0 0-.005-3.87zM3.864 5.945a1.933 1.933 0 1 0-3.865 0 1.933 1.933 0 0 0 3.865 0z" fill="#F16522" mask="url(#f)"/></g></g></g></svg>