<svg width="64" height="64" xmlns="http://www.w3.org/2000/svg" xmlns:xlink="http://www.w3.org/1999/xlink"><defs><path id="a" d="M0 0h64v64H0z"/><path d="M0 0h34v20.7a1.3 1.3 0 0 1-1.3 1.3H1.3A1.3 1.3 0 0 1 0 20.7V0z" id="c"/><rect id="e" x="0" y="0" width="42" height="14.3" rx="1.3"/></defs><g fill="none" fill-rule="evenodd"><mask id="b" fill="#fff"><use xlink:href="#a"/></mask><g mask="url(#b)"><g transform="translate(11 6)"><g transform="translate(4 29)"><mask id="d" fill="#fff"><use xlink:href="#c"/></mask><path stroke="#1D1D1B" stroke-width="2" d="M35-1v21.7c0 .635-.257 1.21-.674 1.626A2.293 2.293 0 0 1 32.7 23H1.3c-.635 0-1.21-.257-1.626-.674A2.293 2.293 0 0 1-1 20.7V-1h36z"/><path stroke="#1D1D1B" stroke-width="2" fill="#E9E9E9" mask="url(#d)" d="M8 0h18v23H8z"/></g><path stroke="#1D1D1B" stroke-width="2" fill="#FB735F" d="M12 32h18v8H12z"/><g transform="translate(0 18.2)"><mask id="f" fill="#fff"><use xlink:href="#e"/></mask><rect stroke="#1D1D1B" stroke-width="2" x="-1" y="-1" width="44" height="16.3" rx="1.3"/><path fill="#E73939" mask="url(#f)" d="M-1-.2h44v6H-1z"/><path fill="#FAB74B" mask="url(#f)" d="M-1 8.8h44v6H-1z"/></g><path d="M21 .755c1.341 0 2.683.511 3.707 1.534a5.875 5.875 0 0 1 1.712 3.745 5.875 5.875 0 0 1-1.161 3.951l-3.69 4.924-4.784-4.868a5.875 5.875 0 0 1-1.203-4.007 5.875 5.875 0 0 1 1.712-3.745A5.229 5.229 0 0 1 21 .755z" stroke="#1D1D1B" stroke-width="2" fill="#FAB74B"/><circle fill="#FFF" cx="21" cy="6" r="2"/></g></g></g></svg>