<svg width="96" height="96" xmlns="http://www.w3.org/2000/svg" xmlns:xlink="http://www.w3.org/1999/xlink"><defs><path id="a" d="M0 0h96v96H0z"/></defs><g fill="none" fill-rule="evenodd"><mask id="b" fill="#fff"><use xlink:href="#a"/></mask><g mask="url(#b)"><g transform="rotate(45 16.308 72.299)"><rect stroke="#1D1D1B" stroke-width="2" fill="#0573E8" width="36" height="64" rx="4"/><path fill="#FFF" d="M1 10h34l-.018 45H1.002z"/><rect fill="#1D1D1B" x="12" y="4.5" width="12" height="2" rx="1"/></g></g><g mask="url(#b)" stroke-linejoin="round" stroke="#1D1D1B" stroke-width="2"><path d="M64.5 48a8.396 8.396 0 0 1 5.034 15.116C75.624 65.378 80 71.636 80 79H49c0-7.365 4.377-13.622 10.466-15.886A8.396 8.396 0 0 1 64.5 48z" fill="#FAB74B"/><path d="M61.682 58.23c.94.45 1.879.676 2.818.676.94 0 1.879-.225 2.818-.675" stroke-linecap="round"/></g></g></svg>