<svg width="52" height="52" xmlns="http://www.w3.org/2000/svg" xmlns:xlink="http://www.w3.org/1999/xlink"><defs><path id="a" d="M0 0h52v52H0z"/></defs><g fill="none" fill-rule="evenodd"><mask id="b" fill="#fff"><use xlink:href="#a"/></mask><g mask="url(#b)"><g transform="translate(14 5)"><rect fill="#FFF" width="24" height="42" rx="2"/><path d="M3 0h18a3 3 0 0 1 3 3v2H0V3a3 3 0 0 1 3-3zm0 42h18a3 3 0 0 0 3-3v-2H0v2a3 3 0 0 0 3 3z" fill="#A0A0A0"/><rect stroke="#1D1D1B" width="24" height="42" rx="2.158"/><circle fill="#1D1D1B" cx="12.25" cy="39.25" r="1"/><rect fill="#1D1D1B" x="8.5" y="2.2" width="7" height="1" rx=".5"/></g></g><path d="M22.886 24.71a1.475 1.475 0 0 1-.177-.412c.805-.36 1.294-.593 1.466-.7.257-.158.516-.5.287-1.263-.23-.763-1.77-3.04-2.992-3.73s-3.394 2.2-3.454 3.353c-.06 1.154-.01 1.768 1.32 3.822.888 1.37 2.012 2.646 3.373 3.831 3.1 2.593 5.529 3.889 7.286 3.889 2.636 0 4.872-2.406 3.672-3.581-1.2-1.176-2.355-1.96-3.604-2.436-.832-.318-1.425-.103-1.778.644l-.458.949c-1.278-.728-2.136-1.284-2.573-1.67a11.508 11.508 0 0 1-2.368-2.696z" stroke="#1D1D1B" fill="#00C3BD" stroke-linecap="round" stroke-linejoin="round" mask="url(#b)"/></g></svg>