<?xml version="1.0" encoding="utf-8"?>
<!-- Generator: Adobe Illustrator 27.1.1, SVG Export Plug-In . SVG Version: 6.00 Build 0)  -->
<svg version="1.1" id="레이어_1" xmlns="http://www.w3.org/2000/svg" xmlns:xlink="http://www.w3.org/1999/xlink" x="0px"
	 y="0px" viewBox="0 0 64 64" style="enable-background:new 0 0 64 64;" xml:space="preserve">
<style type="text/css">
	.st0{filter:url(#Adobe_OpacityMaskFilter);}
	.st1{fill-rule:evenodd;clip-rule:evenodd;fill:#FFFFFF;}
	.st2{mask:url(#b_00000163044160618695134110000018065164115115972252_);fill:#B5B5B5;}
	.st3{filter:url(#Adobe_OpacityMaskFilter_00000162319737609949052590000004775932628934062006_);}
	.st4{mask:url(#b_00000055680491514664123380000001963536242481689527_);fill:#B5B5B5;}
	.st5{fill-rule:evenodd;clip-rule:evenodd;fill:#B5B5B5;}
	.st6{filter:url(#Adobe_OpacityMaskFilter_00000162319652562028739870000009578227524725579663_);}
	.st7{mask:url(#b_00000050636867274787855330000011158351646248276644_);fill-rule:evenodd;clip-rule:evenodd;fill:#FFFFFF;}
</style>
<g>
	<defs>
		<filter id="Adobe_OpacityMaskFilter" filterUnits="userSpaceOnUse" x="19.6" y="9.2" width="14.4" height="12.9">
			<feColorMatrix  type="matrix" values="1 0 0 0 0  0 1 0 0 0  0 0 1 0 0  0 0 0 1 0"/>
		</filter>
	</defs>
	
		<mask maskUnits="userSpaceOnUse" x="19.6" y="9.2" width="14.4" height="12.9" id="b_00000163044160618695134110000018065164115115972252_">
		<g class="st0">
			<path id="a_00000124870909744505839650000010885915555229947527_" class="st1" d="M64.5,67H-0.4V2.1h64.9V67z"/>
		</g>
	</mask>
	<path class="st2" d="M31.5,22.2c-2.4,0-6.3-0.6-8.7-2.1c-1.7-1-2.9-2.7-3.1-4.4l0,0c-0.3-1.8,0.4-3.6,1.9-4.8
		c1.4-1.2,3.2-1.7,5.2-1.6c1.9,0.2,3.6,1,4.9,2.4c1.5,1.6,2.3,4.4,2.3,8.5l0,1.9l-1.9,0.1C31.9,22.1,31.7,22.2,31.5,22.2z
		 M23.6,15.1c0.1,0.6,0.5,1.2,1.3,1.6c1.3,0.8,3.4,1.2,5.1,1.4c-0.2-2.5-0.8-3.4-1.1-3.8c-0.6-0.7-1.5-1.1-2.4-1.2
		c-0.9-0.1-1.7,0.2-2.3,0.7C23.7,14.2,23.5,14.6,23.6,15.1z"/>
	<defs>
		
			<filter id="Adobe_OpacityMaskFilter_00000139279181856772933910000014032138496931977151_" filterUnits="userSpaceOnUse" x="30" y="9.2" width="14.4" height="12.9">
			<feColorMatrix  type="matrix" values="1 0 0 0 0  0 1 0 0 0  0 0 1 0 0  0 0 0 1 0"/>
		</filter>
	</defs>
	
		<mask maskUnits="userSpaceOnUse" x="30" y="9.2" width="14.4" height="12.9" id="b_00000055680491514664123380000001963536242481689527_">
		<g style="filter:url(#Adobe_OpacityMaskFilter_00000139279181856772933910000014032138496931977151_);">
			<path id="a_00000121243320053726531560000015063181730858064289_" class="st1" d="M-0.5,2.1h64.9V67H-0.5V2.1z"/>
		</g>
	</mask>
	<path class="st4" d="M32.5,22.2c-0.2,0-0.4,0-0.6,0L30,22l0-1.9c0-4.1,0.8-6.9,2.3-8.5c1.3-1.4,3.1-2.2,4.9-2.4
		c1.9-0.2,3.8,0.4,5.2,1.6l0,0c1.5,1.2,2.2,3,1.9,4.8c-0.3,1.8-1.4,3.4-3.1,4.4C38.7,21.6,34.8,22.2,32.5,22.2z M37.9,13.2
		c-0.1,0-0.2,0-0.3,0c-0.9,0.1-1.8,0.5-2.4,1.2c-0.4,0.4-0.9,1.3-1.1,3.8c1.7-0.2,3.8-0.7,5.1-1.4c0.7-0.4,1.2-1,1.3-1.6
		c0.1-0.5-0.1-0.9-0.5-1.2C39.4,13.4,38.6,13.2,37.9,13.2z"/>
	<g>
		<path class="st5" d="M49.9,34.4H14.1c-2.5,0-4.5,2-4.5,4.5v11.4c0,2.5,2,4.5,4.5,4.5h35.7c2.5,0,4.5-2,4.5-4.5V38.9
			C54.3,36.4,52.3,34.4,49.9,34.4z"/>
		<path class="st5" d="M51.9,20.3H12.1c-2.5,0-4.5,2-4.5,4.5V26c0,2.5,2,4.5,4.5,4.5h39.8c2.5,0,4.5-2,4.5-4.5v-1.2
			C56.3,22.3,54.3,20.3,51.9,20.3z"/>
		<defs>
			
				<filter id="Adobe_OpacityMaskFilter_00000056415024643321429290000017308294388766932396_" filterUnits="userSpaceOnUse" x="29.2" y="20.3" width="5.5" height="34.5">
				<feColorMatrix  type="matrix" values="1 0 0 0 0  0 1 0 0 0  0 0 1 0 0  0 0 0 1 0"/>
			</filter>
		</defs>
		
			<mask maskUnits="userSpaceOnUse" x="29.2" y="20.3" width="5.5" height="34.5" id="b_00000050636867274787855330000011158351646248276644_">
			<g style="filter:url(#Adobe_OpacityMaskFilter_00000056415024643321429290000017308294388766932396_);">
				<path id="a_00000042716718891829203380000009992019551646908325_" class="st1" d="M9.9,2.1h44.3V67H9.9V2.1z"/>
			</g>
		</mask>
		<path class="st7" d="M29.2,20.3h5.5v34.5h-5.5V20.3z"/>
	</g>
</g>
</svg>
