<?xml version="1.0" encoding="utf-8"?>
<!-- Generator: Adobe Illustrator 27.1.1, SVG Export Plug-In . SVG Version: 6.00 Build 0)  -->
<svg version="1.1" id="레이어_1" xmlns="http://www.w3.org/2000/svg" xmlns:xlink="http://www.w3.org/1999/xlink" x="0px"
	 y="0px" viewBox="0 0 32 32" style="enable-background:new 0 0 32 32;" xml:space="preserve">
<style type="text/css">
	.st0{fill:#99E7E5;}
	.st1{fill:#1D1D1B;}
	.st2{fill:#FFFFFF;}
	.st3{fill:none;}
</style>
<g>
	<g>
		<rect x="2" y="5.6" class="st0" width="27.8" height="19.9"/>
		<path class="st1" d="M29.9,26.2H2c-0.3,0-0.6-0.3-0.6-0.6v-20C1.4,5.3,1.7,5,2,5h27.8c0.3,0,0.6,0.3,0.6,0.6v19.9
			C30.5,25.8,30.3,26.2,29.9,26.2z M2.6,25h26.7V6.3H2.6V25z"/>
	</g>
	<g>
		<polygon class="st2" points="19.9,15.6 12.9,11.5 12.9,19.8 		"/>
		<path class="st1" d="M12.9,20.3c-0.1,0-0.2,0-0.3-0.1c-0.2-0.1-0.3-0.3-0.3-0.5v-8.1c0-0.2,0.1-0.4,0.3-0.5s0.4-0.1,0.6,0l7.1,4.1
			c0.2,0.1,0.3,0.3,0.3,0.5c0,0.2-0.1,0.4-0.3,0.5l-7.1,4C13,20.3,13,20.3,12.9,20.3z M13.4,12.4v6.2l5.4-3.1L13.4,12.4z"/>
	</g>
	<g>
		<line class="st3" x1="5.2" y1="9.6" x2="6.1" y2="9.6"/>
		<path class="st1" d="M6.1,10H5.2c-0.3,0-0.6-0.3-0.6-0.6s0.3-0.6,0.6-0.6h0.9c0.3,0,0.6,0.3,0.6,0.6C6.7,9.8,6.4,10,6.1,10z"/>
	</g>
	<g>
		<line class="st3" x1="5.2" y1="12.5" x2="6.1" y2="12.5"/>
		<path class="st1" d="M6.1,13.2H5.2c-0.3,0-0.6-0.3-0.6-0.6S4.9,12,5.2,12h0.9c0.3,0,0.6,0.3,0.6,0.6C6.7,12.8,6.4,13.2,6.1,13.2z"
			/>
	</g>
	<g>
		<line class="st3" x1="5.2" y1="15.6" x2="6.1" y2="15.6"/>
		<path class="st1" d="M6.1,16.2H5.2c-0.3,0-0.6-0.3-0.6-0.6c0-0.3,0.3-0.6,0.6-0.6h0.9c0.3,0,0.6,0.3,0.6,0.6
			C6.7,15.8,6.4,16.2,6.1,16.2z"/>
	</g>
	<g>
		<line class="st3" x1="5.2" y1="18.7" x2="6.1" y2="18.7"/>
		<path class="st1" d="M6.1,19.3H5.2c-0.3,0-0.6-0.3-0.6-0.6c0-0.3,0.3-0.6,0.6-0.6h0.9c0.3,0,0.6,0.3,0.6,0.6
			C6.7,19,6.4,19.3,6.1,19.3z"/>
	</g>
	<g>
		<line class="st3" x1="5.2" y1="21.7" x2="6.1" y2="21.7"/>
		<path class="st1" d="M6.1,22.2H5.2c-0.3,0-0.6-0.3-0.6-0.6c0-0.3,0.3-0.6,0.6-0.6h0.9c0.3,0,0.6,0.3,0.6,0.6
			C6.7,22,6.4,22.2,6.1,22.2z"/>
	</g>
	<g>
		<line class="st3" x1="26.8" y1="9.6" x2="25.9" y2="9.6"/>
		<path class="st1" d="M26.8,10h-0.9c-0.3,0-0.6-0.3-0.6-0.6s0.3-0.6,0.6-0.6h0.9c0.3,0,0.6,0.3,0.6,0.6C27.4,9.8,27.1,10,26.8,10z"
			/>
	</g>
	<g>
		<line class="st3" x1="26.8" y1="12.5" x2="25.9" y2="12.5"/>
		<path class="st1" d="M26.8,13.2h-0.9c-0.3,0-0.6-0.3-0.6-0.6s0.3-0.6,0.6-0.6h0.9c0.3,0,0.6,0.3,0.6,0.6
			C27.4,12.8,27.1,13.2,26.8,13.2z"/>
	</g>
	<g>
		<line class="st3" x1="26.8" y1="15.6" x2="25.9" y2="15.6"/>
		<path class="st1" d="M26.8,16.2h-0.9c-0.3,0-0.6-0.3-0.6-0.6c0-0.3,0.3-0.6,0.6-0.6h0.9c0.3,0,0.6,0.3,0.6,0.6
			C27.4,15.8,27.1,16.2,26.8,16.2z"/>
	</g>
	<g>
		<line class="st3" x1="26.8" y1="18.7" x2="25.9" y2="18.7"/>
		<path class="st1" d="M26.8,19.3h-0.9c-0.3,0-0.6-0.3-0.6-0.6c0-0.3,0.3-0.6,0.6-0.6h0.9c0.3,0,0.6,0.3,0.6,0.6
			C27.4,19,27.1,19.3,26.8,19.3z"/>
	</g>
	<g>
		<line class="st3" x1="26.8" y1="21.7" x2="25.9" y2="21.7"/>
		<path class="st1" d="M26.8,22.2h-0.9c-0.3,0-0.6-0.3-0.6-0.6s0.3-0.6,0.6-0.6h0.9c0.3,0,0.6,0.3,0.6,0.6
			C27.4,22,27.1,22.2,26.8,22.2z"/>
	</g>
</g>
</svg>
