<svg width="24" height="24" xmlns="http://www.w3.org/2000/svg"><g fill="none" fill-rule="evenodd"><path d="M0 0h24v24H0z"/><path fill="#FFF" d="m3.987 8.601.51-2.673L7.184 3.5l2.56 2.428 1.133 2.949-2.031 1.102 2.28 3.539 3.002 1.799 1.314-1.8 1.872.516 3.185 2.315v1.823l-3.51 2.09-3.513-.63-6.292-5.324z"/><path d="M8.985 10.252c.266-.178.937-.628.7-1.48-.238-.854-1.827-3.398-3.088-4.169-.918-.56-2.356.998-3.094 2.385-.104.194 2.881 6.516 5.344 8.927 4.099 4.014 8.656 4.828 9.102 4.53 1.342-.9 2.045-2.343 1.236-3.2-1.239-1.314-2.43-2.19-3.72-2.722-.859-.355-1.47-.115-1.835.72-3.274-3.21-4.822-4.873-4.645-4.991z" fill="#FAB74B" fill-rule="nonzero"/><path d="M8.847 9.979c.83-.403 1.335-.663 1.512-.782.267-.177.534-.558.297-1.412-.237-.853-1.826-3.397-3.088-4.168-1.261-.77-3.502 2.458-3.565 3.747-.062 1.29-.01 1.976 1.363 4.27.916 1.53 2.076 2.957 3.48 4.281 3.2 2.897 5.707 4.345 7.52 4.345 2.722 0 5.03-2.688 3.79-4.001-1.238-1.314-2.43-2.19-3.72-2.722-.858-.355-1.47-.115-1.834.72l-.473 1.06c-2.192-1.187-3.892-2.813-5.099-4.878a1.723 1.723 0 0 1-.183-.46z" stroke="#1D1D1B" stroke-width="1.5"/></g></svg>