<svg width="32" height="32" xmlns="http://www.w3.org/2000/svg"><g stroke="#1D1D1B" stroke-width="1.8" stroke-linejoin="round" fill="none" fill-rule="evenodd"><circle cx="16" cy="16" r="3"/><path d="M18.69 5.331a10.988 10.988 0 0 1 5.204 3.009 3 3 0 0 0 2.689 4.655c.272.954.417 1.963.417 3.005 0 1.043-.145 2.051-.416 3.007a3 3 0 0 0-2.691 4.653 10.978 10.978 0 0 1-5.204 3.009 3 3 0 0 0-5.378-.002 10.973 10.973 0 0 1-5.206-3.007 3 3 0 0 0-2.689-4.655A10.956 10.956 0 0 1 5 16c0-1.042.145-2.05.416-3.006a2.999 2.999 0 0 0 2.69-4.655 10.98 10.98 0 0 1 5.204-3.008 3.002 3.002 0 0 0 5.308.135z"/></g></svg>