<?xml version="1.0" encoding="UTF-8"?><svg id="_타이틀" xmlns="http://www.w3.org/2000/svg" viewBox="0 0 76.58 28.31"><defs><style>.cls-1{fill:#ccc;}</style></defs><path class="cls-1" d="m2.92,6.66l.06-.19c.71-2,1.32-3.41,1.84-4.23.25-.39.59-.73,1.03-1.03.83-.53,1.61-.79,2.34-.79.43,0,.76.1.98.29s.34.47.34.84c0,.25-.16.75-.49,1.51-.55,1.27-.96,2.46-1.23,3.56.18.02.36.05.53.1.65.1,1.07.21,1.28.33.2.12.31.35.31.67,0,.57-.15,1.1-.44,1.58-.29.48-.67.84-1.14,1.06-.35.16-.93.27-1.72.32-.14.42-.29,1-.46,1.73-.1.65-.2,1.54-.32,2.68-.06.42-.1.81-.1,1.18,0,1.7.82,2.55,2.47,2.55h.15c.19,0,.29.03.29.1,0,.17-.18.46-.55.87-.37.41-.77.77-1.21,1.08-.47.32-.99.58-1.55.77s-1.07.29-1.52.29c-1.13,0-2.05-.38-2.76-1.15-.71-.76-1.06-1.77-1.06-3.03,0-.54.09-1.24.28-2.11s.48-2.04.88-3.5c.06-.26.13-.53.21-.81.08-.28.12-.45.13-.51-.43-.01-.74-.1-.92-.27-.18-.17-.27-.45-.27-.84,0-.68.26-1.32.78-1.92.52-.6,1.13-.98,1.83-1.13Z"/><path class="cls-1" d="m16.69,17.34l-.06.32c0,.18-.02.45-.06.79-.04.53-.1.96-.18,1.29s-.19.61-.34.83c-.15.22-.35.45-.61.7-.78.72-1.58,1.08-2.37,1.08-.65,0-1.12-.24-1.43-.71s-.46-1.24-.46-2.29c0-.84.09-1.87.28-3.1.19-1.23.42-2.34.69-3.31l.13-.42c0-.06.03-.2.1-.4.4-1.46.76-2.55,1.1-3.25.33-.7.74-1.27,1.21-1.7.42-.33.89-.5,1.42-.5.76,0,1.23.46,1.39,1.39.15-.13.3-.28.44-.45.31-.38.55-.63.73-.75.17-.12.37-.19.6-.19.92,0,1.39.91,1.39,2.74,0,1-.11,1.97-.32,2.9-.22.94-.49,1.7-.81,2.29-.33.59-.65.89-.98.89-.35,0-.53-.67-.53-2.02,0-.71-.04-1.27-.12-1.67s-.21-.72-.38-.94c-.32.6-.53,1.98-.63,4.13-.08,1.25-.13,2.03-.16,2.36Z"/><path class="cls-1" d="m24.3,22.42c-.48-.03-.92-.25-1.32-.66-.4-.43-.68-.9-.85-1.4-.17-.5-.25-1.15-.25-1.94,0-1.77.33-3.78.99-6.01.66-2.23,1.41-3.85,2.25-4.85.33-.42.8-.63,1.39-.63.62,0,1.13.29,1.51.85s.57,1.32.57,2.24c0,1.37-.2,2.96-.59,4.8-.39,1.83-.95,3.74-1.66,5.72-.28.8-.62,1.33-1.03,1.61-.28.17-.61.26-.98.26h-.03Zm1.94-16.21c-1.01-.03-1.52-.64-1.52-1.82,0-.59.15-1.28.44-2.06.3-.78.63-1.36,1.01-1.73.19-.2.39-.35.59-.44.2-.09.45-.13.77-.13.54,0,.93.13,1.19.4.25.26.38.7.38,1.31,0,.76-.13,1.49-.4,2.17-.26.68-.62,1.24-1.06,1.66s-.89.64-1.35.64h-.05Z"/><path class="cls-1" d="m37.89,11.69l.5-.94c.47-.83.91-1.53,1.32-2.08s.76-.97,1.08-1.22c.31-.26.68-.47,1.12-.63.36-.14.74-.21,1.16-.21.82,0,1.54.24,2.17.73.63.48,1.12,1.18,1.46,2.08.34.9.51,1.94.51,3.11,0,1.69-.38,3.31-1.14,4.86-.76,1.55-1.75,2.81-2.98,3.77s-2.5,1.44-3.82,1.44c-.76,0-1.4-.16-1.91-.48-.51-.32-.98-.88-1.41-1.66l-.11.28-.1.36c-.7,2.25-1.26,3.9-1.67,4.96s-.77,1.71-1.07,1.94c-.24.23-.51.34-.82.34-.61,0-1.09-.3-1.44-.9-.34-.6-.52-1.45-.52-2.53,0-1.18.13-2.6.39-4.26.26-1.66.62-3.34,1.07-5.07.46-1.72.96-3.28,1.52-4.69.36-.86.77-1.61,1.21-2.26.44-.65.86-1.11,1.25-1.4.29-.17.6-.26.93-.26.49,0,.87.14,1.14.41.27.27.4.65.4,1.15,0,.42-.04.89-.13,1.4-.06.5-.12,1.07-.18,1.72l.06.08Zm-1.22,6.87c.3.88.87,1.32,1.71,1.32.59,0,1.14-.27,1.65-.8.51-.53.92-1.25,1.23-2.16s.46-1.86.46-2.86c0-.8-.06-1.48-.19-2.06-.12-.58-.26-.87-.41-.87-.11,0-.38.29-.82.85-.44.57-.88,1.23-1.32,1.98-.9,1.46-1.59,2.75-2.05,3.87-.12.29-.2.53-.26.73Z"/><path class="cls-1" d="m57.13,10.19c.43-1.21.79-2.49,1.08-3.81.29-1.33.44-2.35.44-3.06,0-.19-.05-.29-.16-.29-.17,0-.47.38-.9,1.15-.43.77-.79,1.55-1.08,2.35-.62,1.75-1.11,3.21-1.44,4.36-.34,1.16-.57,2.13-.7,2.91-.13.79-.19,1.59-.19,2.4,0,.7.08,1.21.23,1.53.16.32.41.48.75.48.59,0,1.25-.26,1.98-.78.73-.52,1.39-1.21,1.98-2.06.46-.63.82-.95,1.08-.95.33,0,.5.26.5.79,0,1.15-.36,2.27-1.08,3.37-.72,1.1-1.65,1.99-2.78,2.67-1.13.68-2.29,1.02-3.48,1.02-1.45,0-2.63-.46-3.55-1.37-.91-.91-1.37-2.11-1.37-3.58,0-1.2.26-2.62.77-4.23.52-1.62,1.21-3.25,2.07-4.89.87-1.64,1.81-3.13,2.85-4.46,1.03-1.33,2.05-2.35,3.06-3.06.62-.46,1.32-.69,2.08-.69.58,0,1.11.18,1.58.54.47.36.84.86,1.1,1.51s.39,1.36.39,2.15c0,1.69-.33,3.34-.99,4.95-.66,1.61-1.58,3.01-2.77,4.19-.56.57-1.1,1.02-1.61,1.34-.52.32-.97.48-1.36.48s-.56-.14-.56-.44c0-.16.14-.47.42-.92.38-.59.82-1.48,1.32-2.68.04-.12.09-.24.15-.38.05-.13.12-.32.19-.56Z"/><path class="cls-1" d="m69.15,17.76c.12.64.54.97,1.26.97.81,0,1.86-.47,3.15-1.42.75-.55,1.26-.82,1.52-.82.32,0,.62.09.9.26.28.17.42.35.42.53,0,.19-.16.45-.47.76-.57.57-1.23,1.13-1.97,1.67s-1.46.99-2.15,1.35-1.38.65-2.06.85c-.69.21-1.3.31-1.84.31-1.34,0-2.42-.38-3.23-1.15-.81-.77-1.21-1.79-1.21-3.07,0-.98.21-2.08.64-3.31.42-1.23,1-2.38,1.72-3.46.85-1.26,1.89-2.31,3.13-3.15,1.53-1.01,2.99-1.52,4.39-1.52,1.01,0,1.8.32,2.38.96s.86,1.52.86,2.64c0,.87-.23,1.78-.69,2.73-.46.95-1.13,1.85-2.02,2.73-.73.73-1.45,1.3-2.15,1.71-.7.41-1.32.61-1.85.61-.24,0-.48-.06-.73-.18Zm-.03-.52c.49-.33.87-.67,1.13-1,.57-.7,1.01-1.5,1.32-2.4.25-.59.44-1.25.58-1.98.14-.73.21-1.41.21-2.05,0-.59-.12-.89-.37-.89-.34,0-.87.76-1.58,2.27-.42.91-.76,1.83-1.02,2.73-.26.91-.4,1.69-.4,2.35,0,.23.04.55.13.97Z"/></svg>