<svg width="16" height="17" xmlns="http://www.w3.org/2000/svg"><defs><linearGradient x1="50%" y1="0%" x2="50%" y2="100%" id="a"><stop stop-color="#1E79AF" offset="0%"/><stop stop-color="#63FFD3" offset="100%"/></linearGradient><linearGradient x1="84.718%" y1="29.074%" x2="5.244%" y2="77.404%" id="b"><stop stop-color="#DC4057" offset="0%"/><stop stop-color="#9E36BB" offset="100%"/></linearGradient><linearGradient x1="50%" y1="0%" x2="50%" y2="97.826%" id="c"><stop stop-color="#FF9676" offset="0%"/><stop stop-color="#FFD074" offset="100%"/></linearGradient><linearGradient x1="17.444%" y1="20.573%" x2="100%" y2="79.427%" id="d"><stop stop-color="#51C6AD" offset="0%"/><stop stop-color="#D5FFA1" offset="100%"/></linearGradient></defs><g fill="none" fill-rule="evenodd"><path d="M0 .93h16v15.926H0z"/><path d="M2.578 1.001c-.26.082-.429.346-.429.747l.002 12.595c0 .395.163.656.416.743L9.59 8.038 2.579 1" fill="url(#a)" transform="translate(0 .93)"/><path d="M2.567 15.086c.182.062.41.033.66-.104l8.568-4.73-2.206-2.214-7.022 7.048" fill="url(#b)" transform="translate(0 .93)"/><path d="m11.796 10.252 2.921-1.612c.593-.328.593-.862 0-1.19l-2.932-1.618-2.196 2.205 2.207 2.215" fill="url(#c)" transform="translate(0 .93)"/><path d="M11.785 5.832 3.226 1.109C2.984.975 2.76.944 2.58 1l7.01 7.036 2.196-2.205" fill="url(#d)" transform="translate(0 .93)"/></g></svg>