<?xml version="1.0" encoding="utf-8"?>
<!-- Generator: Adobe Illustrator 27.1.1, SVG Export Plug-In . SVG Version: 6.00 Build 0)  -->
<svg version="1.1" id="레이어_1" xmlns="http://www.w3.org/2000/svg" xmlns:xlink="http://www.w3.org/1999/xlink" x="0px"
	 y="0px" viewBox="0 0 24 24" style="enable-background:new 0 0 24 24;" xml:space="preserve">
<style type="text/css">
	.st0{fill:#333333;}
</style>
<g id="_레이어_1-2">
	<path class="st0" d="M18.5,5H5.8C4.6,5,3.7,5.9,3.7,7.1v9.9c0,1.2,0.9,2.1,2.1,2.1h12.7c1.2,0,2.1-0.9,2.1-2.1V7.1
		C20.6,5.9,19.7,5,18.5,5z M18.1,9.1l-5.6,3c-0.1,0.1-0.2,0.1-0.3,0.1c-0.1,0-0.2,0-0.3-0.1l-5.6-3c-0.3-0.2-0.5-0.6-0.3-1
		c0.2-0.3,0.6-0.5,1-0.3l5.3,2.8l5.3-2.8c0.3-0.2,0.8,0,1,0.3C18.6,8.5,18.5,8.9,18.1,9.1z"/>
</g>
</svg>
