<svg width="96" height="96" xmlns="http://www.w3.org/2000/svg" xmlns:xlink="http://www.w3.org/1999/xlink"><defs><path id="a" d="M0 0h96v96H0z"/></defs><g fill="none" fill-rule="evenodd"><mask id="b" fill="#fff"><use xlink:href="#a"/></mask><g mask="url(#b)"><g transform="translate(27 13)"><rect stroke="#1D1D1B" stroke-width="2" fill="#0573E8" width="40" height="69" rx="4"/><path fill="#FFF" d="M1 9h38l-.02 54H1.003z"/><g transform="translate(8.5 24)"><rect fill="#FAB74B" y="13" width="10" height="10" rx="2"/><rect fill="#E73939" width="10" height="10" rx="2"/><rect fill="#FAB74B" x="13" width="10" height="10" rx="2"/></g><rect fill="#1D1D1B" x="15" y="4" width="10" height="2" rx="1"/></g></g><g mask="url(#b)"><g transform="translate(45 47)"><circle stroke="#1D1D1B" stroke-width="2" fill-opacity=".8" fill="#89C2FF" stroke-linecap="round" stroke-linejoin="round" cx="15" cy="15" r="15"/><circle fill="#FFF" cx="17" cy="9" r="4"/><path d="m24.75 26.76.424-.423a.7.7 0 0 1 .99 0l3.252 3.252a.7.7 0 0 1 0 .99l-.424.424a.7.7 0 0 1-.99 0l-3.252-3.252a.7.7 0 0 1 0-.99z" fill="#1D1D1B"/><path d="M28.227 27.222c.39-.39.902-.585 1.414-.585.512 0 1.024.195 1.414.585.363.363.557.83.583 1.303l2.972 2.726a3.637 3.637 0 0 1 1.38 2.427 3.637 3.637 0 0 1-.74 2.692c-.884.914-1.834 1.317-2.743 1.374a3.499 3.499 0 0 1-2.762-1.08l-2.55-3.25c-.938.036-1.422-.16-1.796-.535a1.994 1.994 0 0 1-.586-1.414c0-.512.195-1.024.586-1.414z" stroke="#1D1D1B" stroke-width="2" fill="#FF6551" stroke-linejoin="round"/></g></g></g></svg>