<?xml version="1.0" encoding="utf-8"?>
<!-- Generator: Adobe Illustrator 27.1.1, SVG Export Plug-In . SVG Version: 6.00 Build 0)  -->
<svg version="1.1" id="레이어_1" xmlns="http://www.w3.org/2000/svg" xmlns:xlink="http://www.w3.org/1999/xlink" x="0px"
	 y="0px" viewBox="0 0 24 24" style="enable-background:new 0 0 24 24;" xml:space="preserve">
<style type="text/css">
	.st0{fill-rule:evenodd;clip-rule:evenodd;fill:#CCCCCC;stroke:#CCCCCC;stroke-linecap:round;stroke-linejoin:round;}
</style>
<g>
	<path class="st0" d="M9.9,11c-0.1-0.1-0.1-0.2-0.1-0.3c0.6-0.3,1-0.5,1.1-0.6c0.2-0.1,0.4-0.4,0.2-1C10.9,8.7,9.8,7,9,6.5
		C8.1,5.9,6.7,8,6.6,8.9c0,0.9,0,1.3,1,2.9c0.7,1.1,1.5,1.9,2.3,2.8c2.2,1.9,3.9,2.9,5.1,2.9c1.8,0,3.4-1.7,2.6-2.7
		c-0.9-0.9-1.6-1.5-2.5-1.7c-0.6-0.3-1.1-0.1-1.2,0.5l-0.3,0.8c-1-0.6-1.5-1-1.7-1.2C10.8,12.5,10.3,11.8,9.9,11z"/>
</g>
</svg>
