<?xml version="1.0" encoding="utf-8"?>
<!-- Generator: Adobe Illustrator 27.1.1, SVG Export Plug-In . SVG Version: 6.00 Build 0)  -->
<svg version="1.1" id="레이어_1" xmlns="http://www.w3.org/2000/svg" xmlns:xlink="http://www.w3.org/1999/xlink" x="0px"
	 y="0px" viewBox="0 0 32 32" style="enable-background:new 0 0 32 32;" xml:space="preserve">
<style type="text/css">
	.st0{fill:#FFFFFF;}
	.st1{fill:#1D1D1B;}
	.st2{fill:none;}
	.st3{fill:#99E7E5;}
</style>
<g>
	<g>
		<polygon class="st0" points="25.5,26.2 6.5,26.2 3.9,15.1 28.1,15.1 		"/>
		<path class="st1" d="M25.5,26.8h-19c-0.3,0-0.5-0.2-0.6-0.5L3.3,15.2c0-0.2,0-0.4,0.1-0.5s0.3-0.2,0.5-0.2h24.2
			c0.2,0,0.3,0.1,0.5,0.2c0.1,0.1,0.2,0.3,0.1,0.5l-2.6,11.1C26,26.6,25.8,26.8,25.5,26.8z M7,25.6h18l2.3-10H4.6L7,25.6z"/>
	</g>
	<g>
		<line class="st2" x1="21.3" y1="18.8" x2="20.1" y2="22.4"/>
		<path class="st1" d="M20.1,23c-0.1,0-0.1,0-0.2,0c-0.3-0.1-0.5-0.4-0.4-0.7l1.1-3.6c0.1-0.3,0.4-0.5,0.7-0.4
			c0.3,0.1,0.5,0.4,0.4,0.7l-1.1,3.6C20.6,22.8,20.4,23,20.1,23z"/>
	</g>
	<g>
		<line class="st2" x1="11.9" y1="22.4" x2="10.7" y2="18.8"/>
		<path class="st1" d="M11.9,23c-0.2,0-0.5-0.2-0.6-0.4L10.2,19c-0.1-0.3,0.1-0.6,0.4-0.7c0.3-0.1,0.6,0.1,0.7,0.4l1.1,3.6
			C12.5,22.6,12.3,22.9,11.9,23L11.9,23z"/>
	</g>
	<g>
		<path class="st3" d="M28.7,15.1H3.3c-0.8,0-1.4-0.6-1.4-1.4V13c0-0.8,0.6-1.4,1.4-1.4h25.4c0.8,0,1.4,0.6,1.4,1.4v0.7
			C30.1,14.5,29.4,15.1,28.7,15.1z"/>
		<path class="st1" d="M28.3,15.7H3.7c-1.3,0-2.3-1-2.3-2.3s1-2.3,2.3-2.3h24.7c1.3,0,2.3,1,2.3,2.3C30.6,14.6,29.6,15.7,28.3,15.7z
			 M3.7,12.2c-0.6,0-1.1,0.5-1.1,1.1s0.5,1.1,1.1,1.1h24.7c0.6,0,1.1-0.5,1.1-1.1s-0.5-1.1-1.1-1.1H3.7z"/>
	</g>
	<g>
		<line class="st2" x1="16" y1="22.4" x2="16" y2="18.8"/>
		<path class="st1" d="M16,23c-0.3,0-0.6-0.3-0.6-0.6v-3.6c0-0.3,0.3-0.6,0.6-0.6c0.3,0,0.6,0.3,0.6,0.6v3.6
			C16.6,22.7,16.3,23,16,23z"/>
	</g>
	<path class="st1" d="M9.4,12.2c-0.1,0-0.2,0-0.3-0.1c-0.3-0.2-0.4-0.5-0.2-0.8l4.3-7.8c0.2-0.3,0.5-0.4,0.8-0.2s0.4,0.5,0.2,0.8
		l-4.3,7.8C9.8,12.1,9.6,12.2,9.4,12.2z"/>
	<path class="st1" d="M22.6,12.2c-0.2,0-0.4-0.1-0.5-0.3l-4.3-7.8c-0.2-0.3,0-0.6,0.2-0.8c0.3-0.2,0.6,0,0.8,0.2l4.3,7.8
		c0.2,0.3,0,0.6-0.2,0.8C22.8,12.2,22.7,12.2,22.6,12.2z"/>
</g>
</svg>
