<svg width="24" height="24" xmlns="http://www.w3.org/2000/svg"><g fill="none" fill-rule="evenodd"><path d="M16.5 8A1.5 1.5 0 0 1 18 9.5v7a1.5 1.5 0 0 1-1.5 1.5h-9A1.5 1.5 0 0 1 6 16.5v-7A1.5 1.5 0 0 1 7.5 8h9zm-5.499-2.573c.466.416.494 1.847.494 1.847s-1.609-.031-2.074-.447c-.465-.415-.488-1.065-.052-1.452.436-.386 1.167-.363 1.632.052zm3.63-.052c.436.387.413 1.037-.052 1.452-.465.416-2.074.447-2.074.447s.028-1.431.494-1.847c.465-.415 1.196-.438 1.632-.052z" stroke="#DDD" fill="#DDD"/><path stroke="#FFF" stroke-linecap="round" stroke-linejoin="round" d="M9.5 13h5M12 10.5v5"/></g></svg>