<svg width="48" height="48" xmlns="http://www.w3.org/2000/svg" xmlns:xlink="http://www.w3.org/1999/xlink"><defs><path id="a" d="M0 0h48v48H0z"/></defs><g fill="none" fill-rule="evenodd"><mask id="b" fill="#fff"><use xlink:href="#a"/></mask><g mask="url(#b)" stroke="#999" stroke-width="2"><g transform="translate(7 9)"><path d="M34 16.653V24.8c0 1.767-1.522 3.2-3.4 3.2H3.4C1.522 28 0 26.567 0 24.8v-16c0-1.767 1.522-3.2 3.4-3.2h5.056m17.044 0h5.071C32.465 5.6 34 7.167 34 9.1v3.5m-8.5-7c0-.632-.015-1.565-.044-2.8 0-1.546-1.268-2.8-2.833-2.8H11.29C9.725 0 8.456 1.254 8.456 2.8v2.8h7.814" stroke-linecap="round" stroke-linejoin="round"/><ellipse cx="17" cy="16.8" rx="5.667" ry="5.6"/></g></g><circle stroke="#999" mask="url(#b)" cx="36" cy="19" r="1"/></g></svg>