<svg width="32" height="32" xmlns="http://www.w3.org/2000/svg" xmlns:xlink="http://www.w3.org/1999/xlink"><defs><path id="a" d="M0 0h32v32H0z"/></defs><g fill="none" fill-rule="evenodd"><mask id="b" fill="#fff"><use xlink:href="#a"/></mask><path stroke="#1D1D1B" stroke-width=".9" fill="#FAB74B" stroke-linejoin="round" mask="url(#b)" d="M16 23.531 9.534 25.4l-.221-6.726L5.538 13.1l6.33-2.29L16 5.5l4.133 5.312 6.329 2.289-3.775 5.572-.221 6.726z"/><path d="M15.332 19.86v-2.367h.891c.36 0 .696-.043 1.008-.13.312-.087.583-.221.814-.401.231-.18.414-.41.55-.689a2.24 2.24 0 0 0 .202-.985c0-.396-.067-.728-.203-.995a1.7 1.7 0 0 0-.553-.643 2.291 2.291 0 0 0-.828-.347 4.834 4.834 0 0 0-1.026-.103H14v6.66h1.332zm.801-3.42h-.801v-2.187h.756c.462 0 .811.075 1.049.225.236.15.355.42.355.81 0 .768-.453 1.152-1.359 1.152z" fill="#E34850" fill-rule="nonzero" mask="url(#b)"/></g></svg>