<svg width="48" height="48" xmlns="http://www.w3.org/2000/svg" xmlns:xlink="http://www.w3.org/1999/xlink"><defs><path id="a" d="M0 0h48v48H0z"/></defs><g fill="none" fill-rule="evenodd"><mask id="b" fill="#fff"><use xlink:href="#a"/></mask><path d="m7.52 14.234-.984.373.373-.985a7.2 7.2 0 0 0 0-5.102l-.373-.984.984.373a7.2 7.2 0 0 0 5.102 0l.985-.373-.373.984a7.2 7.2 0 0 0 0 5.102l.373.985-.985-.373a7.2 7.2 0 0 0-5.102 0z" stroke="#1D1D1B" fill="#FAB74B" stroke-linejoin="round" mask="url(#b)" transform="rotate(45 10.071 11.071)"/><path d="m37.169 40.977-1.34.508.507-1.34a4.2 4.2 0 0 0 0-2.976l-.508-1.34 1.34.507a4.2 4.2 0 0 0 2.977 0l1.34-.508-.508 1.34a4.2 4.2 0 0 0 0 2.977l.508 1.34-1.34-.508a4.2 4.2 0 0 0-2.976 0z" stroke="#1D1D1B" fill="#FAB74B" stroke-linejoin="round" mask="url(#b)" transform="rotate(45 38.657 38.657)"/><g mask="url(#b)"><g transform="rotate(45 7.343 37.4)"><rect stroke="#1D1D1B" fill="#FFF" stroke-linejoin="round" width="20" height="33" rx="1.98"/><path d="M1.986.55h16.028c.79 0 1.43.64 1.43 1.43v2.97H.556V1.98c0-.79.64-1.43 1.43-1.43z" fill="#00C0AA"/><rect fill="#1D1D1B" x="6.667" y="2.2" width="6.667" height="1" rx=".5"/><path d="M1.986 32.45h16.028c.79 0 1.43-.64 1.43-1.43v-2.97H.556v2.97c0 .79.64 1.43 1.43 1.43z" fill="#00C0AA"/></g></g></g></svg>