<svg width="40" height="40" xmlns="http://www.w3.org/2000/svg"><g fill="none" fill-rule="evenodd"><path d="M20 .5c5.385 0 10.26 2.183 13.789 5.711A19.439 19.439 0 0 1 39.5 20c0 5.385-2.183 10.26-5.711 13.789A19.439 19.439 0 0 1 20 39.5a19.439 19.439 0 0 1-13.789-5.711A19.439 19.439 0 0 1 .5 20c0-5.385 2.183-10.26 5.711-13.789A19.439 19.439 0 0 1 20 .5z" stroke-opacity=".5" stroke="#CCC" fill="#FFF"/><path d="M18 17h-2.61a5.5 5.5 0 0 1 10.11 3h1A6.5 6.5 0 0 0 15 15.84V14h-1v4h4v-1zm4 6h2.61a5.5 5.5 0 0 1-10.11-3h-1A6.5 6.5 0 0 0 25 24.16V26h1v-4h-4v1z" fill="#000"/></g></svg>