<?xml version="1.0" encoding="utf-8"?>
<!-- Generator: Adobe Illustrator 27.1.1, SVG Export Plug-In . SVG Version: 6.00 Build 0)  -->
<svg version="1.1" id="레이어_1" xmlns="http://www.w3.org/2000/svg" xmlns:xlink="http://www.w3.org/1999/xlink" x="0px"
	 y="0px" viewBox="0 0 64 64" style="enable-background:new 0 0 64 64;" xml:space="preserve">
<style type="text/css">
	.st0{filter:url(#Adobe_OpacityMaskFilter);}
	.st1{fill-rule:evenodd;clip-rule:evenodd;fill:#FFFFFF;}
	.st2{mask:url(#b_00000077295127786435623590000007437698620972582829_);fill-rule:evenodd;clip-rule:evenodd;fill:#B5B5B5;}
	.st3{filter:url(#Adobe_OpacityMaskFilter_00000162312322822296402110000002507438141484753844_);}
	.st4{mask:url(#b_00000002375350983659611760000011566373077126774442_);fill:#FFFFFF;}
	.st5{filter:url(#Adobe_OpacityMaskFilter_00000059995378308744064260000015543669142495563185_);}
	.st6{mask:url(#b_00000058569092032761406450000017320461894335484086_);}
	.st7{fill:#FFFFFF;}
</style>
<g>
	<defs>
		<filter id="Adobe_OpacityMaskFilter" filterUnits="userSpaceOnUse" x="8.6" y="8.4" width="47.8" height="47.8">
			<feColorMatrix  type="matrix" values="1 0 0 0 0  0 1 0 0 0  0 0 1 0 0  0 0 0 1 0"/>
		</filter>
	</defs>
	
		<mask maskUnits="userSpaceOnUse" x="8.6" y="8.4" width="47.8" height="47.8" id="b_00000077295127786435623590000007437698620972582829_">
		<g class="st0">
			<path id="a_00000097465479218566023690000005315676073369626556_" class="st1" d="M0.6,0.4h63.8v63.8H0.6V0.4z"/>
		</g>
	</mask>
	<path class="st2" d="M32.5,8.4c13.2,0,23.9,10.7,23.9,23.9S45.7,56.2,32.5,56.2l0.2,0l0,0l-0.1,0l-0.1,0l0,0l-16.9,0
		c-1.6,0-2.9-1.3-2.9-2.9l0-7.6l-0.3-0.4c-2.5-3.9-3.8-8.4-3.8-13C8.6,19.1,19.3,8.4,32.5,8.4z"/>
	<defs>
		
			<filter id="Adobe_OpacityMaskFilter_00000050663495417697850540000004786101517534920366_" filterUnits="userSpaceOnUse" x="18.5" y="20.7" width="28" height="15.7">
			<feColorMatrix  type="matrix" values="1 0 0 0 0  0 1 0 0 0  0 0 1 0 0  0 0 0 1 0"/>
		</filter>
	</defs>
	
		<mask maskUnits="userSpaceOnUse" x="18.5" y="20.7" width="28" height="15.7" id="b_00000002375350983659611760000011566373077126774442_">
		<g style="filter:url(#Adobe_OpacityMaskFilter_00000050663495417697850540000004786101517534920366_);">
			<path id="a_00000103947116559862040890000008834752284006802061_" class="st1" d="M-5.9-6.1h76.7v76.7H-5.9V-6.1z"/>
		</g>
	</mask>
	<path class="st4" d="M39.7,36.4c-0.3,0-0.6-0.1-0.9-0.2c-2.2-1.1-4.3-1.6-6.3-1.6c-2.2,0-4.2,0.5-6.3,1.6c-1,0.5-2.2,0.1-2.7-0.9
		c-0.5-1-0.1-2.2,0.9-2.7c2.6-1.3,5.3-2,8.1-2c2.6,0,5.3,0.7,8.1,2c1,0.5,1.4,1.7,0.9,2.7C41.1,35.9,40.4,36.4,39.7,36.4z
		 M44.5,28.3c-0.3,0-0.7-0.1-1-0.3c-3.7-2.1-7.7-3.3-11-3.3c-4,0-7.4,1-10.9,3.3c-0.9,0.6-2.2,0.3-2.8-0.6c-0.6-0.9-0.3-2.2,0.6-2.8
		c4.1-2.6,8.4-3.9,13.1-3.9c5.5,0,10.5,2.4,13,3.9c1,0.5,1.3,1.8,0.7,2.7C45.8,27.9,45.2,28.3,44.5,28.3z"/>
	<defs>
		
			<filter id="Adobe_OpacityMaskFilter_00000075871439086313501980000017069347122533955497_" filterUnits="userSpaceOnUse" x="29.7" y="39.1" width="5.6" height="5.6">
			<feColorMatrix  type="matrix" values="1 0 0 0 0  0 1 0 0 0  0 0 1 0 0  0 0 0 1 0"/>
		</filter>
	</defs>
	
		<mask maskUnits="userSpaceOnUse" x="29.7" y="39.1" width="5.6" height="5.6" id="b_00000058569092032761406450000017320461894335484086_">
		<g style="filter:url(#Adobe_OpacityMaskFilter_00000075871439086313501980000017069347122533955497_);">
			<path id="a_00000052072913572489475260000010306810563106892677_" class="st1" d="M-5.9-6.1h76.7v76.7H-5.9V-6.1z"/>
		</g>
	</mask>
	<g class="st6">
		<path class="st1" d="M32.5,40.7c0.7,0,1.2,0.5,1.2,1.2c0,0,0,0,0,0c0,0.7-0.5,1.2-1.2,1.2c0,0,0,0,0,0c-0.7,0-1.2-0.5-1.2-1.2
			c0,0,0,0,0,0C31.3,41.2,31.8,40.7,32.5,40.7C32.5,40.7,32.5,40.7,32.5,40.7z"/>
		<path class="st7" d="M32.5,44.7c-1.5,0-2.8-1.2-2.8-2.8c0-0.8,0.3-1.5,0.8-2c0.5-0.5,1.2-0.8,2-0.8l0,1.6l0-1.6c0,0,0,0,0,0
			c0.7,0,1.4,0.3,2,0.8c0.5,0.5,0.8,1.2,0.8,2c0,0.8-0.3,1.5-0.8,2C34,44.4,33.3,44.7,32.5,44.7C32.5,44.7,32.5,44.7,32.5,44.7z
			 M32.5,41.5C32.5,41.5,32.5,41.5,32.5,41.5c-0.1,0-0.2,0-0.3,0.1c-0.1,0.1-0.1,0.2-0.1,0.3c0,0.1,0,0.2,0.1,0.3
			c0.1,0.1,0.2,0.1,0.3,0.1c0.2,0,0.4-0.2,0.4-0.4C32.9,41.7,32.7,41.5,32.5,41.5z"/>
	</g>
</g>
</svg>
