<svg width="56" height="56" xmlns="http://www.w3.org/2000/svg" xmlns:xlink="http://www.w3.org/1999/xlink"><defs><filter x="-111.6%" y="-44.6%" width="323.2%" height="211.6%" filterUnits="objectBoundingBox" id="a"><feOffset dy="1" in="SourceAlpha" result="shadowOffsetOuter1"/><feGaussianBlur stdDeviation="1.5" in="shadowOffsetOuter1" result="shadowBlurOuter1"/><feColorMatrix values="0 0 0 0 0 0 0 0 0 0 0 0 0 0 0 0 0 0 0.166165865 0" in="shadowBlurOuter1"/></filter><filter x="-14%" y="-13.3%" width="127.9%" height="133.3%" filterUnits="objectBoundingBox" id="d"><feOffset dy="1" in="SourceAlpha" result="shadowOffsetOuter1"/><feGaussianBlur stdDeviation="1.5" in="shadowOffsetOuter1" result="shadowBlurOuter1"/><feColorMatrix values="0 0 0 0 0 0 0 0 0 0 0 0 0 0 0 0 0 0 0.166165865 0" in="shadowBlurOuter1"/></filter><path d="M2.24 0a2.24 2.24 0 0 1 .896 4.294V8.46a.5.5 0 0 1-.5.5h-.68a.5.5 0 0 1-.5-.5l-.001-4.121A2.24 2.24 0 0 1 2.24 0z" id="b"/><path d="M21.4 0a1 1 0 0 1 1 1v.12h3.44c5.523 0 10 4.477 10 10V18c0 5.523-4.477 10-10 10H10c-.555 0-1.1-.045-1.63-.132l-4.6 2.315a.572.572 0 0 1-.826-.573l.018-.091.992-3.552A9.984 9.984 0 0 1 0 18v-6.88c0-5.523 4.477-10 10-10h3.44V1a1 1 0 0 1 1-1h6.96z" id="e"/><radialGradient cx="50%" cy="50.717%" fx="50%" fy="50.717%" r="66.987%" gradientTransform="matrix(0 1 -.84213 0 .927 .007)" id="f"><stop stop-color="#FFF" offset="0%"/><stop stop-color="#93FFF2" offset="100%"/></radialGradient><linearGradient x1="50%" y1="-54.888%" x2="50%" y2="117.704%" id="c"><stop stop-color="#FFF" offset="0%"/><stop stop-color="#93FFF2" offset="100%"/></linearGradient></defs><g fill="none" fill-rule="evenodd"><circle fill="#00C0AA" cx="28" cy="28" r="28"/><g transform="translate(25.76 7.84)"><use fill="#000" filter="url(#a)" xlink:href="#b"/><use fill="url(#c)" xlink:href="#b"/></g><g transform="translate(10.08 14.56)"><use fill="#000" filter="url(#d)" xlink:href="#e"/><use fill="url(#f)" xlink:href="#e"/></g><rect fill="#3C3C3C" x="15.68" y="22.4" width="24.64" height="13.44" rx="5.5"/><circle fill="#FFF" cx="33.04" cy="27.44" r="1.68"/><circle fill="#FFF" cx="22.96" cy="27.44" r="1.68"/><path d="M24.89 31.61c.713-.32 5.378-.346 6.18 0 .8.347 0 1.43-3.074 1.43-3.073 0-3.82-1.109-3.106-1.43z" fill="#FFF"/></g></svg>