<svg width="48" height="48" xmlns="http://www.w3.org/2000/svg" xmlns:xlink="http://www.w3.org/1999/xlink"><defs><path id="a" d="M0 0h48v48H0z"/></defs><g fill="none" fill-rule="evenodd"><mask id="b" fill="#fff"><use xlink:href="#a"/></mask><g mask="url(#b)"><g transform="translate(4 15)"><path fill="#FFF" d="m7.83 13.148 2.836 9.99h22.768l2.205-9.99z"/><path d="M8.442 13h26.802a.5.5 0 0 1 .487.612L34.954 17H8.642l-.69-3.4a.5.5 0 0 1 .49-.6z" fill="#E73939"/><path d="M0 0h3.275a1.2 1.2 0 0 1 1.163.906l5.535 21.931a1.2 1.2 0 0 0 1.163.907h21.81a1.2 1.2 0 0 0 1.18-.975L36 12.965h0H7.781" stroke="#1D1D1B" stroke-linecap="round" stroke-linejoin="round"/><ellipse stroke="#1D1D1B" fill="#FFF" stroke-linejoin="round" cx="15.765" cy="26.561" rx="2.425" ry="2.439"/><ellipse stroke="#1D1D1B" fill="#FFF" stroke-linejoin="round" cx="27.892" cy="26.561" rx="2.425" ry="2.439"/></g></g><g mask="url(#b)" stroke="#1D1D1B" stroke-linejoin="round"><path d="m23.808 9.177 12.033-4.38a1.76 1.76 0 0 1 2.256 1.052l3.927 10.787a1.76 1.76 0 0 1-1.052 2.256l-17.366 6.32a1.76 1.76 0 0 1-2.256-1.051l-2.692-7.396a1.76 1.76 0 0 1 .259-1.674l4.098-5.333a1.76 1.76 0 0 1 .793-.581z" fill="#FFF"/><path stroke-linecap="round" d="m19.288 18.495 2.584-.941m-1.558 3.76 2.584-.941"/><path fill="#FAB74B" d="m29.466 11.374 5.638-2.052L37.5 15.9l-5.639 2.052z"/></g></g></svg>