<svg width="32" height="32" xmlns="http://www.w3.org/2000/svg" xmlns:xlink="http://www.w3.org/1999/xlink"><defs><path id="a" d="M0 0h32v32H0z"/></defs><g fill="none" fill-rule="evenodd"><mask id="b" fill="#fff"><use xlink:href="#a"/></mask><path d="M7 16V8a2 2 0 0 1 2-2h16a2 2 0 0 1 2 2v8h0H9.4m16.787 3.039-1.288 4.81a2 2 0 0 1-1.932 1.483H7.107a2 2 0 0 1-1.931-2.517L7 16m2.667-6.5h3.937m-3.937 3h3.937m3.063-3h7m-7 3h7" stroke="#999" stroke-linecap="round" stroke-linejoin="round" mask="url(#b)"/></g></svg>