<?xml version="1.0" encoding="utf-8"?>
<!-- Generator: Adobe Illustrator 26.3.1, SVG Export Plug-In . SVG Version: 6.00 Build 0)  -->
<svg version="1.1" id="레이어_1" xmlns="http://www.w3.org/2000/svg" xmlns:xlink="http://www.w3.org/1999/xlink" x="0px"
	 y="0px" viewBox="0 0 18 22" style="enable-background:new 0 0 18 22;" xml:space="preserve">
<style type="text/css">
	.st0{fill:#FFFFFF;}
	.st1{fill-rule:evenodd;clip-rule:evenodd;fill:#FFFFFF;}
</style>
<g>
	<path class="st0" d="M15,21.5H3c-1.4,0-2.5-1.1-2.5-2.5V3c0-1.4,1.1-2.5,2.5-2.5h7.6l6.9,6.4V19C17.5,20.4,16.4,21.5,15,21.5z
		 M3,1.5C2.2,1.5,1.5,2.2,1.5,3v16c0,0.8,0.7,1.5,1.5,1.5h12c0.8,0,1.5-0.7,1.5-1.5V7.4l-6.3-5.9H3z"/>
	<path class="st1" d="M6.2,17.2l4.8-5.8c0.2-0.2,0.5-0.3,0.7-0.1c0.2,0.1,0.3,0.3,0.2,0.5c0,0,0,0,0,0.1L7,17.6
		c-0.2,0.2-0.5,0.3-0.7,0.1C6.1,17.7,6,17.4,6.2,17.2C6.1,17.2,6.1,17.2,6.2,17.2z"/>
	<path class="st1" d="M7,11.3l4.8,5.8c0.1,0.2,0.1,0.4,0,0.5c0,0,0,0-0.1,0c-0.2,0.1-0.5,0.1-0.7-0.1l-4.8-5.8
		c-0.1-0.2-0.1-0.4,0-0.5c0,0,0,0,0.1,0C6.5,11.1,6.8,11.1,7,11.3L7,11.3z"/>
	<g>
		<path class="st1" d="M10.1,1v5.7c0,0.6,0.4,1,1,1h5.7"/>
		<path class="st0" d="M16.8,8.2h-5.7c-0.8,0-1.5-0.7-1.5-1.5V1h1v5.7c0,0.3,0.2,0.5,0.5,0.5h5.7V8.2z"/>
	</g>
</g>
</svg>
