<svg width="18" height="22" xmlns="http://www.w3.org/2000/svg"><g fill="none" fill-rule="evenodd"><path d="M17 7.145V19a2 2 0 0 1-2 2H3a2 2 0 0 1-2-2V3a2 2 0 0 1 2-2h7.372L17 7.145z" stroke="#1D1D1B"/><path d="m6.158 17.176 4.846-5.848a.588.588 0 0 1 .72-.149.376.376 0 0 1 .118.576l-4.846 5.848a.588.588 0 0 1-.72.15.376.376 0 0 1-.118-.577z" fill="#1D1D1B"/><path d="m6.996 11.328 4.846 5.848a.376.376 0 0 1-.119.576.588.588 0 0 1-.72-.149l-4.845-5.848a.376.376 0 0 1 .119-.576.588.588 0 0 1 .72.149z" fill="#1D1D1B"/><path d="M10.14 1v5.658a1 1 0 0 0 1 1h5.695" stroke="#1D1D1B" fill="#1D1D1B"/></g></svg>