<svg width="96" height="96" xmlns="http://www.w3.org/2000/svg" xmlns:xlink="http://www.w3.org/1999/xlink"><defs><path id="a" d="M0 0h96v96H0z"/></defs><g fill="none" fill-rule="evenodd"><mask id="b" fill="#fff"><use xlink:href="#a"/></mask><g mask="url(#b)"><path d="M75.143 28.61v39.374a2.8 2.8 0 0 1-2.8 2.8h-47.2L18 63.288V28.611a2.8 2.8 0 0 1 2.8-2.8h51.543a2.8 2.8 0 0 1 2.8 2.8z" stroke="#1D1D1B" stroke-width="2" fill="#FFF" stroke-linejoin="round"/><path d="m18 63.288 7.143 7.496v-6.096a1.4 1.4 0 0 0-1.4-1.4H18z" stroke="#1D1D1B" stroke-width="2" fill="#D8D8D8" stroke-linejoin="round"/><g transform="translate(55.143 52.514)"><ellipse stroke="#1D1D1B" stroke-width="1.4" fill="#FAB74B" stroke-linejoin="round" cx="11.429" cy="11.243" rx="11.429" ry="11.243"/><ellipse fill="#F29B11" cx="11.429" cy="11.243" rx="8.571" ry="8.432"/><path stroke="#FFF" stroke-width="1.4" stroke-linecap="round" stroke-linejoin="round" d="m15.714 9.276-2.143 4.216-2.142-4.216-2.143 4.216-2.143-4.216"/></g><path d="M75.143 28.61v7.039H18V28.61a2.8 2.8 0 0 1 2.8-2.8h51.543a2.8 2.8 0 0 1 2.8 2.8z" stroke="#1D1D1B" stroke-width="2" fill="#FF6551" stroke-linejoin="round"/><path stroke="#000" stroke-width="2" stroke-linecap="round" stroke-linejoin="round" d="M32.286 23v5.622M60.857 23v5.622"/></g><g mask="url(#b)"><g transform="translate(51 50)"><circle stroke="#1D1D1B" stroke-width="2" fill="#FAB74B" cx="15" cy="15" r="15"/><circle fill="#F29B11" cx="15" cy="15" r="11"/><path stroke="#FFF" stroke-width="3" stroke-linecap="round" stroke-linejoin="round" d="m21 12-3 6-3-6-3 6-3-6"/></g></g></g></svg>