<svg width="37" height="26" xmlns="http://www.w3.org/2000/svg" xmlns:xlink="http://www.w3.org/1999/xlink"><defs><path id="a" d="M0 0h37v26H0z"/><path id="c" d="M0 0h37v24H0z"/></defs><g fill="none" fill-rule="evenodd"><mask id="b" fill="#fff"><use xlink:href="#a"/></mask><use fill="#FFF" xlink:href="#a"/><g mask="url(#b)"><path d="M17.944 14.45a1.21 1.21 0 0 0 1.204-1.216V8.809a1.21 1.21 0 0 0-1.204-1.216 1.21 1.21 0 0 0-1.204 1.216v4.425a1.21 1.21 0 0 0 1.204 1.216m9.478 0a1.21 1.21 0 0 0 1.205-1.216V8.809a1.21 1.21 0 0 0-1.205-1.216 1.21 1.21 0 0 0-1.204 1.216v4.425c0 .672.54 1.216 1.204 1.216m-13.345 2.802a.067.067 0 0 0-.067-.067h-.315a1.012 1.012 0 0 1-1.007-1.017c0-.562.45-1.017 1.007-1.017h2.84c.557 0 1.008.455 1.008 1.017 0 .561-.451 1.016-1.007 1.016l-.164.001a.067.067 0 0 0-.066.067l-.001 3.621c0 .62-.5 1.124-1.114 1.124a1.118 1.118 0 0 1-1.113-1.124l-.001-3.62zm10.206-9.659c-.64 0-1.16.525-1.16 1.172l-.01.862-.002-.006a.024.024 0 0 1-.044.013L22.03 8.118v.001a1.155 1.155 0 0 0-.954-.505c-.641 0-1.16.525-1.16 1.173v4.479c0 .647.519 1.172 1.16 1.172.642 0 1.161-.525 1.161-1.172l.013-.88v.002c0-.014.01-.024.024-.024.008 0 .015.003.02.01l1.014 1.506c.207.323.567.537.975.537.641 0 1.16-.525 1.16-1.173V8.765a1.165 1.165 0 0 0-1.16-1.172m-9.507 0c-.373 0-.705.17-.925.439V8.03l-1.29 1.477s-.016.035-.049.035-.061-.035-.061-.035l-1.31-1.465a1.193 1.193 0 0 0-.934-.45c-.662 0-1.2.544-1.2 1.213v4.465c0 .647.52 1.172 1.161 1.172s1.161-.525 1.161-1.172l.029-1.606a.035.035 0 0 1 .034-.032c.009 0 .017.004.024.01l1.042 1.177s.027.042.064.042c.036 0 .062-.042.062-.042l.982-1.198a.033.033 0 0 1 .024-.01c.02 0 .035.015.035.035l.03 1.624c0 .647.519 1.172 1.16 1.172.641 0 1.161-.525 1.161-1.172V8.805c0-.669-.538-1.212-1.2-1.212m12.792 7.559-2.28-.001a.699.699 0 0 0-.696.702l.005 4.966c0 .65.522 1.178 1.166 1.178.645 0 1.167-.528 1.167-1.178v-1.152c0-.02.016-.035.036-.035h.528c1.631 0 2.41-1.111 2.41-2.217 0-1.25-1.046-2.263-2.336-2.263m-.004 2.795h-.599a.035.035 0 0 1-.035-.035v-.996c0-.02.015-.034.035-.034h.6a.53.53 0 0 1 .527.532.53.53 0 0 1-.528.533" fill="#003894"/><g transform="translate(0 1)"><mask id="d" fill="#fff"><use xlink:href="#c"/></mask><path d="m32.285 12.38.003.001c1.593.153 2.839 1.516 2.839 3.149a3.138 3.138 0 0 1-2.75 3.117 1.077 1.077 0 0 0-.955 1.07v2.275a.086.086 0 0 1-.086.087H5.831a.086.086 0 0 1-.086-.087l-.002-9.952a.992.992 0 0 0-.986-.996h-1.52a.039.039 0 0 1-.027-.066l8.2-8.576a.038.038 0 0 1 .054 0l2.486 2.416c.34.344.977.376 1.348 0a.973.973 0 0 0-.002-1.365L12.105.317a.948.948 0 0 0-1.349 0L.228 11.344a.989.989 0 0 0 .759 1.618h2.77c.046 0 .085.038.085.087v9.955c0 .55.442.996.987.996H32.34a.991.991 0 0 0 .986-.996v-2.551c0-.026.017-.047.04-.054A5.058 5.058 0 0 0 37 15.53a5.068 5.068 0 0 0-2.78-4.533l-.099-.05a.103.103 0 0 1-.059-.093 6.678 6.678 0 0 0-3.776-5.973c-.034-.017-.053-.053-.058-.094C29.893 2.088 27.612 0 24.848 0a5.36 5.36 0 0 0-3.224 1.072.98.98 0 0 0-.237 1.344c.302.437.912.562 1.331.24a3.475 3.475 0 0 1 2.13-.727 3.51 3.51 0 0 1 3.142 1.96c.237.477.447 1.154.447 2.294 0 .041.029.076.068.084.062.013.122.03.183.047 1.755.48 3.101 1.985 3.399 3.825.04.25.122.921.122 2.157 0 .044.033.08.076.085" fill="#003894" mask="url(#d)"/></g><path d="M12.605 19.843c0 1.277-1.024 2.312-2.288 2.312-.884 0-1.555-.353-2.073-.913a.966.966 0 0 1-.247-.658c0-.543.435-.983.973-.983.211 0 .476.106.612.179.069.037.414.276.556.276a.193.193 0 0 0 .192-.194c0-.139-.189-.26-.275-.304-.977-.493-1.875-1.164-1.875-2.392s.873-2.195 2.253-2.195c.742 0 1.393.337 1.859.849.14.155.223.36.223.586 0 .48-.385.869-.86.869-.327 0-.761-.272-.8-.293-.115-.064-.163-.123-.277-.123a.206.206 0 0 0-.205.207c0 .155.182.282.61.494 1.18.583 1.622 1.425 1.622 2.283m7.994-4.86c-1.93 0-3.495 1.6-3.495 3.575s1.565 3.575 3.495 3.575c1.93 0 3.495-1.6 3.495-3.575 0-1.974-1.565-3.575-3.495-3.575m-.001 4.965a1.383 1.383 0 0 1-1.377-1.39c0-.768.616-1.39 1.377-1.39.76 0 1.376.622 1.376 1.39 0 .768-.617 1.39-1.376 1.39" fill="#003894"/></g></g></svg>