<?xml version="1.0" encoding="utf-8"?>
<!-- Generator: Adobe Illustrator 26.3.1, SVG Export Plug-In . SVG Version: 6.00 Build 0)  -->
<svg version="1.1" id="레이어_1" xmlns="http://www.w3.org/2000/svg" xmlns:xlink="http://www.w3.org/1999/xlink" x="0px"
	 y="0px" viewBox="0 0 52 46" style="enable-background:new 0 0 52 46;" xml:space="preserve">
<style type="text/css">
	.st0{fill:#F5F5F5;}
	.st1{fill:#097B7B;}
	.st2{fill:#707070;}
</style>
<g>
	<g>
		<g>
			<path class="st0" d="M25.532,4.709c-6.306,1.648-11.017,7.321-11.153,14.159c-0.137,6.88,4.398,12.766,10.693,14.628
				c0,0,1.964,0.827,7.084,0.348"/>
			<path class="st0" d="M29.192,34.806c-2.769,0-4.101-0.434-4.382-0.539c-6.763-2.015-11.386-8.35-11.245-15.416
				c0.14-7.018,4.976-13.158,11.761-14.931c0.435-0.114,0.88,0.147,0.994,0.582c0.114,0.435-0.147,0.88-0.582,0.994
				c-6.083,1.589-10.419,7.095-10.545,13.388c-0.127,6.345,4.031,12.033,10.109,13.83l0.085,0.031
				c0.011,0.004,1.917,0.734,6.692,0.288c0.447-0.038,0.845,0.287,0.887,0.735c0.042,0.448-0.287,0.845-0.735,0.887
				C31.07,34.764,30.06,34.806,29.192,34.806z"/>
		</g>
		<g>
			<path class="st0" d="M32.133,33.843c6.787-1.295,11.979-7.193,12.123-14.378c0.143-7.148-4.758-13.223-11.436-14.827
				c0,0-4.859-0.914-7.76,0.249"/>
			<path class="st0" d="M32.132,34.658c-0.383,0-0.725-0.271-0.799-0.662c-0.084-0.442,0.206-0.868,0.647-0.953
				c6.509-1.241,11.329-6.959,11.461-13.594c0.131-6.579-4.406-12.469-10.79-14.014c-0.321-0.057-4.729-0.818-7.288,0.208
				c-0.418,0.168-0.891-0.035-1.059-0.453c-0.167-0.418,0.035-0.892,0.453-1.059c3.086-1.238,8.006-0.333,8.214-0.293l0.04,0.009
				c7.135,1.714,12.206,8.289,12.059,15.635c-0.148,7.401-5.524,13.777-12.784,15.162C32.235,34.653,32.183,34.658,32.132,34.658z"
				/>
		</g>
		<path class="st0" d="M36.88,37.032c-0.123,0-0.247-0.028-0.365-0.087l-5.55-2.788l3.046-4.544c0.25-0.373,0.756-0.474,1.13-0.223
			c0.373,0.25,0.473,0.756,0.223,1.13l-2.018,3.01l3.9,1.959c0.402,0.202,0.564,0.691,0.362,1.093
			C37.466,36.868,37.178,37.032,36.88,37.032z"/>
		<path class="st0" d="M25.059,8.738c-0.147,0-0.296-0.04-0.43-0.123c-0.382-0.238-0.499-0.74-0.261-1.122l1.915-3.077L22.319,2.59
			c-0.408-0.188-0.587-0.672-0.399-1.08C22.108,1.101,22.591,0.922,23,1.11l5.641,2.599L25.75,8.354
			C25.596,8.602,25.33,8.738,25.059,8.738z"/>
	</g>
	<g>
		<path class="st1" d="M19.786,18.04l1.427,5.824c0.104,0.521,0.202,1.033,0.293,1.534c0.091,0.502,0.189,1.007,0.293,1.515h0.078
			c0.117-0.508,0.231-1.016,0.342-1.525c0.111-0.508,0.231-1.016,0.362-1.524l1.505-5.824h2.091l1.544,5.824
			c0.13,0.521,0.251,1.033,0.361,1.534c0.111,0.502,0.231,1.007,0.362,1.515h0.078c0.104-0.508,0.205-1.013,0.303-1.515
			c0.098-0.501,0.205-1.013,0.323-1.534l1.388-5.824h2.111l-2.775,10.75h-2.697l-1.368-5.316c-0.13-0.508-0.247-1.013-0.352-1.515
			c-0.105-0.502-0.215-1.033-0.332-1.593h-0.098c-0.104,0.561-0.209,1.095-0.313,1.603c-0.105,0.508-0.228,1.016-0.372,1.525
			l-1.309,5.297h-2.6l-2.912-10.75H19.786z"/>
	</g>
	<g>
		<path class="st2" d="M20.837,38.477c-0.076,0-0.154-0.011-0.231-0.034c-6.78-2.005-11.417-8.348-11.276-15.425
			C9.47,16,14.306,9.86,21.091,8.087c0.435-0.114,0.88,0.147,0.994,0.582c0.114,0.435-0.147,0.88-0.582,0.994
			c-6.083,1.589-10.419,7.095-10.545,13.388c-0.127,6.345,4.031,12.033,10.109,13.83c0.431,0.128,0.678,0.581,0.55,1.012
			C21.513,38.247,21.188,38.477,20.837,38.477z"/>
		<path class="st2" d="M27.897,38.824c-0.383,0-0.725-0.271-0.799-0.662c-0.084-0.442,0.206-0.868,0.647-0.953
			c6.509-1.241,11.329-6.959,11.461-13.594c0.131-6.587-4.415-12.483-10.812-14.019c-0.437-0.105-0.707-0.545-0.602-0.982
			c0.105-0.437,0.544-0.707,0.982-0.602c7.135,1.714,12.206,8.289,12.059,15.635c-0.148,7.401-5.524,13.777-12.784,15.162
			C27.999,38.819,27.948,38.824,27.897,38.824z"/>
		<path class="st2" d="M32.645,41.198c-0.123,0-0.247-0.028-0.365-0.087l-5.55-2.788l3.046-4.544c0.25-0.373,0.756-0.474,1.13-0.223
			c0.373,0.25,0.473,0.756,0.223,1.13l-2.018,3.01l3.9,1.959c0.402,0.202,0.564,0.691,0.362,1.093
			C33.231,41.034,32.943,41.198,32.645,41.198z"/>
		<path class="st2" d="M20.823,12.904c-0.147,0-0.296-0.04-0.43-0.123c-0.382-0.238-0.499-0.74-0.261-1.122l1.915-3.077
			l-3.964-1.827c-0.408-0.188-0.587-0.672-0.399-1.08c0.188-0.408,0.672-0.587,1.08-0.399l5.641,2.599l-2.891,4.644
			C21.361,12.768,21.095,12.904,20.823,12.904z"/>
	</g>
</g>
</svg>
