<?xml version="1.0" encoding="utf-8"?>
<!-- Generator: Adobe Illustrator 26.3.1, SVG Export Plug-In . SVG Version: 6.00 Build 0)  -->
<svg version="1.1" id="레이어_1" xmlns="http://www.w3.org/2000/svg" xmlns:xlink="http://www.w3.org/1999/xlink" x="0px"
	 y="0px" viewBox="0 0 52 46" style="enable-background:new 0 0 52 46;" xml:space="preserve">
<style type="text/css">
	.st0{fill:#F5F5F5;}
	.st1{fill:none;stroke:#030000;stroke-width:5;stroke-linecap:round;stroke-miterlimit:9;}
	.st2{fill:#097B7B;}
	.st3{fill:#707070;}
</style>
<g>
	<g>
		<path class="st0" d="M44.611,31.802c0-0.852-0.932-0.879-0.932-0.879s-0.787,0-2.062,0V6.354c0-1.411-1.144-2.556-2.556-2.556
			H19.254c-1.411,0-2.556,1.144-2.556,2.556v27.395c0,1.411,1.144,2.556,2.556,2.556h19.808l0,0l2.381,0
			C45.063,36.305,44.611,32.653,44.611,31.802z"/>
		<path class="st0" d="M41.443,37.104l-2.381,0l-19.808,0c-1.85,0-3.355-1.505-3.355-3.355V6.354c0-1.85,1.505-3.355,3.355-3.355
			h19.808c1.85,0,3.355,1.505,3.355,3.355v23.771h1.263c0.709,0.02,1.73,0.482,1.73,1.677c0,0.063,0.003,0.143,0.006,0.237
			c0.031,0.894,0.095,2.754-1.102,3.993C43.627,36.743,42.661,37.104,41.443,37.104z M19.254,4.597
			c-0.969,0-1.757,0.788-1.757,1.757v27.395c0,0.969,0.788,1.757,1.757,1.757h22.189c0.779,0,1.342-0.191,1.722-0.584
			c0.726-0.752,0.678-2.154,0.655-2.828c-0.004-0.116-0.007-0.215-0.007-0.293c0-0.033-0.004-0.046-0.004-0.046
			c-0.021-0.01-0.138-0.033-0.151-0.034l-2.838,0V6.354c0-0.969-0.788-1.757-1.757-1.757H19.254z"/>
	</g>
	<path class="st1" d="M32.503,19.33"/>
	<path class="st1" d="M32.018,23.889"/>
	<g>
		<path class="st2" d="M26.127,15.921h-7.872c-0.441,0-0.799-0.358-0.799-0.799c0-0.441,0.358-0.799,0.799-0.799h7.872
			c0.441,0,0.799,0.358,0.799,0.799C26.926,15.563,26.568,15.921,26.127,15.921z"/>
		<path class="st2" d="M31.754,29.455H18.256c-0.441,0-0.799-0.358-0.799-0.799s0.358-0.799,0.799-0.799h13.498
			c0.441,0,0.799,0.358,0.799,0.799S32.195,29.455,31.754,29.455z"/>
		<path class="st2" d="M31.754,24.943H18.256c-0.441,0-0.799-0.358-0.799-0.799s0.358-0.799,0.799-0.799h13.498
			c0.441,0,0.799,0.358,0.799,0.799S32.195,24.943,31.754,24.943z"/>
		<path class="st2" d="M31.754,20.432H18.256c-0.441,0-0.799-0.358-0.799-0.799s0.358-0.799,0.799-0.799h13.498
			c0.441,0,0.799,0.358,0.799,0.799S32.195,20.432,31.754,20.432z"/>
	</g>
	<path class="st3" d="M15.878,41.257c-0.119,0-0.187-0.012-0.187-0.012l0.113-1.589h0.127c0.49-0.065,1.323-0.935,1.323-3.887
		l0.007-0.108c0.065-0.479,0.546-1.383,1.897-1.383h20.367c0.709,0.02,1.73,0.482,1.73,1.677c0,0.063,0.003,0.143,0.006,0.237
		c0.031,0.894,0.095,2.754-1.102,3.993c-0.687,0.711-1.653,1.071-2.871,1.071l-21.287-0.004c-0.032,0.002-0.061,0.003-0.088,0.004
		C15.902,41.257,15.889,41.257,15.878,41.257z M18.136,39.656L37.29,39.66c0.779,0,1.342-0.191,1.722-0.584
		c0.726-0.752,0.678-2.154,0.655-2.828c-0.004-0.116-0.007-0.215-0.007-0.293c0-0.033-0.004-0.046-0.004-0.046
		c-0.021-0.01-0.138-0.033-0.151-0.034l-20.345,0c-0.177,0-0.269,0.032-0.308,0.055C18.834,37.685,18.539,38.864,18.136,39.656z"/>
	<path class="st3" d="M34.908,41.257H15.101c-1.85,0-3.355-1.505-3.355-3.355V10.507c0-1.85,1.505-3.355,3.355-3.355h19.808
		c1.85,0,3.355,1.505,3.355,3.355v21.485c0,0.441-0.358,0.799-0.799,0.799s-0.799-0.358-0.799-0.799V10.507
		c0-0.969-0.788-1.757-1.757-1.757H15.101c-0.969,0-1.757,0.788-1.757,1.757v27.395c0,0.969,0.788,1.757,1.757,1.757h19.808
		c0.441,0,0.799,0.358,0.799,0.799C35.707,40.9,35.35,41.257,34.908,41.257z"/>
</g>
</svg>
