<?xml version="1.0" encoding="utf-8"?>
<!-- Generator: Adobe Illustrator 26.3.1, SVG Export Plug-In . SVG Version: 6.00 Build 0)  -->
<svg version="1.1" id="레이어_1" xmlns="http://www.w3.org/2000/svg" xmlns:xlink="http://www.w3.org/1999/xlink" x="0px"
	 y="0px" viewBox="0 0 52 46" style="enable-background:new 0 0 52 46;" xml:space="preserve">
<style type="text/css">
	.st0{fill:#F5F5F5;}
	.st1{fill:#097B7B;}
	.st2{fill:#707070;}
</style>
<g>
	<g>
		<g>
			<g>
				<path class="st0" d="M20.672,13.322c0,0.364-0.295,0.659-0.659,0.659h-5.274c-0.364,0-0.659-0.295-0.659-0.659V8.048
					c0-0.364,0.295-0.659,0.659-0.659h5.274c0.364,0,0.659,0.295,0.659,0.659V13.322z"/>
				<path class="st0" d="M20.013,14.805h-5.274c-0.818,0-1.483-0.665-1.483-1.483V8.048c0-0.818,0.665-1.483,1.483-1.483h5.274
					c0.818,0,1.483,0.665,1.483,1.483v5.274C21.496,14.14,20.831,14.805,20.013,14.805z M14.904,13.157h4.944V8.212h-4.944V13.157z"
					/>
			</g>
			<g>
				<line class="st0" x1="24.671" y1="10.685" x2="46.181" y2="10.685"/>
				<path class="st0" d="M46.181,11.509H24.671c-0.455,0-0.824-0.369-0.824-0.824s0.369-0.824,0.824-0.824h21.509
					c0.455,0,0.824,0.369,0.824,0.824S46.636,11.509,46.181,11.509z"/>
			</g>
		</g>
		<g>
			<g>
				<path class="st0" d="M20.672,22.771c0,0.364-0.295,0.659-0.659,0.659h-5.274c-0.364,0-0.659-0.296-0.659-0.659v-5.274
					c0-0.364,0.295-0.659,0.659-0.659h5.274c0.364,0,0.659,0.295,0.659,0.659V22.771z"/>
				<path class="st0" d="M20.013,24.255h-5.274c-0.818,0-1.483-0.665-1.483-1.483v-5.274c0-0.818,0.665-1.483,1.483-1.483h5.274
					c0.818,0,1.483,0.665,1.483,1.483v5.274C21.496,23.589,20.831,24.255,20.013,24.255z M14.904,22.606h4.944v-4.944h-4.944V22.606
					z"/>
			</g>
			<g>
				<line class="st0" x1="24.671" y1="20.134" x2="46.181" y2="20.134"/>
				<path class="st0" d="M46.181,20.958H24.671c-0.455,0-0.824-0.369-0.824-0.824c0-0.455,0.369-0.824,0.824-0.824h21.509
					c0.455,0,0.824,0.369,0.824,0.824C47.005,20.589,46.636,20.958,46.181,20.958z"/>
			</g>
		</g>
		<g>
			<g>
				<path class="st0" d="M20.672,32.22c0,0.364-0.295,0.659-0.659,0.659h-5.274c-0.364,0-0.659-0.295-0.659-0.659v-5.274
					c0-0.364,0.295-0.659,0.659-0.659h5.274c0.364,0,0.659,0.295,0.659,0.659V32.22z"/>
				<path class="st0" d="M20.013,33.704h-5.274c-0.818,0-1.483-0.665-1.483-1.483v-5.274c0-0.818,0.665-1.483,1.483-1.483h5.274
					c0.818,0,1.483,0.665,1.483,1.483v5.274C21.496,33.038,20.831,33.704,20.013,33.704z M14.904,32.056h4.944v-4.945h-4.944V32.056
					z"/>
			</g>
			<g>
				<line class="st0" x1="24.671" y1="29.583" x2="46.181" y2="29.583"/>
				<path class="st0" d="M46.181,30.408H24.671c-0.455,0-0.824-0.369-0.824-0.824c0-0.455,0.369-0.824,0.824-0.824h21.509
					c0.455,0,0.824,0.369,0.824,0.824C47.005,30.039,46.636,30.408,46.181,30.408z"/>
			</g>
		</g>
	</g>
	<g>
		<g>
			<path class="st1" d="M15.728,19.134h-5.274c-0.818,0-1.483-0.665-1.483-1.483v-5.274c0-0.818,0.665-1.483,1.483-1.483h5.274
				c0.818,0,1.483,0.665,1.483,1.483v5.274C17.211,18.468,16.546,19.134,15.728,19.134z M10.618,17.486h4.944v-4.944h-4.944V17.486z
				"/>
			<path class="st2" d="M41.895,15.837H20.386c-0.455,0-0.824-0.369-0.824-0.824s0.369-0.824,0.824-0.824h21.509
				c0.455,0,0.824,0.369,0.824,0.824S42.35,15.837,41.895,15.837z"/>
		</g>
		<g>
			<path class="st2" d="M15.728,28.583h-5.274c-0.818,0-1.483-0.665-1.483-1.483v-5.274c0-0.818,0.665-1.483,1.483-1.483h5.274
				c0.818,0,1.483,0.665,1.483,1.483V27.1C17.211,27.918,16.546,28.583,15.728,28.583z M10.618,26.935h4.944v-4.944h-4.944V26.935z"
				/>
			<path class="st2" d="M41.895,25.287H20.386c-0.455,0-0.824-0.369-0.824-0.824c0-0.455,0.369-0.824,0.824-0.824h21.509
				c0.455,0,0.824,0.369,0.824,0.824C42.719,24.918,42.35,25.287,41.895,25.287z"/>
		</g>
		<g>
			<path class="st2" d="M15.728,38.032h-5.274c-0.818,0-1.483-0.665-1.483-1.483v-5.274c0-0.818,0.665-1.483,1.483-1.483h5.274
				c0.818,0,1.483,0.665,1.483,1.483v5.274C17.211,37.367,16.546,38.032,15.728,38.032z M10.618,36.384h4.944V31.44h-4.944V36.384z"
				/>
			<path class="st2" d="M41.895,34.736H20.386c-0.455,0-0.824-0.369-0.824-0.824c0-0.455,0.369-0.824,0.824-0.824h21.509
				c0.455,0,0.824,0.369,0.824,0.824C42.719,34.367,42.35,34.736,41.895,34.736z"/>
		</g>
	</g>
</g>
</svg>
