<svg width="87" height="87" xmlns="http://www.w3.org/2000/svg"><defs><linearGradient x1="1.362%" y1="19.93%" x2="100%" y2="80.912%" id="a"><stop stop-color="#FF8B47" offset="0%"/><stop stop-color="#EC4210" offset="100%"/></linearGradient></defs><g fill="none" fill-rule="evenodd"><path d="M0 0h87v87H0z"/><g transform="translate(17 28)"><g transform="translate(30 19.5)" stroke="#020202"><path d="M6 0a6 6 0 1 1 0 12A6 6 0 0 1 6 0zm0 3a3 3 0 1 0 0 6 3 3 0 0 0 0-6z" stroke-width=".9" fill="#333"/><circle fill="#FFF" cx="6" cy="6" r="1"/></g><path d="M38 24a2 2 0 1 1-4 0 2 2 0 0 1 4 0z" fill="#FFF" opacity=".466"/><path d="M14 5.017c-1.478 4.555-3.524 11.304-5 15.86l5.077 4.648c.18.164.365.333.594.412.183.063.38.063.574.063 7.9-.006 15.798-.004 23.696-.004h6.342s3.851-7.18-6.3-13.042l-12.702-.12s.719.925.702 3.814c0 0 .508 4.217-4.042 5.974-4.53 1.752-7.268-2.393-7.292-2.43-1.044-1.587-.913-3.838-.781-5.646C15.068 11.791 15.896 8.52 17 6c-1.137.219-1.863-1.203-3-.983z" stroke="#000" fill="#FF6240" stroke-linejoin="round"/><rect stroke="#000" fill="#FF6240" stroke-linejoin="round" x="25" y="10.5" width="16" height="3" rx="1.5"/><path d="m38.111.517.37 9.593-10.592.373-.37-9.593L38.111.517z" stroke="#000" fill="#DAA779"/><path stroke="#000" fill="#FDE7CA" d="M31.5.5h3v5h-3z"/><path d="M43 25.999C42.822 22.103 39.761 19 36 19c-3.762 0-6.823 3.104-7 7l8.967-.001H43z" stroke="#000" stroke-width=".9" fill="#FF6240" stroke-linejoin="round"/><path fill="#000" opacity=".2" d="M0 32.377h54v-1H0z"/><path fill="#000" d="M43.719 9.037h7v-1h-7zm-1-3h7v-1h-7zm1-3h7v-1h-7z"/><rect stroke="#000" fill="#424242" x="14.9" y="3.4" width="8" height="1" rx=".5"/><path d="M15.2 6.5h-3.31V1.564h3.31c1.64 0 2.968 1.105 2.968 2.468 0 1.364-1.328 2.468-2.968 2.468z" stroke="#000" stroke-width=".9" fill="url(#a)" stroke-linejoin="round"/><rect stroke="#000" fill="#FAB74B" x="10.5" y="1" width="2" height="6" rx="1"/><g transform="translate(3 19)" stroke="#020202"><path d="M6 0a6 6 0 1 1 0 12A6 6 0 0 1 6 0zm0 3a3 3 0 1 0 0 6 3 3 0 0 0 0-6z" stroke-width=".9" fill="#333"/><circle fill="#FFF" cx="6" cy="6" r="1"/></g><path d="M15.067 28.345c1.794-3.463.694-7.681-2.563-9.562-3.258-1.88-7.46-.723-9.562 2.563l7.766 4.482 4.359 2.517z" stroke="#000" stroke-width=".9" fill="#FF6240" stroke-linejoin="round"/></g></g></svg>