<svg width="87" height="87" xmlns="http://www.w3.org/2000/svg"><g fill="none" fill-rule="evenodd"><path d="M0 0h87v87H0z"/><g stroke="#000"><path d="M29.858 39.527a2.492 2.492 0 0 1 1.755-.763 2.488 2.488 0 0 1 1.774.695l10.636 10.63c.483.483.727 1.114.733 1.747a2.493 2.493 0 0 1-.702 1.759l-2.199 2.277a2.492 2.492 0 0 1-1.755.763 2.488 2.488 0 0 1-1.774-.696L27.69 45.31a2.493 2.493 0 0 1-.733-1.746 2.493 2.493 0 0 1 .702-1.759z" fill="#FFCE28"/><path d="M54.473 29.472 37.958 48.048a1 1 0 0 0 .639 1.659c1.174.128 2.404-.266 3.69-1.182 1.19 1.138 3.425 2.588 1.371 5.261-.979 1.486 4.713-4.799 17.074-18.854a2 2 0 0 0-.197-2.836l-3.262-2.81a2 2 0 0 0-2.8.186z" fill="#FB735F"/></g></g></svg>