<svg width="65" height="62" xmlns="http://www.w3.org/2000/svg"><defs><linearGradient x1="1.362%" y1="10.978%" x2="100%" y2="90.115%" id="b"><stop stop-color="#FF6847" offset="0%"/><stop stop-color="#EC4210" offset="100%"/></linearGradient><filter x="-114.4%" y="-127.7%" width="328.7%" height="355.4%" filterUnits="objectBoundingBox" id="a"><feOffset dy="7" in="SourceAlpha" result="shadowOffsetOuter1"/><feGaussianBlur stdDeviation="2" in="shadowOffsetOuter1" result="shadowBlurOuter1"/><feColorMatrix values="0 0 0 0 0 0 0 0 0 0 0 0 0 0 0 0 0 0 0.153545673 0" in="shadowBlurOuter1" result="shadowMatrixOuter1"/><feMerge><feMergeNode in="shadowMatrixOuter1"/><feMergeNode in="SourceGraphic"/></feMerge></filter></defs><g transform="translate(17 7)" fill="none" fill-rule="evenodd"><path d="M0 0h48v48H0z"/><path d="M30.543 8.5a2.496 2.496 0 0 1 2.5 2.5v26c0 .69-.28 1.315-.732 1.768a2.492 2.492 0 0 1-1.768.732h-13c-.69 0-1.315-.28-1.768-.732A2.492 2.492 0 0 1 15.043 37V11c0-.69.28-1.315.732-1.768a2.492 2.492 0 0 1 1.768-.732z" stroke="#000" fill="#FFF"/><path d="M30.543 8.5a2.496 2.496 0 0 1 2.5 2.5v2.5h-18V11c0-.69.28-1.315.732-1.768a2.492 2.492 0 0 1 1.768-.732zm0 31c.69 0 1.316-.28 1.768-.732A2.492 2.492 0 0 0 33.043 37v-2.5h-18V37c0 .69.28 1.315.732 1.768a2.492 2.492 0 0 0 1.768.732z" stroke="#000" fill-opacity=".18" fill="#03DAC6"/><path stroke="#000" fill="#D8D8D8" d="M22.043 11.5h4v1h-4z"/><g filter="url(#a)" transform="rotate(-16 66.151 -2.885)"><path d="m8.184.223 5.795 1.553a6.5 6.5 0 0 1-3.334 12.565l-.716 2.497-2.25-3.292-2.86-.766A6.5 6.5 0 1 1 8.184.223z" fill="url(#b)"/><circle fill="#FFF" cx="6" cy="6" r="1"/><circle fill="#FFF" cx="9.845" cy="7.103" r="1"/><circle fill="#FFF" cx="13.69" cy="8.205" r="1"/></g><circle stroke="#000" fill="#03DAC6" cx="34" cy="25" r="5.5"/><path fill="#000" d="M31 24h6v1h-6z"/><path fill="#000" d="M34.5 21.5v6h-1v-6z"/></g></svg>