<svg width="64" height="25" xmlns="http://www.w3.org/2000/svg"><g fill="none" fill-rule="evenodd"><path d="M0 0h64v25H0z"/><path d="M14.467 19.768v-6.426h1.7v-2.788h-1.7V5.25h-2.873v14.518h2.873zm-13.634-.68c2.21-.017 4.029-1.53 5.219-4.25l2.89 4.233 2.346-1.649-4.199-5.916c.357-1.7.561-3.672.561-5.865l-2.924-.102C4.709 11.608 3.162 15.858.833 16.13v2.958zm30.542-5.321v-2.176h-2.703v-1.343c1.241-.476 1.989-1.224 1.989-2.295 0-2.091-2.805-2.941-6.63-2.941-3.825 0-6.63.85-6.63 2.941 0 1.071.748 1.819 1.989 2.295v1.343h-2.703v2.176h14.688zm-7.344-5.015c-2.176 0-3.57-.238-3.57-.799 0-.544 1.394-.799 3.57-.799s3.57.255 3.57.799c0 .561-1.394.799-3.57.799zm1.802 2.839h-3.604v-.765c.561.051 1.173.068 1.802.068s1.241-.017 1.802-.068v.765zm-1.802 8.347c3.91 0 6.63-.748 6.63-2.839s-2.72-2.839-6.63-2.839c-3.91 0-6.63.748-6.63 2.839s2.72 2.839 6.63 2.839zm.24-2.143-.24.001c-2.108 0-3.57-.17-3.57-.697 0-.51 1.462-.697 3.57-.697 2.108 0 3.57.187 3.57.697 0 .507-1.352.683-3.33.696zM46.72 8.514V6.083h-5.355v-1.19h-2.958v1.19h-5.355v2.431H46.72zm-6.834 6.154c3.672 0 6.324-.867 6.324-2.856 0-1.989-2.652-2.856-6.324-2.856-3.672 0-6.324.867-6.324 2.856 0 1.989 2.652 2.856 6.324 2.856zm.236-2.245-.236.001c-1.989 0-3.4-.204-3.4-.612 0-.408 1.411-.612 3.4-.612 1.989 0 3.4.204 3.4.612 0 .392-1.3.595-3.164.611zm1.243 7.685V17.83h5.865v-2.55H32.541v2.55h5.865v2.278h2.958zm21.073-.34V5.25h-2.873v14.518h2.873zm-13.481-.68c5.083 0 8.364-3.672 8.364-9.571V5.59h-8.364v2.618h5.423v1.309c0 4.199-1.904 6.817-5.423 6.851v2.72z" fill="#000" fill-rule="nonzero"/></g></svg>