<svg width="64" height="25" xmlns="http://www.w3.org/2000/svg"><g fill="none" fill-rule="evenodd"><path d="M0 0h64v25H0z"/><path d="M7.803 9.602V7.035H5.678V5.199H2.822v1.836H.459v2.567h7.344zm7.48 10.166V5.25h-2.567v14.518h2.567zm-3.519-.255V5.318H9.265v3.791H8.194v2.669h1.071v1.734H8.194v2.669h1.071v3.332h2.499zm-7.48-.255c1.972 0 3.451-1.496 3.451-4.539 0-3.043-1.479-4.539-3.451-4.539S.833 11.676.833 14.719c0 3.043 1.479 4.539 3.451 4.539zm0-2.465c-.544 0-.935-.731-.935-2.074s.391-2.074.935-2.074.935.731.935 2.074-.391 2.074-.935 2.074zm26.853-2.295V5.25h-2.686v3.026h-1.207V5.318h-2.652v9.027h2.652v-3.451h1.207v3.604h2.686zm-10.744-.357c1.36 0 2.754-.187 3.519-.51v-2.227c-.765.289-2.04.476-3.349.476h-.952v-1.054h3.621V8.701h-3.621v-1.02h3.825V5.42h-6.494v8.721h3.451zm10.744 5.797v-4.93h-13.43v2.363h10.591v2.567h2.839zm15.038-3.944v-5.066h1.7V8.14h-1.7V5.25h-2.873v10.744h2.873zm-9.129-2.023c2.805 0 4.709-1.717 4.709-4.352 0-2.618-1.904-4.352-4.709-4.352-2.805 0-4.709 1.734-4.709 4.352 0 2.635 1.904 4.352 4.709 4.352zm0-2.397c-1.088 0-1.853-.697-1.853-1.955s.765-1.955 1.853-1.955 1.853.697 1.853 1.955-.765 1.955-1.853 1.955zm9.333 8.194v-2.584h-9.928v-2.499h-2.924v5.083h12.852zm16.466 0V5.25h-2.686v5.338h-1.207v-5.27H56.3v14.195h2.652v-6.205h1.207v6.46h2.686zm-10.863-.68c1.224 0 2.771-.153 3.638-.51v-2.516c-.884.323-2.244.493-3.383.493h-.782V5.556H48.65v13.532h3.332z" fill="#000" fill-rule="nonzero"/></g></svg>