<svg width="32" height="32" viewBox="0 0 32 32" fill="none" xmlns="http://www.w3.org/2000/svg">
<g clip-path="url(#clip0_1231_95828)">
<path d="M10.4202 0.0191936C10.3377 0.0341936 10.2527 0.0491936 10.1802 0.0991936C9.8877 0.296694 9.82269 0.706694 10.0202 0.999194L11.4002 3.05919C9.2677 4.18919 7.6777 6.06669 7.1602 8.31919H24.8402C24.3227 6.06669 22.7327 4.18919 20.6002 3.05919L21.9802 0.999194C22.1777 0.706694 22.1127 0.296694 21.8202 0.0991936C21.5252 -0.0983065 21.1177 -0.0133064 20.9202 0.279194L19.4002 2.51919C18.3452 2.13419 17.2002 1.91919 16.0002 1.91919C14.8002 1.91919 13.6552 2.13419 12.6002 2.51919L11.0802 0.279194C10.9327 0.0591936 10.6652 -0.0283064 10.4202 0.0191936ZM12.4802 5.11919C13.0102 5.11919 13.4402 5.54919 13.4402 6.07919C13.4402 6.61169 13.0102 7.03919 12.4802 7.03919C11.9477 7.03919 11.5202 6.61169 11.5202 6.07919C11.5202 5.54919 11.9477 5.11919 12.4802 5.11919ZM19.5202 5.11919C20.0527 5.11919 20.4802 5.54919 20.4802 6.07919C20.4802 6.61169 20.0527 7.03919 19.5202 7.03919C18.9902 7.03919 18.5602 6.61169 18.5602 6.07919C18.5602 5.54919 18.9902 5.11919 19.5202 5.11919ZM5.1202 9.59919C4.0602 9.59919 3.2002 10.4592 3.2002 11.5192V20.4792C3.2002 21.5392 4.0602 22.3992 5.1202 22.3992C5.3452 22.3992 5.5602 22.3517 5.7602 22.2792V9.71919C5.5602 9.64669 5.3452 9.59919 5.1202 9.59919ZM7.0402 9.59919V23.6792C7.0402 24.7367 7.9027 25.5992 8.9602 25.5992H23.0402C24.0977 25.5992 24.9602 24.7367 24.9602 23.6792V9.59919H7.0402ZM26.8802 9.59919C26.6552 9.59919 26.4402 9.64669 26.2402 9.71919V22.2792C26.4402 22.3492 26.6552 22.3992 26.8802 22.3992C27.9402 22.3992 28.8002 21.5392 28.8002 20.4792V11.5192C28.8002 10.4592 27.9402 9.59919 26.8802 9.59919ZM9.60019 26.8792V29.4392C9.60019 30.8517 10.7477 31.9992 12.1602 31.9992C13.5727 31.9992 14.7202 30.8517 14.7202 29.4392V26.8792H9.60019ZM17.2802 26.8792V29.4392C17.2802 30.8517 18.4277 31.9992 19.8402 31.9992C21.2527 31.9992 22.4002 30.8517 22.4002 29.4392V26.8792H17.2802Z" fill="#9FA4AD"/>
</g>
<defs>
<clipPath id="clip0_1231_95828">
<rect width="32" height="32" fill="white"/>
</clipPath>
</defs>
</svg>
