<svg width="32" height="32" viewBox="0 0 32 32" fill="none" xmlns="http://www.w3.org/2000/svg">
<path d="M27.2691 10.4365C27.1379 10.5186 24.0147 12.252 24.0147 16.0952C24.1619 20.4781 27.9561 22.0152 28.0211 22.0152C27.9561 22.0973 27.4483 24.109 25.9443 26.2178C24.7507 28.0344 23.4259 29.8658 21.4142 29.8658C19.5006 29.8658 18.8137 28.6552 16.6057 28.6552C14.2345 28.6552 13.5635 29.8658 11.7481 29.8658C9.73632 29.8658 8.31339 27.9362 7.05472 26.1368C5.41952 23.7816 4.02965 20.0856 3.98059 16.5368C3.94752 14.6562 4.30805 12.8077 5.22325 11.2376C6.51499 9.04557 8.82112 7.55757 11.3395 7.50851C13.2691 7.44344 14.9865 8.83331 16.1641 8.83331C17.2926 8.83331 19.4025 7.50851 21.7897 7.50851C22.8201 7.50957 25.5678 7.81997 27.2691 10.4365ZM16.0009 7.13304C15.6574 5.41571 16.6057 3.69837 17.4889 2.60291C18.6174 1.27811 20.3998 0.378906 21.9369 0.378906C22.035 2.09624 21.4131 3.78051 20.3017 5.00717C19.3043 6.33197 17.587 7.32931 16.0009 7.13304Z" fill="#9FA4AD"/>
</svg>
