<svg width="64" height="64" viewBox="0 0 64 64" fill="none" xmlns="http://www.w3.org/2000/svg">
<rect width="64" height="64" rx="32" fill="#EEEFF2"/>
<path d="M37 22H39.5C40.163 22 40.7989 22.2692 41.2678 22.7485C41.7366 23.2278 42 23.8778 42 24.5556V42.4444C42 43.1222 41.7366 43.7722 41.2678 44.2515C40.7989 44.7308 40.163 45 39.5 45H24.5C23.837 45 23.2011 44.7308 22.7322 44.2515C22.2634 43.7722 22 43.1222 22 42.4444V24.5556C22 23.8778 22.2634 23.2278 22.7322 22.7485C23.2011 22.2692 23.837 22 24.5 22H27" fill="white"/>
<path d="M37 22H39.5C40.163 22 40.7989 22.2692 41.2678 22.7485C41.7366 23.2278 42 23.8778 42 24.5556V42.4444C42 43.1222 41.7366 43.7722 41.2678 44.2515C40.7989 44.7308 40.163 45 39.5 45H24.5C23.837 45 23.2011 44.7308 22.7322 44.2515C22.2634 43.7722 22 43.1222 22 42.4444V24.5556C22 23.8778 22.2634 23.2278 22.7322 22.7485C23.2011 22.2692 23.837 22 24.5 22H27" stroke="#191A1B" stroke-width="2" stroke-linecap="round" stroke-linejoin="round"/>
<path d="M35.75 19H28.25C27.5596 19 27 19.5596 27 20.25V22.75C27 23.4404 27.5596 24 28.25 24H35.75C36.4404 24 37 23.4404 37 22.75V20.25C37 19.5596 36.4404 19 35.75 19Z" fill="#FADBDC" stroke="#191A1B" stroke-width="2" stroke-linecap="round" stroke-linejoin="round"/>
<path d="M29 34L31 36L35 32" stroke="#191A1B" stroke-width="2" stroke-linecap="round" stroke-linejoin="round"/>
</svg>
