<svg width="96" height="96" viewBox="0 0 96 96" fill="none" xmlns="http://www.w3.org/2000/svg">
<path d="M40.144 12.2546L1.23133 74.7423C0.429036 76.0788 0.00452829 77.5941 3.60281e-05 79.1373C-0.00445624 80.6806 0.411223 82.1981 1.20572 83.5389C2.00022 84.8797 3.14583 85.997 4.5286 86.7796C5.91136 87.5623 7.48307 87.983 9.08736 88H86.9126C88.5169 87.983 90.0886 87.5623 91.4714 86.7796C92.8542 85.997 93.9998 84.8797 94.7943 83.5389C95.5888 82.1981 96.0045 80.6806 96 79.1373C95.9955 77.5941 95.571 76.0788 94.7687 74.7423L55.856 12.2546C55.037 10.9558 53.8839 9.88198 52.5078 9.13675C51.1317 8.39151 49.5792 8 48 8C46.4208 8 44.8683 8.39151 43.4922 9.13675C42.1161 9.88198 40.963 10.9558 40.144 12.2546Z" fill="#00A39B"/>
<path d="M45.1173 36.9996C45.0533 35.3623 46.3633 34 48.0019 34C49.6391 34 50.9486 35.36 50.8867 36.9959L50.0922 58.0002C50.05 59.1167 49.1326 60 48.0153 60C46.899 60 45.9821 59.1182 45.9385 58.0028L45.1173 36.9996Z" fill="white"/>
<rect x="45" y="64" width="6" height="6" rx="3" fill="white"/>
</svg>
