<svg width="104" height="18" viewBox="0 0 104 18" fill="none" xmlns="http://www.w3.org/2000/svg">
<path d="M99.9108 17.9991C98.217 17.9991 97.0062 17.531 96.2784 16.5948C95.5638 15.6715 95.2065 14.3387 95.2065 12.5963C95.2065 10.9319 95.5572 9.63156 96.2586 8.69533C96.9599 7.7461 98.1376 7.27148 99.7918 7.27148C101.327 7.27148 102.412 7.69409 103.047 8.53929C103.682 9.3845 104 10.4052 104 11.6015V12.6548C104 13.279 103.669 13.591 103.007 13.591H97.5091C97.5091 14.3842 97.7406 14.9889 98.2038 15.405C98.667 15.8081 99.3021 16.0096 100.109 16.0096C100.758 16.0096 101.38 15.9381 101.975 15.7951C102.571 15.652 103.107 15.4635 103.583 15.2294V16.7703C103.583 17.0044 103.451 17.2059 103.186 17.375C102.895 17.557 102.432 17.7065 101.797 17.8236C101.161 17.9406 100.533 17.9991 99.9108 17.9991ZM101.737 11.5235C101.737 10.7563 101.552 10.1907 101.181 9.82661C100.824 9.44952 100.321 9.26097 99.6727 9.26097C98.9845 9.26097 98.4618 9.46902 98.1046 9.88512C97.7473 10.3012 97.562 10.9059 97.5488 11.6991H101.737V11.5235Z" fill="#E60013"/>
<path d="M92.7598 17.9992C91.8467 17.9992 91.1983 17.7651 90.8146 17.297C90.4441 16.8419 90.2588 16.1202 90.2588 15.132V3.56564C90.2588 3.18855 90.4573 3 90.8543 3H92.601V15.1125C92.601 15.7106 92.8061 16.0097 93.2163 16.0097C93.5604 16.0097 93.8515 15.9772 94.0897 15.9122V17.258C94.0897 17.401 94.05 17.518 93.9706 17.6091C93.9045 17.7131 93.8118 17.7846 93.6927 17.8236C93.3619 17.9406 93.0509 17.9992 92.7598 17.9992Z" fill="#E60013"/>
<path d="M84.9658 4.34697C84.9658 4.00889 85.118 3.83984 85.4224 3.83984H87.3477V5.67329C87.3477 5.99837 87.1823 6.16091 86.8515 6.16091H84.9658V4.34697ZM84.9857 7.99436C84.9857 7.61727 85.1511 7.42872 85.4819 7.42872H87.3279V17.2201C87.3279 17.5972 87.1426 17.7857 86.7721 17.7857H84.9857V7.99436Z" fill="#E60013"/>
<path d="M77.6117 17.9992C76.3017 17.9992 75.0445 17.8431 73.8403 17.531V5.34057C73.8403 4.70342 73.8602 4.2288 73.8999 3.91672C73.9396 3.59164 74.0124 3.35759 74.1182 3.21455C74.2241 3.07152 74.3961 3 74.6343 3H76.4406C76.2686 3.50712 76.1826 4.2483 76.1826 5.22354V7.79817C76.8442 7.44709 77.625 7.27154 78.5248 7.27154C79.9275 7.27154 80.9663 7.72015 81.6411 8.61737C82.316 9.51459 82.6535 10.7174 82.6535 12.2258C82.6535 14.0852 82.2102 15.5091 81.3236 16.4973C80.4369 17.4985 79.1997 17.9992 77.6117 17.9992ZM77.6911 15.9317C78.4851 15.9317 79.1137 15.6326 79.5768 15.0344C80.04 14.4363 80.2715 13.5066 80.2715 12.2453C80.2715 11.231 80.073 10.4963 79.6761 10.0412C79.2923 9.58611 78.7365 9.35855 78.0087 9.35855C77.5191 9.35855 76.9104 9.51459 76.1826 9.82667V15.7756C76.5531 15.8796 77.0559 15.9317 77.6911 15.9317Z" fill="#E60013"/>
<path d="M66.7636 17.9991C65.2418 17.9991 64.0773 17.583 63.2701 16.7508C62.4761 15.9186 62.0791 14.5533 62.0791 12.6548C62.0791 10.7563 62.4761 9.3845 63.2701 8.53929C64.0773 7.69409 65.2418 7.27148 66.7636 7.27148C68.2853 7.27148 69.4498 7.69409 70.2571 8.53929C71.0643 9.3845 71.4679 10.7563 71.4679 12.6548C71.4679 14.5533 71.0643 15.9186 70.2571 16.7508C69.4498 17.583 68.2853 17.9991 66.7636 17.9991ZM66.7636 15.9316C67.5575 15.9316 68.1398 15.6845 68.5103 15.1904C68.8941 14.6963 69.0859 13.8511 69.0859 12.6548C69.0859 11.4585 68.8941 10.6068 68.5103 10.0997C68.1398 9.59255 67.5575 9.33899 66.7636 9.33899C65.9696 9.33899 65.3873 9.59255 65.0168 10.0997C64.6463 10.6068 64.461 11.4585 64.461 12.6548C64.461 13.8511 64.6463 14.6963 65.0168 15.1904C65.3873 15.6845 65.9696 15.9316 66.7636 15.9316Z" fill="#E60013"/>
<path d="M46 7.99316C46 7.61607 46.1919 7.42752 46.5756 7.42752H48.3422V8.01267C49.123 7.51854 49.9765 7.27148 50.9028 7.27148C51.485 7.27148 51.9747 7.356 52.3717 7.52505C52.7686 7.69409 53.1259 7.95415 53.4435 8.30524C54.4492 7.61607 55.5343 7.27148 56.6988 7.27148C57.7707 7.27148 58.5911 7.56406 59.1601 8.1492C59.7292 8.72134 60.0137 9.51453 60.0137 10.5288V17.2969C60.0137 17.622 59.8483 17.7846 59.5174 17.7846H57.6714V10.8799C57.6714 9.85261 57.1752 9.33899 56.1827 9.33899C55.8387 9.33899 55.488 9.41051 55.1307 9.55354C54.7734 9.68357 54.4492 9.86562 54.1581 10.0997C54.1713 10.1907 54.1779 10.3337 54.1779 10.5288V17.2969C54.1779 17.622 54.0125 17.7846 53.6817 17.7846H51.8357V10.8799C51.8357 9.85261 51.3395 9.33899 50.347 9.33899C50.003 9.33899 49.6523 9.41051 49.295 9.55354C48.9377 9.68357 48.6201 9.85912 48.3422 10.0802V17.2774C48.3422 17.6155 48.1437 17.7846 47.7467 17.7846H46V7.99316Z" fill="#E60013"/>
<path d="M27 5.17483C27 4.78322 27.0877 4.48951 27.2632 4.29371C27.4521 4.0979 27.7422 4 28.1336 4H30.2996C30.5965 4 30.8124 4.03263 30.9474 4.0979C31.0823 4.15012 31.1768 4.28065 31.2308 4.48951L34.3684 15.4937L37.3441 5.0965C37.4521 4.69184 37.6005 4.41119 37.7895 4.25455C37.9784 4.08485 38.2416 4 38.5789 4H42C41.8246 4.50909 41.7368 5.20093 41.7368 6.07552V17.4322C41.7368 17.628 41.6896 17.7716 41.5951 17.8629C41.5142 17.9543 41.3725 18 41.17 18H39.3887V8.66014C39.3887 8.138 39.4022 7.39394 39.4292 6.42797L39.4494 5.7035L36.0688 17.4517C36.0013 17.6867 35.9001 17.8368 35.7652 17.9021C35.6302 17.9674 35.4143 18 35.1174 18H33.498C33.2146 18 33.0054 17.9413 32.8704 17.8238C32.749 17.7193 32.6478 17.5301 32.5668 17.2559L29.2065 5.7035C29.247 6.56504 29.2672 7.55058 29.2672 8.66014V17.4322C29.2672 17.628 29.2267 17.7716 29.1457 17.8629C29.0648 17.9543 28.9298 18 28.7409 18H27V5.17483Z" fill="#E60013"/>
<g clip-path="url(#clip0_960_27957)">
<path d="M7.01993 10.7323L12.0838 4.48339H9.3231C8.08318 4.48339 7.23448 4.86307 6.48043 5.74583L3.81443 9.03322V0H1.13896C0.511114 0 0 0.512568 0 1.14537V18H2.67546C3.30647 18 3.81443 17.4874 3.81443 16.8546V12.3712L5.98193 15.0385L7.82447 17.3134C8.19676 17.7817 8.68579 17.9968 9.18744 17.9968H12.9198L10.5062 15.0258L7.01993 10.7291V10.7323ZM18.7219 14.8202C18.1603 14.8202 17.6997 14.3582 17.6997 13.7919V0H15.0242C14.3964 0 13.8821 0.512568 13.8821 1.1422V14.5101C13.8821 16.5762 15.305 18 17.3653 18H20.3058C20.9368 18 21.4479 17.4874 21.4479 16.8546V14.817H18.7219V14.8202Z" fill="#231F20"/>
<path d="M4.17747 8.57404L4.18378 8.56771C4.18378 8.56771 4.18063 8.57088 4.17432 8.57404H4.17747ZM22.0002 6.02386V3.48633L21.7636 3.73628C21.7541 3.73945 21.0379 4.4735 18.9809 4.4735H9.25391C7.71741 4.4735 6.99176 5.09997 6.44278 5.78023L6.14305 6.15042C6.14305 6.15042 6.12412 6.17256 6.11466 6.18206L4.18378 8.56455C4.88735 8.033 5.84648 7.71343 6.82769 7.71343H18.9777C20.4511 7.71343 21.8677 7.27996 21.9844 6.17256C22.0002 6.08081 21.9971 6.02386 21.9971 6.02386H22.0002Z" fill="#ED1C24"/>
</g>
<defs>
<clipPath id="clip0_960_27957">
<rect width="22" height="18" fill="white"/>
</clipPath>
</defs>
</svg>
