<svg width="64" height="64" viewBox="0 0 64 64" fill="none" xmlns="http://www.w3.org/2000/svg">
<rect width="64" height="64" rx="32" fill="#EEEFF2"/>
<path d="M32 34V28M32 37.281V37.3302M38.9785 42H25.0215C23.3615 42 21.9271 41.0298 21.2498 39.6231C21.0499 39.208 21.0358 38.7322 21.137 38.2827C21.3801 37.2032 21.6356 36.8028 22.1539 35.75L28.434 24.0013C30.069 21.3329 33.931 21.3329 35.566 24.0013L41.8466 35.75C42.4047 36.8839 42.8994 37.261 42.9864 38.5448C43.0055 38.8261 42.9668 39.1098 42.8614 39.3713C42.2404 40.9127 40.7359 42 38.9785 42Z" stroke="#6F737B" stroke-width="2" stroke-linecap="round" stroke-linejoin="round"/>
</svg>
