<svg width="96" height="96" viewBox="0 0 96 96" fill="none" xmlns="http://www.w3.org/2000/svg">
<rect width="96" height="96" rx="48" fill="#E0282F"/>
<path d="M44.1776 31.9961C44.0808 29.8184 45.8202 28 48 28C50.1798 28 51.9192 29.8184 51.8224 31.9961L50.7851 55.336C50.7188 56.826 49.4915 58 48 58C46.5085 58 45.2812 56.826 45.2149 55.336L44.1776 31.9961Z" fill="white"/>
<path d="M44.3701 64.6687C44.1727 66.4458 45.5638 68 47.3518 68H48.6482C50.4362 68 51.8273 66.4458 51.6299 64.6687C51.461 63.1494 50.1769 62 48.6482 62H47.3518C45.8231 62 44.539 63.1494 44.3701 64.6687Z" fill="white"/>
</svg>
