<svg width="24" height="24" viewBox="0 0 24 24" fill="none" xmlns="http://www.w3.org/2000/svg">
<path d="M12.5547 2.5H13.0967C15.2849 2.62395 17.3514 3.54866 18.9014 5.09863C20.4513 6.64861 21.376 8.71514 21.5 10.9033V11.4453C21.5036 12.8331 21.1794 14.2027 20.5537 15.4414L20.5527 15.4434C19.8103 16.9287 18.6691 18.1783 17.2568 19.0518C15.8444 19.9252 14.2163 20.388 12.5557 20.3887H12.5547C11.1669 20.3923 9.79732 20.0681 8.55859 19.4424C8.46932 19.3973 8.36926 19.3804 8.27148 19.3926L8.1748 19.415L2.79102 21.209L4.58594 15.8252C4.62807 15.6988 4.61763 15.5604 4.55762 15.4414C3.93194 14.2027 3.60771 12.8331 3.61133 11.4453V11.4443C3.61203 9.78368 4.07479 8.15556 4.94824 6.74316C5.82171 5.33088 7.07126 4.18967 8.55664 3.44727L8.55859 3.44629C9.79732 2.82061 11.1669 2.49638 12.5547 2.5Z" fill="white" stroke="#191A1B" stroke-linecap="round" stroke-linejoin="round"/>
<rect x="7.25" y="9.25" width="9.5" height="0.5" rx="0.25" fill="#191A1B" stroke="#191A1B" stroke-width="0.5"/>
<rect x="7.25" y="12.25" width="5.5" height="0.5" rx="0.25" fill="#191A1B" stroke="#191A1B" stroke-width="0.5"/>
<circle cx="18" cy="18" r="3.5" fill="#FADBDC" stroke="#191A1B"/>
</svg>
