<svg width="24" height="24" viewBox="0 0 24 24" fill="none" xmlns="http://www.w3.org/2000/svg">
<path d="M13.9016 9.29996V5.69998C13.9016 4.9839 13.6125 4.29715 13.098 3.79081C12.5835 3.28446 11.8857 3 11.158 3L7.5 11.0999V20.9999H17.8157C18.2568 21.0048 18.6848 20.8526 19.0209 20.5715C19.357 20.2903 19.5786 19.8991 19.6447 19.4699L20.9067 11.3699C20.9465 11.112 20.9288 10.8486 20.8549 10.598C20.781 10.3474 20.6526 10.1156 20.4786 9.91872C20.3046 9.72182 20.0892 9.5645 19.8473 9.45765C19.6054 9.35081 19.3428 9.297 19.0777 9.29996H13.9016Z" fill="white" stroke="#191A1B" stroke-linecap="round" stroke-linejoin="round"/>
<path d="M7.57256 20.9995H4.82902C4.34394 20.9995 3.87872 20.8099 3.53571 20.4723C3.1927 20.1348 3 19.6769 3 19.1996V12.8996C3 12.4222 3.1927 11.9644 3.53571 11.6268C3.87872 11.2893 4.34394 11.0996 4.82902 11.0996H7.57256" fill="#FADBDC"/>
<path d="M7.57256 11.0996V20.9995H4.82902C4.34394 20.9995 3.87872 20.8099 3.53571 20.4723C3.1927 20.1348 3 19.6769 3 19.1996V12.8996C3 12.4222 3.1927 11.9644 3.53571 11.6268C3.87872 11.2893 4.34394 11.0996 4.82902 11.0996H7.57256Z" stroke="#191A1B" stroke-linecap="round" stroke-linejoin="round"/>
</svg>
