<svg width="102" height="21" xmlns="http://www.w3.org/2000/svg"><path d="M20 20.496V0h-4.056v20.496H20zm-19.632-.96c3.144-.024 5.784-2.208 7.512-6.144l4.224 6.12 3.288-2.352L9.32 8.712c.504-2.376.792-5.112.792-8.16L5.984.408C5.96 8.976 3.656 14.976.368 15.36v4.176zm42.316-4.344V0h-4.056v2.664h-3.696v3.72h3.696v8.808h4.056zm-19.968-2.568c2.928-.168 5.4-1.824 7.104-4.248l4.848 4.032 2.496-2.76-5.736-4.536c.528-1.488.792-3.12.792-4.776l-4.08-.24c-.072 4.584-2.232 8.376-5.424 8.76v3.768zm20.256 7.872v-3.624H28.476V13.32h-4.128v7.176h18.624zm22.204-9.888V0H61.12v10.608h4.056zm-19.368.096c2.928-.072 5.4-1.368 7.008-3.12l5.4 2.904 1.824-3-5.472-2.808c.096-.384.192-.744.24-1.104h4.536V.24H46.096v3.336h4.584c-.48 1.728-2.232 3.456-4.872 3.6v3.528zm19.368 9.792v-9.168h-3.984v1.344H50.824v-1.344H46.84v9.168h18.336zm-3.984-3.216H50.824v-1.464h10.368v1.464zM87.14 8.064l.864-3.024-7.584-1.464c.072-.168.144-.312.192-.48H87.5V0H69.116v3.096h6.96c-1.272 1.056-4.344 1.68-7.2 1.728v3.144c3.408-.048 6.624-.696 8.88-1.92l9.384 2.016zm-8.832 12.672c5.52 0 9.36-1.056 9.36-4.008 0-2.568-2.928-3.72-7.344-3.96v-.96h8.352v-3.12H67.94v3.12h8.352v.96c-4.416.24-7.344 1.392-7.344 3.96 0 2.952 3.84 4.008 9.36 4.008zm.285-3.025-.285.001c-2.976 0-5.04-.24-5.04-.984 0-.72 2.064-.984 5.04-.984s5.04.264 5.04.984-1.933.968-4.755.983zm22.259-4.031L101.956.6h-5.184l1.104 13.08h2.976zm-1.488 6.816c1.464 0 2.544-1.056 2.544-2.52s-1.08-2.544-2.544-2.544-2.544 1.08-2.544 2.544 1.08 2.52 2.544 2.52z"/></svg>