<svg width="90" height="22" xmlns="http://www.w3.org/2000/svg"><path d="M11.016 6.544V2.92h-3V.328H3.984V2.92H.648v3.624h10.368zm10.56 14.352V.4h-3.624v20.496h3.624zm-4.968-.36V.496H13.08v5.352h-1.512v3.768h1.512v2.448h-1.512v3.768h1.512v4.704h3.528zm-10.56-.36c2.784 0 4.872-2.112 4.872-6.408S8.832 7.36 6.048 7.36s-4.872 2.112-4.872 6.408 2.088 6.408 4.872 6.408zm0-3.48c-.768 0-1.32-1.032-1.32-2.928s.552-2.928 1.32-2.928 1.32 1.032 1.32 2.928-.552 2.928-1.32 2.928zm38.116-3.24V.4h-3.792v4.272h-1.704V.496h-3.744V13.24h3.744V8.368h1.704v5.088h3.792zm-15.168-.504c1.92 0 3.888-.264 4.968-.72V9.088c-1.08.408-2.88.672-4.728.672h-1.344V8.272h5.112v-3h-5.112v-1.44h5.4V.64h-9.168v12.312h4.872zm15.168 8.184v-6.96h-18.96v3.336h14.952v3.624h4.008zM65.6 15.568V8.416H68V4.48h-2.4V.4h-4.056v15.168H65.6zm-12.888-2.856c3.96 0 6.648-2.424 6.648-6.144 0-3.696-2.688-6.144-6.648-6.144-3.96 0-6.648 2.448-6.648 6.144 0 3.72 2.688 6.144 6.648 6.144zm0-3.384c-1.536 0-2.616-.984-2.616-2.76 0-1.776 1.08-2.76 2.616-2.76s2.616.984 2.616 2.76c0 1.776-1.08 2.76-2.616 2.76zm13.176 11.568v-3.648H51.872V13.72h-4.128v7.176h18.144zm23.452 0V.4h-3.792v7.536h-1.704V.496H80.1v20.04h3.744v-8.76h1.704v9.12h3.792zm-15.336-.96c1.728 0 3.912-.216 5.136-.72v-3.552c-1.248.456-3.168.696-4.776.696H73.26V.832H69.3v19.104h4.704z"/></svg>