<svg width="60" height="60" xmlns="http://www.w3.org/2000/svg" xmlns:xlink="http://www.w3.org/1999/xlink"><defs><path id="a" d="M0 0h7.137v13H0z"/><path id="c" d="M0 0h7.952v9.15H0z"/></defs><g fill="none" fill-rule="evenodd"><rect fill="#FFCD00" width="60" height="60" rx="30"/><path d="M10.499 24 9 24.323v12.451h1.499V24zm.538 8.231L14.98 37l1.158-.886-3.341-3.963 2.884-3.576-1.173-.837-3.471 4.493zm9.241 3.496c.206 0 .42-.026.641-.08.222-.054.444-.124.665-.21a3.662 3.662 0 0 0 1.145-.709v-2.061h-1.558c-.79 0-1.366.134-1.729.402-.361.269-.543.693-.543 1.273 0 .923.46 1.385 1.38 1.385m-2.814-1.32c0-.892.301-1.571.905-2.038.602-.467 1.48-.701 2.63-.701h1.729v-.564c0-1.364-.609-2.045-1.826-2.045-.39 0-.8.053-1.23.16-.43.108-.823.242-1.181.403l-.44-1.047a6.175 6.175 0 0 1 1.442-.572 5.997 5.997 0 0 1 1.507-.201c2.108 0 3.161 1.111 3.161 3.334v5.638h-1.107l-.18-.966c-.445.354-.92.628-1.425.821a4.03 4.03 0 0 1-1.443.29c-.793 0-1.414-.223-1.865-.668-.451-.446-.677-1.06-.677-1.845" fill="#361A1A"/><g transform="translate(26.83 24)"><mask id="b" fill="#fff"><use xlink:href="#a"/></mask><path d="m5.507 3.738 1.173.837-2.883 3.576 3.34 3.963L5.98 13 2.037 8.23l3.47-4.493zM1.5 12.774H0V.322L1.499 0v12.774z" fill="#361A1A" mask="url(#b)"/></g><path d="M38.109 35.727c.204 0 .419-.026.64-.08.222-.054.444-.124.666-.21a3.616 3.616 0 0 0 1.143-.709v-2.061h-1.557c-.79 0-1.367.134-1.728.402-.363.269-.543.693-.543 1.273 0 .923.459 1.385 1.379 1.385m-2.814-1.32c0-.892.302-1.571.904-2.038.604-.467 1.48-.701 2.632-.701h1.727v-.564c0-1.364-.608-2.045-1.824-2.045a5.09 5.09 0 0 0-1.231.16c-.43.108-.823.242-1.18.403l-.441-1.047a6.186 6.186 0 0 1 1.442-.572 5.998 5.998 0 0 1 1.507-.201c2.107 0 3.162 1.111 3.162 3.334v5.638h-1.109l-.18-.966a5.35 5.35 0 0 1-1.425.821 4.03 4.03 0 0 1-1.442.29c-.793 0-1.415-.223-1.866-.668-.45-.446-.676-1.06-.676-1.845" fill="#361A1A"/><g transform="translate(44.048 27.818)"><mask id="d" fill="#fff"><use xlink:href="#c"/></mask><path d="M3.976 1.192c-.782 0-1.382.29-1.8.87-.42.58-.628 1.428-.628 2.545 0 1.106.209 1.941.628 2.505.418.564 1.018.846 1.8.846.793 0 1.398-.282 1.818-.846.418-.564.627-1.399.627-2.505 0-1.117-.21-1.965-.627-2.545-.42-.58-1.025-.87-1.818-.87m0-1.192c1.238 0 2.211.398 2.917 1.192.706.795 1.06 1.933 1.06 3.415 0 1.46-.35 2.583-1.052 3.367-.7.783-1.676 1.176-2.925 1.176-1.238 0-2.21-.393-2.916-1.176C.353 7.19 0 6.067 0 4.607c0-1.482.355-2.62 1.067-3.415C1.78.398 2.75 0 3.977 0" fill="#361A1A" mask="url(#d)"/></g></g></svg>