<svg width="113" height="113" xmlns="http://www.w3.org/2000/svg" xmlns:xlink="http://www.w3.org/1999/xlink"><defs><path id="a" d="M0 0h53v33H0z"/></defs><g fill="none" fill-rule="evenodd"><rect fill="#642B8D" width="113" height="113" rx="40"/><path d="M68.836 46.894c-1.224 0-2.22 1.006-2.22 2.244v5.184c0 2.142-1.37 3.737-3.188 3.737s-3.189-1.595-3.189-3.737v-5.184c0-1.259-.95-2.244-2.161-2.244-1.224 0-2.22 1.006-2.22 2.244v5.281c0 4.6 3.254 7.97 7.57 7.97 2.093 0 4.026-.83 5.443-2.337 1.409-1.5 2.185-3.535 2.185-5.73v-5.184c0-1.238-.996-2.244-2.22-2.244" fill="#FFF"/><g transform="translate(29 38)"><mask id="b" fill="#fff"><use xlink:href="#a"/></mask><path d="M51.25 32.495c-.186 0-.374-.03-.557-.093l-5.989-1.533A16.14 16.14 0 0 1 36.677 33H16.323C7.323 33 0 25.598 0 16.5 0 7.402 7.322 0 16.323 0h7.03c.965 0 1.748.792 1.748 1.768s-.783 1.768-1.749 1.768h-7.029C9.251 3.536 3.498 9.35 3.498 16.5S9.25 29.464 16.323 29.464h20.354c2.447 0 4.827-.7 6.88-2.022a1.734 1.734 0 0 1 1.499-.184l3.92 1.169-1.656-3.458a1.783 1.783 0 0 1 .182-1.514c1.308-2.076 2-4.481 2-6.955 0-7.149-5.753-12.964-12.825-12.964h-7.03A1.758 1.758 0 0 1 27.9 1.768C27.9.792 28.682 0 29.648 0h7.029C45.677 0 53 7.402 53 16.5a16.59 16.59 0 0 1-2.108 8.115l2.016 5.548c.213.636.05 1.339-.42 1.814a1.74 1.74 0 0 1-1.237.518" fill="#AACE36" mask="url(#b)"/></g><path d="M51.392 56.375c-.593 0-1.15.234-1.57.658a3.498 3.498 0 0 1-2.503 1.047 3.494 3.494 0 0 1-2.503-1.048c-.695-.702-1.094-1.624-1.094-2.53 0-.906.399-1.828 1.094-2.532a3.499 3.499 0 0 1 2.503-1.048c.946 0 1.835.373 2.504 1.048a2.19 2.19 0 0 0 1.57.658c.593 0 1.15-.234 1.57-.658a2.265 2.265 0 0 0 0-3.173 7.884 7.884 0 0 0-5.644-2.363 7.882 7.882 0 0 0-5.642 2.363c-3.111 3.145-3.111 8.264 0 11.41a7.883 7.883 0 0 0 5.642 2.36 7.885 7.885 0 0 0 5.644-2.36 2.266 2.266 0 0 0 0-3.175 2.197 2.197 0 0 0-1.57-.657" fill="#FFF"/></g></svg>