<svg width="113" height="113" xmlns="http://www.w3.org/2000/svg" xmlns:xlink="http://www.w3.org/1999/xlink"><defs><path id="a" d="M0 0h72v13.586H0z"/></defs><g fill="none" fill-rule="evenodd"><rect fill="#F26522" width="113" height="113" rx="40"/><path d="M57.61 38.899c-.832 0-1.504-.649-1.504-1.45 0-.8.672-1.449 1.504-1.449.828 0 1.5.65 1.5 1.45 0 .8-.672 1.449-1.5 1.449z" fill="#A5CD38"/><path d="M53.987 40.317c-.83 0-1.504-.65-1.504-1.449 0-.8.673-1.45 1.504-1.45.83 0 1.502.65 1.502 1.45 0 .8-.673 1.449-1.502 1.449z" fill="#75BDE8"/><path d="M61.26 40.257c.832 0 1.504-.648 1.504-1.447 0-.801-.672-1.45-1.504-1.45-.83 0-1.502.649-1.502 1.45 0 .799.673 1.447 1.502 1.447z" fill="#F89C1C"/><path d="M63.139 44.114c-.626 0-1.195.41-1.349 1.026l-.005.022c-.46 1.814-2.154 3.159-4.178 3.162-2.021-.003-3.715-1.348-4.178-3.167l-.003-.02c-.156-.613-.724-1.023-1.348-1.023-.109 0-.22.013-.33.04a1.348 1.348 0 0 0-1.06 1.3c0 .103.013.21.04.318.744 2.998 3.541 5.227 6.88 5.228 3.338 0 6.133-2.23 6.88-5.228a1.3 1.3 0 0 0 .04-.319 1.35 1.35 0 0 0-1.06-1.3 1.431 1.431 0 0 0-.33-.04zm-.929-2.241c0 .801.672 1.45 1.502 1.45.831 0 1.503-.649 1.503-1.45 0-.8-.672-1.45-1.503-1.45-.83 0-1.501.65-1.501 1.45zm-10.705-1.45c-.832 0-1.505.65-1.505 1.45 0 .801.673 1.45 1.505 1.45.828 0 1.502-.649 1.502-1.45 0-.8-.674-1.45-1.502-1.45z" fill="#FEFEFE"/><g transform="translate(21 57.414)"><mask id="b" fill="#fff"><use xlink:href="#a"/></mask><path d="M24.525 6.188v4.695h2.564V6.405c0-.41.075-.883.32-1.238.246-.35.645-.608 1.39-.612 1.132 0 1.177-.968 1.177-1.116V2.26h-1.545c-4.038 0-3.906 3.928-3.906 3.928zm35.336 1.574s-.725.694-1.91.694c-.584 0-1.106-.227-1.396-.586a2.194 2.194 0 0 1-.515-1.391c0-.535.183-1.031.515-1.392s.812-.586 1.395-.586 1.063.225 1.395.586c.332.36.516.857.516 1.392v1.283zM57.9 2.005c-1.268 0-2.402.461-3.216 1.267-.814.808-1.305 1.96-1.304 3.327 0 1.151.315 2.22.996 3.007.677.788 1.722 1.278 3.12 1.277a3.89 3.89 0 0 0 1.51-.322c.303-.133.576-.296.793-.487v.817h2.56v-5.01c0-1.116-.352-2.092-1.15-2.781-.799-.691-1.94-1.095-3.31-1.095zM52.133.38H49.58v8.167s.001.051-.047.058c-.045.007-.06-.04-.06-.04l-1.54-3.494s-.425-1.047-1.432-1.074h-.036c-1.008.027-1.434 1.074-1.434 1.074l-1.539 3.493s-.016.048-.058.041c-.05-.007-.048-.058-.048-.058l-.001-6.82C43.385.323 41.99.38 41.99.38h-1.157v7.905s-.156 2.419 1.88 2.708c2.19.31 2.998-1.745 2.998-1.745l.754-1.874.687 2.107s.755 2.007 3.153 1.512c2.025-.419 1.828-2.708 1.828-2.708V.38zM8.18 7.436c-.03-.951-.378-1.64-.972-2.13-.591-.49-1.408-.787-2.38-1.022-.81-.192-1.25-.333-1.553-.495 0 0-.54-.242-.351-.885.171-.583 1.207-.594 1.207-.594a4.467 4.467 0 0 1 1.598.282s1.125.5 1.747-.677l.437-.818-.105-.078C6.95.403 5.522-.027 4.287.001a4.794 4.794 0 0 0-.407.03c-1.004.12-1.874.472-2.494 1.05-.62.574-1.083 1.38-1.07 2.352l.001.031.001.071C.342 4.572.79 5.3 1.431 5.727c.596.395 1.445.692 2.395.933 1.393.354 1.938.807 1.812 1.324-.124.518-.691.724-1.258.738-1.435.04-2.909-1.178-2.909-1.178L0 9.54s1.986 1.644 4.473 1.573c1.062-.033 2.003-.406 2.674-1.025.672-.622 1.064-1.512 1.034-2.598l-.002-.026v-.03zm3.62-5.887S11.83.38 10.58.38H9.216v7.365c0 .923.159 1.702.614 2.265.454.562 1.195.873 2.264.873h1.67V8.576h-1.341c-.195 0-.34-.06-.445-.176-.106-.115-.179-.303-.179-.58V4.554l1.966.001V2.26h-1.966v-.71zm8.668 6.427c-.351.365-.859.594-1.476.592h-.001c-.618.002-1.126-.227-1.477-.592a2.012 2.012 0 0 1-.545-1.408c0-.543.194-1.043.545-1.408.351-.366.859-.593 1.477-.593.617 0 1.125.227 1.477.593.35.365.545.865.545 1.408 0 .543-.195 1.043-.545 1.408zm-1.477-5.88c-1.38 0-2.517.51-3.3 1.324-.786.818-1.22 1.935-1.22 3.148s.434 2.331 1.22 3.149c.783.814 1.92 1.325 3.3 1.323h.003c1.378 0 2.513-.509 3.298-1.323.785-.818 1.22-1.936 1.22-3.15 0-1.212-.435-2.33-1.22-3.147-.786-.815-1.923-1.324-3.301-1.324zm50.18.164V6.6s-.024 1.291-1.455 1.291c-1.433 0-1.45-1.291-1.45-1.291V3.652c0-1.389-1.438-1.392-1.438-1.392h-1.134v4.57s-.088 2.056 2.033 2.825c1.917.694 3.447-.09 3.447-.09s-.022 1.238-1.4 1.441c-1.425.211-2.514-.653-2.514-.653l-1.217 1.862s1.435 1.033 3.686.955c1.175-.04 2.15-.403 2.898-1.074.742-.663 1.126-1.69 1.125-2.597V2.26H69.17zM36.383 6.6s-.023 1.29-1.456 1.29c-1.43 0-1.45-1.291-1.45-1.291V3.652c0-1.389-1.439-1.392-1.439-1.392h-1.134v4.57s-.087 2.056 2.037 2.825c1.916.694 3.444-.09 3.444-.09s-.022 1.238-1.399 1.441c-1.425.211-2.515-.653-2.515-.653l-1.215 1.862s1.434 1.033 3.685.955c1.176-.04 2.15-.403 2.896-1.074.745-.663 1.128-1.69 1.126-2.597V2.26h-2.58V6.6z" fill="#FEFEFE" mask="url(#b)"/></g></g></svg>