<svg width="113" height="113" xmlns="http://www.w3.org/2000/svg" xmlns:xlink="http://www.w3.org/1999/xlink"><defs><path id="a" d="M0 0h60v60H0z"/></defs><g fill="none" fill-rule="evenodd"><rect fill="#2A9345" width="113" height="113" rx="40"/><path fill="#FEFEFE" d="m27.479 27.495.01 59.022h59.03V27.484z"/><g transform="translate(27 27)"><mask id="b" fill="#fff"><use xlink:href="#a"/></mask><path d="M.968 59.032h58.073V.968L.958.979l.01 58.053zM59.52 60H.49a.481.481 0 0 1-.48-.483L0 .496C0 .229.215.012.48.012L59.52 0a.478.478 0 0 1 .48.484v59.033a.482.482 0 0 1-.48.483z" fill="#FEFEFE" mask="url(#b)"/></g><path fill="#2A9345" d="m29.3 29.317 55.395-.01V84.69h-55.38z"/><path d="M80.305 34.404c-.04-.627-.23-1.078-.556-1.357a1.156 1.156 0 0 0-.825-.28H35.8a2.103 2.103 0 0 0-1.857 1.373l-.002.01 3.962 45.454c.246 1.61 1.84 1.752 1.856 1.752h10.456l-.057 1.88 13.875.061.056-2.122 10.397.062c2.212-.574 2.097-2.468 2.097-2.489l3.722-44.344z" fill="#FEFEFE"/><path d="m50.652 82.754 12.914.057.044-1.649a.482.482 0 0 1 .479-.47h.003l10.333.06c1.688-.468 1.685-1.827 1.678-1.982v-.022l.001-.04 3.72-44.306c-.034-.467-.165-.798-.386-.986a.702.702 0 0 0-.444-.17h-.01a.43.43 0 0 1-.06.004H35.82c-.94.087-1.298.747-1.392.965l3.951 45.33c.183 1.143 1.26 1.31 1.403 1.327h10.433a.487.487 0 0 1 .48.498l-.043 1.384zm13.381 1.027h-.003l-13.874-.062a.476.476 0 0 1-.343-.148.486.486 0 0 1-.134-.351l.041-1.381h-9.96c-.397 0-2.059-.385-2.33-2.162a.158.158 0 0 1-.003-.032l-3.962-45.452a.485.485 0 0 1 .011-.157l.001-.008c.081-.348.684-1.609 2.284-1.744a.691.691 0 0 1 .04-.001h43.097a1.662 1.662 0 0 1 1.163.395c.43.369.675.94.724 1.695a.482.482 0 0 1-.001.072l-3.72 44.317c.006.348-.067 2.322-2.458 2.943a.502.502 0 0 1-.122.015l-9.927-.059-.044 1.65a.482.482 0 0 1-.479.47z" fill="#FEFEFE"/><path d="m42.046 37.547 27.13-.003s-7.074 3.064-12.79 10.67l-14.307.004-.033-10.671z" fill="#F4811F"/><path d="m42.527 38.03.03 9.704 13.592-.003c2.954-3.877 6.246-6.542 8.504-8.103a34.47 34.47 0 0 1 2.535-1.6l-24.661.002zm-.449 10.672a.481.481 0 0 1-.479-.483l-.032-10.67a.49.49 0 0 1 .14-.343.474.474 0 0 1 .34-.143l27.128-.002a.484.484 0 0 1 .189.928c-.07.03-7.03 3.11-12.596 10.518a.477.477 0 0 1-.381.19l-14.309.005z" fill="#FEFEFE"/><path d="M73.404 37.062V48.7s-7.087 2.423-9.01 10.059h-11.18s3.492-15.514 20.19-21.697" fill="#EC1D24"/><path d="M53.842 58.274h10.182c1.08-3.869 3.465-6.366 5.303-7.792a15.873 15.873 0 0 1 3.597-2.116V37.762a32.157 32.157 0 0 0-15.451 12.695c-2.228 3.49-3.267 6.569-3.631 7.817m10.552.968H53.215a.486.486 0 0 1-.468-.591c.037-.162.927-4.015 3.897-8.683a33.31 33.31 0 0 1 6.248-7.274c3.003-2.608 6.484-4.656 10.346-6.087a.476.476 0 0 1 .44.059c.129.09.205.238.205.396V48.7c0 .207-.13.39-.325.458-.018.006-1.745.61-3.674 2.113-2.567 2-4.258 4.559-5.027 7.607a.478.478 0 0 1-.463.364" fill="#FEFEFE"/><path d="M51.779 68.817h11.65s-.842 10.786-.239 13.573H51.056s-.239-8.847.723-13.573" fill="#EC1D24"/><path d="M51.526 81.906h11.102c-.372-3.033.133-10.536.284-12.606H52.174c-.736 4.055-.679 10.778-.648 12.606m11.666.968H51.056a.481.481 0 0 1-.479-.472c-.01-.363-.23-8.956.732-13.682a.481.481 0 0 1 .47-.388h11.65a.482.482 0 0 1 .479.523c-.009.106-.824 10.655-.256 13.397a.481.481 0 0 1-.46.622" fill="#FEFEFE"/><path fill="#2A9345" d="m40.466 59.701 4.403-.021v1.699h-1.98v1.633h1.861v1.578h-1.86v1.636h1.921v1.818h-4.33zm10.414-.007h4.382v1.669H53.28v1.614h1.863v1.547H53.28v1.61h1.922v1.787H50.88zm11.534-.014h4.379v1.7h-1.985v1.632h1.866v1.579h-1.866v1.635h1.926v1.818h-4.32zm-16.363.066h2.302v6.48h1.623v1.758h-3.91zm9.812-.045h2.035l.93 6.167 1.125-6.167h1.736l-1.382 8.283H56.88zm11.893.045h2.343v.479s1.26-.664 2.102-.727c0 0 1.02-.118 1.683 1.333v7.153h-2.285V61.74s-.737-1.015-1.5.06v6.12h-2.343v-8.175zm-.866 10.779c0 .653-.552 1.185-1.222 1.185-.32 0-.633-.122-.86-.347a1.163 1.163 0 0 1 0-1.672 1.24 1.24 0 0 1 1.727 0c.23.223.354.524.354.834m-1.221-1.366c-.773 0-1.403.62-1.403 1.366 0 .367.144.708.412.962.263.26.617.4.991.4.377 0 .732-.14.995-.4a1.322 1.322 0 0 0 0-1.918 1.39 1.39 0 0 0-.995-.41"/><path d="M65.275 70.385v-.594h.335c.132 0 .244.02.306.073.068.05.1.126.1.23 0 .093-.032.165-.1.212a.544.544 0 0 1-.318.079h-.323zm1.096.928-.407-.754a.822.822 0 0 0 .217-.174.462.462 0 0 0 .097-.292.418.418 0 0 0-.058-.229.44.44 0 0 0-.342-.248 1.866 1.866 0 0 0-.347-.026h-.48v.201l.015.785v.783c0 .057.042.1.093.1a.103.103 0 0 0 .106-.1v-.783h.484l.437.83c.03.046.087.07.13.046a.11.11 0 0 0 .055-.139z" fill="#2A9345"/><path d="M80.305 34.404c-.04-.627-.23-1.078-.556-1.357a1.156 1.156 0 0 0-.825-.28H35.8a2.103 2.103 0 0 0-1.857 1.373l-.002.01 3.962 45.454c.246 1.61 1.84 1.752 1.856 1.752h10.456l-.057 1.88 13.875.061.056-2.122 10.397.062c2.212-.574 2.097-2.468 2.097-2.489l3.722-44.344z" fill="#FEFEFE"/><path d="m42.046 37.547 27.13-.003s-7.074 3.064-12.79 10.67l-14.307.004-.033-10.671z" fill="#F4811F"/><path d="M73.404 37.062V48.7s-7.087 2.423-9.01 10.059h-11.18s3.492-15.514 20.19-21.697M51.779 68.817h11.65s-.842 10.786-.239 13.573H51.056s-.239-8.847.723-13.573" fill="#EC1D24"/><path fill="#2A9345" d="m40.466 59.701 4.403-.021v1.699h-1.98v1.633h1.861v1.578h-1.86v1.636h1.921v1.818h-4.33zm10.414-.007h4.382v1.669H53.28v1.614h1.863v1.547H53.28v1.61h1.922v1.787H50.88zm11.534-.014h4.379v1.7h-1.985v1.632h1.866v1.579h-1.866v1.635h1.926v1.818h-4.32zm-16.363.066h2.302v6.48h1.623v1.758h-3.91zm9.812-.045h2.035l.93 6.167 1.125-6.167h1.736l-1.382 8.283H56.88zm11.893.045h2.343v.479s1.26-.664 2.102-.727c0 0 1.02-.118 1.683 1.333v7.153h-2.285V61.74s-.737-1.015-1.5.06v6.12h-2.343v-8.175zm-.866 10.779c0 .653-.552 1.185-1.222 1.185-.32 0-.633-.122-.86-.347a1.163 1.163 0 0 1 0-1.672 1.24 1.24 0 0 1 1.727 0c.23.223.354.524.354.834m-1.221-1.366c-.773 0-1.403.62-1.403 1.366 0 .367.144.708.412.962.263.26.617.4.991.4.377 0 .732-.14.995-.4a1.322 1.322 0 0 0 0-1.918 1.39 1.39 0 0 0-.995-.41"/><path d="M65.275 70.385v-.594h.335c.132 0 .244.02.306.073.068.05.1.126.1.23 0 .093-.032.165-.1.212a.544.544 0 0 1-.318.079h-.323zm1.096.928-.407-.754a.822.822 0 0 0 .217-.174.462.462 0 0 0 .097-.292.418.418 0 0 0-.058-.229.44.44 0 0 0-.342-.248 1.866 1.866 0 0 0-.347-.026h-.48v.201l.015.785v.783c0 .057.042.1.093.1a.103.103 0 0 0 .106-.1v-.783h.484l.437.83c.03.046.087.07.13.046a.11.11 0 0 0 .055-.139z" fill="#2A9345"/></g></svg>