<?xml version="1.0" encoding="utf-8"?>
<!-- Generator: Adobe Illustrator 26.3.1, SVG Export Plug-In . SVG Version: 6.00 Build 0)  -->
<svg version="1.1" id="레이어_1" xmlns="http://www.w3.org/2000/svg" xmlns:xlink="http://www.w3.org/1999/xlink" x="0px"
	 y="0px" viewBox="0 0 52 46" style="enable-background:new 0 0 52 46;" xml:space="preserve">
<style type="text/css">
	.st0{fill:#F5F5F5;}
	.st1{fill:#707070;}
	.st2{fill:#097B7B;}
</style>
<g>
	<g>
		<g>
			<path class="st0" d="M31.724,32.337H21.422c-1.574,0-2.85-1.257-2.85-2.806V17.769c0-1.55,1.276-2.806,2.85-2.806h16.246
				c1.574,0,2.851,1.257,2.851,2.806v11.762c0,1.55-1.276,2.806-2.851,2.806H30.23"/>
			<path class="st0" d="M37.668,33.143H21.422c-2.016,0-3.656-1.62-3.656-3.612V17.769c0-1.992,1.64-3.612,3.656-3.612h16.246
				c2.016,0,3.656,1.62,3.656,3.612v11.762C41.325,31.523,39.685,33.143,37.668,33.143z M30.23,31.531h7.438
				c1.127,0,2.045-0.897,2.045-2V17.769c0-1.103-0.917-2-2.045-2H21.422c-1.127,0-2.044,0.897-2.044,2v11.762
				c0,1.103,0.917,2,2.044,2H30.23z"/>
		</g>
		<path class="st0" d="M40.519,36.818H18.572c-0.445,0-0.806-0.361-0.806-0.806c0-0.445,0.361-0.806,0.806-0.806h21.948
			c0.445,0,0.806,0.361,0.806,0.806C41.325,36.457,40.964,36.818,40.519,36.818z"/>
		<path class="st0" d="M22.265,15.695c-0.445,0-0.806-0.361-0.806-0.806v-5.69c-0.002-0.129-0.03-3.493,2.297-5.858
			c1.444-1.468,3.448-2.212,5.956-2.212c2.513,0,4.489,0.748,5.874,2.222c2.149,2.288,2.06,5.501,2.042,5.869l0.006,1.933
			c0.001,0.445-0.358,0.807-0.803,0.808c-0.001,0-0.002,0-0.003,0c-0.444,0-0.805-0.359-0.806-0.803l-0.006-1.982l0.002-0.026
			c0.002-0.026,0.142-2.843-1.615-4.704c-1.068-1.131-2.646-1.704-4.69-1.704c-2.06,0-3.677,0.582-4.807,1.731
			C23.046,6.36,23.07,9.158,23.07,9.186l0,5.703C23.071,15.334,22.71,15.695,22.265,15.695z"/>
	</g>
	<g>
		<path class="st1" d="M33.477,37.356h-1.635c-0.445,0-0.806-0.361-0.806-0.806c0-0.445,0.361-0.806,0.806-0.806h1.635
			c1.127,0,2.045-0.897,2.045-2V21.981c0-1.103-0.917-2-2.045-2H17.231c-1.127,0-2.044,0.897-2.044,2v11.762
			c0,1.103,0.917,2,2.044,2h10.302c0.445,0,0.806,0.361,0.806,0.806c0,0.445-0.361,0.806-0.806,0.806H17.231
			c-2.016,0-3.656-1.62-3.656-3.612V21.981c0-1.992,1.64-3.612,3.656-3.612h16.247c2.016,0,3.657,1.62,3.657,3.612v11.762
			C37.134,35.735,35.494,37.356,33.477,37.356z"/>
		<g>
			<path class="st2" d="M27.193,26.54c0,1.015-0.823,1.838-1.838,1.838c-1.015,0-1.838-0.823-1.838-1.838
				c0-1.015,0.823-1.838,1.838-1.838C26.37,24.702,27.193,25.525,27.193,26.54z"/>
			<rect x="24.67" y="28.259" class="st2" width="1.369" height="2.765"/>
		</g>
		<path class="st1" d="M36.328,41.03H14.38c-0.445,0-0.806-0.361-0.806-0.806c0-0.445,0.361-0.806,0.806-0.806h21.948
			c0.445,0,0.806,0.361,0.806,0.806C37.134,40.669,36.773,41.03,36.328,41.03z"/>
		<path class="st1" d="M18.073,19.908c-0.445,0-0.806-0.361-0.806-0.806v-5.69c-0.002-0.129-0.03-3.493,2.297-5.858
			c1.444-1.468,3.448-2.212,5.956-2.212c2.513,0,4.489,0.748,5.874,2.222c2.149,2.288,2.06,5.501,2.042,5.869l0.006,1.933
			c0.001,0.445-0.359,0.807-0.804,0.808c-0.001,0-0.002,0-0.002,0c-0.444,0-0.805-0.359-0.806-0.804l-0.006-1.982l0.002-0.026
			c0.002-0.026,0.142-2.843-1.615-4.704c-1.068-1.131-2.646-1.704-4.69-1.704c-2.06,0-3.677,0.582-4.807,1.731
			c-1.858,1.889-1.834,4.686-1.834,4.714l0,5.703C18.879,19.547,18.518,19.908,18.073,19.908z"/>
	</g>
</g>
</svg>
