<?xml version="1.0" encoding="utf-8"?>
<!-- Generator: Adobe Illustrator 26.3.1, SVG Export Plug-In . SVG Version: 6.00 Build 0)  -->
<svg version="1.1" id="레이어_1" xmlns="http://www.w3.org/2000/svg" xmlns:xlink="http://www.w3.org/1999/xlink" x="0px"
	 y="0px" viewBox="0 0 52 46" style="enable-background:new 0 0 52 46;" xml:space="preserve">
<style type="text/css">
	.st0{fill:#F5F5F5;}
	.st1{fill:#707070;}
	.st2{fill:#DAEEED;}
	.st3{fill:#097B7B;}
</style>
<g>
	<g>
		<g>
			<g>
				<path class="st0" d="M31.34,37.303H20.674c-1.484,0-2.687-1.203-2.687-2.687V4.491c0-1.484,1.203-2.687,2.687-2.687h17.8
					c1.484,0,2.687,1.203,2.687,2.687v30.126c0,1.484-1.203,2.687-2.687,2.687H31.34"/>
				<path class="st0" d="M38.474,38.108h-17.8c-1.925,0-3.491-1.566-3.491-3.491V4.491C17.183,2.566,18.749,1,20.674,1h17.8
					c1.925,0,3.491,1.566,3.491,3.491v30.126C41.964,36.542,40.399,38.108,38.474,38.108z M20.674,2.609
					c-1.038,0-1.883,0.844-1.883,1.882v30.126c0,1.038,0.845,1.882,1.883,1.882h17.8c1.038,0,1.882-0.845,1.882-1.882V4.491
					c0-1.038-0.845-1.882-1.882-1.882H20.674z"/>
			</g>
		</g>
	</g>
	<g>
		<g>
			<path class="st1" d="M34.291,42.361h-2.419c-0.444,0-0.804-0.36-0.804-0.804c0-0.444,0.36-0.804,0.804-0.804h2.419
				c1.038,0,1.883-0.845,1.883-1.882V8.744c0-1.038-0.845-1.882-1.883-1.882h-17.8c-1.038,0-1.882,0.844-1.882,1.882V38.87
				c0,1.038,0.845,1.882,1.882,1.882h10.666c0.444,0,0.804,0.36,0.804,0.804c0,0.444-0.36,0.804-0.804,0.804H16.491
				c-1.925,0-3.491-1.566-3.491-3.491V8.744c0-1.925,1.566-3.491,3.491-3.491h17.8c1.925,0,3.491,1.566,3.491,3.491V38.87
				C37.782,40.795,36.216,42.361,34.291,42.361z"/>
			<path class="st1" d="M29.336,10.588h-7.889c-0.444,0-0.804-0.36-0.804-0.804s0.36-0.804,0.804-0.804h7.889
				c0.444,0,0.804,0.36,0.804,0.804S29.78,10.588,29.336,10.588z"/>
		</g>
		<g>
			<g>
				<path class="st2" d="M21.949,29.096v-3.778c0-1.854,1.504-3.358,3.359-3.358h0.168c1.855,0,3.359,1.504,3.359,3.358v3.778"/>
				<path class="st3" d="M28.834,29.74c-0.355,0-0.643-0.288-0.643-0.643v-3.778c0-1.497-1.218-2.715-2.715-2.715h-0.168
					c-1.497,0-2.715,1.218-2.715,2.715v3.778c0,0.355-0.288,0.643-0.643,0.643c-0.355,0-0.643-0.288-0.643-0.643v-3.778
					c0-2.207,1.795-4.002,4.002-4.002h0.168c2.207,0,4.002,1.795,4.002,4.002v3.778C29.477,29.452,29.189,29.74,28.834,29.74z"/>
			</g>
			<path class="st1" d="M29.589,31.755h-8.396c-0.818,0-1.483-0.665-1.483-1.483s0.665-1.483,1.483-1.483h8.396
				c0.818,0,1.483,0.665,1.483,1.483S30.407,31.755,29.589,31.755z M21.193,30.075c-0.108,0-0.196,0.088-0.196,0.196
				c0,0.108,0.088,0.196,0.196,0.196h8.396c0.108,0,0.196-0.088,0.196-0.196c0-0.108-0.088-0.196-0.196-0.196H21.193z"/>
			<g>
				<rect x="24.759" y="17.874" class="st3" width="1.287" height="2.462"/>
				
					<rect x="28.295" y="19.721" transform="matrix(0.5628 -0.8266 0.8266 0.5628 -3.9243 33.3089)" class="st3" width="2.462" height="1.287"/>
				
					<rect x="20.635" y="19.133" transform="matrix(0.8265 -0.5629 0.5629 0.8265 -7.7722 15.512)" class="st3" width="1.287" height="2.462"/>
			</g>
		</g>
	</g>
</g>
</svg>
