<?xml version="1.0" encoding="utf-8"?>
<!-- Generator: Adobe Illustrator 26.3.1, SVG Export Plug-In . SVG Version: 6.00 Build 0)  -->
<svg version="1.1" id="레이어_1" xmlns="http://www.w3.org/2000/svg" xmlns:xlink="http://www.w3.org/1999/xlink" x="0px"
	 y="0px" viewBox="0 0 52 46" style="enable-background:new 0 0 52 46;" xml:space="preserve">
<style type="text/css">
	.st0{fill:#F5F5F5;}
	.st1{fill:#097B7B;}
	.st2{fill:#707070;}
	.st3{fill:#DAEEED;}
</style>
<g>
	<g>
		<g>
			<g>
				<path class="st0" d="M39.588,30.955h-25.34c-1.795,0-3.251-1.455-3.251-3.251V11.153c0-1.796,1.455-3.252,3.251-3.252h27.783
					c1.795,0,3.251,1.456,3.251,3.252v10.22"/>
				<path class="st0" d="M39.588,31.774h-25.34c-2.244,0-4.069-1.826-4.069-4.07V11.153c0-2.244,1.826-4.07,4.069-4.07h27.783
					c2.244,0,4.069,1.826,4.069,4.07v10.22c0,0.452-0.367,0.819-0.819,0.819s-0.819-0.367-0.819-0.819v-10.22
					c0-1.341-1.091-2.433-2.432-2.433H14.248c-1.341,0-2.432,1.091-2.432,2.433v16.551c0,1.341,1.091,2.432,2.432,2.432h25.34
					c0.452,0,0.819,0.367,0.819,0.819C40.407,31.407,40.04,31.774,39.588,31.774z"/>
			</g>
		</g>
		<g>
			<path class="st0" d="M49.29,26.319c0,4.225-3.425,7.649-7.649,7.649c-4.225,0-7.65-3.425-7.65-7.649
				c0-4.224,3.425-7.649,7.65-7.649C45.866,18.67,49.29,22.094,49.29,26.319z"/>
			<path class="st0" d="M41.641,34.787c-4.67,0-8.469-3.799-8.469-8.468s3.799-8.468,8.469-8.468c4.669,0,8.468,3.799,8.468,8.468
				S46.31,34.787,41.641,34.787z M41.641,19.489c-3.767,0-6.831,3.064-6.831,6.83s3.065,6.83,6.831,6.83
				c3.766,0,6.83-3.064,6.83-6.83S45.408,19.489,41.641,19.489z"/>
		</g>
	</g>
	<g>
		<g>
			<rect x="6.74" y="17.937" class="st1" width="34.285" height="2.62"/>
			<path class="st2" d="M27.545,36.032H9.991c-2.244,0-4.069-1.826-4.069-4.07V15.411c0-2.244,1.826-4.07,4.069-4.07h27.783
				c2.244,0,4.07,1.826,4.07,4.07v4.317c0,0.452-0.367,0.819-0.819,0.819s-0.819-0.367-0.819-0.819v-4.317
				c0-1.341-1.091-2.433-2.433-2.433H9.991c-1.341,0-2.432,1.091-2.432,2.433v16.551c0,1.341,1.091,2.432,2.432,2.432h17.554
				c0.452,0,0.819,0.367,0.819,0.819S27.997,36.032,27.545,36.032z"/>
			<path class="st2" d="M21.601,25.273H11.453c-0.543,0-0.982-0.44-0.982-0.982s0.44-0.982,0.982-0.982h10.147
				c0.543,0,0.982,0.44,0.982,0.982S22.143,25.273,21.601,25.273z"/>
		</g>
		<g>
			<path class="st3" d="M45.032,30.577c0,4.224-3.425,7.649-7.649,7.649c-4.225,0-7.649-3.425-7.649-7.649s3.425-7.649,7.649-7.649
				C41.608,22.928,45.032,26.352,45.032,30.577z"/>
			<path class="st1" d="M37.384,39.045c-4.669,0-8.468-3.799-8.468-8.468s3.799-8.468,8.468-8.468c4.669,0,8.468,3.799,8.468,8.468
				S42.053,39.045,37.384,39.045z M37.384,23.746c-3.767,0-6.831,3.064-6.831,6.83s3.064,6.83,6.831,6.83
				c3.766,0,6.83-3.064,6.83-6.83S41.15,23.746,37.384,23.746z"/>
		</g>
		<path class="st1" d="M36.812,34.569l-3.97-3.349c-0.345-0.292-0.389-0.808-0.098-1.154c0.292-0.345,0.808-0.389,1.154-0.098
			l2.764,2.332l4.129-4.54c0.304-0.335,0.822-0.359,1.156-0.055c0.335,0.304,0.359,0.822,0.055,1.156L36.812,34.569z"/>
	</g>
</g>
</svg>
