<?xml version="1.0" encoding="UTF-8"?><svg id="_레이어_1" xmlns="http://www.w3.org/2000/svg" viewBox="0 0 20.56 27.16"><defs><style>.cls-1{fill:#ffdbdb;}.cls-2{fill:#95452b;}.cls-3{fill:#ffb5b5;}.cls-4{fill:#3b2a2a;}</style></defs><path class="cls-2" d="m20.31,26.91H.25v-1.42c0-4.28,2.83-7.94,6.69-8.66l3.34-.62,3.34.62c3.87.72,6.69,4.38,6.69,8.66v1.42Z"/><path d="m20.31,27.16H.25c-.14,0-.25-.11-.25-.25v-1.42c0-4.42,2.9-8.17,6.9-8.91l3.34-.62s.06,0,.09,0l3.34.62c4,.74,6.9,4.49,6.9,8.91v1.42c0,.14-.11.25-.25.25Zm-19.81-.5h19.56v-1.17c0-4.18-2.73-7.72-6.49-8.42l-3.29-.61-3.29.61c-3.76.7-6.49,4.24-6.49,8.42v1.17Z"/><g><path class="cls-1" d="m8.11,14.39v2.52c0,1.2.97,2.17,2.17,2.17h0c1.2,0,2.17-.97,2.17-2.17v-2.52h-4.34Z"/><path d="m10.28,19.33c-1.34,0-2.42-1.09-2.42-2.42v-2.52c0-.14.11-.25.25-.25h4.34c.14,0,.25.11.25.25v2.52c0,1.34-1.09,2.42-2.42,2.42Zm-1.92-4.7v2.27c0,1.06.86,1.92,1.92,1.92s1.92-.86,1.92-1.92v-2.27h-3.84Z"/></g><g><g><path class="cls-1" d="m19.69,11.11c0,1.42-1.15,2.57-2.57,2.57s-2.57-1.15-2.57-2.57,1.15-2.57,2.57-2.57,2.57,1.15,2.57,2.57Z"/><path class="cls-1" d="m6.02,11.11c0,1.42-1.15,2.57-2.57,2.57s-2.57-1.15-2.57-2.57,1.15-2.57,2.57-2.57,2.57,1.15,2.57,2.57Z"/></g><g><path d="m17.12,13.94c-1.56,0-2.82-1.27-2.82-2.82s1.27-2.82,2.82-2.82,2.82,1.27,2.82,2.82-1.27,2.82-2.82,2.82Zm0-5.15c-1.28,0-2.32,1.04-2.32,2.32s1.04,2.32,2.32,2.32,2.32-1.04,2.32-2.32-1.04-2.32-2.32-2.32Z"/><path d="m3.44,13.94c-1.56,0-2.82-1.27-2.82-2.82s1.27-2.82,2.82-2.82,2.82,1.27,2.82,2.82-1.27,2.82-2.82,2.82Zm0-5.15c-1.28,0-2.32,1.04-2.32,2.32s1.04,2.32,2.32,2.32,2.32-1.04,2.32-2.32-1.04-2.32-2.32-2.32Z"/></g></g><path class="cls-1" d="m16.83,4.48H3.73c-.33,0-.6.27-.6.6v4.29c0,3.95,3.2,7.15,7.15,7.15h0c3.95,0,7.15-3.2,7.15-7.15v-4.29c0-.33-.27-.6-.6-.6Z"/><g><path class="cls-3" d="m15.87,12.29c0,.85-.69,1.54-1.54,1.54s-1.54-.69-1.54-1.54.69-1.54,1.54-1.54,1.54.69,1.54,1.54Z"/><path class="cls-3" d="m7.77,12.29c0,.85-.69,1.54-1.54,1.54s-1.54-.69-1.54-1.54.69-1.54,1.54-1.54,1.54.69,1.54,1.54Z"/></g><path d="m10.28,16.78c-4.08,0-7.4-3.32-7.4-7.4v-4.29c0-.47.38-.85.85-.85h13.09c.47,0,.85.38.85.85v4.29c0,4.08-3.32,7.4-7.4,7.4ZM3.73,4.73c-.2,0-.35.16-.35.35v4.29c0,3.81,3.1,6.9,6.9,6.9s6.9-3.1,6.9-6.9v-4.29c0-.2-.16-.35-.35-.35H3.73Z"/><path class="cls-4" d="m15.09,1.5c-4.13-2.64-7.81-.32-7.81-.32C3.26.9.66,5.53,2.92,9.51c0,0,4.19-1,5.25-3.59,2.07,5.01,9.7,3.59,9.7,3.59.54-2.56.27-6.06-2.78-8.01Z"/><path d="m15.49,9.95c-.53,0-1.12-.03-1.73-.1-2.71-.34-4.63-1.49-5.6-3.35-1.36,2.31-5.02,3.21-5.18,3.25-.11.03-.22-.02-.28-.12-1.16-2.05-1.15-4.48.02-6.34C3.72,1.71,5.4.83,7.22.93c.55-.31,4.12-2.12,8.01.36h0c3.8,2.43,3.17,6.95,2.89,8.27-.02.1-.1.18-.2.19-.06.01-1.06.19-2.42.19Zm-7.33-4.27c.1,0,.19.06.23.15,1.8,4.37,8.15,3.63,9.26,3.46.27-1.42.68-5.42-2.7-7.58h0c-3.94-2.52-7.51-.34-7.55-.32-.04.03-.1.04-.15.04-1.66-.12-3.2.68-4.12,2.13-1.04,1.65-1.08,3.81-.1,5.66.8-.23,4.02-1.25,4.89-3.39.04-.09.13-.15.23-.15h0Z"/><g><g><path d="m8.23,10.72c0,.48-.29.86-.66.86s-.66-.39-.66-.86.29-.86.66-.86.66.39.66.86Z"/><path d="m13.64,10.72c0,.48-.29.86-.66.86s-.66-.39-.66-.86.29-.86.66-.86.66.39.66.86Z"/></g><path d="m10.28,13.56c-1.25,0-1.82-.64-1.84-.67-.09-.1-.08-.26.03-.35.1-.09.26-.08.35.02.02.02.46.5,1.46.5s1.45-.48,1.46-.5c.09-.1.25-.11.35-.02.1.09.11.25.03.35-.02.03-.59.67-1.84.67Z"/></g></svg>