<?xml version="1.0" encoding="utf-8"?>
<!-- Generator: Adobe Illustrator 27.1.1, SVG Export Plug-In . SVG Version: 6.00 Build 0)  -->
<svg version="1.1" id="레이어_1" xmlns="http://www.w3.org/2000/svg" xmlns:xlink="http://www.w3.org/1999/xlink" x="0px"
	 y="0px" viewBox="0 0 24 24" style="enable-background:new 0 0 24 24;" xml:space="preserve">
<style type="text/css">
	.st0{fill:#333333;}
</style>
<g id="_레이어_1-2">
	<path class="st0" d="M18.7,2.6c1,0,1.7,0.8,1.7,1.7v15c0,1-0.8,1.7-1.7,1.7S17,20.3,17,19.3v-15C17,3.3,17.8,2.6,18.7,2.6z
		 M4.9,14.1c1,0,1.7,0.8,1.7,1.7v3.5c0,1-0.8,1.7-1.7,1.7s-1.7-0.8-1.7-1.7v-3.5C3.1,14.9,3.9,14.1,4.9,14.1z M11.8,8.4
		c1,0,1.7,0.8,1.7,1.7v9.3c0,1-0.8,1.7-1.7,1.7s-1.7-0.8-1.7-1.7v-9.3C10.1,9.1,10.8,8.4,11.8,8.4z"/>
</g>
</svg>
