<svg width="16" height="17" xmlns="http://www.w3.org/2000/svg"><g fill="none" fill-rule="evenodd"><path d="M0 .93h16v15.926H0z"/><path d="m11.413 4.772.246.013c.515.015 1.982.203 2.928 1.578-.076.046-1.747 1.024-1.729 3.036.02 2.412 2.116 3.21 2.142 3.218l-.014.05a8.165 8.165 0 0 1-1.1 2.211c-.657.979-1.344 1.935-2.437 1.952-1.06.025-1.418-.622-2.635-.622-1.228 0-1.608.605-2.626.647-1.04.038-1.835-1.045-2.515-2.014-1.36-1.98-2.418-5.578-.999-8.027.688-1.201 1.942-1.975 3.282-1.995 1.041-.022 2.008.7 2.648.7.628 0 1.823-.863 3.055-.734zM11.672.93c.104.942-.27 1.87-.818 2.553-.571.671-1.485 1.185-2.375 1.12-.117-.907.334-1.871.839-2.46.57-.667 1.561-1.178 2.354-1.213z" fill="#FFF"/></g></svg>