<svg width="52" height="52" xmlns="http://www.w3.org/2000/svg" xmlns:xlink="http://www.w3.org/1999/xlink"><defs><path id="a" d="M0 0h52v52H0z"/></defs><g fill="none" fill-rule="evenodd"><mask id="b" fill="#fff"><use xlink:href="#a"/></mask><path stroke="#1D1D1B" fill="#FF3C3C" stroke-linejoin="round" mask="url(#b)" d="m26 31 4 16h-8z"/><path stroke="#1D1D1B" fill="#FF3C3C" stroke-linejoin="round" mask="url(#b)" d="M24 30h4l-1 4h-2z"/><g mask="url(#b)"><path d="M19.149 28.203 26 45.397l7-17.194C40.688 31.61 45.021 38.21 46 48H6c.526-9.43 4.91-16.03 13.149-19.797z" fill="#0573E8"/><path stroke="#1D1D1B" stroke-linecap="round" stroke-linejoin="round" d="m19 28.324 7 17.073 7-17.073"/><path d="M26 7c6.075 0 11 4.925 11 11 0 4.205-2.36 7.86-5.827 9.71C39.71 30.102 46 38.28 46 48H6c0-9.72 6.29-17.898 14.828-20.291A10.994 10.994 0 0 1 15 18c0-6.075 4.925-11 11-11z" stroke="#1D1D1B" stroke-linejoin="round"/><path d="M23 22.26c1 .32 2 .48 3 .48s2-.16 3-.48" stroke="#1D1D1B" stroke-linecap="round" stroke-linejoin="round"/></g><g mask="url(#b)" stroke="#000" stroke-linecap="round" stroke-linejoin="round"><path d="M7 17.471h4.112m-2.837-7.039 3.562 2.06m0 9.958-3.562 2.06"/></g><g mask="url(#b)" stroke="#000" stroke-linecap="round" stroke-linejoin="round"><path d="M45.087 17.471h-4.112m2.837-7.039-3.561 2.06m-.001 9.958 3.562 2.06"/></g></g></svg>