<svg width="52" height="52" xmlns="http://www.w3.org/2000/svg" xmlns:xlink="http://www.w3.org/1999/xlink"><defs><path id="a" d="M0 0h52v52H0z"/></defs><g fill="none" fill-rule="evenodd"><mask id="b" fill="#fff"><use xlink:href="#a"/></mask><g mask="url(#b)"><g transform="translate(14 5)"><rect fill="#FFF" width="24" height="42" rx="2"/><path d="M12 22.5a1.5 1.5 0 1 0 0-3 1.5 1.5 0 0 0 0 3zm5.5 0a1.5 1.5 0 1 0 0-3 1.5 1.5 0 0 0 0 3zm-11 0a1.5 1.5 0 1 0 0-3 1.5 1.5 0 0 0 0 3z" fill="#00C0AA" stroke="#1D1D1B" stroke-linejoin="round"/><path d="M3 0h18a3 3 0 0 1 3 3v2H0V3a3 3 0 0 1 3-3zm0 42h18a3 3 0 0 0 3-3v-2H0v2a3 3 0 0 0 3 3z" fill="#A0A0A0"/><rect stroke="#1D1D1B" width="24" height="42" rx="2.158"/><circle fill="#1D1D1B" cx="12.25" cy="39.25" r="1"/><rect fill="#1D1D1B" x="8.5" y="2.2" width="7" height="1" rx=".5"/></g></g></g></svg>