<?xml version="1.0" encoding="utf-8"?>
<!-- Generator: Adobe Illustrator 27.1.1, SVG Export Plug-In . SVG Version: 6.00 Build 0)  -->
<svg version="1.1" id="레이어_1" xmlns="http://www.w3.org/2000/svg" xmlns:xlink="http://www.w3.org/1999/xlink" x="0px"
	 y="0px" viewBox="0 0 32 32" style="enable-background:new 0 0 32 32;" xml:space="preserve">
<style type="text/css">
	.st0{fill:#222222;}
	.st1{fill:#99E7E5;}
	.st2{fill:#FFFFFF;}
</style>
<g>
	<path class="st0" d="M16.1,23.5c-0.3,0-0.6-0.3-0.6-0.6V8c0-0.3,0.3-0.6,0.6-0.6c0.3,0,0.6,0.3,0.6,0.6v15
		C16.7,23.3,16.4,23.5,16.1,23.5z"/>
	<path class="st0" d="M26.4,23.5c-0.3,0-0.6-0.3-0.6-0.6v-6.9H6.3v6.9c0,0.3-0.3,0.6-0.6,0.6s-0.6-0.3-0.6-0.6v-7.4
		c0-0.3,0.3-0.6,0.6-0.6h20.6c0.3,0,0.6,0.3,0.6,0.6v7.4C27,23.3,26.7,23.5,26.4,23.5z"/>
	<g>
		<rect x="13.3" y="5.2" class="st1" width="5.7" height="5.7"/>
		<path class="st0" d="M18.9,11.5h-5.7c-0.3,0-0.6-0.3-0.6-0.6V5.2c0-0.4,0.2-0.6,0.6-0.6h5.7c0.3,0,0.6,0.3,0.6,0.6v5.7
			C19.5,11.2,19.2,11.5,18.9,11.5z M13.8,10.3h4.6V5.7h-4.6C13.8,5.7,13.8,10.3,13.8,10.3z"/>
	</g>
	<g>
		<rect x="2.9" y="20.1" class="st2" width="5.7" height="5.7"/>
		<path class="st0" d="M8.7,26.4H2.9c-0.3,0-0.6-0.3-0.6-0.6v-5.7c0-0.3,0.3-0.6,0.6-0.6h5.7c0.3,0,0.6,0.3,0.6,0.6v5.7
			C9.2,26.1,9,26.4,8.7,26.4z M3.5,25.2h4.6v-4.6H3.5V25.2z"/>
	</g>
	<g>
		<rect x="13.3" y="20.1" class="st2" width="5.7" height="5.7"/>
		<path class="st0" d="M18.9,26.4h-5.7c-0.3,0-0.6-0.3-0.6-0.6v-5.7c0-0.3,0.3-0.6,0.6-0.6h5.7c0.3,0,0.6,0.3,0.6,0.6v5.7
			C19.5,26.1,19.2,26.4,18.9,26.4z M13.8,25.2h4.6v-4.6h-4.6C13.8,20.6,13.8,25.2,13.8,25.2z"/>
	</g>
	<g>
		<rect x="23.5" y="20.1" class="st2" width="5.7" height="5.7"/>
		<path class="st0" d="M29.2,26.4h-5.7c-0.3,0-0.6-0.3-0.6-0.6v-5.7c0-0.3,0.3-0.6,0.6-0.6h5.7c0.3,0,0.6,0.3,0.6,0.6v5.7
			C29.8,26.1,29.6,26.4,29.2,26.4z M24.1,25.2h4.6v-4.6h-4.6C24.1,20.6,24.1,25.2,24.1,25.2z"/>
	</g>
</g>
</svg>
