<svg width="28" height="28" xmlns="http://www.w3.org/2000/svg"><g fill="none" fill-rule="evenodd"><path d="M0 0h28v28H0z"/><path d="M13.65 20.855c2.595 0 4.65-1.41 4.65-3.63 0-1.695-1.38-2.775-2.475-3 .93-.285 2.025-1.335 2.025-2.73 0-1.89-1.695-3.495-4.2-3.495-2.49 0-4.23 1.575-4.23 3.495 0 1.395 1.11 2.445 2.055 2.73-1.08.225-2.475 1.305-2.475 3 0 2.22 2.055 3.63 4.65 3.63zm0-7.86c-.915 0-1.65-.6-1.65-1.455 0-.78.705-1.32 1.65-1.32.975 0 1.65.6 1.65 1.38 0 .825-.705 1.395-1.65 1.395zm0 5.61c-1.2 0-2.025-.66-2.025-1.545 0-.915.855-1.59 2.025-1.59s2.025.675 2.025 1.59c0 .885-.825 1.545-2.025 1.545z" fill="#1D1D1B" fill-rule="nonzero"/></g></svg>