<svg width="24" height="24" xmlns="http://www.w3.org/2000/svg" xmlns:xlink="http://www.w3.org/1999/xlink"><defs><path id="a" d="M0 0h24v24H0z"/></defs><g fill="none" fill-rule="evenodd"><mask id="b" fill="#fff"><use xlink:href="#a"/></mask><path d="M10.75 13.5A1.75 1.75 0 0 0 9 11.75m4.375 1.75A4.375 4.375 0 0 0 9 9.125m7 4.375a7 7 0 0 0-7-7" stroke="#999" stroke-linecap="round" stroke-linejoin="round" mask="url(#b)"/><path d="M22 12.327V15a3 3 0 0 1-3 3h-4 0l-3 3-3.002-3H5a3 3 0 0 1-3-3V6a3 3 0 0 1 3-3h14a3 3 0 0 1 3 3v3.43h0" stroke="#999" stroke-linecap="round" stroke-linejoin="round" mask="url(#b)"/></g></svg>