<svg width="32" height="32" xmlns="http://www.w3.org/2000/svg" xmlns:xlink="http://www.w3.org/1999/xlink"><defs><path id="a" d="M0 0h32v32H0z"/></defs><g fill="none" fill-rule="evenodd"><mask id="b" fill="#fff"><use xlink:href="#a"/></mask><path d="M4 12.424v13a2 2 0 0 0 2 2h20a2 2 0 0 0 2-2V15.47h0" stroke="#999" stroke-linecap="round" stroke-linejoin="round" mask="url(#b)"/><path d="m11.492 7.168 2.793-1.959a3 3 0 0 1 3.447.002l2.787 1.957h0m4.5 3.161L28 12.424l-11.991 9.084L4 12.424l2.992-2.099" stroke="#999" stroke-linecap="round" stroke-linejoin="round" mask="url(#b)"/><path d="M7 14.387V8.184c0-.552.403-1 .9-1h16.2c.497 0 .9.448.9 1v6.203" stroke="#999" stroke-linecap="round" stroke-linejoin="round" mask="url(#b)"/><rect fill="#999" mask="url(#b)" x="12" y="10.5" width="8" height="1" rx=".5"/><rect fill="#999" mask="url(#b)" x="12" y="13.5" width="8" height="1" rx=".5"/></g></svg>