<svg width="95" height="13" xmlns="http://www.w3.org/2000/svg" xmlns:xlink="http://www.w3.org/1999/xlink"><defs><path id="a" d="M0 13h94.74V0H0z"/></defs><g fill="none" fill-rule="evenodd"><path d="M5.74 3.113H0V.295h10.364S7.51 1.443 5.82 3.113h-.08z" fill="#F4811F"/><path d="M12.007.073v3.16s-3.04.794-3.437 3.059c0 0-.637 2.74-.48 6.296H3.542s-.157-4.746 1.216-7.45c0 0 1.324-3.138 7.248-5.065" fill="#EC1D24"/><mask id="b" fill="#fff"><use xlink:href="#a"/></mask><path fill="#2A9345" mask="url(#b)" d="M12.45 7.458h5.497V5.23H12.45zM20.902.252v12.286h9.02v-2.433h-3.937v-2.86h3.947V5.23h-3.947V2.477h3.947V.252zm21.021 0v12.286h9.027v-2.433h-3.943v-2.86h3.95V5.23h-3.95V2.477h3.95V.252zm24.328 0v12.286h9.02v-2.433h-3.939v-2.86h3.953V5.23h-3.953V2.477h3.953V.252zm-34.349 0v12.286h8.74v-2.433h-3.798V.252zm20.304 0 2.255 12.286h7.345L64.9.252h-3.874L58.803 9.07 57.013.252zm37.65 12.286V3.071S90.54-.225 85.62.012c0 0-2.328.4-3.7 1.354V.252h-4.75v12.286h4.796V4.62s-.046-1.506 1.326-1.625c1.378-.117 1.696.395 1.644 1.11v8.434h4.92zm4.634-1.376a1.6 1.6 0 0 1-1.591 1.597 1.56 1.56 0 0 1-1.129-.472 1.587 1.587 0 0 1-.464-1.125c0-.422.166-.833.464-1.133a1.603 1.603 0 0 1 2.257 0c.301.3.463.711.463 1.133M92.9 9.317c-1.018 0-1.843.83-1.843 1.845 0 .492.193.952.541 1.3A1.83 1.83 0 0 0 92.9 13a1.86 1.86 0 0 0 1.304-.539 1.836 1.836 0 0 0 0-2.595 1.841 1.841 0 0 0-1.304-.55"/><path d="M92.381 10.969v-.805h.438c.172 0 .317.03.4.106.092.062.13.167.13.305a.346.346 0 0 1-.13.292.773.773 0 0 1-.415.102h-.423zm1.432 1.25-.533-1.017c.118-.061.208-.152.283-.233a.638.638 0 0 0 .132-.394.544.544 0 0 0-.08-.305.612.612 0 0 0-.202-.25.641.641 0 0 0-.246-.09 3.185 3.185 0 0 0-.455-.033h-.624v.267l.013 1.062v1.06c0 .078.059.134.123.134.08 0 .14-.056.14-.134v-1.06h.638l.566 1.124c.037.056.115.097.178.056.07-.036.09-.119.067-.187z" fill="#2A9345" mask="url(#b)"/></g></svg>