<svg width="32" height="32" xmlns="http://www.w3.org/2000/svg" xmlns:xlink="http://www.w3.org/1999/xlink"><defs><path id="a" d="M0 0h32v32H0z"/></defs><g fill="none" fill-rule="evenodd"><mask id="b" fill="#fff"><use xlink:href="#a"/></mask><rect fill="teal" mask="url(#b)" x="17" y="12.5" width="8" height="1" rx=".5"/><rect fill="teal" mask="url(#b)" x="17" y="15.5" width="8" height="1" rx=".5"/><path d="M24 14.123v7.902c0 1.09-.934 1.975-2.087 1.975h-2.792m-13.22 0H2.087C.934 24 0 23.116 0 22.025V9.975C0 8.885.934 8 2.087 8h19.826C23.066 8 24 8.884 24 9.975v4.148" stroke="teal" stroke-linecap="round" stroke-linejoin="round" mask="url(#b)" transform="rotate(-90 12 16)"/><rect fill="teal" mask="url(#b)" x="9" y="6" width="6" height="1" rx=".5"/><rect stroke="teal" mask="url(#b)" x="14" y="9" width="14" height="11" rx="2"/></g></svg>