<svg width="32" height="32" xmlns="http://www.w3.org/2000/svg" xmlns:xlink="http://www.w3.org/1999/xlink"><defs><path id="a" d="M0 0h32v32H0z"/></defs><g fill="none" fill-rule="evenodd"><mask id="b" fill="#fff"><use xlink:href="#a"/></mask><rect fill="teal" mask="url(#b)" x="13" y="6" width="6" height="1" rx=".5"/><path d="M28 14.123v7.902c0 1.09-.934 1.975-2.087 1.975M15.13 24H6.087C4.934 24 4 23.116 4 22.025V9.975C4 8.885 4.934 8 6.087 8h19.826C27.066 8 28 8.884 28 9.975v4.148" stroke="teal" stroke-linecap="round" stroke-linejoin="round" mask="url(#b)" transform="rotate(-90 16 16)"/><g mask="url(#b)" stroke="teal" stroke-linecap="round" stroke-linejoin="round"><path d="M26.622 13.798s.022-2.26-1.688-3.97c-1.71-1.71-3.97-1.687-3.97-1.687m3.19 6.239s.042-1.398-1.166-2.605c-1.208-1.208-2.605-1.167-2.605-1.167m1.455 4.202s.02-.699-.583-1.302c-.604-.604-1.303-.584-1.303-.584"/></g></g></svg>