<svg width="48" height="48" xmlns="http://www.w3.org/2000/svg"><g fill="none" fill-rule="evenodd"><path d="M0 0h48v48H0z"/><g stroke="#1D1D1B"><path d="M24.366 34.487c1.262-1.235 6.25-6.697 14.648-16.244a2 2 0 0 0-.196-2.836l-2.463-2.122a2 2 0 0 0-2.8.187L19.483 29.3a1 1 0 0 0 .742 1.664c.916.006 1.87-.345 2.862-1.051" fill="#FB735F"/><path d="M12.016 22.384a2.492 2.492 0 0 1 1.754-.763 2.488 2.488 0 0 1 1.774.695l8.748 8.742a2.49 2.49 0 0 1 .732 1.746 2.493 2.493 0 0 1-.701 1.759L22.934 36a2.492 2.492 0 0 1-1.755.763 2.488 2.488 0 0 1-1.774-.695l-8.747-8.742a2.493 2.493 0 0 1-.733-1.747 2.493 2.493 0 0 1 .702-1.758z" fill="#FFCE28"/><path d="M22.339 26.088 19.483 29.3a1 1 0 0 0 .742 1.665c.916.005 2.357-.711 3.182-1.486" fill="#FB735F" stroke-linejoin="bevel"/></g></g></svg>