<svg width="32" height="32" xmlns="http://www.w3.org/2000/svg"><g fill="none" fill-rule="evenodd"><path d="M0 0h32v32H0z"/><circle stroke="#FFF" stroke-width="1.5" fill="#FF4C4C" cx="24" cy="23" r="6.25"/><path d="M24.168 19.67c-.565 0-1.03.144-1.396.432-.365.288-.607.739-.724 1.352.176.027.35.057.524.092.173.035.345.065.516.092.027-.144.063-.279.108-.404s.107-.233.184-.324a.827.827 0 0 1 .292-.216c.117-.053.261-.08.432-.08.261 0 .465.068.612.204.147.136.217.343.212.62 0 .128-.019.244-.056.348a.614.614 0 0 1-.2.272 1.032 1.032 0 0 1-.396.18 2.967 2.967 0 0 1-.652.072v.8c.315 0 .564.023.748.068.184.045.324.11.42.192a.572.572 0 0 1 .188.3c.03.117.044.245.044.384a.876.876 0 0 1-.064.328.789.789 0 0 1-.196.284.981.981 0 0 1-.328.2 1.27 1.27 0 0 1-.46.076.852.852 0 0 1-.4-.096 1.32 1.32 0 0 1-.336-.252 1.643 1.643 0 0 1-.408-.732l-.976.384c.08.261.179.495.296.7.117.205.263.379.436.52.173.141.375.25.604.324.23.075.496.112.8.112.283 0 .55-.04.804-.12.253-.08.476-.199.668-.356.192-.157.347-.353.464-.588.117-.235.179-.504.184-.808 0-.352-.079-.644-.236-.876-.157-.232-.412-.415-.764-.548.25-.123.463-.29.636-.5.173-.21.26-.487.26-.828a1.433 1.433 0 0 0-.492-1.128 1.858 1.858 0 0 0-.584-.344 2.28 2.28 0 0 0-.764-.136z" fill="#FFF" fill-rule="nonzero"/></g></svg>