<svg width="64" height="64" xmlns="http://www.w3.org/2000/svg" xmlns:xlink="http://www.w3.org/1999/xlink"><defs><path id="a" d="M0 0h64v64H0z"/></defs><g fill="none" fill-rule="evenodd"><mask id="b" fill="#fff"><use xlink:href="#a"/></mask><rect stroke="#1D1D1B" stroke-width="2" fill="#FF5100" mask="url(#b)" x="10" y="26" width="44" height="26" rx="1.76"/><rect stroke="#1D1D1B" stroke-width="2" fill="#FF5100" mask="url(#b)" x="8" y="18" width="48" height="10" rx="1.6"/><path d="M22.97 10.116c1.018-.843 2.364-1.208 3.7-1.096a5.647 5.647 0 0 1 3.632 1.743c1.641 1.73 1.776 5.514 1.738 7.332-2.434-.221-5.985-.714-8.093-1.99-1.267-.767-2-1.859-2.163-2.984-.16-1.11.25-2.227 1.187-3.005z" stroke="#1D1D1B" stroke-width="2" mask="url(#b)"/><path d="M33.198 10.116c1.018-.843 2.363-1.208 3.7-1.096a5.647 5.647 0 0 1 3.631 1.743c1.575 1.661 1.713 5.249 1.72 7.1-1.854.094-5.802-.383-8.075-1.758-1.266-.767-2-1.859-2.163-2.984-.16-1.11.25-2.227 1.187-3.005z" stroke="#1D1D1B" stroke-width="2" mask="url(#b)" transform="matrix(-1 0 0 1 74.227 0)"/><path stroke="#1D1D1B" stroke-width="2" fill="#FFF" stroke-linejoin="round" mask="url(#b)" d="M28 18h8v34h-8z"/></g></svg>