<svg width="64" height="64" xmlns="http://www.w3.org/2000/svg" xmlns:xlink="http://www.w3.org/1999/xlink"><defs><path id="a" d="M0 0h64v64H0z"/></defs><g fill="none" fill-rule="evenodd"><mask id="b" fill="#fff"><use xlink:href="#a"/></mask><g mask="url(#b)"><path d="M17.079 39.048c-2.286-4.98-2.577-11.802-1.408-20.159 3.748-.67 8.774-1.966 15.079-3.889l.67.204c5.992 1.811 10.795 3.04 14.41 3.685 1.168 8.357.877 15.178-1.409 20.16-1.524 3.32-6.08 7.554-13.671 12.701-7.59-5.147-12.147-9.381-13.671-12.702z" stroke="#1D1D1B" stroke-width="2" fill="#00C0AA"/><path stroke="#FFF" stroke-width="3" stroke-linecap="round" stroke-linejoin="round" d="m26 29.062 3.691 3.771L35.333 27"/><path d="M42 32a5.714 5.714 0 0 1 3.125 10.5A10.002 10.002 0 0 1 52 52h0-20c0-4.432 2.883-8.19 6.875-9.502A5.714 5.714 0 0 1 42 32z" stroke="#1D1D1B" stroke-width="2" fill="#FAB74B" stroke-linecap="round" stroke-linejoin="round"/></g></g></svg>