<svg width="56" height="56" xmlns="http://www.w3.org/2000/svg" xmlns:xlink="http://www.w3.org/1999/xlink"><defs><circle id="c" cx="26.833" cy="26.833" r="26.833"/><path id="a" d="M0 0h56v56H0z"/></defs><g fill="none" fill-rule="evenodd"><mask id="b" fill="#fff"><use xlink:href="#a"/></mask><use fill-opacity="0" fill="#D8D8D8" xlink:href="#a"/><g mask="url(#b)"><g transform="translate(1.167 1.167)"><mask id="d" fill="#fff"><use xlink:href="#c"/></mask><use fill="#00D037" xlink:href="#c"/><path fill="#FFF" mask="url(#d)" d="M17.5 18.667V35h6.198v-8.3l6.088 8.3h6.38V18.667h-6.38v8.166l-6.088-8.166z"/><g mask="url(#d)"><path d="M43.75 25.08c0-7.396-7.589-13.413-16.917-13.413-9.327 0-16.916 6.017-16.916 13.414 0 6.63 6.018 12.184 14.147 13.234.551.116 1.301.355 1.49.815.171.418.112 1.073.055 1.495l-.241 1.415c-.074.418-.34 1.635 1.465.891 1.806-.743 9.742-5.605 13.292-9.597h-.001c2.452-2.627 3.626-5.293 3.626-8.253" fill="#FFF"/><path d="M23.396 21.506H22.21a.326.326 0 0 0-.329.322v7.202c0 .178.148.322.33.322h1.186c.182 0 .33-.144.33-.322v-7.202a.326.326 0 0 0-.33-.322m8.166 0h-1.186a.326.326 0 0 0-.33.322v4.279L26.67 21.65a.35.35 0 0 0-.025-.033l-.002-.002a.263.263 0 0 0-.02-.02l-.006-.006-.018-.014-.008-.006-.017-.012-.01-.006-.018-.01c-.003 0-.007-.003-.01-.004l-.02-.008-.01-.004a.224.224 0 0 0-.05-.013l-.014-.002a.332.332 0 0 0-.034-.003H25.21a.326.326 0 0 0-.33.32v7.203c0 .178.148.322.33.322h1.186c.182 0 .33-.144.33-.322v-4.277l3.382 4.463a.318.318 0 0 0 .087.082l.02.012a.204.204 0 0 0 .041.019l.01.004a1.007 1.007 0 0 0 .028.008.32.32 0 0 0 .084.01h1.186c.183 0 .33-.143.33-.32v-7.203a.326.326 0 0 0-.33-.322m-11.028 6.042h-3.224v-5.72a.326.326 0 0 0-.33-.322h-1.186a.326.326 0 0 0-.33.322v7.202a.315.315 0 0 0 .097.228l.004.004c.06.056.14.09.228.09h4.74a.326.326 0 0 0 .33-.322v-1.16a.325.325 0 0 0-.33-.322m17.581-4.238a.325.325 0 0 0 .33-.322v-1.16a.326.326 0 0 0-.33-.322h-4.74a.33.33 0 0 0-.229.091l-.004.004-.005.005a.316.316 0 0 0-.091.222v7.202a.316.316 0 0 0 .101.232.33.33 0 0 0 .227.09h4.741a.325.325 0 0 0 .33-.322v-1.16a.325.325 0 0 0-.33-.322h-3.224v-1.217h3.224a.325.325 0 0 0 .33-.322v-1.16a.326.326 0 0 0-.33-.322h-3.224V23.31h3.224z" fill="#00B900"/></g></g></g></g></svg>