<?xml version="1.0" encoding="utf-8"?>
<!-- Generator: Adobe Illustrator 27.1.1, SVG Export Plug-In . SVG Version: 6.00 Build 0)  -->
<svg version="1.1" id="레이어_1" xmlns="http://www.w3.org/2000/svg" xmlns:xlink="http://www.w3.org/1999/xlink" x="0px"
	 y="0px" viewBox="0 0 64 64" style="enable-background:new 0 0 64 64;" xml:space="preserve">
<style type="text/css">
	.st0{filter:url(#Adobe_OpacityMaskFilter);}
	.st1{fill-rule:evenodd;clip-rule:evenodd;fill:#FFFFFF;}
	.st2{mask:url(#b_00000167359887652838090370000002142241385621944489_);fill-rule:evenodd;clip-rule:evenodd;fill:#B5B5B5;}
</style>
<defs>
	<filter id="Adobe_OpacityMaskFilter" filterUnits="userSpaceOnUse" x="11.2" y="10.6" width="42.1" height="42.1">
		<feColorMatrix  type="matrix" values="1 0 0 0 0  0 1 0 0 0  0 0 1 0 0  0 0 0 1 0"/>
	</filter>
</defs>
<mask maskUnits="userSpaceOnUse" x="11.2" y="10.6" width="42.1" height="42.1" id="b_00000167359887652838090370000002142241385621944489_">
	<g class="st0">
		<path id="a_00000088847781259731237070000008716193192262962838_" class="st1" d="M1.2-1.5h64.2v64.2H1.2V-1.5z"/>
	</g>
</mask>
<path class="st2" d="M24.1,28c-0.2-0.4-0.4-0.7-0.5-1.2c2.1-1,3.4-1.7,3.9-2c0.7-0.4,1.4-1.4,0.8-3.5c-0.6-2.1-4.7-8.5-7.9-10.5
	s-8.9,6.2-9.1,9.4c-0.2,3.2,0,5,3.5,10.7c2.3,3.8,5.3,7.4,8.9,10.8c8.2,7.3,14.6,10.9,19.2,10.9c6.9,0,12.8-6.8,9.7-10.1
	c-3.2-3.3-6.2-5.5-9.5-6.8c-2.2-0.9-3.8-0.3-4.7,1.8l-1.2,2.7c-3.4-2-5.6-3.6-6.8-4.7C27.9,33.4,25.8,30.9,24.1,28z"/>
</svg>
