<?xml version="1.0" encoding="utf-8"?>
<!-- Generator: Adobe Illustrator 27.1.1, SVG Export Plug-In . SVG Version: 6.00 Build 0)  -->
<svg version="1.1" id="레이어_1" xmlns="http://www.w3.org/2000/svg" xmlns:xlink="http://www.w3.org/1999/xlink" x="0px"
	 y="0px" viewBox="0 0 64 64" style="enable-background:new 0 0 64 64;" xml:space="preserve">
<style type="text/css">
	.st0{fill:#B5B5B5;}
</style>
<g>
	<path class="st0" d="M53.3,37.3h-5.9l0-23.2c0-1.7-1.4-3.2-3.2-3.2h-1.7c-1.7,0-3.2,1.4-3.2,3.2v23.2h-5.9c-2.4,0-3.6,2.8-2,4.5
		l9.9,10.5c1.1,1.1,2.9,1.1,3.9,0l9.9-10.5C56.9,40.1,55.7,37.3,53.3,37.3z"/>
	<path class="st0" d="M32.4,22.2l-9.9-10.5c-1.1-1.1-2.9-1.1-3.9,0L8.7,22.2c-1.6,1.7-0.4,4.5,2,4.5h5.9V50c0,1.7,1.4,3.2,3.2,3.2
		h1.7c1.7,0,3.2-1.4,3.2-3.2V26.7h5.9C32.8,26.7,34,23.9,32.4,22.2z"/>
</g>
</svg>
