<svg width="32" height="32" xmlns="http://www.w3.org/2000/svg"><g fill="none" fill-rule="evenodd"><path d="M0 0h32v32H0z"/><circle stroke="#FFF" stroke-width="1.5" fill="#FF4C4C" cx="24" cy="23" r="6.25"/><path d="M26.08 25.75v-1.008h-1.92c-.09 0-.185.004-.284.012a1.907 1.907 0 0 0-.308.052l1.24-1.248c.15-.155.295-.315.436-.48.141-.165.268-.336.38-.512a2.91 2.91 0 0 0 .276-.556 1.737 1.737 0 0 0-.024-1.308 1.613 1.613 0 0 0-.388-.548 1.773 1.773 0 0 0-.596-.356 2.198 2.198 0 0 0-.764-.128c-.55 0-1.01.147-1.38.44-.37.293-.604.747-.7 1.36l1.048.176c.005-.08.012-.152.02-.216a.842.842 0 0 1 .044-.184 1.08 1.08 0 0 1 .328-.46.85.85 0 0 1 .568-.196c.261 0 .468.07.62.212.152.141.228.35.228.628 0 .31-.088.595-.264.856a5.874 5.874 0 0 1-.72.848l-2.008 1.976v.64h4.168z" fill="#FFF" fill-rule="nonzero"/></g></svg>