<svg width="32" height="32" xmlns="http://www.w3.org/2000/svg" xmlns:xlink="http://www.w3.org/1999/xlink"><defs><path id="a" d="M0 0h32v32H0z"/><path d="M22 0a2 2 0 0 1 2 2v3a2 2 0 1 0 0 4v3a2 2 0 0 1-2 2H2a2 2 0 0 1-2-2V2a2 2 0 0 1 2-2z" id="c"/></defs><g fill="none" fill-rule="evenodd"><mask id="b" fill="#fff"><use xlink:href="#a"/></mask><g mask="url(#b)"><g transform="translate(4 9)"><mask id="d" fill="#fff"><use xlink:href="#c"/></mask><use stroke="#1D1D1B" fill="#FFF" stroke-linejoin="round" xlink:href="#c"/><path fill="#FAB74B" mask="url(#d)" d="m10 9.557-2.351.68-.08-2.447-1.373-2.026 2.301-.833L10 3l1.503 1.931 2.301.833-1.372 2.026-.08 2.446z"/><path d="M19.201.497h2.804a1.5 1.5 0 0 1 1.5 1.5v2.556l-.322.11a2.47 2.47 0 0 0 .003 4.675l.319.108V12a1.5 1.5 0 0 1-1.5 1.5H19.2V.497z" fill="teal" mask="url(#d)"/></g></g></g></svg>