<svg width="42" height="26" xmlns="http://www.w3.org/2000/svg" xmlns:xlink="http://www.w3.org/1999/xlink"><defs><path id="a" d="M0 0h42v26H0z"/><path id="c" d="M0 0h42v26H0z"/><path id="e" d="M0 0h42v26H0z"/></defs><g fill="none" fill-rule="evenodd"><mask id="b" fill="#fff"><use xlink:href="#a"/></mask><use fill="#FFF" xlink:href="#a"/><g mask="url(#b)"><path d="M31.568 7.007c-.97 0-1.76.793-1.76 1.768v4.084c0 1.688-1.085 2.945-2.526 2.945-1.44 0-2.527-1.257-2.527-2.945V8.775c0-.991-.752-1.768-1.712-1.768-.97 0-1.76.793-1.76 1.768v4.161c0 3.625 2.58 6.28 6 6.28 1.658 0 3.19-.654 4.313-1.842 1.116-1.181 1.731-2.785 1.731-4.515V8.775c0-.975-.789-1.768-1.759-1.768" fill="#652C8C"/><mask id="d" fill="#fff"><use xlink:href="#c"/></mask><path d="M40.614 25.602c-.148 0-.298-.024-.442-.073l-4.746-1.208A12.848 12.848 0 0 1 29.065 26h-16.13C5.802 26 0 20.168 0 13S5.802 0 12.935 0h5.57a1.39 1.39 0 0 1 1.386 1.393c0 .77-.62 1.393-1.386 1.393h-5.57C7.331 2.786 2.772 7.368 2.772 13c0 5.632 4.559 10.214 10.163 10.214h16.13c1.94 0 3.825-.55 5.452-1.593a1.38 1.38 0 0 1 1.187-.145l3.107.92-1.313-2.723c-.133-.4-.08-.838.145-1.193A10.219 10.219 0 0 0 39.228 13c0-5.632-4.559-10.214-10.163-10.214h-5.57a1.39 1.39 0 0 1-1.386-1.393c0-.77.62-1.393 1.385-1.393h5.57C36.199 0 42 5.832 42 13c0 2.252-.576 4.448-1.67 6.393l1.597 4.371a1.398 1.398 0 0 1-.333 1.43 1.383 1.383 0 0 1-.98.408" fill="#AACE36" mask="url(#d)"/><path d="M17.745 14.477c-.47 0-.912.185-1.244.519a2.78 2.78 0 0 1-1.984.824c-.75 0-1.455-.293-1.983-.825-.552-.553-.867-1.28-.867-1.993 0-.714.315-1.44.867-1.995a2.78 2.78 0 0 1 1.983-.826c.75 0 1.454.294 1.984.826.332.334.774.518 1.244.518s.912-.184 1.244-.518c.686-.69.686-1.81 0-2.5a6.266 6.266 0 0 0-4.472-1.862c-1.69 0-3.277.661-4.471 1.862-2.466 2.478-2.466 6.511 0 8.99a6.265 6.265 0 0 0 4.471 1.858c1.691 0 3.28-.66 4.472-1.859a1.778 1.778 0 0 0 0-2.5 1.746 1.746 0 0 0-1.244-.519m13.823-7.47c-.97 0-1.76.793-1.76 1.768v4.084c0 1.688-1.085 2.945-2.526 2.945-1.44 0-2.527-1.257-2.527-2.945V8.775c0-.991-.752-1.768-1.712-1.768-.97 0-1.76.793-1.76 1.768v4.161c0 3.625 2.58 6.28 6 6.28 1.658 0 3.19-.654 4.313-1.842 1.116-1.181 1.731-2.785 1.731-4.515V8.775c0-.975-.789-1.768-1.759-1.768" fill="#652C8C"/><mask id="f" fill="#fff"><use xlink:href="#e"/></mask><path d="M40.614 25.602c-.148 0-.298-.024-.442-.073l-4.746-1.208A12.848 12.848 0 0 1 29.065 26h-16.13C5.802 26 0 20.168 0 13S5.802 0 12.935 0h5.57a1.39 1.39 0 0 1 1.386 1.393c0 .77-.62 1.393-1.386 1.393h-5.57C7.331 2.786 2.772 7.368 2.772 13c0 5.632 4.559 10.214 10.163 10.214h16.13c1.94 0 3.825-.55 5.452-1.593a1.38 1.38 0 0 1 1.187-.145l3.107.92-1.313-2.723c-.133-.4-.08-.838.145-1.193A10.219 10.219 0 0 0 39.228 13c0-5.632-4.559-10.214-10.163-10.214h-5.57a1.39 1.39 0 0 1-1.386-1.393c0-.77.62-1.393 1.385-1.393h5.57C36.199 0 42 5.832 42 13c0 2.252-.576 4.448-1.67 6.393l1.597 4.371a1.398 1.398 0 0 1-.333 1.43 1.383 1.383 0 0 1-.98.408" fill="#AACE36" mask="url(#f)"/><path d="M17.745 14.477c-.47 0-.912.185-1.244.519a2.78 2.78 0 0 1-1.984.824c-.75 0-1.455-.293-1.983-.825-.552-.553-.867-1.28-.867-1.993 0-.714.315-1.44.867-1.995a2.78 2.78 0 0 1 1.983-.826c.75 0 1.454.294 1.984.826.332.334.774.518 1.244.518s.912-.184 1.244-.518c.686-.69.686-1.81 0-2.5a6.266 6.266 0 0 0-4.472-1.862c-1.69 0-3.277.661-4.471 1.862-2.466 2.478-2.466 6.511 0 8.99a6.265 6.265 0 0 0 4.471 1.858c1.691 0 3.28-.66 4.472-1.859a1.778 1.778 0 0 0 0-2.5 1.746 1.746 0 0 0-1.244-.519" fill="#652C8C"/></g></g></svg>