<?xml version="1.0" encoding="utf-8"?>
<!-- Generator: Adobe Illustrator 27.1.1, SVG Export Plug-In . SVG Version: 6.00 Build 0)  -->
<svg version="1.1" id="레이어_1" xmlns="http://www.w3.org/2000/svg" xmlns:xlink="http://www.w3.org/1999/xlink" x="0px"
	 y="0px" viewBox="0 0 32 32" style="enable-background:new 0 0 32 32;" xml:space="preserve">
<style type="text/css">
	.st0{fill:#1D1D1B;}
	.st1{fill:#99E7E5;}
	.st2{fill:none;}
	.st3{fill:#FFFFFF;}
</style>
<g>
	<path class="st0" d="M20,11.3h-8c-0.3,0-0.6-0.3-0.6-0.6V2.6C11.4,2.3,11.7,2,12,2h8c0.3,0,0.6,0.3,0.6,0.6v8.1
		C20.6,11,20.4,11.3,20,11.3z M12.5,10.2h6.9v-7h-6.9V10.2z"/>
	<path class="st0" d="M22.4,30.2c-0.3,0-0.6-0.3-0.6-0.6v-2H10.2v2c0,0.3-0.3,0.6-0.6,0.6S9,29.9,9,29.6V27c0-0.3,0.3-0.6,0.6-0.6
		h12.8c0.3,0,0.6,0.3,0.6,0.6v2.6C23,29.9,22.7,30.2,22.4,30.2z"/>
	<g>
		<path class="st1" d="M21.3,27.8H10.7c-1.6,0-2.9-1.3-2.9-2.9V11.5c0-1.6,1.3-2.9,2.9-2.9h10.6c1.6,0,2.9,1.3,2.9,2.9v13.4
			C24.2,26.5,22.9,27.8,21.3,27.8z"/>
		<path class="st0" d="M22.3,28.4H9.7c-1.4,0-2.5-1.1-2.5-2.5V10.6c0-1.4,1.1-2.5,2.5-2.5h12.6c1.4,0,2.5,1.1,2.5,2.5V26
			C24.7,27.3,23.6,28.4,22.3,28.4z M9.7,9.2c-0.7,0-1.3,0.6-1.3,1.3v15.4c0,0.7,0.6,1.3,1.3,1.3h12.6c0.7,0,1.3-0.6,1.3-1.3V10.6
			c0-0.7-0.6-1.3-1.3-1.3L9.7,9.2L9.7,9.2z"/>
	</g>
	<g>
		<line class="st2" x1="12" y1="13.3" x2="22.4" y2="13.3"/>
		<path class="st0" d="M22.4,13.9H12c-0.3,0-0.6-0.3-0.6-0.6s0.3-0.6,0.6-0.6h10.4c0.3,0,0.6,0.3,0.6,0.6S22.7,13.9,22.4,13.9z"/>
	</g>
	<g>
		<line class="st2" x1="19" y1="13.3" x2="19" y2="14.6"/>
		<path class="st0" d="M19,15.2c-0.3,0-0.6-0.3-0.6-0.6v-1.3c0-0.3,0.3-0.6,0.6-0.6s0.6,0.3,0.6,0.6v1.3
			C19.5,14.9,19.3,15.2,19,15.2z"/>
	</g>
	<g>
		<rect x="14" y="1.4" class="st3" width="3.9" height="2.4"/>
		<path class="st0" d="M18,4.4h-4c-0.3,0-0.6-0.3-0.6-0.6V1.4c0-0.3,0.3-0.6,0.6-0.6h4c0.3,0,0.6,0.3,0.6,0.6v2.4
			C18.5,4.1,18.3,4.4,18,4.4z M14.6,3.3h2.8V2h-2.8C14.6,2,14.6,3.3,14.6,3.3z"/>
	</g>
</g>
</svg>
