<svg width="64" height="64" xmlns="http://www.w3.org/2000/svg" xmlns:xlink="http://www.w3.org/1999/xlink"><defs><path id="a" d="M0 0h64v64H0z"/></defs><g fill="none" fill-rule="evenodd"><mask id="b" fill="#fff"><use xlink:href="#a"/></mask><path d="M32 9c12.703 0 23 10.297 23 23 0 12.505-9.98 22.679-22.409 22.993l.017.007-.516-.001L32 55l-.002-.001L15.699 55c-1.528 0-2.767-1.258-2.767-2.81l-.018-7.351-.26-.396A22.892 22.892 0 0 1 9 32C9 19.297 19.297 9 32 9Z" stroke="#1D1D1B" stroke-width="2" fill="#7324DA" stroke-linecap="round" stroke-linejoin="round" mask="url(#b)"/><path d="M27.96 37c.323 0 .569-.074.737-.222a.738.738 0 0 0 .252-.582.756.756 0 0 0-.255-.584c-.17-.155-.415-.232-.734-.232h-3.998v-7.086c0-.403-.092-.703-.275-.9a.94.94 0 0 0-.72-.295c-.293 0-.529.1-.708.299-.18.199-.27.498-.27.896v7.497c0 .425.095.733.283.923.188.19.497.286.926.286h4.762Zm3.438.166a.913.913 0 0 0 .704-.295c.182-.197.272-.5.272-.907v-7.072h2.152c.337 0 .589-.074.757-.223a.745.745 0 0 0 .252-.587.76.76 0 0 0-.249-.591c-.166-.15-.42-.226-.76-.226h-6.269c-.323 0-.57.073-.74.219-.17.146-.256.345-.256.598 0 .243.082.439.246.587.164.149.414.223.75.223h2.152v7.072c0 .403.092.704.275.903.184.2.422.299.714.299ZM42.932 37c.31 0 .543-.072.7-.216a.726.726 0 0 0 .236-.561.738.738 0 0 0-.236-.574c-.157-.144-.39-.216-.7-.216h-4.596v-2.77h4.091c.306 0 .531-.07.677-.209a.71.71 0 0 0 .22-.54.69.69 0 0 0-.223-.535c-.148-.135-.373-.203-.674-.203h-4.09v-2.39h4.442c.314 0 .548-.07.7-.21a.715.715 0 0 0 .23-.554.707.707 0 0 0-.23-.548c-.152-.14-.386-.21-.7-.21h-5.206c-.28 0-.508.042-.688.124a.783.783 0 0 0-.395.391c-.084.18-.126.411-.126.694v7.318c0 .425.094.733.282.923.189.19.497.286.927.286h5.359Z" fill="#FFF" fill-rule="nonzero" mask="url(#b)"/></g></svg>