<svg width="40" height="40" xmlns="http://www.w3.org/2000/svg" xmlns:xlink="http://www.w3.org/1999/xlink"><defs><path id="a" d="M0 0h40v40H0z"/></defs><g fill="none" fill-rule="evenodd"><mask id="b" fill="#fff"><use xlink:href="#a"/></mask><g mask="url(#b)"><g transform="translate(6 6)"><circle stroke="#1D1D1B" stroke-width="1.5" fill="#FAB74B" cx="13" cy="13" r="13"/><circle fill="#F29B11" cx="13" cy="13" r="9"/><path stroke="#FFF" stroke-width="2" stroke-linecap="round" stroke-linejoin="round" d="m17 11-2 4-2-4-2 4-2-4"/></g></g><g mask="url(#b)"><g transform="translate(20 20)"><circle stroke="#1D1D1B" stroke-width="1.5" fill-opacity=".8" fill="#FFF" stroke-linecap="round" stroke-linejoin="round" cx="7" cy="7" r="7"/><path d="m11.676 11.584.071-.07a.7.7 0 0 1 .99 0l3.253 3.252a.7.7 0 0 1 0 .99l-.071.07a.7.7 0 0 1-.99 0l-3.253-3.252a.7.7 0 0 1 0-.99z" fill="#1D1D1B"/></g></g><circle fill="#FFF" mask="url(#b)" cx="29" cy="25" r="2"/></g></svg>