<svg width="32" height="32" xmlns="http://www.w3.org/2000/svg"><g fill="none" fill-rule="evenodd"><path d="M0 0h32v32H0z"/><circle stroke="#FFF" stroke-width="1.5" fill="#BFBFBF" cx="24" cy="23" r="6.25"/><path d="M23.984 25.862c.32 0 .616-.061.888-.184s.508-.31.708-.564c.2-.253.356-.573.468-.96.112-.387.168-.844.168-1.372 0-.533-.056-.993-.168-1.38a2.782 2.782 0 0 0-.468-.96 1.884 1.884 0 0 0-.708-.564 2.135 2.135 0 0 0-.888-.184c-.31 0-.599.061-.868.184-.27.123-.504.31-.704.564-.2.253-.356.573-.468.96-.112.387-.168.847-.168 1.38 0 .528.056.985.168 1.372.112.387.268.707.468.96s.435.441.704.564c.27.123.559.184.868.184zm0-.928a.908.908 0 0 1-.404-.096.874.874 0 0 1-.348-.344 2.184 2.184 0 0 1-.244-.664 4.972 4.972 0 0 1-.092-1.048c0-.427.03-.78.092-1.06a2.13 2.13 0 0 1 .244-.664.91.91 0 0 1 .348-.344c.13-.067.265-.1.404-.1a.94.94 0 0 1 .42.1.891.891 0 0 1 .356.344c.101.163.183.384.244.664s.092.633.092 1.06c0 .421-.03.77-.092 1.048a2.184 2.184 0 0 1-.244.664.857.857 0 0 1-.356.344.976.976 0 0 1-.42.096z" fill="#FFF" fill-rule="nonzero"/></g></svg>