<?xml version="1.0" encoding="utf-8"?>
<!-- Generator: Adobe Illustrator 27.1.1, SVG Export Plug-In . SVG Version: 6.00 Build 0)  -->
<svg version="1.1" id="레이어_1" xmlns="http://www.w3.org/2000/svg" xmlns:xlink="http://www.w3.org/1999/xlink" x="0px"
	 y="0px" viewBox="0 0 48 48" style="enable-background:new 0 0 48 48;" xml:space="preserve">
<style type="text/css">
	.st0{fill:#00C0AA;}
	.st1{fill:#707070;}
	.st2{fill:#FFFFFF;}
</style>
<g>
	<g>
		<path class="st0" d="M33.6,11.9c-3.9,0-7.3-1.9-9.6-4.7c-2.2,2.9-5.7,4.7-9.6,4.7c-1.6,0-3.1-0.3-4.5-0.9v11.4
			C9.9,37.2,24,40.8,24,40.8s14.1-3.5,14.1-18.3V11.1C36.7,11.6,35.2,11.9,33.6,11.9z"/>
		<path class="st1" d="M24,41.6c-0.1,0-0.1,0-0.2,0c-0.1,0-14.7-3.9-14.7-19.2V11.1c0-0.3,0.1-0.5,0.4-0.7c0.2-0.2,0.5-0.2,0.8-0.1
			c1.4,0.5,2.8,0.8,4.2,0.8c3.5,0,6.7-1.6,8.9-4.4c0.3-0.4,1-0.4,1.3,0c2.2,2.8,5.4,4.4,8.9,4.4c1.4,0,2.8-0.3,4.2-0.8
			c0.3-0.1,0.6-0.1,0.8,0.1c0.2,0.2,0.4,0.4,0.4,0.7v11.4c0,15.3-14.5,19.1-14.7,19.2C24.1,41.6,24.1,41.6,24,41.6z M10.8,12.2v10.2
			c0,13,11.5,17,13.2,17.5c1.8-0.5,13.2-4.3,13.2-17.5V12.2c-1.2,0.4-2.4,0.5-3.6,0.5c-3.7,0-7.1-1.5-9.6-4.3
			c-2.5,2.7-5.9,4.3-9.6,4.3C13.2,12.8,12,12.6,10.8,12.2z"/>
	</g>
	<g>
		<polyline class="st0" points="17.2,23.2 22.1,28.5 31.3,19.5 		"/>
		<path class="st2" d="M22.1,29.3C22.1,29.3,22.1,29.3,22.1,29.3c-0.2,0-0.5-0.1-0.6-0.3l-4.9-5.3c-0.3-0.3-0.3-0.9,0-1.2
			c0.3-0.3,0.9-0.3,1.2,0l4.3,4.7l8.5-8.4c0.3-0.3,0.9-0.3,1.2,0c0.3,0.3,0.3,0.9,0,1.2l-9.1,9C22.6,29.2,22.4,29.3,22.1,29.3z"/>
	</g>
</g>
</svg>
