<?xml version="1.0" encoding="UTF-8"?>
<svg id="_레이어_1" xmlns="http://www.w3.org/2000/svg" version="1.1" viewBox="0 0 52 52">
  <!-- Generator: Adobe Illustrator 29.5.1, SVG Export Plug-In . SVG Version: 2.1.0 Build 141)  -->
  <defs>
    <style>
      .st0 {
        fill: #fff;
      }

      .st1 {
        fill: #161616;
      }
    </style>
  </defs>
  <g>
    <path class="st0" d="M48.5,21v-4.2c0-2.4-2-4.4-4.4-4.4H8.8c-2.4,0-4.4,2-4.4,4.4v3.6c2.4.8,4.2,3.1,4.2,5.8s-1.8,5-4.2,5.8v3.6c0,2.4,2,4.4,4.4,4.4h35.3c2.4,0,4.4-2,4.4-4.4v-4.2c-1.8-1.1-3-3-3-5.2s1.2-4.2,3-5.2Z"/>
    <path class="st1" d="M44.1,41.4H8.8c-3.2,0-5.8-2.6-5.8-5.8v-3.6c0-.6.4-1.2,1-1.4,1.9-.6,3.2-2.4,3.2-4.4s-1.3-3.8-3.2-4.4c-.6-.2-1-.8-1-1.4v-3.6c0-3.2,2.6-5.8,5.8-5.8h35.3c3.2,0,5.8,2.6,5.8,5.8v4.2c0,.5-.3,1-.7,1.2-1.4.9-2.3,2.3-2.3,4s.8,3.1,2.3,4c.4.3.7.7.7,1.2v4.2c0,3.2-2.6,5.8-5.8,5.8ZM5.9,33v2.6c0,1.6,1.3,2.9,2.9,2.9h35.3c1.6,0,2.9-1.3,2.9-2.9v-3.4c-1.9-1.4-3-3.7-3-6s1.1-4.6,3-6v-3.4c0-1.6-1.3-2.9-2.9-2.9H8.8c-1.6,0-2.9,1.3-2.9,2.9v2.6c2.5,1.3,4.2,3.9,4.2,6.8s-1.6,5.5-4.2,6.8ZM48.5,21h0,0Z"/>
  </g>
  <g>
    <g>
      <line class="st0" x1="21.2" y1="31.4" x2="21.2" y2="26.8"/>
      <path d="M21.2,32.8c-.7,0-1.3-.6-1.3-1.3v-4.7c0-.7.6-1.3,1.3-1.3s1.3.6,1.3,1.3v4.7c0,.7-.6,1.3-1.3,1.3Z"/>
    </g>
    <path d="M26.5,32.8c-.7,0-1.3-.6-1.3-1.3v-7.5c0-.7.6-1.3,1.3-1.3s1.3.6,1.3,1.3v7.5c0,.7-.6,1.3-1.3,1.3Z"/>
    <path d="M31.7,32.8c-.7,0-1.3-.6-1.3-1.3v-10.4c0-.7.6-1.3,1.3-1.3s1.3.6,1.3,1.3v10.4c0,.7-.6,1.3-1.3,1.3Z"/>
  </g>
</svg>