<?xml version="1.0" encoding="UTF-8"?>
<svg id="_레이어_1" data-name="레이어_1" xmlns="http://www.w3.org/2000/svg" version="1.1" viewBox="0 0 52 52">
  <!-- Generator: Adobe Illustrator 29.5.1, SVG Export Plug-In . SVG Version: 2.1.0 Build 141)  -->
  <defs>
    <style>
      .st0 {
        fill: #fff;
      }
    </style>
  </defs>
  <g>
    <line class="st0" x1="15.1" y1="39" x2="15.1" y2="29"/>
    <path d="M15.1,42c-1.7,0-3-1.3-3-3v-10c0-1.7,1.3-3,3-3s3,1.3,3,3v10c0,1.7-1.3,3-3,3Z"/>
  </g>
  <path d="M26.4,42c-1.7,0-3-1.3-3-3v-18c0-1.7,1.3-3,3-3s3,1.3,3,3v18c0,1.7-1.3,3-3,3Z"/>
  <path d="M37.8,42c-1.7,0-3-1.3-3-3V13c0-1.7,1.3-3,3-3s3,1.3,3,3v26c0,1.7-1.3,3-3,3Z"/>
</svg>