<svg width="24" height="24" viewBox="0 0 24 24" fill="none" xmlns="http://www.w3.org/2000/svg">
    <rect x="7" y="3" width="10" height="18" rx="2" stroke="#003EC6" stroke-width="2" />
    <path d="M11 18H13" stroke="#003EC6" stroke-width="2" stroke-linecap="round" />
    <path d="M3 8C2 9 2 11 2 12C2 13 2 15 3 16" stroke="#003EC6" stroke-width="1.5"
        stroke-linecap="round" stroke-linejoin="round" />
    <path d="M21 8C22 9 22 11 22 12C22 13 22 15 21 16" stroke="#003EC6" stroke-width="1.5"
        stroke-linecap="round" stroke-linejoin="round" />
    <path d="M5 10C4.5 10.5 4.5 11.5 5 12C5.5 12.5 5.5 13.5 5 14" stroke="#003EC6" stroke-width="1"
        stroke-linecap="round" stroke-linejoin="round" />
    <path d="M19 10C19.5 10.5 19.5 11.5 19 12C18.5 12.5 18.5 13.5 19 14" stroke="#003EC6"
        stroke-width="1" stroke-linecap="round" stroke-linejoin="round" />
</svg>