<?xml version="1.0" encoding="utf-8"?>
<!-- Generator: Adobe Illustrator 27.1.1, SVG Export Plug-In . SVG Version: 6.00 Build 0)  -->
<svg version="1.1" id="레이어_1" xmlns="http://www.w3.org/2000/svg" xmlns:xlink="http://www.w3.org/1999/xlink" x="0px"
	 y="0px" viewBox="0 0 110 110" style="enable-background:new 0 0 110 110;" xml:space="preserve">
<style type="text/css">
	.st0{fill:#CFD1D3;}
	.st1{fill:#00C0AA;}
	.st2{fill:#FFFFFF;}
</style>
<g>
	<path class="st0" d="M37.7,31.7c0,0-0.3,1.6,0,2.4c0,0,0.2,0.5,0,1.2c0,0-0.6,0.8-0.4,2c0,0,0,0.4-0.1,1.2c0,0,0,1.4,0.5,1.8
		c0,0,0.7,0.9,0.8,1.3c0,0,0.4,0.8,1.1,0c0,0,1.7-2.5,3.6-3.8c0,0,1.6-0.5,2.6-0.4c0,0,0.8,0,1-0.5c0,0,0.1-0.4-0.6-0.8
		c0,0-0.5-0.8,0.4-1.6c0,0,0.8-0.2,1.2-0.6c0,0,0.6-0.7,0-2.1c0,0-0.2-0.5,0.3-1.7c0,0,0.5-1.1,1.8-1.9c0,0,0.9-0.9,0-1.3
		c0,0-1.1,0-1.2-1.2c0,0,0-2.2-2.7-2c0,0-1.7-0.2-2.3,0.4c0,0-0.4,0.2-0.4,0.7c0,0-0.1,0.3-0.9,0.3c0,0-1.3-0.3-2.3-1.1
		c0,0-2.5-1.8-4.2-1.6c0,0-2,0.1-3.9,1.5c0,0-2.3,1.9-1.6,3.3c0,0-0.1,0.3,1,0c0,0,0.7,0.2,0.1,1.3c0,0-0.4,0.2-1,0.5
		c0,0-0.5,0.2-0.8,0c0,0-0.8-0.6-1.2-0.3c0,0-0.3,0.4,0,0.8c0,0,0.1,0.3-0.3,0.3c0,0-0.9,0.4,0.7,0.6c0,0,0.7,0.2,0.9,0.5
		c0,0,1,0.6,1.7,0c0,0,0.8-0.3,1.3-1.4c0,0,0.5-0.9,1.2-1.4c0,0,1.3-0.8,1.3,0.5c0,0-0.5,1.4,0.6,1.5c0,0,0.9,0.1,1.4,0
		C37.3,30.1,38.1,30,37.7,31.7z"/>
	<path class="st0" d="M65.9,37.6c0,0,2.3-1.9,4.7-1.3c0,0,1.8,0.4,2.5-0.1c0,0-0.1-1.2,0-2.6c0,0,0-1.2,1.7-0.2c0,0,1.1,0.5,1.4-2.2
		c0,0,0.2-2,2.1-2.5c0,0,2.7-2.3,6.6,0.7c0,0,4.4,1.2,5.6,0.7c0,0,1.8-0.6,3.9-1.3c0,0,1.1-1,4.4,0.1c0,0,3,0.3,6.2-1.4
		c0,0,4.4-0.8,4.7,2.5c0,0,1.2,2.1-1.4,5.5c0,0-1.5,2.4-0.7,3.5c0,0-0.4,3-2.2,1.7c0,0-0.8-1.8-2-1.7c0,0-1.4-0.9-2.8,0.9
		c0,0-2.1,2.7-0.5,2.6c0,0,3.5-1,2.8,1.3c0,0-0.6,3.8-2.4,5.9c0,0-0.5,1-0.5,2.3c0,0-0.9,1.3-1.8-0.5c0,0-1.9-1-1.7,0.4
		c0,0,0.2,2.7,1.6,4.9c0,0,1.3,2.1-1.5,2c0,0-2,0.2-2.6,1.3c0,0,0.9,2.1-0.7,3.1c0,0-0.5-0.1-0.8,1.2c0,0-0.1,2.4,1,3.2
		c0,0,1.3,2-0.4,1.6c0,0-2.9-1.4-3.6-3.4c0,0-0.1-1.3,1.1-1c0,0,0.1-4-3.6-5.8c0,0-2.9,0.2-3.2,3c0,0,0.4,2.6-0.9,2.1
		c0,0-2.9-2.5-3.7-5c0,0-0.9-1.3-1.5-0.3c0,0-0.6-0.4-2.2-1.8c0,0-1.6-1.7-2.8-0.2c0,0-0.8,0.9,0.7,1.3c0,0,1.9-0.2,1.2,1.1
		c0,0-1,2-3.3,2.4c0,0-1.7-1.8-3.6-2.8c0,0-2-0.6-0.7,1.4c0,0,1.8,2.7,4.1,2.7c0,0,1.6,0.4,0.1,1.3c0,0-2.5,0.8-3.1,4.6
		c0,0-0.6,8.1-7.9,10.6c0,0-1-0.4-1.5-2.9c0,0-0.4-1.6-1.5-3.6c0,0-0.6-1.6,0.8-2.8c0,0,0.5-5-4.2-5.3c0,0-4,1.5-5.8-1
		c0,0-2.4-3.4,0.2-6.7c0,0,0.9-1.4,2.4-1.9c0,0,0.9-1.4-0.4-2.2c0,0-1-2.5,2.1-3.1c0,0,1.5-1.4-0.3-2.9c0,0-2.3-1-0.2-2.4
		c0,0,1-0.6,2.7,1.6c0,0,2.5-0.4,1.6-2.5c0,0-1.8-0.1-1.3-1.3c0,0,0.1-1.3,2.1-3.2c0,0,2.5-4.1,5.7-2.7
		C62.7,36.3,65.1,37.9,65.9,37.6z"/>
	<path class="st0" d="M98.1,73.1c0,0-2.8,1.2-3,3.2c0,0,0.2,0.4-0.3,1.5c0,0-1.6,3,2.6,2.2c0,0,3.3-1.3,5,0.1c0,0,4,3.9,6.1,1.2
		c0,0,2.1-3.4,0.5-7.1c0,0-1.3-3-2.8-2c0,0-0.4-0.1-0.9,1c0,0-0.7,0-1-1C104.2,72.2,101.8,69.8,98.1,73.1z"/>
	<path class="st0" d="M38.9,67.9c0,0,2.4-0.6,1.8,1.5c0,0-3.4,7-8.4,12.3c0,0-1.9,2.1-2,4c0,0,1.1,2.8-1.3,1.9c0,0-1.9-0.4-1.9-10.7
		c0,0,0.1-4-3.5-6.2c0,0-1.8-2.3,0.4-6.5c0,0-0.5-1.9-5.2-3c0,0-2.3,0.3-3.1-1.9c0,0-2.5-2.7-5.7-6.5c0,0-2.4-1.9,0.1-5.8
		c0,0,0.7-4.4-1.7-7.8c0,0-0.4-2.2-4.4-0.6c0,0-3.2,2.6-4,1.2c0,0-0.2-0.9,1-1.4c0,0,0.7-0.9,0.1-1.9c0,0-1.4-1.3,2.3-3.5
		c0,0,0.4-1.3,0.7-2.9c0,0,2.1-2.9,5.2-1.4c0,0,1.6,0.7,2.6,1.8c0,0,0.8,1.3,4.5,1.4c0,0,2.5,1.1,3.2-0.6c0,0-2.2-0.6-0.8-2
		c0,0,1.3-2.6,3.4,1.1c0,0,6.5-0.8,9.2,3.8c0,0,1,1,2.2,1.9c0,0,2.8,3.1-0.2,3.4c0,0-0.5-0.7-4.4-0.4c0,0-2-0.3-4,0.8
		c0,0-2.7,0.9-1.3,2.3c0,0,3.2,4.3,3.9,3.2c0,0,1.3-1.6,0.8-3.2c0,0,0.7-3.1,3-1.3c0,0,0.8,2.4,2.9,3.6c0,0,3.3,2.9-0.2,3.9
		c0,0-6.2,2.5-8.6,7c0,0-1.4,1.4-3.6,1.2c0,0-4-0.3-2.9,1.9c0,0,0.1,1.2,1.1,0.9c0,0,2-1.3,1.7,0c0,0,1.4,1.1,2.7,2.4
		c0,0,1,1.1,2,0.5c0,0,2.1-1.8,7.7,3.3C33.9,65.4,37.1,67.9,38.9,67.9z"/>
</g>
<g>
	<g>
		<g>
			<path class="st1" d="M57,72c-3,0-5.5-2.5-5.5-5.5c0-3,2.5-5.5,5.5-5.5c3,0,5.5,2.5,5.5,5.5C62.5,69.5,60,72,57,72z"/>
			<path class="st2" d="M57,62.2c2.4,0,4.3,1.9,4.3,4.3c0,2.4-1.9,4.3-4.3,4.3c-2.4,0-4.3-1.9-4.3-4.3C52.7,64.1,54.6,62.2,57,62.2
				 M57,59.7c-3.7,0-6.8,3-6.8,6.8c0,3.7,3,6.8,6.8,6.8c3.7,0,6.8-3,6.8-6.8C63.8,62.7,60.7,59.7,57,59.7L57,59.7z"/>
		</g>
	</g>
	<g>
		<g>
			<path class="st1" d="M71.4,56.3c-1.1,0-2.1-0.5-2.8-1.2c-2.9-3.3-7.2-5.2-11.6-5.2c-4.4,0-8.7,1.9-11.6,5.2
				c-0.7,0.8-1.7,1.2-2.8,1.2c-0.9,0-1.8-0.3-2.4-0.9c-1.5-1.3-1.7-3.7-0.3-5.2c4.3-4.9,10.6-7.7,17.1-7.7c6.6,0,12.8,2.8,17.1,7.7
				c1.3,1.5,1.2,3.9-0.3,5.2C73.1,56,72.3,56.3,71.4,56.3z"/>
			<path class="st2" d="M57,43.7c6.2,0,12.1,2.7,16.2,7.3c0.9,1,0.8,2.5-0.2,3.4c-0.5,0.4-1,0.6-1.6,0.6c-0.7,0-1.3-0.3-1.8-0.8
				c-3.2-3.6-7.7-5.7-12.5-5.7c-4.8,0-9.4,2.1-12.5,5.7c-0.5,0.5-1.1,0.8-1.8,0.8c-0.6,0-1.1-0.2-1.6-0.6c-1-0.9-1.1-2.4-0.2-3.4
				C44.9,46.4,50.8,43.7,57,43.7 M57,41.2c-6.9,0-13.5,3-18.1,8.2c-1.8,2-1.6,5.2,0.4,7c0.9,0.8,2.1,1.2,3.3,1.2
				c1.4,0,2.8-0.6,3.7-1.7c2.7-3.1,6.6-4.8,10.7-4.8c4.1,0,8,1.8,10.7,4.8c0.9,1.1,2.3,1.7,3.7,1.7c1.2,0,2.3-0.4,3.3-1.2
				c2-1.8,2.2-4.9,0.4-7C70.5,44.2,63.9,41.2,57,41.2L57,41.2z"/>
		</g>
	</g>
	<g>
		<g>
			<path class="st1" d="M65,62.5c-1.1,0-2.1-0.5-2.8-1.2C60.9,59.8,59,59,57,59c-2,0-3.9,0.9-5.2,2.3c-0.7,0.8-1.7,1.2-2.8,1.2
				c-0.9,0-1.8-0.3-2.4-0.9c-1.5-1.3-1.7-3.7-0.3-5.2c2.7-3.1,6.6-4.8,10.7-4.8c4.1,0,8,1.8,10.7,4.8c1.3,1.5,1.2,3.9-0.3,5.2
				C66.7,62.2,65.9,62.5,65,62.5z"/>
			<path class="st2" d="M57,52.8c3.7,0,7.3,1.6,9.8,4.4c0.9,1,0.8,2.5-0.2,3.4c-0.5,0.4-1,0.6-1.6,0.6c-0.7,0-1.3-0.3-1.8-0.8
				c-1.6-1.8-3.8-2.8-6.1-2.8c-2.3,0-4.6,1-6.1,2.8c-0.5,0.5-1.1,0.8-1.8,0.8c-0.6,0-1.1-0.2-1.6-0.6c-1-0.9-1.1-2.4-0.2-3.4
				C49.7,54.5,53.3,52.8,57,52.8 M57,50.3c-4.5,0-8.7,1.9-11.7,5.3c-1.8,2-1.6,5.2,0.4,7c0.9,0.8,2.1,1.2,3.3,1.2
				c1.4,0,2.8-0.6,3.7-1.7c1.1-1.2,2.6-1.9,4.3-1.9c1.6,0,3.2,0.7,4.3,1.9c0.9,1.1,2.3,1.7,3.7,1.7c1.2,0,2.4-0.4,3.3-1.2
				c2-1.8,2.2-4.9,0.4-7C65.7,52.3,61.5,50.3,57,50.3L57,50.3z"/>
		</g>
	</g>
	<g>
		<g>
			<path class="st1" d="M36.6,50.1c-0.9,0-1.8-0.3-2.4-0.9c-1.5-1.3-1.7-3.7-0.3-5.2c5.9-6.6,14.3-10.5,23.1-10.5
				c8.9,0,17.3,3.8,23.1,10.4c1.3,1.5,1.2,3.9-0.3,5.2c-0.7,0.6-1.5,0.9-2.4,0.9c-1.1,0-2.1-0.5-2.8-1.2c-4.5-5.1-10.9-8-17.6-8
				c-6.7,0-13.2,2.9-17.6,8C38.7,49.7,37.7,50.1,36.6,50.1z"/>
			<path class="st2" d="M57,34.8c8.5,0,16.6,3.7,22.2,10c0.9,1,0.8,2.5-0.2,3.4c-0.5,0.4-1,0.6-1.6,0.6c-0.7,0-1.3-0.3-1.8-0.8
				c-4.7-5.3-11.5-8.4-18.6-8.4c-7.1,0-13.9,3.1-18.6,8.4c-0.5,0.5-1.1,0.8-1.8,0.8c-0.6,0-1.1-0.2-1.6-0.6c-1-0.9-1.1-2.4-0.2-3.4
				C40.4,38.5,48.5,34.8,57,34.8 M57,32.3c-9.2,0-18,4-24.1,10.9c-1.8,2-1.6,5.2,0.4,7c0.9,0.8,2.1,1.2,3.3,1.2
				c1.4,0,2.8-0.6,3.7-1.7c4.2-4.8,10.3-7.5,16.7-7.5c6.4,0,12.5,2.7,16.7,7.5c0.9,1.1,2.3,1.7,3.7,1.7c1.2,0,2.4-0.4,3.3-1.2
				c2-1.8,2.2-4.9,0.4-6.9C75,36.3,66.2,32.3,57,32.3L57,32.3z"/>
		</g>
	</g>
</g>
</svg>
