<?xml version="1.0" encoding="utf-8"?>
<!-- Generator: Adobe Illustrator 26.3.1, SVG Export Plug-In . SVG Version: 6.00 Build 0)  -->
<svg version="1.1" id="레이어_1" xmlns="http://www.w3.org/2000/svg" xmlns:xlink="http://www.w3.org/1999/xlink" x="0px"
	 y="0px" viewBox="0 0 110 110" style="enable-background:new 0 0 110 110;" xml:space="preserve">
<style type="text/css">
	.st0{fill-rule:evenodd;clip-rule:evenodd;fill:#EDF7FF;}
	.st1{fill:#404041;}
</style>
<g>
	<g>
		<path class="st0" d="M33.7,10.4h42.9c2.7,0,4.9,2.2,4.9,4.9v79.9c0,2.7-2.2,4.9-4.9,4.9H33.7c-2.7,0-4.9-2.2-4.9-4.9V15.2
			C28.8,12.6,31,10.4,33.7,10.4z"/>
		<path class="st1" d="M76.5,101.9H33.7c-3.8,0-6.8-3.1-6.8-6.8V15.2c0-3.8,3.1-6.8,6.8-6.8h42.9c3.8,0,6.8,3.1,6.8,6.8v79.9
			C83.4,98.9,80.3,101.9,76.5,101.9z M33.7,12.3c-1.6,0-2.9,1.3-2.9,2.9v79.9c0,1.6,1.3,2.9,2.9,2.9h42.9c1.6,0,2.9-1.3,2.9-2.9
			V15.2c0-1.6-1.3-2.9-2.9-2.9H33.7z"/>
	</g>
	<circle class="st1" cx="55.1" cy="20.1" r="2.9"/>
	<g>
		<path class="st1" d="M61.2,64.8c0,0-4.5-2.6-12-0.2c0,0,0.7,2.7-1.4,3.9l-4.2,2.4c0,0-2.4,1.3-3.5-1.6c-1-2.9-0.4-4.1-0.4-4.1
			s0.7-3.9,7.3-6.1c6.1-2.1,18.9-1.6,23,4.9c0.6,1,0.9,2.2,0.8,3.3c-0.1,1.6-0.6,3.7-2.4,4.2c-0.6,0.1-1.2,0-1.8-0.3l-4.4-2.4
			C62.3,68.7,60.4,68.1,61.2,64.8z"/>
		<g>
			<polygon class="st1" points="61.5,43.6 56.4,43.6 56.4,46.1 59.8,46.1 54.2,51.6 47.5,44.9 45.8,46.7 52.5,53.3 52.5,53.3 
				54.2,55.1 61.5,47.8 61.5,51.2 64,51.2 64,46.1 64,43.6 			"/>
		</g>
	</g>
</g>
</svg>
