<?xml version="1.0" encoding="utf-8"?>
<!-- Generator: Adobe Illustrator 26.3.1, SVG Export Plug-In . SVG Version: 6.00 Build 0)  -->
<svg version="1.1" id="레이어_1" xmlns="http://www.w3.org/2000/svg" xmlns:xlink="http://www.w3.org/1999/xlink" x="0px"
	 y="0px" viewBox="0 0 110 110" style="enable-background:new 0 0 110 110;" xml:space="preserve">
<style type="text/css">
	.st0{fill:#E0E2E5;}
	.st1{fill:#A4A4A6;}
	.st2{fill:#F9F9F9;}
	.st3{fill:#CFD1D3;}
	.st4{fill:#FE3939;}
	.st5{fill:none;stroke:#FE3939;stroke-width:5;}
</style>
<g>
	<g id="Mail_Icon">
		<rect x="20.2" y="42.5" class="st0" width="70" height="47.1"/>
		<path class="st1" d="M89.3,40.5l-29-23.8c-1.5-1.2-3.3-1.8-5.1-1.8c-1.8,0-3.6,0.6-5.1,1.8l-29,23.8c-0.6,0.5-0.9,1.3-0.9,2
			c0,0.7,0.3,1.3,0.9,1.8l29,23.8c1.5,1.2,3.3,1.8,5.1,1.8s3.6-0.6,5.1-1.8l29-23.8c0.6-0.5,0.9-1.2,0.9-1.8
			C90.2,41.7,89.9,41,89.3,40.5z"/>
		<g>
			<path class="st2" d="M83.2,24h-56v25.3l22.9,18.8c1.5,1.2,3.3,1.8,5.1,1.8s3.6-0.6,5.1-1.8l22.9-18.8L83.2,24L83.2,24z"/>
		</g>
		<path class="st3" d="M89.3,87.8l-29-23.8c-2.9-2.4-7.2-2.4-10.1,0l-29,23.8c-1.7,1.4-0.7,4.3,1.5,4.3h65.2
			C90,92,91,89.2,89.3,87.8z"/>
	</g>
	<g>
		<path class="st4" d="M39.8,40.1c-1.6-0.5-1.9-0.9-1.9-1.4c0-0.4,0.4-1,1.6-1c0.9,0,1.5,0.2,1.9,0.4l0.7,0.3l0.8-2.1l-0.5-0.2
			c-0.4-0.2-1.4-0.6-2.9-0.6c-2.6,0-4.4,1.4-4.4,3.3c0,1.5,1.2,2.6,3.5,3.4c1.7,0.5,1.8,1,1.8,1.5c0,0.7-0.7,1.2-1.8,1.2
			c-0.8,0-1.7-0.2-2.4-0.6l-0.7-0.4L34.7,46l0.4,0.2c0.8,0.4,2.1,0.7,3.4,0.7c3.3,0,4.8-1.7,4.8-3.4C43.2,41.4,41.4,40.6,39.8,40.1z
			"/>
		<path class="st4" d="M53.1,39.1c0-1-0.4-1.9-1.2-2.5c-0.8-0.6-2.1-1-3.7-1c-1.1,0-2.1,0.1-3,0.2l-0.5,0.1v11h2.8v-4
			c0.2,0,0.4,0,0.6,0c1.7,0,3.2-0.5,4.1-1.3C52.8,41,53.1,40.1,53.1,39.1z M48,40.7c-0.2,0-0.4,0-0.6,0v-3c0.2,0,0.5,0,0.8,0
			c1.4,0,2.1,0.5,2.1,1.4C50.3,40.5,49.1,40.7,48,40.7z"/>
		<path class="st4" d="M56.4,35.7l-4.4,11.2h2.9l1.2-3.2h3.2l1.3,3.2h3l-4.5-11.2H56.4z M56.8,41.5c0,0,0.9-2.2,0.9-2.2
			c0,0,0.9,2.2,0.9,2.2H56.8z"/>
		<path class="st4" d="M76.5,35.7h-3l-2.3,5.2c-0.2,0.6-0.5,1.1-0.6,1.6c-0.2-0.5-0.4-1-0.6-1.6l-2.2-5.2h-3L64,46.8h2.7L67,42
			c0-0.4,0.1-0.8,0.1-1.2c0.1,0.2,0.2,0.5,0.3,0.8l2,5.2h2.1l2.2-5.2c0.1-0.3,0.3-0.6,0.4-0.9c0,0.4,0.1,0.9,0.1,1.3l0.3,4.9h2.8
			L76.5,35.7z"/>
	</g>
</g>
<g>
	<circle class="st5" cx="84.1" cy="84.2" r="18"/>
	<path class="st5" d="M68.6,94.3l31.6-19.5"/>
</g>
</svg>
