<?xml version="1.0" encoding="utf-8"?>
<!-- Generator: Adobe Illustrator 26.3.1, SVG Export Plug-In . SVG Version: 6.00 Build 0)  -->
<svg version="1.1" id="레이어_1" xmlns="http://www.w3.org/2000/svg" xmlns:xlink="http://www.w3.org/1999/xlink" x="0px"
	 y="0px" viewBox="0 0 110 110" style="enable-background:new 0 0 110 110;" xml:space="preserve">
<style type="text/css">
	.st0{fill-rule:evenodd;clip-rule:evenodd;fill:#FE3939;}
	.st1{enable-background:new    ;}
	.st2{fill:#707070;}
	.st3{fill:#FFFFFF;}
</style>
<g>
	<path class="st0" d="M55.2,40C71.1,40,84,52.9,84,68.8S71.1,97.6,55.2,97.6S26.4,84.7,26.4,68.8S39.3,40,55.2,40L55.2,40z"/>
</g>
<g class="st1">
	<path class="st2" d="M9.6,11.4v14.1H7V14.6c-0.3,0.3-0.7,0.5-1.3,0.8S4.6,15.8,4,15.8v-2.3c1.4-0.4,2.7-1.1,3.9-2.1H9.6z"/>
	<path class="st2" d="M21.6,14.1c-0.7-0.4-1.5-0.6-2.3-0.6c-1.1,0-2,0.5-2.7,1.4s-1,2.1-1,3.5h0.1c0.7-1.1,1.7-1.6,3-1.6
		c1.2,0,2.1,0.4,2.8,1.2c0.7,0.8,1,1.8,1,3.1c0,1.4-0.4,2.6-1.3,3.5s-2,1.3-3.3,1.3c-1.6,0-2.8-0.6-3.6-1.7
		c-0.8-1.2-1.2-2.7-1.2-4.7c0-2.3,0.5-4.3,1.6-5.7c1.1-1.5,2.6-2.2,4.5-2.2c1.1,0,1.9,0.1,2.4,0.4C21.6,11.8,21.6,14.1,21.6,14.1z
		 M15.8,21c0,0.7,0.2,1.4,0.6,1.9s0.9,0.8,1.5,0.8s1.1-0.2,1.5-0.7s0.6-1.1,0.6-1.8c0-1.7-0.7-2.5-2.1-2.5c-0.6,0-1.1,0.2-1.5,0.7
		C16,19.8,15.8,20.3,15.8,21z"/>
	<path class="st2" d="M35.8,25.5h-3.2L30,20.7c-0.1-0.2-0.2-0.4-0.3-0.9l0,0c-0.1,0.3-0.2,0.6-0.3,0.9l-2.7,4.7h-3.2l4.5-6.9
		l-4.1-6.9h3.3l2.2,4.4c0.2,0.3,0.3,0.7,0.4,1.1l0,0c0.1-0.3,0.3-0.7,0.5-1.2l2.4-4.3h3l-4.2,6.9L35.8,25.5z"/>
	<path class="st2" d="M48.4,25.5h-3.2l-2.6-4.8c-0.1-0.2-0.2-0.4-0.3-0.9l0,0c-0.1,0.3-0.2,0.6-0.3,0.9l-2.7,4.7H36l4.5-6.9
		l-4.1-6.9h3.3l2.2,4.4c0.2,0.3,0.3,0.7,0.4,1.1l0,0c0.1-0.3,0.3-0.7,0.5-1.2l2.4-4.3h3L44,18.5L48.4,25.5z"/>
	<path class="st2" d="M53,23.2L51.5,28h-2l1-4.8H53z"/>
	<path class="st2" d="M65.4,11.4v14.1h-2.6V14.6c-0.3,0.3-0.7,0.5-1.3,0.8c-0.5,0.2-1.1,0.4-1.7,0.5v-2.3c1.4-0.4,2.7-1.1,3.9-2.1
		h1.7V11.4z"/>
	<path class="st2" d="M69.4,25.1v-2.4c0.4,0.3,0.9,0.6,1.4,0.7c0.5,0.2,1.1,0.3,1.6,0.3c0.9,0,1.6-0.2,2.1-0.6s0.8-1,0.8-1.8
		s-0.3-1.4-0.8-1.7C73.9,19.2,73.1,19,72,19c-0.8,0-1.5,0.1-2.4,0.2l0.5-7.6h7.2v2.2h-5L72,17.1c0.7-0.1,1.2-0.1,1.4-0.1
		c1.4,0,2.4,0.4,3.3,1.1c0.8,0.7,1.2,1.7,1.2,3c0,1.5-0.5,2.7-1.4,3.5s-2.2,1.3-3.9,1.3C71.3,25.8,70.2,25.6,69.4,25.1z"/>
	<path class="st2" d="M91.6,25.5h-3.2l-2.6-4.8c-0.1-0.2-0.2-0.4-0.3-0.9l0,0c-0.1,0.3-0.2,0.6-0.3,0.9l-2.7,4.7h-3.2l4.5-6.9
		l-4.1-6.9H83l2.2,4.4c0.2,0.3,0.3,0.7,0.4,1.1l0,0c0.1-0.3,0.3-0.7,0.5-1.2l2.4-4.3h3l-4.2,6.9L91.6,25.5z"/>
	<path class="st2" d="M104.2,25.5H101l-2.6-4.8c-0.1-0.2-0.2-0.4-0.3-0.9l0,0c-0.1,0.3-0.2,0.6-0.3,0.9l-2.7,4.7h-3.2l4.5-6.9
		l-4.1-6.9h3.3l2.2,4.4c0.2,0.3,0.3,0.7,0.4,1.1l0,0c0.1-0.3,0.3-0.7,0.5-1.2l2.4-4.3h3l-4.2,6.9L104.2,25.5z"/>
</g>
<g>
	<path class="st3" d="M62.7,74.8c0,0-5-2.9-13.5-0.1c0,0,0.9,3-1.6,4.4L43,81.8c0,0-2.7,1.5-3.9-1.8s-0.5-4.6-0.5-4.6
		s0.7-4.4,8.1-6.9c6.8-2.4,21.1-2,25.8,5.2c0.7,1.1,1,2.4,0.9,3.7c-0.1,1.8-0.7,4.2-2.6,4.7c-0.7,0.2-1.4,0-2-0.3l-5-2.7
		C63.9,79.2,61.8,78.4,62.7,74.8z"/>
	<g>
		<polygon class="st3" points="44.3,49.1 44.3,52.2 44.3,58.4 47.3,58.4 47.3,54.3 56.3,63.3 58.4,61.1 58.4,61.1 66.6,52.9 
			64.5,50.8 56.3,59 49.5,52.2 53.6,52.2 53.6,49.1 47.3,49.1 		"/>
	</g>
</g>
</svg>
