<?xml version="1.0" encoding="utf-8"?>
<!-- Generator: Adobe Illustrator 26.3.1, SVG Export Plug-In . SVG Version: 6.00 Build 0)  -->
<svg version="1.1" id="레이어_1" xmlns="http://www.w3.org/2000/svg" xmlns:xlink="http://www.w3.org/1999/xlink" x="0px"
	 y="0px" viewBox="0 0 110 110" style="enable-background:new 0 0 110 110;" xml:space="preserve">
<style type="text/css">
	.st0{fill:#FFE1C3;}
	.st1{opacity:0.2;fill:#FFE1C3;}
	.st2{fill:#CC5525;}
	.st3{fill:#FFDCB9;}
	.st4{fill:#E6E6E6;}
	.st5{fill:#F0F0F0;}
	.st6{fill:#00C0AA;}
	.st7{opacity:0.2;fill:#FFC8AF;}
	.st8{fill:#505050;}
	.st9{fill:#00CCAE;}
	.st10{fill:none;stroke:#FE3939;stroke-width:5;}
</style>
<g>
	<path class="st0" d="M54.673,62.586c4.22,0,12.114-4.9,14.701-18.103c2.586-13.203-3.539-21.641-14.701-21.641
		c-11.161,0-17.286,8.439-14.7,21.641C42.56,57.686,50.454,62.586,54.673,62.586z"/>
	<path class="st0" d="M39.973,44.482c-0.152-0.776-0.269-1.533-0.361-2.276c-0.664-0.933-1.423-1.548-2.225-1.332
		c-1.562,0.423-1.974,1.702-0.34,5.581c1.633,3.88,2.926,5.321,3.879,4.9c0.313-0.138,0.536-0.581,0.696-1.113
		C40.962,48.523,40.393,46.623,39.973,44.482z"/>
	<path class="st0" d="M69.35,44.482c0.152-0.776,0.268-1.533,0.361-2.276c0.664-0.933,1.423-1.548,2.225-1.332
		c1.562,0.423,1.974,1.702,0.341,5.581c-1.633,3.88-2.926,5.321-3.88,4.9c-0.313-0.138-0.536-0.581-0.696-1.113
		C68.361,48.523,68.93,46.623,69.35,44.482z"/>
	<path class="st1" d="M69.374,44.482c2.586-13.203-3.539-21.641-14.701-21.641v39.744C58.893,62.586,66.787,57.686,69.374,44.482z"
		/>
	<path class="st2" d="M54.673,19.074c3.101,0,6.098,0.583,8.759,1.719c0.23-0.546,0.36-1.122,0.36-1.719
		c0-3.438-4.082-6.225-9.119-6.225c-5.036,0-9.119,2.786-9.119,6.225c0,0.597,0.131,1.172,0.36,1.719
		C48.576,19.657,51.572,19.074,54.673,19.074z"/>
	<path class="st3" d="M63.178,70.616c-1.905,3.746-8.505,5.848-8.505,5.848s-6.598-2.102-8.504-5.848
		c2.319-2.809,2.243-6.425,1.807-8.864c-0.294-1.633-0.74-2.754-0.74-2.754h0.021c2.668,2.494,5.445,3.593,7.416,3.593
		c1.971,0,4.747-1.1,7.416-3.593h0.022c0,0-0.446,1.122-0.741,2.754C60.934,64.192,60.858,67.807,63.178,70.616z"/>
	<polygon class="st4" points="40.374,72.515 51.588,96.069 58.666,96.069 68.106,72.329 66.098,71.916 54.673,74.632 43.248,71.916 
			"/>
	<polygon class="st5" points="48.138,65.799 46.507,66.125 42.968,71.569 51.338,81.913 54.673,74.632 47.829,67.376 	"/>
	<path class="st6" d="M53.247,96.064H24.663c0,0,3.833-18.806,5.509-20.548c0.022-0.033,0.044-0.044,0.066-0.065
		c1.633-1.296,13.012-3.539,13.012-3.539L53.247,96.064z"/>
	<polygon class="st5" points="61.209,65.799 62.84,66.125 66.379,71.569 58.008,81.913 54.673,74.632 61.518,67.376 	"/>
	<path class="st6" d="M66.098,71.916c0,0,11.374,2.239,13.007,3.532c1.634,1.293,5.581,20.621,5.581,20.621H56.103L66.098,71.916z"
		/>
	<path class="st7" d="M62.11,58.998c0,0-0.446,1.122-0.741,2.754c-2.439,2.048-4.911,2.941-6.697,2.941
		c-1.785,0-4.257-0.893-6.697-2.941c-0.294-1.633-0.74-2.754-0.74-2.754h0.021c2.668,2.494,5.445,3.593,7.416,3.593
		c1.971,0,4.747-1.1,7.416-3.593H62.11z"/>
	<path class="st2" d="M54.518,18.414c-16.214,0-17.465,15.894-16.716,21.625c0.375,2.874,2.631,5.623,2.631,5.623
		s0.594-7.753,5.62-9.965c5.024-2.213,12.365-1.022,15.921-6.387c4.175,6.351,6.032,9.027,6.847,16.352
		C73.454,40.806,77.129,18.584,54.518,18.414z"/>
	<path class="st8" d="M57.913,58.406c0,0.987-1.222,1.787-2.731,1.787c-1.508,0-2.731-0.8-2.731-1.787s1.223-1.787,2.731-1.787
		C56.69,56.62,57.913,57.419,57.913,58.406z"/>
	<path class="st8" d="M70.461,47.521c-0.398,1.471-1.321,2.501-2.063,2.301c-0.741-0.201-1.018-1.556-0.62-3.026
		c0.397-1.471,1.32-2.5,2.061-2.3C70.581,44.696,70.859,46.051,70.461,47.521z"/>
	<path class="st8" d="M55.592,58.91v-1.089c9.138,0,10.781-1.942,13.333-9.597l1.033,0.344C67.245,56.707,65.152,58.91,55.592,58.91
		z"/>
	<path class="st9" d="M30.173,75.516v20.548h-5.509C24.663,96.064,28.496,77.259,30.173,75.516z"/>
	<path class="st9" d="M79.176,75.516v20.548h5.509C84.686,96.064,80.853,77.259,79.176,75.516z"/>
</g>
<g>
	<circle class="st10" cx="83.089" cy="85.971" r="17.97"/>
	<path class="st10" d="M67.566,95.993l31.563-19.468"/>
</g>
</svg>
