<?xml version="1.0" encoding="utf-8"?>
<!-- Generator: Adobe Illustrator 26.3.1, SVG Export Plug-In . SVG Version: 6.00 Build 0)  -->
<svg version="1.1" id="레이어_1" xmlns="http://www.w3.org/2000/svg" xmlns:xlink="http://www.w3.org/1999/xlink" x="0px"
	 y="0px" viewBox="0 0 110 110" style="enable-background:new 0 0 110 110;" xml:space="preserve">
<style type="text/css">
	.st0{fill:#E0E2E5;}
	.st1{fill:#CFD1D3;}
	.st2{fill:#A4A4A6;}
	.st3{fill:#F1F1F2;}
	.st4{fill:none;stroke:#FE3939;stroke-width:5;}
</style>
<g id="Mail_Icon_3_">
	<g>
		<rect x="20.066" y="31.45" class="st0" width="69.933" height="47.11"/>
		<path class="st1" d="M89.118,76.728L60.103,52.917c-2.947-2.419-7.193-2.419-10.141,0L20.948,76.728
			c-1.741,1.429-0.731,4.252,1.521,4.252h65.128C89.849,80.98,90.859,78.157,89.118,76.728z"/>
		<path class="st2" d="M20.87,33.215l28.796,26.099c3.046,2.761,7.689,2.761,10.735,0L89.213,33.2L20.87,33.215z"/>
		<path class="st3" d="M89.118,33.281L60.103,57.093c-2.947,2.419-7.193,2.419-10.141,0L20.948,33.281
			c-1.741-1.429-0.731-4.252,1.521-4.252h65.128C89.849,29.03,90.859,31.853,89.118,33.281z"/>
	</g>
</g>
<g>
	<circle class="st4" cx="83.594" cy="77.565" r="17.97"/>
	<path class="st4" d="M68.071,87.587l31.563-19.468"/>
</g>
</svg>
