<?xml version="1.0" encoding="utf-8"?>
<!-- Generator: Adobe Illustrator 27.1.1, SVG Export Plug-In . SVG Version: 6.00 Build 0)  -->
<svg version="1.1" id="레이어_1" xmlns="http://www.w3.org/2000/svg" xmlns:xlink="http://www.w3.org/1999/xlink" x="0px"
	 y="0px" viewBox="0 0 60 45" style="enable-background:new 0 0 60 45;" xml:space="preserve">
<style type="text/css">
	.st0{fill:#FF4235;}
	.st1{fill:#444444;}
	.st2{fill:#FFFFFF;}
</style>
<g>
	<g>
		<path class="st0" d="M30,9.6l-8.4-8.4c-2.2,2.2-3.5,5.1-3.5,8.4c0,6.6,5.3,11.9,11.9,11.9s11.9-5.3,11.9-11.9
			c0-3.3-1.3-6.3-3.5-8.4L30,9.6z"/>
		<path class="st1" d="M30,22.7c-7.2,0-13.1-5.9-13.1-13.1c0-3.5,1.4-6.8,3.8-9.2c0.5-0.5,1.2-0.5,1.6,0L30,7.9l7.6-7.6
			c0.5-0.5,1.2-0.5,1.6,0c2.5,2.5,3.8,5.8,3.8,9.2C43.1,16.8,37.2,22.7,30,22.7z M21.6,2.8c-1.5,1.9-2.4,4.3-2.4,6.8
			c0,5.9,4.8,10.8,10.8,10.8s10.8-4.8,10.8-10.8c0-2.5-0.8-4.8-2.4-6.8l-7.6,7.6c-0.5,0.5-1.2,0.5-1.6,0L21.6,2.8z"/>
	</g>
	<g>
		<rect x="8.3" y="9.6" class="st2" width="43.5" height="9.2"/>
		<path class="st1" d="M51.7,20.1H8.3c-0.7,0-1.3-0.6-1.3-1.3V9.6c0-0.7,0.6-1.3,1.3-1.3h43.5c0.7,0,1.3,0.6,1.3,1.3v9.2
			C53,19.5,52.5,20.1,51.7,20.1z M9.5,17.5h40.9v-6.7H9.5V17.5z"/>
	</g>
	<g>
		<rect x="10.9" y="18.8" class="st2" width="38.1" height="24.9"/>
		<path class="st1" d="M49.1,45H10.9c-0.7,0-1.3-0.6-1.3-1.3V18.8c0-0.7,0.6-1.3,1.3-1.3h38.1c0.7,0,1.3,0.6,1.3,1.3v24.9
			C50.3,44.4,49.8,45,49.1,45z M12.2,42.4h35.5V20.1H12.2V42.4z"/>
	</g>
	<g>
		<rect x="26.1" y="9.6" class="st0" width="7.9" height="34.1"/>
		<path class="st1" d="M33.9,44.9h-7.9c-0.6,0-1.2-0.5-1.2-1.2V9.6c0-0.6,0.5-1.2,1.2-1.2h7.9c0.6,0,1.2,0.5,1.2,1.2v34.1
			C35.1,44.4,34.6,44.9,33.9,44.9z M27.2,42.6h5.5V10.7h-5.5V42.6z"/>
	</g>
</g>
</svg>
