<?xml version="1.0" encoding="utf-8"?>
<!-- Generator: Adobe Illustrator 27.1.1, SVG Export Plug-In . SVG Version: 6.00 Build 0)  -->
<svg version="1.1" id="레이어_1" xmlns="http://www.w3.org/2000/svg" xmlns:xlink="http://www.w3.org/1999/xlink" x="0px"
	 y="0px" viewBox="0 0 24 20" style="enable-background:new 0 0 24 20;" xml:space="preserve">
<style type="text/css">
	.st0{clip-path:url(#SVGID_00000153675616661210828490000002451570341116115377_);fill:#444444;}
</style>
<g>
	<defs>
		<rect id="SVGID_1_" x="0.3" width="23.5" height="20"/>
	</defs>
	<clipPath id="SVGID_00000056408549975102098670000012091460675954076561_">
		<use xlink:href="#SVGID_1_"  style="overflow:visible;"/>
	</clipPath>
	<path style="clip-path:url(#SVGID_00000056408549975102098670000012091460675954076561_);fill:#444444;" d="M1.6,20
		c-0.3,0-0.7-0.1-0.9-0.4c-0.5-0.5-0.5-1.3,0-1.8L8.4,10L0.6,2.2c-0.5-0.5-0.5-1.3,0-1.8s1.3-0.5,1.8,0l8.7,8.7
		c0.5,0.5,0.5,1.3,0,1.8l-8.7,8.7C2.2,19.9,1.9,20,1.6,20z"/>
	<path style="clip-path:url(#SVGID_00000056408549975102098670000012091460675954076561_);fill:#444444;" d="M13.7,20
		c-0.3,0-0.7-0.1-0.9-0.4c-0.5-0.5-0.5-1.3,0-1.8l7.8-7.8l-7.8-7.8c-0.5-0.5-0.5-1.3,0-1.8c0.5-0.5,1.3-0.5,1.8,0l8.7,8.7
		c0.5,0.5,0.5,1.3,0,1.8l-8.7,8.7C14.4,19.9,14.1,20,13.7,20z"/>
</g>
</svg>
