<?xml version="1.0" encoding="utf-8"?>
<!-- Generator: Adobe Illustrator 27.1.1, SVG Export Plug-In . SVG Version: 6.00 Build 0)  -->
<svg version="1.1" id="레이어_1" xmlns="http://www.w3.org/2000/svg" xmlns:xlink="http://www.w3.org/1999/xlink" x="0px"
	 y="0px" viewBox="0 0 20 20" style="enable-background:new 0 0 20 20;" xml:space="preserve">
<style type="text/css">
	.st0{fill:#FFFFFF;}
	.st1{fill:#444444;}
	.st2{fill:#FF4235;}
	.st3{fill:#C3E0FC;}
</style>
<g>
	<g>
		<rect x="1.9" y="4.3" class="st0" width="16.1" height="9.9"/>
		<path class="st1" d="M18.1,14.7H1.9c-0.3,0-0.5-0.2-0.5-0.5V4.3c0-0.3,0.2-0.5,0.5-0.5h16.1c0.3,0,0.5,0.2,0.5,0.5v9.9
			C18.5,14.5,18.3,14.7,18.1,14.7z M2.4,13.7h15.2V4.8H2.4V13.7z"/>
	</g>
	<g>
		<rect x="1.2" y="2" class="st2" width="17.6" height="2.3"/>
		<path class="st1" d="M18.8,4.8H1.2c-0.3,0-0.5-0.2-0.5-0.5V2c0-0.3,0.2-0.5,0.5-0.5h17.6c0.3,0,0.5,0.2,0.5,0.5v2.3
			C19.3,4.5,19.1,4.8,18.8,4.8z M1.7,3.8h16.7V2.4H1.7V3.8z"/>
	</g>
	<g>
		<line class="st3" x1="10" y1="2" x2="10" y2="0.5"/>
		<path class="st1" d="M10,2.4C9.7,2.4,9.5,2.2,9.5,2V0.5C9.5,0.2,9.7,0,10,0s0.5,0.2,0.5,0.5V2C10.5,2.2,10.3,2.4,10,2.4z"/>
	</g>
	<g>
		<line class="st3" x1="10" y1="19.5" x2="10" y2="14.2"/>
		<path class="st1" d="M10,20c-0.3,0-0.5-0.2-0.5-0.5v-5.3c0-0.3,0.2-0.5,0.5-0.5s0.5,0.2,0.5,0.5v5.3C10.5,19.8,10.3,20,10,20z"/>
	</g>
	<path class="st1" d="M12.3,20c-0.1,0-0.2,0-0.3-0.1l-2-2l-2,2c-0.2,0.2-0.5,0.2-0.7,0c-0.2-0.2-0.2-0.5,0-0.7l2.3-2.3
		c0.2-0.2,0.5-0.2,0.7,0l2.3,2.3c0.2,0.2,0.2,0.5,0,0.7C12.6,20,12.4,20,12.3,20z"/>
	<path class="st1" d="M14.8,7.4H5.2C5,7.4,4.7,7.2,4.7,6.9c0-0.3,0.2-0.5,0.5-0.5h9.6c0.3,0,0.5,0.2,0.5,0.5
		C15.3,7.2,15,7.4,14.8,7.4z"/>
	<path class="st1" d="M14.8,12H5.2c-0.3,0-0.5-0.2-0.5-0.5s0.2-0.5,0.5-0.5h9.6c0.3,0,0.5,0.2,0.5,0.5S15,12,14.8,12z"/>
	<path class="st1" d="M14.8,9.7H5.2C5,9.7,4.7,9.5,4.7,9.2C4.7,9,5,8.7,5.2,8.7h9.6c0.3,0,0.5,0.2,0.5,0.5C15.3,9.5,15,9.7,14.8,9.7
		z"/>
</g>
</svg>
