<?xml version="1.0" encoding="utf-8"?>
<!-- Generator: Adobe Illustrator 27.1.1, SVG Export Plug-In . SVG Version: 6.00 Build 0)  -->
<svg version="1.1" id="레이어_1" xmlns="http://www.w3.org/2000/svg" xmlns:xlink="http://www.w3.org/1999/xlink" x="0px"
	 y="0px" viewBox="0 0 60 45" style="enable-background:new 0 0 60 45;" xml:space="preserve">
<style type="text/css">
	.st0{fill:#FFFFFF;}
	.st1{fill:#444444;}
	.st2{fill:#C3E0FC;}
	.st3{fill:#FF4235;}
</style>
<g>
	<g>
		<polygon class="st0" points="35.6,43.8 24.4,43.8 26.8,33.1 33.2,33.1 		"/>
		<path class="st1" d="M35.6,45H24.4c-0.4,0-0.7-0.2-1-0.5c-0.2-0.3-0.3-0.7-0.2-1l2.3-10.7c0.1-0.6,0.6-1,1.2-1h6.5
			c0.6,0,1.1,0.4,1.2,1l2.3,10.7c0.1,0.4,0,0.8-0.2,1C36.3,44.8,35.9,45,35.6,45z M26,42.5h8l-1.8-8.2h-4.4L26,42.5z"/>
	</g>
	<g>
		<path class="st0" d="M53.7,5.7v22.9c0,2.5-2,4.4-4.5,4.4H10.8c-2.5,0-4.5-2-4.5-4.4V5.7c0-2.5,2-4.4,4.5-4.4h38.4
			C51.7,1.2,53.7,3.2,53.7,5.7z"/>
		<path class="st1" d="M49.2,34.3H10.8c-3.1,0-5.7-2.6-5.7-5.7V5.7C5.1,2.6,7.6,0,10.8,0h38.4c3.1,0,5.7,2.6,5.7,5.7v22.9
			C54.9,31.8,52.4,34.3,49.2,34.3z M10.8,2.5C9,2.5,7.6,3.9,7.6,5.7v22.9c0,1.8,1.4,3.2,3.2,3.2h38.4c1.8,0,3.2-1.4,3.2-3.2V5.7
			c0-1.8-1.4-3.2-3.2-3.2H10.8z"/>
	</g>
	<g>
		<line class="st2" x1="20.2" y1="43.8" x2="39.8" y2="43.8"/>
		<path class="st1" d="M39.8,45H20.2c-0.7,0-1.2-0.6-1.2-1.2s0.6-1.2,1.2-1.2h19.7c0.7,0,1.2,0.6,1.2,1.2S40.5,45,39.8,45z"/>
	</g>
	<g>
		<g>
			
				<rect x="24.9" y="10.4" transform="matrix(0.9397 -0.342 0.342 0.9397 -4.2002 10.5019)" class="st3" width="5.6" height="13.5"/>
			<circle class="st3" cx="25.4" cy="10.8" r="2.8"/>
			<circle class="st3" cx="30" cy="23.5" r="2.8"/>
		</g>
		<g>
			<rect x="20.2" y="10.4" transform="matrix(0.9397 0.342 -0.342 0.9397 7.2589 -6.8447)" class="st3" width="5.6" height="13.5"/>
			<circle class="st3" cx="25.3" cy="10.8" r="2.8"/>
			<circle class="st3" cx="20.7" cy="23.5" r="2.8"/>
		</g>
		<g>
			
				<rect x="34.1" y="10.4" transform="matrix(0.9397 -0.342 0.342 0.9397 -3.6404 13.6765)" class="st3" width="5.6" height="13.5"/>
			<circle class="st3" cx="34.7" cy="10.8" r="2.8"/>
			<circle class="st3" cx="39.3" cy="23.5" r="2.8"/>
		</g>
		<g>
			
				<rect x="29.5" y="10.4" transform="matrix(0.9397 0.342 -0.342 0.9397 7.8186 -10.0193)" class="st3" width="5.6" height="13.5"/>
			<circle class="st3" cx="34.6" cy="10.8" r="2.8"/>
			<circle class="st3" cx="30" cy="23.5" r="2.8"/>
		</g>
	</g>
</g>
</svg>
