<?xml version="1.0" encoding="utf-8"?>
<!-- Generator: Adobe Illustrator 27.1.1, SVG Export Plug-In . SVG Version: 6.00 Build 0)  -->
<svg version="1.1" id="_레이어_1" xmlns="http://www.w3.org/2000/svg" xmlns:xlink="http://www.w3.org/1999/xlink" x="0px"
	 y="0px" viewBox="0 0 6 7.8" style="enable-background:new 0 0 6 7.8;" xml:space="preserve">
<style type="text/css">
	.st0{fill:#FFFFFF;}
	.st1{opacity:0.75;fill:#FFFFFF;enable-background:new    ;}
</style>
<g>
	<path class="st0" d="M5.7,7.7H0.2C0.1,7.7,0,7.6,0,7.5V0.3c0-0.1,0.1-0.2,0.2-0.2h3.8c0,0,0.1,0,0.1,0.1l1.6,1.6
		c0,0,0.1,0.1,0.1,0.1v5.6C5.9,7.6,5.8,7.7,5.7,7.7L5.7,7.7z M0.4,7.3h5.1V2L4,0.5H0.4C0.4,0.5,0.4,7.3,0.4,7.3z"/>
	<path class="st0" d="M5.7,2.1H4.1C4,2.1,3.9,2,3.9,1.9V0.3c0-0.1,0-0.2,0.1-0.2c0.1,0,0.2,0,0.2,0l1.6,1.6c0.1,0.1,0.1,0.1,0,0.2
		C5.9,2.1,5.8,2.1,5.7,2.1L5.7,2.1z M4.3,1.7h0.9L4.3,0.8V1.7z"/>
</g>
<polygon class="st1" points="3,2.4 3.4,3.4 4.5,3.6 3.7,4.3 3.9,5.3 3,4.8 2,5.3 2.2,4.3 1.5,3.6 2.5,3.4 "/>
</svg>
