<?xml version="1.0" encoding="UTF-8"?><svg id="_레이어_1" xmlns="http://www.w3.org/2000/svg" viewBox="0 0 59.78 45.11"><defs><style>.cls-1{fill:#424242;}.cls-2{fill:none;stroke:#424242;}.cls-2,.cls-3{stroke-linecap:round;stroke-linejoin:round;stroke-width:2.5px;}.cls-3{fill:#ff4031;stroke:#373737;}</style></defs><path class="cls-2" d="M43.86,22.55c0,11.76-9.54,21.3-21.3,21.3S1.25,34.32,1.25,22.55,10.79,1.25,22.55,1.25s21.3,9.54,21.3,21.3Z"/><path class="cls-2" d="M29.19,25.83c-1.25,2.53-3.86,4.27-6.87,4.27h0c-2.96,0-5.53-1.68-6.81-4.14"/><path class="cls-1" d="M31.77,18.73c0,1.28-1.04,2.32-2.32,2.32s-2.32-1.04-2.32-2.32,1.04-2.32,2.32-2.32,2.32,1.04,2.32,2.32Z"/><path class="cls-1" d="M17.89,18.73c0,1.28-1.04,2.32-2.32,2.32s-2.32-1.04-2.32-2.32,1.04-2.32,2.32-2.32,2.32,1.04,2.32,2.32Z"/><path class="cls-3" d="M35.37,16.84c-6.96-6.85-2.6-15.14,2.22-15.14,6.55,0,7.71,7.15,7.71,7.15,0,0,.71-7.15,7.26-7.15,4.89,0,9.53,8.54,2,15.47-2.38,2.2-9.19,7.75-9.19,7.75,0,0-7.64-5.75-10.01-8.08Z"/></svg>