<?xml version="1.0" encoding="utf-8"?>
<!-- Generator: Adobe Illustrator 27.1.1, SVG Export Plug-In . SVG Version: 6.00 Build 0)  -->
<svg version="1.1" id="_레이어_1" xmlns="http://www.w3.org/2000/svg" xmlns:xlink="http://www.w3.org/1999/xlink" x="0px"
	 y="0px" viewBox="0 0 6.3 9.1" style="enable-background:new 0 0 6.3 9.1;" xml:space="preserve">
<style type="text/css">
	.st0{clip-path:url(#SVGID_00000101781892785141028160000006535629909988148353_);}
	.st1{clip-path:url(#SVGID_00000183214297015727610770000008775274233655258554_);}
	.st2{opacity:0.3;}
	.st3{clip-path:url(#SVGID_00000179625208363119536050000009129972087643407291_);}
	.st4{fill:#FFFFFF;}
</style>
<g>
	<defs>
		<rect id="SVGID_1_" x="0" y="0" width="6.2" height="9"/>
	</defs>
	<clipPath id="SVGID_00000147927285255104825870000018109568653569585810_">
		<use xlink:href="#SVGID_1_"  style="overflow:visible;"/>
	</clipPath>
	<g style="clip-path:url(#SVGID_00000147927285255104825870000018109568653569585810_);">
		<g>
			<defs>
				<rect id="SVGID_00000168839547132110092900000007735490611164404875_" x="0" y="0" width="6.2" height="9"/>
			</defs>
			<clipPath id="SVGID_00000039099916910632497460000015009434607341719446_">
				<use xlink:href="#SVGID_00000168839547132110092900000007735490611164404875_"  style="overflow:visible;"/>
			</clipPath>
			<g style="clip-path:url(#SVGID_00000039099916910632497460000015009434607341719446_);">
				<g class="st2">
					<g>
						<defs>
							<rect id="SVGID_00000106122396834987615690000006862111537434259372_" x="1.4" y="4.2" width="3.6" height="3.6"/>
						</defs>
						<clipPath id="SVGID_00000106834562172244427550000000820465747254563502_">
							<use xlink:href="#SVGID_00000106122396834987615690000006862111537434259372_"  style="overflow:visible;"/>
						</clipPath>
						<g style="clip-path:url(#SVGID_00000106834562172244427550000000820465747254563502_);">
							<rect x="1.4" y="4.2" class="st4" width="3.6" height="3.6"/>
						</g>
					</g>
				</g>
				<path class="st4" d="M6.1,1.5L4.8,0.2C4.7,0.1,4.6,0,4.4,0H0.7C0.3,0,0,0.3,0,0.7v7.8c0,0.3,0.3,0.6,0.6,0.6h5
					c0.3,0,0.6-0.3,0.6-0.6V1.9C6.3,1.7,6.2,1.6,6.1,1.5 M5.9,8.4c0,0.1-0.1,0.2-0.2,0.2h-5c-0.1,0-0.2-0.1-0.2-0.2V0.7
					c0-0.1,0.1-0.2,0.2-0.2h3.7c0.1,0,0.1,0,0.1,0.1l1.2,1.2c0,0,0.1,0.1,0.1,0.1L5.9,8.4L5.9,8.4z"/>
				<path class="st4" d="M4.6,3.9H1.7c-0.3,0-0.6,0.3-0.6,0.6v2.9C1.1,7.7,1.3,8,1.7,8h2.9C5,8,5.2,7.7,5.2,7.4V4.5
					C5.2,4.2,5,3.9,4.6,3.9 M2.5,6.3h1v1.3h-1V6.3z M3.5,5.9h-1V4.3h1V5.9z M1.7,4.3h0.4v0.9H1.5V4.5C1.5,4.4,1.6,4.3,1.7,4.3
					 M1.5,7.4V5.6h0.6v1.9H1.7C1.6,7.6,1.5,7.5,1.5,7.4 M4.8,7.4c0,0.1-0.1,0.2-0.2,0.2H3.9V4.3h0.7c0.1,0,0.2,0.1,0.2,0.2V7.4z"/>
			</g>
		</g>
	</g>
</g>
</svg>
