<?xml version="1.0" encoding="utf-8"?>
<!-- Generator: Adobe Illustrator 27.1.1, SVG Export Plug-In . SVG Version: 6.00 Build 0)  -->
<svg version="1.1" id="레이어_1" xmlns="http://www.w3.org/2000/svg" xmlns:xlink="http://www.w3.org/1999/xlink" x="0px"
	 y="0px" viewBox="0 0 20 20" style="enable-background:new 0 0 20 20;" xml:space="preserve">
<style type="text/css">
	.st0{fill:#707070;}
	.st1{fill:#FFFFFF;}
</style>
<g>
	<path class="st0" d="M11.6,17.5c-0.2,0-0.4-0.1-0.6-0.2c-0.3-0.3-0.3-0.8,0-1.1l6.4-6.4l-5.9-5.9c-0.3-0.3-0.3-0.8,0-1.1
		c0.3-0.3,0.8-0.3,1.1,0l7.1,7.1l-7.5,7.5C12.1,17.5,11.9,17.5,11.6,17.5z"/>
	<g>
		<line class="st1" x1="1" y1="9.8" x2="18.1" y2="9.8"/>
		<path class="st0" d="M18.1,10.6H1c-0.4,0-0.8-0.4-0.8-0.8S0.6,9,1,9h17.1c0.4,0,0.8,0.4,0.8,0.8S18.6,10.6,18.1,10.6z"/>
	</g>
</g>
</svg>
