<?xml version="1.0" encoding="utf-8"?>
<!-- Generator: Adobe Illustrator 27.1.1, SVG Export Plug-In . SVG Version: 6.00 Build 0)  -->
<svg version="1.1" id="레이어_1" xmlns="http://www.w3.org/2000/svg" xmlns:xlink="http://www.w3.org/1999/xlink" x="0px"
	 y="0px" viewBox="0 0 20 20" style="enable-background:new 0 0 20 20;" xml:space="preserve">
<style type="text/css">
	.st0{fill:#FF4235;}
	.st1{fill:#444444;}
</style>
<g>
	<path class="st0" d="M15,1.5c-2.7-0.2-4.9,1.9-5,4.5C9.9,3.4,7.7,1.3,5,1.5C2.5,1.7,0.6,3.8,0.6,6.3v0c0,2.8,1.2,5.4,3.4,7.2l6,5v0
		l0,0l0,0v0l6-5c2.1-1.8,3.4-4.4,3.4-7.2v0C19.4,3.8,17.5,1.7,15,1.5z"/>
	<path class="st1" d="M10,19.2c-0.1,0-0.2,0-0.3-0.1c-0.1,0-0.2-0.1-0.2-0.2L3.6,14C1.3,12.1,0,9.3,0,6.3C0,3.4,2.2,1,5,0.9
		c1.4-0.1,2.8,0.4,3.9,1.4C9.3,2.6,9.7,3.1,10,3.6c0.3-0.5,0.7-1,1.1-1.4c1.1-1,2.5-1.4,3.9-1.4c2.8,0.2,5,2.6,5,5.5
		c0,3-1.3,5.8-3.6,7.7l-5.9,4.9c-0.1,0.1-0.1,0.1-0.2,0.1C10.2,19.1,10.1,19.2,10,19.2C10,19.2,10,19.2,10,19.2z M5.3,2.1
		c-0.1,0-0.2,0-0.3,0c-2.1,0.1-3.8,2-3.8,4.2c0,2.6,1.1,5,3.1,6.7l5.6,4.6l5.6-4.6c2-1.7,3.1-4.1,3.1-6.7c0-2.2-1.7-4.1-3.8-4.2l0,0
		c-1.1-0.1-2.2,0.3-3,1c-0.8,0.7-1.3,1.7-1.3,2.8c0,0.3-0.3,0.6-0.6,0.6S9.4,6.4,9.4,6c0-1.1-0.5-2.1-1.3-2.8
		C7.3,2.5,6.3,2.1,5.3,2.1z"/>
</g>
</svg>
