<?xml version="1.0" encoding="UTF-8"?><svg id="_레이어_1" xmlns="http://www.w3.org/2000/svg" viewBox="0 0 141.29 28"><defs><style>.cls-1{fill-rule:evenodd;}.cls-1,.cls-2{fill:#231f20;}</style></defs><path class="cls-2" d="M8.84,7.75c.66-.66,1.73-.66,2.39,0,.66.66.66,1.73,0,2.39l-6.58,6.58c-1.94,1.94-1.79,5.2.46,6.95,1.86,1.44,4.54,1.14,6.2-.52l2.03-2.03s.02.02.02.02h-.01s.06.07.09.1l2.27,2.27-2.13,2.13c-1.56,1.56-3.61,2.34-5.66,2.34s-4.1-.78-5.66-2.35c-3.11-3.11-2.93-8.38.18-11.49l6.41-6.41Z"/><path class="cls-2" d="M13.92,9.45c2.91-2.92,7.53-3.09,10.67-.56,0,0,.02.02.02.02l-2.41,2.41s0,0-.01,0c-.78-.54-1.7-.82-2.61-.82-1.19,0-2.37.45-3.27,1.35-.87.87-1.36,2.04-1.36,3.27,0,.93.27,1.81.78,2.56l-.03.03.35.39s.06.07.09.11v.02s.07.06.07.06c.03.04.06.07.1.11l4.88,4.88c.87.87,2.03,1.36,3.27,1.36,1.16,0,2.25-.43,3.1-1.2.05-.05.11-.1.17-.15.86-.86,1.3-1.98,1.34-3.11.04-1.24-.4-2.49-1.34-3.44l-2.11-2.11,2.39-2.39,2.12,2.12h0c2.14,2.14,2.81,5.2,2.01,7.93-.07.24-.15.48-.24.71-.09.22-.19.44-.3.65-.08.14-.15.28-.24.42-.04.06-.07.12-.11.18-.11.18-.23.35-.35.52,0,.01-.02.03-.03.04-.14.19-.28.36-.44.53-.1.11-.19.23-.3.34-.05.05-.11.1-.16.15-.16.15-.34.3-.51.44-1.41,1.13-3.15,1.75-4.98,1.75-2.14,0-4.15-.83-5.66-2.35l-4.88-4.88s-.07-.08-.11-.12c-1.44-1.5-2.23-3.4-2.23-5.54,0-2.14.84-4.15,2.35-5.66Z"/><path class="cls-2" d="M25.59,8.86c3.14-2.51,7.74-2.32,10.64.59l4.88,4.88h0c3.12,3.12,3.12,8.2,0,11.32-1.51,1.52-3.52,2.35-5.66,2.35-1.84,0-3.57-.62-4.98-1.75.04-.04.08-.08.12-.12.09-.09.18-.19.26-.28l.08-.08c.16-.19.32-.38.5-.62.14-.18.26-.37.38-.56l.12-.19c.09-.15.18-.3.26-.46.08-.15.14-.31.21-.46.85.75,1.92,1.16,3.05,1.16,1.24,0,2.4-.48,3.27-1.36,1.8-1.8,1.8-4.74,0-6.54l-4.88-4.88c-.91-.9-2.09-1.35-3.27-1.35-.89,0-1.77.29-2.54.8-.06.04-.12.07-.19.12-.03.02-.06.04-.09.06l-8.7,8.7-.27-.27-2.04-2.04-.04-.04-.02-.02s-.01-.02-.01-.02l5.7-5.7,3.07-3.09s.1-.09.15-.13Z"/><path class="cls-1" d="M116.81,9.07l.36-.21c1.57-.91,3.32-1.37,5.34-1.37s3.83.46,5.4,1.39h0c1.56.92,2.8,2.17,3.69,3.72.88,1.55,1.33,3.28,1.33,5.15,0,1.87-.45,3.6-1.33,5.13-.89,1.54-2.12,2.78-3.69,3.7-1.56.92-3.42,1.39-5.4,1.39s-3.77-.46-5.38-1.39c-1.57-.92-2.82-2.17-3.7-3.7-.89-1.53-1.33-3.26-1.34-5.13V0h4.72v9.07ZM122.5,11.74c-1.14,0-2.16.28-3.01.83-.85.55-1.52,1.28-1.99,2.19-.46.91-.7,1.94-.7,3s.23,2.05.7,2.96c.47.91,1.14,1.64,1.99,2.19.86.55,1.87.83,3.01.83s2.16-.28,3.01-.83c.85-.54,1.52-1.28,1.99-2.19.46-.91.7-1.87.7-2.96s-.23-2.09-.7-3c-.47-.91-1.14-1.64-1.99-2.19-.86-.55-1.87-.83-3.01-.83Z"/><path class="cls-1" d="M98.88,7.41c2,0,3.79.46,5.33,1.37s2.77,2.15,3.64,3.68c.88,1.53,1.32,3.24,1.32,5.09s-.44,3.56-1.32,5.07c-.88,1.52-2.1,2.75-3.64,3.66-1.54.91-3.36,1.37-5.33,1.37s-3.76-.46-5.32-1.37c-1.55-.91-2.78-2.14-3.66-3.66-.87-1.52-1.32-3.22-1.32-5.07s.44-3.56,1.32-5.09c.87-1.52,2.1-2.76,3.66-3.68,1.55-.91,3.32-1.37,5.32-1.37ZM98.87,11.61c-1.13,0-2.13.27-2.98.82-.84.54-1.51,1.27-1.97,2.16-.46.89-.69,1.91-.69,2.96s.23,2.03.69,2.92c.46.9,1.12,1.63,1.97,2.16.85.54,1.85.82,2.98.82s2.13-.27,2.98-.82c.84-.54,1.5-1.27,1.97-2.16.46-.89.69-1.85.69-2.92s-.23-2.07-.69-2.96c-.46-.9-1.12-1.63-1.97-2.16-.85-.54-1.85-.82-2.98-.82Z"/><path class="cls-2" d="M76.45,7.41c5.24,0,9.5,4.26,9.5,9.5v10.3h-4.92v-10.3c0-2.52-2.05-4.57-4.57-4.57-2.52,0-4.57,2.05-4.57,4.57v10.3h-4.99v-10.3c0-2.52-2.05-4.57-4.57-4.57-2.52,0-4.57,2.05-4.57,4.57v10.3h-4.92v-10.3c0-5.24,4.26-9.5,9.5-9.5,2.63,0,5.08,1.06,6.9,2.99l.17.19.17-.19c1.82-1.93,4.27-2.99,6.9-2.99Z"/><path class="cls-2" d="M140.82,27.16h-4.66V7.87h4.66v19.3Z"/><path class="cls-2" d="M30.42,25.31c-.1.11-.19.23-.3.34.11-.11.2-.23.3-.34Z"/><path class="cls-2" d="M30.86,24.78c-.14.19-.28.36-.44.53.15-.17.3-.35.44-.53Z"/><path class="cls-2" d="M31.59,23.62c-.07.14-.15.28-.24.42.08-.14.16-.28.24-.42Z"/><path class="cls-2" d="M18.78,19.9l-2-2-.04-.04,2.03,2.04Z"/><path class="cls-2" d="M16.21,18.28h0s0-.01-.01-.02c0,0,0-.01-.01-.02l.03.03Z"/><path class="cls-2" d="M16.18,18.24l-.02-.02v-.02s.01.03.02.04Z"/><path class="cls-2" d="M16.13,18.18h0s.02.02.02.02c-.03-.04-.06-.07-.09-.11l.08.08Z"/><path class="cls-2" d="M15.74,17.67c.1.15.2.29.32.42l-.35-.39.03-.03Z"/><path class="cls-2" d="M16.71,17.82l.04.04h0s-.04-.05-.04-.05h0Z"/><path class="cls-2" d="M138.49.15c1.54,0,2.8,1.25,2.8,2.8s-1.26,2.8-2.8,2.8c-1.54,0-2.8-1.26-2.8-2.8s1.26-2.8,2.8-2.8Z"/></svg>