<?xml version="1.0" encoding="UTF-8"?><svg id="_레이어_1" xmlns="http://www.w3.org/2000/svg" viewBox="0 0 19.58 24"><defs><style>.cls-1{fill:#0a0f0f;}</style></defs><path class="cls-1" d="M16.35,12.76c.01-.92.26-1.82.71-2.62.46-.8,1.11-1.47,1.89-1.95-.5-.71-1.16-1.3-1.92-1.71-.77-.41-1.62-.64-2.49-.67-1.86-.19-3.66,1.11-4.6,1.11s-2.42-1.09-3.99-1.06c-1.01.03-2,.33-2.87.85-.87.53-1.58,1.27-2.07,2.15-2.14,3.69-.54,9.11,1.5,12.1,1.02,1.46,2.22,3.09,3.79,3.03,1.53-.06,2.11-.97,3.96-.97s2.37.97,3.97.94c1.65-.03,2.68-1.47,3.67-2.94.74-1.04,1.3-2.19,1.68-3.41-.96-.4-1.77-1.08-2.35-1.94-.57-.86-.88-1.87-.88-2.91Z"/><path class="cls-1" d="M13.33,3.85c.9-1.07,1.34-2.45,1.23-3.85-1.37.14-2.64.8-3.55,1.83-.44.5-.78,1.09-1,1.73s-.31,1.31-.26,1.98c.69,0,1.36-.14,1.98-.43.62-.29,1.16-.72,1.59-1.25Z"/></svg>