<?xml version="1.0" encoding="utf-8"?>
<!-- Generator: Adobe Illustrator 26.3.1, SVG Export Plug-In . SVG Version: 6.00 Build 0)  -->
<svg version="1.1" id="레이어_1" xmlns="http://www.w3.org/2000/svg" xmlns:xlink="http://www.w3.org/1999/xlink" x="0px"
	 y="0px" viewBox="0 0 32 32" style="enable-background:new 0 0 32 32;" xml:space="preserve">
<style type="text/css">
	.st0{fill:none;}
	.st1{fill:#008080;}
	.st2{fill:#888888;}
</style>
<g>
	<path class="st0" d="M22.369,26.664c0,0,0.001,0,0.001,0c0.065,0.026,0.134,0.046,0.208,0.046
		C22.504,26.71,22.435,26.691,22.369,26.664z"/>
	<path class="st0" d="M26.392,25.382h-3.814c-0.01,0-0.017,0.006-0.027,0.006c1.016,0,2.606,0,3.868,0
		C26.409,25.388,26.402,25.382,26.392,25.382z"/>
	<path class="st0" d="M25.096,20.616c0.157,0.143,0.334,0.192,0.5,0.176C25.43,20.808,25.254,20.759,25.096,20.616
		c-1.152-1.048-2.305-2.096-3.455-3.145c-0.475-0.43-0.065-1.064,0.434-1.112c-0.5,0.048-0.91,0.681-0.435,1.112
		C22.79,18.52,23.944,19.568,25.096,20.616z"/>
	<path class="st0" d="M21.973,26.05c0,0.182,0.068,0.347,0.177,0.466c0.002,0.002,0.004,0.003,0.006,0.005
		c0.052,0.055,0.113,0.1,0.18,0.133c0,0,0,0,0.001,0C22.124,26.552,21.974,26.32,21.973,26.05z"/>
	<path class="st0" d="M13.085,25.388c0-3.057,0-6.114,0-9.171c0,0-0.001,0-0.001,0c0,3.057,0,6.114,0,9.171
		C13.084,25.388,13.085,25.388,13.085,25.388z"/>
	<path class="st0" d="M8.483,9.932c0.053,0.868,0.696,1.298,1.34,1.296C9.18,11.23,8.536,10.799,8.483,9.932z"/>
	<path class="st0" d="M4.65,10.554c-0.017-0.031-0.048-0.055-0.062-0.087C4.603,10.499,4.634,10.523,4.65,10.554z"/>
	<path class="st0" d="M16.49,9.932c0.054,0.868,0.697,1.298,1.34,1.296C17.187,11.23,16.544,10.799,16.49,9.932z"/>
	<path class="st0" d="M7.818,11.686c0.299,0.341,0.681,0.602,1.116,0.758c0.273,0.097,0.568,0.155,0.887,0.155
		c0.275,0,0.534-0.041,0.775-0.117c0.006-0.002,0.011-0.002,0.016-0.004c0.029-0.008,0.056-0.02,0.084-0.03
		c0.439-0.153,0.827-0.42,1.127-0.762c0.298,0.341,0.68,0.602,1.116,0.758c0.032,0.012,0.063,0.023,0.095,0.033h0.001
		c0.245,0.077,0.51,0.121,0.79,0.121c0.274,0,0.535-0.041,0.776-0.117c0.006-0.002,0.011-0.002,0.016-0.004
		c0.028-0.008,0.057-0.02,0.085-0.03c0.439-0.156,0.825-0.42,1.125-0.762c0.299,0.341,0.681,0.602,1.118,0.758
		c0.031,0.012,0.061,0.023,0.093,0.033c0,0,0,0,0.002,0c0.245,0.077,0.51,0.121,0.79,0.121c0.275,0,0.534-0.041,0.775-0.117
		c0.006-0.002,0.01-0.002,0.016-0.004c0.03-0.008,0.056-0.02,0.084-0.03c0.439-0.153,0.826-0.42,1.127-0.762
		c0.299,0.341,0.682,0.605,1.118,0.758c0.032,0.012,0.062,0.023,0.092,0.033c0.002,0,0.004,0.002,0.004,0.002
		c0.246,0.075,0.509,0.119,0.787,0.119c0.277,0,0.537-0.041,0.78-0.117c0.004-0.002,0.008-0.002,0.014-0.004
		c0.027-0.008,0.056-0.022,0.085-0.032c0.437-0.154,0.824-0.418,1.124-0.76c0.489,0.557,1.205,0.913,2.002,0.913
		c0.263,0,0.519-0.039,0.764-0.111c0-0.001,0-0.003,0-0.004c-0.244,0.072-0.501,0.111-0.764,0.111c-0.797,0-1.513-0.356-2.002-0.913
		c-0.3,0.342-0.687,0.607-1.124,0.76c-0.029,0.011-0.058,0.024-0.085,0.032c-0.006,0.002-0.01,0.002-0.014,0.004
		c-0.243,0.075-0.503,0.117-0.78,0.117c-0.278,0-0.541-0.044-0.787-0.119c0,0-0.002-0.002-0.004-0.002
		c-0.03-0.01-0.06-0.021-0.092-0.033c-0.436-0.153-0.819-0.417-1.118-0.758c-0.301,0.342-0.688,0.609-1.127,0.762
		c-0.028,0.01-0.054,0.022-0.084,0.03c-0.007,0.002-0.011,0.002-0.016,0.004c-0.241,0.075-0.5,0.117-0.775,0.117
		c-0.28,0-0.545-0.043-0.79-0.121c-0.002,0-0.002,0-0.002,0c-0.032-0.01-0.062-0.021-0.093-0.033
		c-0.437-0.156-0.819-0.417-1.118-0.758c-0.3,0.342-0.686,0.607-1.125,0.762c-0.028,0.01-0.057,0.022-0.085,0.03
		c-0.005,0.002-0.01,0.002-0.016,0.004c-0.241,0.075-0.502,0.117-0.776,0.117c-0.28,0-0.545-0.043-0.79-0.121h-0.001
		c-0.032-0.01-0.063-0.021-0.095-0.033c-0.436-0.156-0.818-0.417-1.116-0.758c-0.301,0.342-0.688,0.609-1.127,0.762
		c-0.028,0.01-0.055,0.022-0.084,0.03c-0.005,0.002-0.01,0.002-0.016,0.004c-0.241,0.075-0.5,0.117-0.775,0.117
		c-0.319,0-0.614-0.058-0.887-0.155c-0.435-0.156-0.817-0.417-1.116-0.758c-0.489,0.557-1.205,0.913-2.002,0.913
		c-0.239,0-0.475-0.033-0.701-0.095c0,0.001,0,0.003,0,0.004c0.226,0.061,0.462,0.095,0.701,0.095
		C6.613,12.599,7.329,12.243,7.818,11.686z"/>
	<path class="st0" d="M16.428,23.141c3.391,0,6.783,0,10.174,0c0-0.001,0-0.003,0-0.004c-3.391,0-6.783,0-10.174,0
		c-0.358,0-0.662-0.304-0.662-0.66c0,0.001,0,0.003,0,0.004C15.766,22.837,16.07,23.141,16.428,23.141z"/>
	<path class="st0" d="M7.158,9.931c-0.071,1.133-1.302,1.73-2.223,1.006c-0.009-0.008-0.019-0.016-0.03-0.025c0,0,0,0,0,0
		c0.011,0.01,0.022,0.018,0.031,0.026c0.921,0.724,2.153,0.127,2.223-1.006V6.614H7.158V9.931z"/>
	<path class="st0" d="M24.498,9.931V6.614h-0.001v3.318c0.074,1.196,1.398,1.739,2.297,0.938c0,0,0,0,0-0.001
		C25.894,11.671,24.572,11.128,24.498,9.931z"/>
	<path class="st0" d="M17.637,18.21c1.149,1.05,2.302,2.098,3.454,3.146c0.473,0.429,1.118,0.012,1.145-0.466
		c-0.027,0.478-0.672,0.895-1.145,0.465c-1.151-1.048-2.305-2.096-3.453-3.146c-0.217-0.197-0.241-0.434-0.164-0.64
		C17.397,17.775,17.42,18.013,17.637,18.21z"/>
	<path class="st0" d="M19.334,25.386h-3.815c-0.003,0-0.006,0.001-0.009,0.002c1.259,0,2.84,0,3.851,0
		c-0.01,0-0.017-0.006-0.027-0.006V25.386z"/>
	<path class="st0" d="M22.551,25.388c-0.321,0.016-0.579,0.302-0.579,0.658c0,0.001,0.001,0.002,0.001,0.004
		C21.974,25.692,22.231,25.404,22.551,25.388z"/>
	<path class="st0" d="M19.94,26.05c0-0.001,0-0.002,0-0.004c0-0.356-0.258-0.642-0.579-0.658
		C19.681,25.404,19.938,25.692,19.94,26.05z"/>
	<path class="st0" d="M26.392,25.382c0.01,0,0.017,0.006,0.027,0.006c0.005,0,0.01,0,0.015,0c-0.005,0-0.01-0.004-0.015-0.004
		c0.061,0,0.122,0,0.183,0c0-0.747,0-1.494,0-2.243c-3.391,0-6.783,0-10.174,0c-0.358,0-0.662-0.304-0.662-0.66
		c0-0.001,0-0.003,0-0.004c0-2.34,0-4.678,0-7.015c0-0.001,0-0.003,0-0.004c0-0.358,0.305-0.662,0.662-0.662
		c3.391,0,6.783,0,10.174,0c0-0.771,0-1.54,0-2.311c-0.245,0.072-0.501,0.111-0.764,0.111c-0.797,0-1.513-0.356-2.002-0.913
		c-0.3,0.342-0.687,0.606-1.124,0.76c-0.029,0.01-0.058,0.024-0.085,0.032c-0.006,0.002-0.01,0.002-0.014,0.004
		c-0.243,0.076-0.503,0.117-0.78,0.117c-0.278,0-0.541-0.044-0.787-0.119c0,0-0.002-0.002-0.004-0.002
		c-0.03-0.01-0.06-0.021-0.092-0.033c-0.436-0.153-0.819-0.417-1.118-0.758c-0.301,0.342-0.688,0.609-1.127,0.762
		c-0.028,0.01-0.054,0.022-0.084,0.03c-0.006,0.002-0.01,0.002-0.016,0.004c-0.241,0.076-0.5,0.117-0.775,0.117
		c-0.28,0-0.545-0.044-0.79-0.121c-0.002,0-0.002,0-0.002,0c-0.032-0.01-0.062-0.021-0.093-0.033
		c-0.437-0.156-0.819-0.417-1.118-0.758c-0.3,0.342-0.686,0.606-1.125,0.762c-0.028,0.01-0.057,0.022-0.085,0.03
		c-0.005,0.002-0.01,0.002-0.016,0.004c-0.241,0.076-0.502,0.117-0.776,0.117c-0.28,0-0.545-0.044-0.79-0.121h-0.001
		c-0.032-0.01-0.063-0.021-0.095-0.033c-0.436-0.156-0.818-0.417-1.116-0.758c-0.3,0.342-0.688,0.609-1.127,0.762
		c-0.028,0.01-0.055,0.022-0.084,0.03c-0.005,0.002-0.01,0.002-0.016,0.004c-0.241,0.076-0.5,0.117-0.775,0.117
		c-0.319,0-0.614-0.058-0.887-0.155c-0.435-0.156-0.817-0.417-1.116-0.758c-0.489,0.557-1.205,0.913-2.002,0.913
		c-0.239,0-0.475-0.034-0.701-0.095c0,4.294,0,8.589,0,12.884c0.03,0,0.061,0,0.091,0c0.651,0,1.301,0,1.951,0
		c0-3.276,0-6.551,0-9.829c0-0.001,0-0.003,0-0.004c0-0.358,0.304-0.66,0.662-0.66c1.975,0,3.951,0,5.926,0
		c0.196,0,0.344,0.071,0.45,0.179c0.005,0.004,0.008,0.008,0.013,0.012c0.007,0.008,0.015,0.014,0.021,0.022
		c0.107,0.105,0.177,0.253,0.177,0.447c0,0.001,0,0.003,0,0.004c0,3.278,0,6.552,0,9.829c0.051,0,0.102,0,0.153,0
		c0.311,0,0.622,0,0.933,0c0,0,0.001,0,0.001,0c0.006,0,0.011,0,0.017,0c0.003-0.001,0.006-0.002,0.009-0.002h3.815v-0.004
		c0.01,0,0.017,0.006,0.027,0.006c1.063,0,2.127,0,3.19,0c0.01,0,0.017-0.006,0.027-0.006H26.392z"/>
	<path class="st0" d="M13.084,25.388c0-3.057,0-6.114,0-9.171c-1.534,0-3.067,0-4.601,0c0,3.057,0,6.114,0,9.171
		C10.016,25.388,11.549,25.388,13.084,25.388z"/>
	<path class="st0" d="M7.158,9.931V6.614H4.506c-0.015,0-0.027,0.012-0.027,0.028v3.29c0,0.188,0.037,0.369,0.109,0.535
		c0.014,0.032,0.045,0.056,0.062,0.087c0.069,0.129,0.144,0.255,0.255,0.358c0.011,0.01,0.021,0.018,0.03,0.025
		C5.856,11.661,7.087,11.064,7.158,9.931z"/>
	<path class="st0" d="M16.49,9.932c0.054,0.867,0.697,1.298,1.34,1.296c0.643-0.002,1.286-0.435,1.34-1.296V6.614h-2.68V9.932z"/>
	<path class="st0" d="M20.492,9.932c0.108,1.734,2.573,1.722,2.681,0.002V9.932V6.614h-2.681V9.932z"/>
	<path class="st0" d="M12.486,9.932c0.107,1.735,2.573,1.722,2.68,0V6.614h-2.68V9.932z"/>
	<path class="st0" d="M8.483,9.932c0.054,0.867,0.697,1.298,1.34,1.296c0.643-0.002,1.286-0.435,1.339-1.296V6.614H8.483V9.932z"/>
	<path class="st0" d="M27.177,9.932v-3.29c0-0.018-0.015-0.028-0.027-0.028c-0.004,0-2.652,0-2.652,0v3.317
		c0.074,1.197,1.396,1.74,2.296,0.938C27.041,10.62,27.178,10.286,27.177,9.932L27.177,9.932z"/>
	<path class="st0" d="M17.088,21.818c3.172,0,6.342,0,9.514,0c0-1.899,0-3.798,0-5.695c-3.172,0-6.341,0-9.514,0
		C17.088,18.02,17.088,19.919,17.088,21.818z M22.075,16.359c0.167-0.016,0.343,0.033,0.5,0.176
		c1.153,1.048,2.304,2.096,3.456,3.146c0.474,0.431,0.064,1.063-0.435,1.111c-0.166,0.016-0.343-0.033-0.5-0.176
		c-1.152-1.048-2.306-2.096-3.456-3.145C21.165,17.04,21.575,16.406,22.075,16.359z M18.571,17.274
		c1.153,1.048,2.305,2.096,3.457,3.146c0.158,0.144,0.217,0.31,0.208,0.47c-0.027,0.478-0.672,0.895-1.145,0.466
		c-1.152-1.048-2.305-2.096-3.454-3.146c-0.217-0.197-0.24-0.435-0.163-0.641C17.62,17.174,18.158,16.898,18.571,17.274z"/>
	<path class="st1" d="M30.326,25.388c-0.801,0-1.601,0-2.402,0c0-0.966,0-1.935,0-2.901c0-0.003,0.002-0.005,0.002-0.006
		c0-2.341,0-4.681,0-7.019c0-0.002-0.002-0.004-0.002-0.006c0-1.291,0-2.579,0-3.87c0.373-0.467,0.576-1.046,0.576-1.654v-3.29
		c0-0.746-0.606-1.352-1.35-1.352h-2.653h-1.324h-2.681H19.17h-2.68h-1.323h-2.68h-1.324h-2.68H7.159H4.506
		c-0.744,0-1.352,0.606-1.352,1.352v3.289c0,0.634,0.231,1.249,0.639,1.728c0,4.576,0,9.153,0,13.729c-0.705,0-1.409,0-2.114,0
		c-0.851,0-0.852,1.324,0,1.324c0.924,0,1.846,0,2.771,0c0.002,0,0.003,0,0.005,0c3.668,0,7.337,0,11.005,0
		c-0.002,0-0.004-0.002-0.006-0.002h-0.869c-0.333,0-0.603-0.296-0.605-0.66c0.002-0.352,0.251-0.633,0.564-0.658
		c-0.046,0-0.092,0-0.138,0c0-0.001,0-0.003,0-0.004c0-3.277,0-6.551,0-9.829c0-0.193-0.07-0.342-0.177-0.447
		c-0.006-0.008-0.014-0.014-0.021-0.022c-0.005-0.004-0.008-0.008-0.013-0.012c-0.106-0.108-0.254-0.179-0.45-0.179
		c-1.976,0-3.952,0-5.926,0c-0.358,0-0.662,0.302-0.662,0.66c0,3.278,0,6.553,0,9.829c0,0.001,0,0.003,0,0.004
		c-0.651,0-1.301,0-1.951,0c-0.03,0-0.061,0-0.091,0c0-0.001,0-0.003,0-0.004c0-4.295,0-8.59,0-12.884c0-0.001,0-0.003,0-0.004
		c0.226,0.062,0.462,0.095,0.701,0.095c0.797,0,1.513-0.356,2.002-0.913c0.299,0.341,0.681,0.602,1.116,0.758
		c0.273,0.097,0.568,0.155,0.887,0.155c0.275,0,0.534-0.042,0.775-0.117c0.006-0.002,0.011-0.002,0.016-0.004
		c0.029-0.008,0.056-0.02,0.084-0.03c0.439-0.153,0.826-0.42,1.127-0.762c0.298,0.341,0.68,0.602,1.116,0.758
		c0.032,0.012,0.063,0.023,0.095,0.033h0.001c0.245,0.078,0.51,0.121,0.79,0.121c0.274,0,0.535-0.042,0.776-0.117
		c0.006-0.002,0.011-0.002,0.016-0.004c0.028-0.008,0.057-0.02,0.085-0.03c0.439-0.155,0.825-0.42,1.125-0.762
		c0.299,0.341,0.681,0.602,1.118,0.758c0.031,0.012,0.061,0.023,0.093,0.033c0,0,0,0,0.002,0c0.245,0.078,0.51,0.121,0.79,0.121
		c0.275,0,0.534-0.042,0.775-0.117c0.005-0.002,0.009-0.002,0.016-0.004c0.03-0.008,0.056-0.02,0.084-0.03
		c0.439-0.153,0.826-0.42,1.127-0.762c0.299,0.341,0.682,0.605,1.118,0.758c0.032,0.012,0.062,0.023,0.092,0.033
		c0.002,0,0.004,0.002,0.004,0.002c0.246,0.075,0.509,0.119,0.787,0.119c0.277,0,0.537-0.042,0.78-0.117
		c0.004-0.002,0.008-0.002,0.014-0.004c0.027-0.008,0.056-0.021,0.085-0.032c0.437-0.153,0.824-0.418,1.124-0.76
		c0.489,0.557,1.205,0.913,2.002,0.913c0.263,0,0.52-0.039,0.764-0.111c0,0.001,0,0.003,0,0.004c0,0.771,0,1.54,0,2.311
		c0,0.001,0,0.003,0,0.004c-3.391,0-6.783,0-10.174,0c-0.357,0-0.662,0.304-0.662,0.662c0,2.337,0,4.675,0,7.015
		c0,0.356,0.304,0.66,0.662,0.66c3.391,0,6.783,0,10.174,0c0,0.001,0,0.003,0,0.004c0,0.749,0,1.496,0,2.243
		c0,0.001,0,0.003,0,0.004c0.27,0,0.528,0,0.752,0c0.32,0.016,0.576,0.304,0.578,0.662c-0.001,0.361-0.267,0.652-0.596,0.658
		c0.995,0,1.992,0,2.99,0C31.177,26.712,31.178,25.388,30.326,25.388z M8.482,16.217C8.482,16.217,8.483,16.217,8.482,16.217
		c1.535,0,3.068,0,4.602,0c0,0,0.001,0,0.001,0c0,3.057,0,6.114,0,9.171c0,0-0.001,0-0.001,0c-1.535,0-3.068,0-4.601,0
		c0,0-0.001,0-0.001,0C8.482,22.331,8.482,19.274,8.482,16.217z M7.159,9.932c-0.07,1.133-1.302,1.73-2.223,1.006
		c-0.009-0.008-0.02-0.016-0.031-0.026c0,0,0,0,0,0c0,0-0.001,0-0.001-0.001c-0.11-0.103-0.185-0.229-0.254-0.357
		c-0.017-0.031-0.048-0.055-0.062-0.087c-0.072-0.166-0.11-0.347-0.11-0.536V6.642c0-0.015,0.012-0.028,0.028-0.028h2.652h0.001
		V9.932z M11.162,9.932c-0.053,0.861-0.696,1.295-1.339,1.296C9.179,11.23,8.536,10.8,8.483,9.932V6.614h2.679V9.932z M15.166,9.932
		c-0.107,1.722-2.573,1.735-2.68,0V6.614h2.68V9.932z M19.17,9.932c-0.054,0.861-0.697,1.295-1.34,1.296
		c-0.643,0.002-1.287-0.429-1.34-1.296V6.614h2.68V9.932z M23.173,9.932v0.002c-0.108,1.72-2.573,1.732-2.681-0.002V6.614h2.681
		V9.932z M26.602,21.818c-3.172,0-6.342,0-9.514,0c0-1.899,0-3.798,0-5.695c3.173,0,6.342,0,9.514,0
		C26.602,18.02,26.602,19.919,26.602,21.818z M27.179,9.931c0,0.354-0.137,0.687-0.384,0.938c0,0,0,0-0.001,0s0,0,0,0.001
		c-0.899,0.801-2.223,0.258-2.297-0.938V6.614h0.001c0,0,2.648,0,2.652,0h0.002c0.011,0,0.027,0.011,0.027,0.028V9.931z"/>
	<path class="st1" d="M5.115,25.388c0,0.001,0,0.003,0,0.004c0.03,0,0.061,0,0.091,0c0.65,0,1.3,0,1.951,0c0-0.001,0-0.003,0-0.004
		c-0.65,0-1.3,0-1.951,0C5.176,25.388,5.145,25.388,5.115,25.388z"/>
	<path class="st1" d="M15.766,15.458c0,0.001,0,0.003,0,0.004c0-0.358,0.305-0.662,0.662-0.662c3.391,0,6.783,0,10.174,0
		c0-0.001,0-0.003,0-0.004c-3.391,0-6.783,0-10.174,0C16.071,14.796,15.766,15.1,15.766,15.458z"/>
	<path class="st1" d="M14.229,15.108c-0.006-0.008-0.014-0.014-0.021-0.022c-0.005-0.004-0.008-0.008-0.013-0.012
		c-0.106-0.108-0.254-0.179-0.45-0.179c-1.975,0-3.951,0-5.926,0c-0.358,0-0.662,0.302-0.662,0.66c0,0.001,0,0.003,0,0.004
		c0-0.358,0.304-0.66,0.662-0.66c1.974,0,3.95,0,5.926,0c0.196,0,0.344,0.071,0.45,0.179c0.005,0.004,0.008,0.008,0.013,0.012
		c0.007,0.008,0.015,0.014,0.021,0.022c0.107,0.105,0.177,0.254,0.177,0.447c0-0.001,0-0.003,0-0.004
		C14.406,15.361,14.336,15.213,14.229,15.108z"/>
	<path class="st1" d="M14.406,25.388c0,0.001,0,0.003,0,0.004c0.046,0,0.092,0,0.138,0c0.005,0,0.01-0.004,0.015-0.004
		C14.508,25.388,14.457,25.388,14.406,25.388z"/>
	<path class="st1" d="M26.434,25.388c0.056,0,0.112,0,0.168,0c0-0.001,0-0.003,0-0.004c-0.061,0-0.122,0-0.183,0
		C26.424,25.384,26.429,25.388,26.434,25.388z"/>
	<path class="st1" d="M8.483,16.217C8.483,16.217,8.482,16.217,8.483,16.217c-0.001,3.057-0.001,6.114-0.001,9.171
		c0,0,0.001,0,0.001,0C8.483,22.331,8.483,19.274,8.483,16.217z"/>
	<path class="st1" d="M4.904,10.911C4.904,10.911,4.905,10.911,4.904,10.911c-0.11-0.102-0.185-0.229-0.254-0.357
		C4.719,10.682,4.794,10.808,4.904,10.911z"/>
	<path class="st1" d="M4.479,6.642c0-0.016,0.012-0.028,0.027-0.028C4.49,6.614,4.478,6.627,4.479,6.642L4.478,9.931
		c0,0.188,0.038,0.37,0.11,0.536c-0.072-0.166-0.109-0.347-0.109-0.535V6.642z"/>
	<path class="st1" d="M17.83,11.228c0.643-0.002,1.286-0.435,1.34-1.296C19.117,10.793,18.473,11.227,17.83,11.228z"/>
	<path class="st1" d="M9.823,11.228c0.643-0.001,1.286-0.435,1.339-1.296C11.109,10.793,10.466,11.227,9.823,11.228z"/>
	<path class="st1" d="M27.15,6.614c0.012,0,0.027,0.01,0.027,0.028v3.29h0.001c0,0.354-0.137,0.688-0.384,0.937c0,0,0,0,0.001,0
		c0.247-0.251,0.384-0.584,0.384-0.938V6.642c0-0.017-0.016-0.028-0.027-0.028H27.15z"/>
	<path class="st1" d="M17.638,18.209c1.148,1.05,2.302,2.098,3.453,3.146c0.472,0.43,1.117,0.013,1.145-0.465
		c0.009-0.159-0.05-0.325-0.208-0.469c-1.151-1.05-2.304-2.098-3.457-3.146c-0.412-0.376-0.95-0.101-1.097,0.294
		C17.397,17.775,17.421,18.012,17.638,18.209z"/>
	<path class="st1" d="M18.571,17.275c1.153,1.048,2.306,2.096,3.457,3.146c0.157,0.144,0.217,0.31,0.208,0.469
		c0.009-0.159-0.05-0.326-0.208-0.47c-1.152-1.05-2.304-2.098-3.457-3.146c-0.413-0.376-0.951-0.1-1.097,0.295
		C17.621,17.174,18.159,16.899,18.571,17.275z"/>
	<path class="st1" d="M21.641,17.471c1.15,1.049,2.303,2.097,3.456,3.145c0.157,0.143,0.333,0.192,0.499,0.176
		c0.499-0.048,0.908-0.68,0.434-1.111c-1.151-1.05-2.303-2.098-3.456-3.146c-0.157-0.143-0.333-0.192-0.499-0.176
		C21.576,16.407,21.166,17.041,21.641,17.471z"/>
	<path class="st1" d="M26.03,19.681c0.474,0.43,0.065,1.063-0.434,1.111C26.095,20.744,26.505,20.112,26.03,19.681
		c-1.151-1.05-2.302-2.098-3.455-3.146c-0.157-0.143-0.334-0.192-0.5-0.176c0.166-0.016,0.342,0.033,0.499,0.176
		C23.727,17.583,24.879,18.631,26.03,19.681z"/>
	<path class="st1" d="M27.264,26.708c-0.267,0-0.534,0-0.801,0c-0.002,0-0.004,0.002-0.006,0.002h0.87
		c0.003,0,0.006-0.002,0.009-0.002c-0.022,0-0.044,0-0.066,0C27.268,26.708,27.266,26.708,27.264,26.708z"/>
	<path class="st1" d="M26.998,26.044c0-0.001,0-0.001,0-0.002c0-0.35-0.25-0.63-0.564-0.654c-0.005,0-0.01,0-0.015,0
		C26.739,25.404,26.996,25.689,26.998,26.044z"/>
	<path class="st1" d="M22.337,26.654c0.01,0.005,0.021,0.006,0.032,0.01c0.066,0.027,0.135,0.046,0.209,0.046h3.814
		c0.06,0,0.115-0.02,0.169-0.037c0.027-0.009,0.056-0.013,0.081-0.026c0.049-0.025,0.092-0.06,0.133-0.098
		c0.016-0.014,0.034-0.024,0.048-0.04c0.051-0.057,0.093-0.123,0.122-0.197c0.001-0.002,0.002-0.003,0.003-0.005
		c0.031-0.079,0.048-0.165,0.048-0.256c-0.002-0.358-0.259-0.646-0.578-0.662c-1.262,0-2.852,0-3.868,0
		c-0.32,0.016-0.577,0.304-0.578,0.662C21.974,26.32,22.124,26.552,22.337,26.654z"/>
	<polygon class="st1" points="26.998,26.052 26.998,26.05 26.997,26.048 26.997,26.05 	"/>
	<path class="st1" d="M26.419,25.388c0.319,0.016,0.576,0.304,0.578,0.662c0,0,0-0.001,0-0.002c0-0.001,0-0.001,0-0.002
		c0-0.001,0-0.002,0.001-0.002C26.996,25.689,26.739,25.404,26.419,25.388z"/>
	<path class="st1" d="M26.823,26.509c-0.014,0.016-0.033,0.026-0.048,0.04C26.791,26.534,26.809,26.525,26.823,26.509z"/>
	<path class="st1" d="M26.945,26.312c0.001-0.002,0.002-0.003,0.003-0.005C26.948,26.308,26.946,26.31,26.945,26.312z"/>
	<path class="st1" d="M26.561,26.673c0.013-0.004,0.027-0.004,0.04-0.009c0.01-0.004,0.022-0.005,0.032-0.01
		c0.004-0.002,0.006-0.005,0.01-0.007C26.617,26.659,26.588,26.664,26.561,26.673z"/>
	<path class="st1" d="M27.932,26.05c-0.002-0.358-0.258-0.646-0.578-0.662c-0.224,0-0.482,0-0.752,0c-0.056,0-0.112,0-0.168,0
		c0.313,0.024,0.564,0.304,0.564,0.654c0,0,0,0.001,0,0.002c0,0.001,0,0.002,0,0.002c0,0.001,0,0.001,0,0.002
		c0,0.001,0,0.002,0,0.002c0,0.001,0,0.001,0,0.002c0,0.001,0,0.001,0,0.002c0,0.273-0.152,0.497-0.365,0.6
		c-0.01,0.005-0.021,0.006-0.032,0.01c-0.045,0.018-0.089,0.038-0.138,0.044c0.267,0,0.534,0,0.801,0c0.002,0,0.004,0,0.006,0
		c0.022,0,0.044,0,0.066,0C27.665,26.702,27.931,26.411,27.932,26.05z"/>
	<polygon class="st1" points="26.997,26.048 26.998,26.046 26.998,26.044 26.997,26.046 	"/>
	<path class="st2" d="M22.337,26.653c-0.067-0.032-0.129-0.077-0.18-0.133C22.208,26.576,22.269,26.621,22.337,26.653z"/>
	<path class="st2" d="M22.156,26.521c-0.002-0.002-0.004-0.003-0.006-0.005C22.152,26.518,22.154,26.519,22.156,26.521z"/>
	<path class="st2" d="M21.972,26.054c0,0.183,0.07,0.343,0.178,0.462c-0.109-0.119-0.177-0.284-0.177-0.466
		C21.973,26.051,21.972,26.053,21.972,26.054z"/>
	<path class="st2" d="M22.578,26.71c-0.074,0-0.142-0.019-0.208-0.046c0.048,0.02,0.096,0.042,0.149,0.048c0.632,0,1.264,0,1.896,0
		c0.678,0,1.357,0,2.036,0c0.002,0,0.004-0.002,0.006-0.002h-0.065H22.578z"/>
	<path class="st2" d="M22.337,26.654C22.337,26.654,22.337,26.653,22.337,26.654c0.01,0.005,0.022,0.006,0.033,0.011
		c0,0-0.001,0-0.001,0C22.358,26.659,22.347,26.658,22.337,26.654z"/>
	<path class="st2" d="M26.451,26.708c0.039-0.005,0.074-0.023,0.11-0.035c-0.055,0.018-0.109,0.037-0.169,0.037h0.065
		c0.002,0,0.004-0.002,0.006-0.002C26.459,26.708,26.455,26.708,26.451,26.708z"/>
	<path class="st2" d="M26.945,26.312c-0.03,0.074-0.071,0.14-0.122,0.197C26.875,26.452,26.916,26.386,26.945,26.312z"/>
	<path class="st2" d="M22.369,26.664c-0.01-0.004-0.022-0.005-0.032-0.01C22.347,26.658,22.358,26.659,22.369,26.664z"/>
	<path class="st2" d="M26.642,26.647c0.049-0.025,0.091-0.06,0.133-0.098C26.734,26.586,26.691,26.622,26.642,26.647z"/>
	<path class="st2" d="M26.949,26.306c0.03-0.078,0.049-0.163,0.049-0.254c0-0.001-0.001-0.002-0.001-0.002
		C26.997,26.141,26.979,26.227,26.949,26.306z"/>
	<path class="st2" d="M26.633,26.654c-0.01,0.005-0.021,0.006-0.032,0.01C26.612,26.66,26.623,26.658,26.633,26.654z"/>
	<path class="st2" d="M26.451,26.708c0.004,0,0.008,0,0.012,0c0.049-0.007,0.093-0.026,0.138-0.044
		c-0.013,0.005-0.027,0.005-0.04,0.009C26.525,26.685,26.49,26.703,26.451,26.708z"/>
	<path class="st2" d="M26.945,26.312c-0.03,0.074-0.071,0.141-0.122,0.197c-0.014,0.016-0.033,0.025-0.048,0.04
		c-0.041,0.038-0.083,0.073-0.133,0.098c-0.004,0.002-0.006,0.005-0.01,0.007c0.213-0.102,0.365-0.326,0.365-0.6
		c0,0,0-0.001,0-0.002c0,0.091-0.019,0.176-0.049,0.254C26.948,26.308,26.946,26.31,26.945,26.312z"/>
	<path class="st1" d="M19.761,26.516c-0.001,0.001-0.002,0.002-0.003,0.003C19.759,26.518,19.76,26.517,19.761,26.516z"/>
	<path class="st1" d="M19.544,26.664c0,0-0.001,0-0.001,0c0.011-0.004,0.022-0.005,0.033-0.01c0,0,0,0,0,0
		C19.565,26.658,19.554,26.659,19.544,26.664z"/>
	<path class="st1" d="M15.308,26.663c0.047,0.02,0.094,0.04,0.146,0.047h0.001c-0.051-0.006-0.096-0.027-0.143-0.046
		C15.311,26.664,15.309,26.664,15.308,26.663z"/>
	<path class="st1" d="M15.478,25.392C15.478,25.392,15.477,25.392,15.478,25.392c-0.314,0.024-0.565,0.304-0.565,0.654
		c0,0.002,0,0.003,0,0.004c0,0.001,0,0.003,0,0.004c0,0.274,0.153,0.498,0.367,0.6c0,0-0.001-0.001-0.001-0.001
		c-0.067-0.032-0.127-0.077-0.179-0.132c-0.002-0.002-0.005-0.003-0.007-0.006c-0.108-0.119-0.178-0.279-0.178-0.462
		c0-0.001,0-0.003,0-0.004c0-0.002,0-0.003,0-0.004C14.914,25.696,15.164,25.416,15.478,25.392z"/>
	<path class="st1" d="M15.492,25.392c-0.005,0-0.009,0-0.014,0c-0.313,0.025-0.561,0.306-0.564,0.658
		c0.001,0.182,0.069,0.346,0.178,0.466c0.002,0.002,0.005,0.003,0.007,0.006c0.052,0.055,0.112,0.1,0.179,0.132
		c0.011,0.005,0.023,0.006,0.034,0.011c0.065,0.026,0.134,0.046,0.208,0.046h3.814c0.074,0,0.144-0.019,0.21-0.046
		c0.01-0.004,0.021-0.005,0.031-0.01c0.213-0.102,0.364-0.333,0.365-0.604c-0.003-0.358-0.259-0.646-0.579-0.662
		c-1.011,0-2.592,0-3.851,0C15.504,25.39,15.499,25.392,15.492,25.392z"/>
	<path class="st1" d="M14.914,26.046c0,0.001,0,0.002,0,0.004c0.003-0.352,0.251-0.633,0.564-0.658c0,0,0,0,0,0
		C15.164,25.416,14.914,25.696,14.914,26.046z"/>
	<path class="st1" d="M19.94,26.05c-0.002-0.358-0.259-0.646-0.579-0.662C19.681,25.404,19.937,25.692,19.94,26.05z"/>
	<path class="st1" d="M15.478,25.392c0.005,0,0.01-0.004,0.015-0.004c0,0-0.001,0-0.001,0
		C15.487,25.388,15.482,25.392,15.478,25.392C15.477,25.392,15.478,25.392,15.478,25.392z"/>
	<path class="st1" d="M15.492,25.392c0.007,0,0.012-0.002,0.018-0.004c-0.006,0-0.011,0-0.017,0c-0.005,0-0.01,0.004-0.015,0.004
		C15.483,25.392,15.487,25.392,15.492,25.392z"/>
	<path class="st1" d="M15.478,25.392c0.005,0,0.01-0.004,0.015-0.004C15.488,25.388,15.483,25.392,15.478,25.392
		C15.478,25.392,15.478,25.392,15.478,25.392z"/>
	<path class="st1" d="M15.28,26.654c-0.214-0.102-0.367-0.326-0.367-0.6c0-0.001,0-0.003,0-0.004c0-0.001,0-0.002,0-0.004
		c0-0.35,0.25-0.63,0.564-0.654c-0.311,0-0.622,0-0.933,0c-0.313,0.025-0.562,0.306-0.564,0.658c0.002,0.364,0.272,0.66,0.605,0.66
		h0.869c-0.052-0.007-0.099-0.027-0.146-0.047C15.299,26.659,15.289,26.658,15.28,26.654z"/>
	<path class="st1" d="M15.492,25.388c-0.311,0-0.622,0-0.933,0c-0.005,0-0.01,0.004-0.015,0.004c0.311,0,0.622,0,0.933,0
		C15.482,25.392,15.487,25.388,15.492,25.388z"/>
	<path class="st2" d="M19.758,26.519c-0.053,0.057-0.115,0.102-0.183,0.135C19.644,26.621,19.706,26.576,19.758,26.519z"/>
	<path class="st2" d="M19.94,26.054c0-0.001,0-0.003,0-0.004c-0.001,0.182-0.069,0.347-0.179,0.466
		C19.87,26.398,19.94,26.237,19.94,26.054z"/>
	<path class="st2" d="M15.52,26.71h-0.065c0.002,0,0.004,0.002,0.006,0.002c1.311,0,2.621,0,3.932,0
		c0.053-0.006,0.101-0.028,0.15-0.048c-0.066,0.027-0.135,0.046-0.209,0.046H15.52z"/>
	<path class="st2" d="M19.575,26.654C19.575,26.654,19.575,26.654,19.575,26.654c0.069-0.033,0.131-0.078,0.183-0.135
		c0.001-0.001,0.002-0.001,0.003-0.003c0.109-0.119,0.178-0.284,0.179-0.466C19.939,26.32,19.788,26.552,19.575,26.654z"/>
	<path class="st2" d="M19.544,26.664c0.01-0.004,0.021-0.005,0.031-0.01C19.565,26.658,19.554,26.659,19.544,26.664z"/>
	<path class="st2" d="M15.099,26.521c-0.002-0.002-0.005-0.003-0.007-0.006C15.094,26.518,15.097,26.519,15.099,26.521z"/>
	<path class="st2" d="M15.099,26.521c0.052,0.055,0.112,0.099,0.179,0.132C15.211,26.621,15.151,26.576,15.099,26.521z"/>
	<path class="st2" d="M15.092,26.516c-0.109-0.119-0.177-0.284-0.178-0.466c0,0.001,0,0.003,0,0.004
		C14.914,26.237,14.984,26.397,15.092,26.516z"/>
	<path class="st2" d="M15.308,26.663c0.001,0,0.003,0,0.004,0.001c-0.011-0.004-0.023-0.006-0.034-0.011
		c0,0,0.001,0.001,0.001,0.001C15.289,26.658,15.299,26.659,15.308,26.663z"/>
	<path class="st2" d="M19.334,26.71c0.074,0,0.143-0.019,0.209-0.046c0,0,0.001,0,0.001,0C19.478,26.691,19.408,26.71,19.334,26.71z
		"/>
	<path class="st2" d="M15.312,26.664c0.046,0.019,0.092,0.039,0.143,0.046h0.065C15.446,26.71,15.378,26.691,15.312,26.664z"/>
	<path class="st2" d="M15.308,26.663c-0.009-0.004-0.02-0.005-0.029-0.009C15.289,26.658,15.299,26.659,15.308,26.663z"/>
</g>
</svg>
