<?xml version="1.0" encoding="utf-8"?>
<!-- Generator: Adobe Illustrator 26.3.1, SVG Export Plug-In . SVG Version: 6.00 Build 0)  -->
<svg version="1.1" id="레이어_1" xmlns="http://www.w3.org/2000/svg" xmlns:xlink="http://www.w3.org/1999/xlink" x="0px"
	 y="0px" viewBox="0 0 32 32" style="enable-background:new 0 0 32 32;" xml:space="preserve">
<style type="text/css">
	.st0{fill:none;}
	.st1{fill:#888888;}
</style>
<g>
	<path class="st0" d="M26.997,26.05c0-0.001,0.001-0.002,0.001-0.004c0-0.356-0.258-0.642-0.579-0.658
		C26.738,25.404,26.995,25.692,26.997,26.05z"/>
	<path class="st0" d="M22.551,25.388c-0.321,0.016-0.579,0.302-0.579,0.658c0,0.001,0.001,0.002,0.001,0.004
		C21.974,25.692,22.231,25.404,22.551,25.388z"/>
	<path class="st0" d="M15.493,25.388c-0.321,0.016-0.579,0.302-0.579,0.658c0,0.001,0,0.002,0,0.004
		C14.917,25.692,15.173,25.404,15.493,25.388z"/>
	<path class="st0" d="M19.94,26.05c0-0.001,0-0.002,0-0.004c0-0.356-0.258-0.642-0.579-0.658
		C19.681,25.404,19.937,25.692,19.94,26.05z"/>
	<path class="st0" d="M19.334,25.382c0.01,0,0.017,0.006,0.027,0.006c1.063,0,2.127,0,3.19,0c0.01,0,0.017-0.006,0.027-0.006h3.814
		c0.01,0,0.017,0.006,0.027,0.006c0.061,0,0.122,0,0.183,0c0-0.748,0-1.497,0-2.247c-3.391,0-6.783,0-10.174,0
		c-0.358,0-0.662-0.304-0.662-0.66c0-2.341,0-4.681,0-7.019c0-0.358,0.305-0.662,0.662-0.662c3.391,0,6.783,0,10.174,0
		c0-0.772,0-1.543,0-2.315c-0.245,0.072-0.501,0.111-0.764,0.111c-0.797,0-1.513-0.356-2.002-0.913
		c-0.3,0.342-0.687,0.606-1.124,0.76c-0.029,0.01-0.058,0.024-0.085,0.032c-0.006,0.002-0.01,0.002-0.014,0.004
		c-0.243,0.076-0.503,0.117-0.78,0.117c-0.278,0-0.541-0.044-0.787-0.119c0,0-0.002-0.002-0.004-0.002
		c-0.03-0.01-0.06-0.021-0.092-0.033c-0.436-0.153-0.819-0.417-1.118-0.758c-0.301,0.342-0.688,0.609-1.127,0.762
		c-0.028,0.01-0.054,0.022-0.084,0.03c-0.006,0.002-0.01,0.002-0.016,0.004c-0.241,0.076-0.5,0.117-0.775,0.117
		c-0.28,0-0.545-0.044-0.79-0.121c-0.002,0-0.002,0-0.002,0c-0.032-0.01-0.062-0.021-0.093-0.033
		c-0.437-0.156-0.819-0.417-1.118-0.758c-0.3,0.342-0.686,0.606-1.125,0.762c-0.028,0.01-0.057,0.022-0.085,0.03
		c-0.005,0.002-0.01,0.002-0.016,0.004c-0.241,0.076-0.502,0.117-0.776,0.117c-0.28,0-0.545-0.044-0.79-0.121h-0.001
		c-0.032-0.01-0.063-0.021-0.095-0.033c-0.436-0.156-0.818-0.417-1.116-0.758c-0.3,0.342-0.688,0.609-1.127,0.762
		c-0.028,0.01-0.055,0.022-0.084,0.03c-0.005,0.002-0.01,0.002-0.016,0.004c-0.241,0.076-0.5,0.117-0.775,0.117
		c-0.319,0-0.614-0.058-0.887-0.155c-0.435-0.156-0.817-0.417-1.116-0.758c-0.489,0.557-1.205,0.913-2.002,0.913
		c-0.239,0-0.475-0.034-0.701-0.095c0,4.295,0,8.592,0,12.888c0.03,0,0.061,0,0.091,0c0.65,0,1.3,0,1.951,0c0-3.277,0-6.554,0-9.833
		c0-0.358,0.304-0.66,0.662-0.66c1.974,0,3.95,0,5.926,0c0.196,0,0.344,0.071,0.45,0.179c0.005,0.004,0.008,0.008,0.013,0.012
		c0.007,0.008,0.015,0.014,0.021,0.022c0.107,0.105,0.177,0.254,0.177,0.447c0,3.279,0,6.555,0,9.833c0.362,0,0.724,0,1.086,0
		c0.01,0,0.017-0.006,0.027-0.006H19.334z"/>
	<path class="st0" d="M13.084,16.217c-1.534,0-3.068,0-4.602,0c0,3.057,0,6.114,0,9.171c1.533,0,3.067,0,4.602,0
		C13.084,22.331,13.084,19.274,13.084,16.217z"/>
	<path class="st0" d="M4.478,6.642v3.289c0,0.376,0.151,0.724,0.426,0.98c0.011,0.01,0.022,0.018,0.031,0.026
		c0.921,0.724,2.152,0.127,2.223-1.006V6.614H4.506C4.49,6.614,4.478,6.627,4.478,6.642z"/>
	<path class="st0" d="M16.49,9.932c0.108,1.735,2.573,1.722,2.68,0V6.614h-2.68V9.932z"/>
	<path class="st0" d="M20.492,9.932c0.108,1.734,2.573,1.722,2.681,0.002V9.932V6.614h-2.681V9.932z"/>
	<path class="st0" d="M12.486,9.932c0.107,1.735,2.573,1.722,2.68,0V6.614h-2.68V9.932z"/>
	<path class="st0" d="M8.483,9.932c0.107,1.735,2.573,1.722,2.679,0V6.614H8.483V9.932z"/>
	<path class="st0" d="M24.498,6.614v3.317c0.074,1.197,1.397,1.74,2.297,0.938c0.247-0.251,0.384-0.584,0.384-0.938V6.642
		c0-0.017-0.016-0.028-0.027-0.028H24.498z"/>
	<path class="st0" d="M17.088,21.818c3.172,0,6.342,0,9.514,0c0-1.899,0-3.798,0-5.695c-3.172,0-6.341,0-9.514,0
		C17.088,18.02,17.088,19.919,17.088,21.818z M22.574,16.535c1.153,1.048,2.305,2.096,3.456,3.146
		c0.632,0.574-0.306,1.507-0.934,0.935c-1.152-1.048-2.306-2.096-3.456-3.145C21.007,16.897,21.946,15.962,22.574,16.535z
		 M18.571,17.275c1.153,1.048,2.306,2.096,3.457,3.146c0.63,0.575-0.307,1.507-0.937,0.935c-1.152-1.048-2.305-2.096-3.454-3.146
		C17.005,17.635,17.943,16.703,18.571,17.275z"/>
	<path class="st1" d="M30.326,25.388c-0.801,0-1.601,0-2.402,0c0-0.966,0-1.935,0-2.901c0-0.003,0.002-0.005,0.002-0.006
		c0-2.341,0-4.681,0-7.019c0-0.002-0.002-0.004-0.002-0.006c0-1.291,0-2.579,0-3.87c0.373-0.467,0.576-1.046,0.576-1.654V6.642
		c0-0.746-0.606-1.352-1.35-1.352h-2.653h-1.324h-2.681H19.17h-2.68h-1.323h-2.68h-1.324H8.483H7.159H4.506
		c-0.744,0-1.352,0.606-1.352,1.352v3.289c0,0.634,0.231,1.249,0.639,1.728c0,4.576,0,9.153,0,13.729c-0.705,0-1.409,0-2.114,0
		c-0.851,0-0.852,1.324,0,1.324c0.924,0,1.846,0,2.771,0c0.002,0,0.003,0,0.005,0c3.668,0,7.337,0,11.005,0
		c-0.306-0.035-0.547-0.311-0.547-0.658c0-0.001,0-0.003,0-0.004c0-0.001,0-0.002,0-0.004c0-0.356,0.258-0.642,0.579-0.658
		c-0.362,0-0.724,0-1.086,0c0-3.277,0-6.554,0-9.833c0-0.194-0.07-0.342-0.177-0.447c-0.006-0.008-0.014-0.014-0.021-0.022
		c-0.005-0.004-0.008-0.008-0.013-0.012c-0.106-0.108-0.254-0.179-0.45-0.179c-1.975,0-3.951,0-5.926,0
		c-0.358,0-0.662,0.302-0.662,0.66c0,3.279,0,6.555,0,9.833c-0.65,0-1.3,0-1.951,0c-0.03,0-0.061,0-0.091,0
		c0-4.295,0-8.592,0-12.888c0.226,0.062,0.462,0.095,0.701,0.095c0.797,0,1.513-0.356,2.002-0.913
		c0.299,0.341,0.681,0.602,1.116,0.758c0.273,0.097,0.568,0.155,0.887,0.155c0.275,0,0.534-0.042,0.775-0.117
		c0.006-0.002,0.011-0.002,0.016-0.004c0.029-0.008,0.056-0.02,0.084-0.03c0.439-0.153,0.826-0.42,1.127-0.762
		c0.298,0.341,0.68,0.602,1.116,0.758c0.032,0.012,0.063,0.023,0.095,0.033h0.001c0.245,0.078,0.51,0.121,0.79,0.121
		c0.274,0,0.535-0.042,0.776-0.117c0.006-0.002,0.011-0.002,0.016-0.004c0.028-0.008,0.057-0.02,0.085-0.03
		c0.439-0.155,0.825-0.42,1.125-0.762c0.299,0.341,0.681,0.602,1.118,0.758c0.031,0.012,0.061,0.023,0.093,0.033c0,0,0,0,0.002,0
		c0.245,0.078,0.51,0.121,0.79,0.121c0.275,0,0.534-0.042,0.775-0.117c0.005-0.002,0.009-0.002,0.016-0.004
		c0.03-0.008,0.056-0.02,0.084-0.03c0.439-0.153,0.826-0.42,1.127-0.762c0.299,0.341,0.682,0.605,1.118,0.758
		c0.032,0.012,0.062,0.023,0.092,0.033c0.002,0,0.004,0.002,0.004,0.002c0.246,0.075,0.509,0.119,0.787,0.119
		c0.277,0,0.537-0.042,0.78-0.117c0.004-0.002,0.008-0.002,0.014-0.004c0.027-0.008,0.056-0.021,0.085-0.032
		c0.437-0.153,0.824-0.418,1.124-0.76c0.489,0.557,1.205,0.913,2.002,0.913c0.263,0,0.52-0.039,0.764-0.111c0,0.771,0,1.543,0,2.315
		c-3.391,0-6.783,0-10.174,0c-0.357,0-0.662,0.304-0.662,0.662c0,2.338,0,4.679,0,7.019c0,0.356,0.304,0.66,0.662,0.66
		c3.391,0,6.783,0,10.174,0c0,0.75,0,1.499,0,2.247c-0.061,0-0.122,0-0.183,0c0.321,0.016,0.579,0.302,0.579,0.658
		c0,0.001-0.001,0.002-0.001,0.004c0,0.001,0.001,0.003,0.001,0.004c0,0.347-0.242,0.623-0.547,0.658c0.271,0,0.542,0,0.813,0
		c0.002,0,0.004,0,0.006,0c1.017,0,2.036,0,3.056,0C31.177,26.712,31.178,25.388,30.326,25.388z M8.483,16.217
		c1.533,0,3.067,0,4.602,0c0,3.057,0,6.114,0,9.171c-1.534,0-3.068,0-4.602,0C8.483,22.331,8.483,19.274,8.483,16.217z M7.159,9.932
		c-0.07,1.133-1.302,1.73-2.223,1.006c-0.009-0.008-0.02-0.016-0.031-0.026c-0.276-0.256-0.426-0.604-0.426-0.98V6.642
		c0-0.016,0.012-0.028,0.027-0.028h2.653V9.932z M11.162,9.932c-0.107,1.722-2.573,1.735-2.679,0V6.614h2.679V9.932z M15.166,9.932
		c-0.107,1.722-2.573,1.735-2.68,0V6.614h2.68V9.932z M19.17,9.932c-0.107,1.722-2.573,1.735-2.68,0V6.614h2.68V9.932z
		 M23.173,9.932v0.002c-0.108,1.72-2.573,1.732-2.681-0.002V6.614h2.681V9.932z M26.602,21.818c-3.172,0-6.341,0-9.514,0
		c0-1.899,0-3.798,0-5.695c3.172,0,6.342,0,9.514,0C26.602,18.02,26.602,19.919,26.602,21.818z M27.178,9.932
		c0,0.354-0.137,0.688-0.384,0.938c-0.899,0.801-2.223,0.258-2.297-0.938V6.614h2.653c0.012,0,0.027,0.01,0.027,0.028V9.932z"/>
	<path class="st1" d="M21.091,21.355c0.63,0.573,1.567-0.359,0.937-0.935c-1.152-1.05-2.304-2.098-3.457-3.146
		c-0.628-0.572-1.566,0.36-0.933,0.935C18.786,19.259,19.94,20.307,21.091,21.355z"/>
	<path class="st1" d="M25.097,20.616c0.628,0.572,1.566-0.361,0.934-0.935c-1.152-1.05-2.303-2.098-3.456-3.146
		c-0.628-0.573-1.567,0.362-0.934,0.936C22.791,18.52,23.944,19.568,25.097,20.616z"/>
	<path class="st1" d="M21.973,26.05c0.002,0.364,0.272,0.66,0.605,0.66h4.749c0.333,0,0.604-0.295,0.605-0.66
		c-0.002-0.358-0.258-0.646-0.578-0.662c-1.29,0-3.514,0-4.803,0C22.231,25.404,21.974,25.692,21.973,26.05z"/>
	<path class="st1" d="M26.998,26.054c0-0.001-0.001-0.003-0.001-0.004c-0.002,0.364-0.272,0.66-0.605,0.66h-3.814
		c-0.333,0-0.604-0.295-0.605-0.66c0,0.001-0.001,0.003-0.001,0.004c0,0.347,0.242,0.623,0.547,0.658c0.632,0,1.264,0,1.896,0
		c0.678,0,1.357,0,2.036,0C26.756,26.677,26.998,26.401,26.998,26.054z"/>
	<path class="st1" d="M14.585,26.71h4.749c0.333,0,0.604-0.295,0.606-0.66c-0.002-0.358-0.259-0.646-0.579-0.662
		c-1.289,0-3.514,0-4.802,0c-0.32,0.016-0.577,0.304-0.579,0.662C13.982,26.414,14.252,26.71,14.585,26.71z"/>
	<path class="st1" d="M19.94,26.054c0-0.001,0-0.003,0-0.004c-0.002,0.364-0.273,0.66-0.606,0.66H15.52
		c-0.333,0-0.604-0.295-0.606-0.66c0,0.001,0,0.003,0,0.004c0,0.347,0.242,0.623,0.547,0.658c1.311,0,2.621,0,3.932,0
		C19.699,26.677,19.94,26.401,19.94,26.054z"/>
</g>
</svg>
