<?xml version="1.0" encoding="utf-8"?>
<!-- Generator: Adobe Illustrator 26.3.1, SVG Export Plug-In . SVG Version: 6.00 Build 0)  -->
<svg version="1.1" id="레이어_1" xmlns="http://www.w3.org/2000/svg" xmlns:xlink="http://www.w3.org/1999/xlink" x="0px"
	 y="0px" viewBox="0 0 110 110" style="enable-background:new 0 0 110 110;" xml:space="preserve">
<style type="text/css">
	.st0{fill:#FE3939;}
	.st1{fill:#404041;}
	.st2{fill:#FFFFFF;}
</style>
<g id="XMLID_3147_">
	<path id="XMLID_3933_" class="st0" d="M35.2,31.7l-4.7,38.7c-0.2,2,1.3,3.7,3.3,3.7h42.3c2,0,3.5-1.7,3.3-3.7l-4.7-38.7
		c-0.4-3.1-3-5.5-6.2-5.5H41.5C38.3,26.2,35.6,28.6,35.2,31.7z"/>
	<g id="XMLID_3148_">
		<g id="XMLID_3149_">
			<path id="XMLID_3150_" class="st1" d="M85,82.9v3.7c0,1.7-1.4,3.1-3.1,3.1H28.1c-1.7,0-3.1-1.4-3.1-3.1v-3.7
				c0-1.2,0.5-2.3,1.3-3.1l3-3c0.2-0.2,0.4-0.3,0.6-0.4c0.2-0.1,0.4-0.1,0.7-0.1h48.9c0.5,0,0.9,0.2,1.3,0.5l3,3
				C84.6,80.6,85,81.8,85,82.9z"/>
		</g>
	</g>
	<g id="XMLID_3049_">
		<g id="XMLID_3097_">
			<path id="XMLID_3141_" class="st0" d="M79.8,29.7c-0.7,0-1.3-0.3-1.8-0.8c-0.8-1-0.7-2.5,0.2-3.3l12.1-10.4
				c1-0.8,2.5-0.7,3.3,0.2c0.8,1,0.7,2.5-0.2,3.3L81.3,29.2C80.9,29.5,80.3,29.7,79.8,29.7z"/>
			<path id="XMLID_3140_" class="st0" d="M69.5,21.2c-0.6,0.3-1.3,0.3-2,0c-1.2-0.5-1.7-1.9-1.1-3.1l5.2-11.4
				c0.6-1.2,1.9-1.7,3.1-1.1s1.7,1.9,1.1,3.1L70.7,20C70.5,20.5,70,20.9,69.5,21.2z"/>
			<path id="XMLID_3138_" class="st0" d="M85.2,41.6c-0.6-0.3-1.1-0.8-1.2-1.5c-0.3-1.3,0.4-2.5,1.7-2.9l12.1-3.3
				c1.3-0.3,2.5,0.4,2.9,1.7s-0.4,2.5-1.7,2.9l-12.1,3.3C86.2,41.9,85.7,41.8,85.2,41.6z"/>
		</g>
	</g>
	<g id="XMLID_3458_">
		<path id="XMLID_3574_" class="st2" d="M38.4,57.2c-0.3-0.2-0.5-0.6-0.5-1c0-0.7,0.6-1.2,1.3-1.2c0.4,0,0.6,0.1,0.8,0.2
			c0.9,0.7,2,1.1,3.1,1.1c1.1,0,1.8-0.4,1.8-1.2v0c0-0.7-0.4-1-2.5-1.6c-2.5-0.6-4.1-1.3-4.1-3.8v0c0-2.2,1.8-3.7,4.3-3.7
			c1.5,0,2.8,0.4,3.9,1.1c0.3,0.2,0.6,0.5,0.6,1.1c0,0.7-0.6,1.2-1.3,1.2c-0.3,0-0.5-0.1-0.7-0.2c-0.9-0.5-1.7-0.8-2.6-0.8
			c-1,0-1.6,0.5-1.6,1.1v0c0,0.8,0.5,1.1,2.7,1.6c2.5,0.7,3.9,1.5,3.9,3.7v0c0,2.4-1.9,3.8-4.5,3.8C41.4,58.7,39.7,58.2,38.4,57.2z"
			/>
		<path id="XMLID_3557_" class="st2" d="M48.7,52.4L48.7,52.4c0-3.5,2.8-6.4,6.6-6.4s6.5,2.8,6.5,6.3v0c0,3.5-2.8,6.4-6.6,6.4
			C51.4,58.7,48.7,55.9,48.7,52.4z M58.9,52.4L58.9,52.4c0-2.1-1.5-3.9-3.7-3.9s-3.7,1.7-3.7,3.8v0c0,2.1,1.5,3.9,3.7,3.9
			S58.9,54.5,58.9,52.4z"/>
		<path id="XMLID_3492_" class="st2" d="M63,57.2c-0.3-0.2-0.5-0.6-0.5-1c0-0.7,0.6-1.2,1.3-1.2c0.4,0,0.6,0.1,0.8,0.2
			c0.9,0.7,2,1.1,3.1,1.1c1.1,0,1.8-0.4,1.8-1.2v0c0-0.7-0.4-1-2.5-1.6c-2.5-0.6-4.1-1.3-4.1-3.8v0c0-2.2,1.8-3.7,4.3-3.7
			c1.5,0,2.8,0.4,3.9,1.1c0.3,0.2,0.6,0.5,0.6,1.1c0,0.7-0.6,1.2-1.3,1.2c-0.3,0-0.5-0.1-0.7-0.2c-0.9-0.5-1.7-0.8-2.6-0.8
			c-1,0-1.6,0.5-1.6,1.1v0c0,0.8,0.5,1.1,2.7,1.6c2.5,0.7,3.9,1.5,3.9,3.7v0c0,2.4-1.9,3.8-4.5,3.8C66.1,58.7,64.4,58.2,63,57.2z"/>
	</g>
</g>
</svg>
