<?xml version="1.0" encoding="utf-8"?>
<!-- Generator: Adobe Illustrator 26.3.1, SVG Export Plug-In . SVG Version: 6.00 Build 0)  -->
<svg version="1.1" id="레이어_1" xmlns="http://www.w3.org/2000/svg" xmlns:xlink="http://www.w3.org/1999/xlink" x="0px"
	 y="0px" viewBox="0 0 110 110" style="enable-background:new 0 0 110 110;" xml:space="preserve">
<style type="text/css">
	.st0{fill-rule:evenodd;clip-rule:evenodd;fill:#EDF7FF;stroke:#404041;stroke-width:3;}
	.st1{fill:#404041;}
	.st2{fill-rule:evenodd;clip-rule:evenodd;fill:#E2F7EA;stroke:#404041;stroke-width:3;}
	.st3{fill:#FE3939;stroke:#FFFFFF;enable-background:new    ;}
</style>
<g>
	<path class="st0" d="M11.289,12.409h32.468c2.038,0,3.689,1.651,3.689,3.689v60.509c0,2.038-1.652,3.689-3.689,3.689H11.289
		c-2.038,0-3.689-1.651-3.689-3.689V16.099C7.6,14.061,9.251,12.409,11.289,12.409z"/>
	<circle class="st1" cx="27.523" cy="19.788" r="2.214"/>
</g>
<g>
	<path class="st2" d="M67.309,29.34h32.468c2.038,0,3.689,1.651,3.689,3.689v60.509c0,2.038-1.652,3.689-3.689,3.689H67.309
		c-2.038,0-3.689-1.651-3.689-3.689V33.029C63.619,30.992,65.271,29.34,67.309,29.34z"/>
	<circle class="st1" cx="83.542" cy="36.719" r="2.214"/>
</g>
<g>
	<g>
		<path class="st3" d="M58.617,67.112c-3.769,0-7.233-1.297-9.976-3.467l4.245-3.261l-16.032-6.143l1.805,17.074l3.815-2.931
			c3.15,2.53,7.149,4.045,11.503,4.045c7.459,0,13.88-4.442,16.762-10.825C67.786,64.978,63.452,67.112,58.617,67.112z"/>
		<path class="st3" d="M50.662,41.976c3.769,0,7.233,1.297,9.976,3.466l-4.245,3.261l16.032,6.143l-1.804-17.074l-3.816,2.932
			c-3.149-2.53-7.148-4.046-11.503-4.046c-7.459,0-13.88,4.442-16.762,10.826C41.492,44.11,45.827,41.976,50.662,41.976z"/>
	</g>
</g>
</svg>
