<svg width="87" height="87" xmlns="http://www.w3.org/2000/svg" xmlns:xlink="http://www.w3.org/1999/xlink"><defs><path id="a" d="M0 0h87v87H0z"/><path d="M.44 0h3.37a.44.44 0 0 1 .44.44v2.154a.44.44 0 0 1-.44.44H.44a.44.44 0 0 1-.44-.44V.44A.44.44 0 0 1 .44 0z" id="e"/><linearGradient x1="1.362%" y1="28.45%" x2="100%" y2="72.153%" id="d"><stop stop-color="#FF6847" offset="0%"/><stop stop-color="#EC4210" offset="100%"/></linearGradient><filter x="-69.4%" y="-102.4%" width="238.7%" height="304.8%" filterUnits="objectBoundingBox" id="c"><feOffset dy="7" in="SourceAlpha" result="shadowOffsetOuter1"/><feGaussianBlur stdDeviation="2" in="shadowOffsetOuter1" result="shadowBlurOuter1"/><feColorMatrix values="0 0 0 0 0 0 0 0 0 0 0 0 0 0 0 0 0 0 0.153545673 0" in="shadowBlurOuter1" result="shadowMatrixOuter1"/><feMerge><feMergeNode in="shadowMatrixOuter1"/><feMergeNode in="SourceGraphic"/></feMerge></filter></defs><g fill="none" fill-rule="evenodd"><mask id="b" fill="#fff"><use xlink:href="#a"/></mask><g mask="url(#b)"><path d="M50.457 26.5a2.496 2.496 0 0 1 2.5 2.5v30.667c0 .69-.28 1.315-.732 1.767a2.492 2.492 0 0 1-1.768.733H34.652c-.69 0-1.315-.28-1.768-.733a2.492 2.492 0 0 1-.732-1.767V29c0-.69.28-1.315.732-1.768a2.492 2.492 0 0 1 1.768-.732z" stroke="#000" fill="#FFF"/><path d="M50.457 26.5a2.496 2.496 0 0 1 2.5 2.5v3.375H32.152V29c0-.69.28-1.315.732-1.768a2.492 2.492 0 0 1 1.768-.732zm0 35.667c.69 0 1.315-.28 1.768-.733a2.492 2.492 0 0 0 .732-1.767v-3.375H32.152v3.375c0 .69.28 1.315.732 1.767a2.492 2.492 0 0 0 1.768.733z" stroke="#000" fill="#008BFE"/><path stroke="#000" fill="#D8D8D8" d="M40.186 29.938h4.738v1h-4.738z"/><path stroke="#000" d="M23 44.956h4.712m-3.251-8.066 4.08 2.36m.001 11.412-4.08 2.36"/><g filter="url(#c)" transform="scale(-1 1) rotate(74 -42.29 -13.806)"><rect fill="url(#d)" width="30.986" height="20.625" rx="1"/><path d="M9.226 6.875h1.473c.43 0 .777.428.777.955v3.035c0 .263-.088.515-.244.695l-.678.784a.707.707 0 0 1-.532.26H9.18m-1.148 0h-4.6c-.628 0-1.137-.423-1.137-.944v-1.348m0-1.145v-1.39c0-.498.51-.902 1.14-.902h4.598" stroke="#FFF" stroke-width=".5"/><g transform="translate(3.642 7.765)"><mask id="f" fill="#fff"><use xlink:href="#e"/></mask><use fill="#EFEDED" xlink:href="#e"/><path d="M-.265.915h2.002m.659 0h1.93M-.265 2.06h1.957m.666 0h1.968M1.18-.36c.393.347.617.73.673 1.147-.157.103-.265.34-.265.701 0 .496.189.801.442.801.254 0 .476-.305.476-.8 0-.373-.115-.614-.28-.712M2.098 2.29c.199.49.406.833.621 1.027" stroke="#9D937C" stroke-width=".1" opacity=".6" mask="url(#f)"/></g></g></g></g></svg>