<svg width="49" height="48" xmlns="http://www.w3.org/2000/svg"><g fill="none" fill-rule="evenodd"><path d="M.5 0h48v48H.5z"/><path d="M27.546 16.624c1.43 0 2.725.58 3.662 1.517a5.162 5.162 0 0 1 1.517 3.661V32.85c0 .49-.199.932-.52 1.253-.32.32-.763.519-1.252.519h-12.08c-.488 0-.931-.199-1.252-.52a1.766 1.766 0 0 1-.519-1.252V21.802c0-1.43.58-2.724 1.517-3.661a5.162 5.162 0 0 1 3.662-1.517z" stroke="#000" fill="#F35025"/><g transform="translate(20.164 22.06)"><rect stroke="#000" fill="#989898" x=".5" y="5.249" width="8.498" height="14.435" rx="3.68"/><rect fill="#FFF" x="4.749" width="3.562" height="1.187" rx=".594"/></g><g stroke="#000"><g transform="translate(13.04 11.375)" fill="#D8D8D8"><rect x=".5" y=".5" width="22.746" height="2.562" rx="1.136"/><path d="M4.523.89v1.781l4.523.89V0zm14.7 0v1.781l-4.523.89V0z"/></g><g transform="translate(20.164 9)"><circle fill="#FAB74B" cx="4.749" cy="4.749" r="4.249"/><circle fill="#FB735F" cx="4.749" cy="4.749" r="1.875"/></g></g></g></svg>