<svg width="73" height="16" xmlns="http://www.w3.org/2000/svg"><path d="M14.875 15.068V.55h-2.873v14.518h2.873zm-13.906-.68c2.227-.017 4.097-1.564 5.321-4.352l2.992 4.335 2.329-1.666L7.31 6.721c.357-1.683.561-3.621.561-5.78L4.947.839C4.93 6.908 3.298 11.158.969 11.43v2.958zm29.904-3.077V.55H28v1.887h-2.618v2.635H28v6.239h2.873zM16.73 9.492c2.074-.119 3.825-1.292 5.032-3.009l3.434 2.856 1.768-1.955L22.9 4.171c.374-1.054.561-2.21.561-3.383l-2.89-.17c-.05 3.247-1.58 5.933-3.842 6.205v2.669zm14.348 5.576v-2.567H20.81V9.985h-2.924v5.083h13.192zm15.658-7.004V.55h-2.873v7.514h2.873zm-13.719.068c2.074-.051 3.825-.969 4.964-2.21l3.825 2.057 1.292-2.125-3.876-1.989c.068-.272.136-.527.17-.782h3.213V.72H33.22v2.363h3.247c-.34 1.224-1.58 2.448-3.45 2.55v2.499zm13.72 6.936V8.574h-2.823v.952H36.57v-.952h-2.822v6.494h12.988zm-2.823-2.278H36.57v-1.037h7.344v1.037zm18.31-6.528.613-2.142-5.372-1.037c.05-.119.102-.221.136-.34h4.879V.55H49.457v2.193h4.93c-.901.748-3.077 1.19-5.1 1.224v2.227c2.414-.034 4.692-.493 6.29-1.36l6.647 1.428zm-6.255 8.976c3.91 0 6.63-.748 6.63-2.839 0-1.819-2.074-2.635-5.202-2.805v-.68h5.916v-2.21H48.624v2.21h5.916v.68c-3.128.17-5.202.986-5.202 2.805 0 2.091 2.72 2.839 6.63 2.839zm.24-2.143-.24.001c-2.108 0-3.57-.17-3.57-.697 0-.51 1.462-.697 3.57-.697 2.108 0 3.57.187 3.57.697 0 .507-1.352.683-3.33.696zm15.589-2.855L72.58.975h-3.672l.782 9.265h2.108zm-1.054 4.828c1.037 0 1.802-.748 1.802-1.785s-.765-1.802-1.802-1.802-1.802.765-1.802 1.802.765 1.785 1.802 1.785z"/></svg>