<?xml version="1.0" encoding="UTF-8"?><svg id="_레이어_1" xmlns="http://www.w3.org/2000/svg" viewBox="0 0 6.26 9"><defs><style>.cls-1,.cls-2{fill:#fff;}.cls-2{opacity:.75;}</style></defs><g><path class="cls-1" d="m4.58,9h0c-.06,0-.12-.03-.16-.07l-.57-.67-.57.67c-.08.09-.24.09-.31,0l-.57-.67-.57.67c-.08.09-.24.09-.31,0l-.57-.67-.59.66c-.06.06-.15.09-.23.05-.08-.03-.13-.11-.13-.19V1.04c0-.05.02-.1.05-.14L.8.07S.9,0,.95,0c.06,0,.12.03.15.07l.57.67L2.25.07c.08-.09.24-.09.31,0l.57.67L3.7.07c.08-.09.24-.09.31,0l.57.67.57-.67S5.25,0,5.31,0c.06,0,.12.02.16.07l.75.83s.05.09.05.14v7.74c0,.09-.05.16-.13.19-.08.03-.17,0-.23-.05l-.59-.66-.57.67s-.1.07-.16.07Zm-.73-1.27c.06,0,.12.03.16.07l.57.67.57-.67s.09-.07.15-.07c.06,0,.12.02.16.07l.39.43V1.12l-.54-.6-.57.67s-.1.07-.16.07h0c-.06,0-.12-.03-.16-.07l-.57-.67-.57.67c-.08.09-.24.09-.31,0l-.57-.67-.57.67c-.08.09-.24.09-.31,0l-.57-.67-.54.6v7.12l.39-.43s.1-.07.16-.07c.06,0,.12.03.15.07l.57.67.57-.67c.08-.09.24-.09.31,0l.57.67.57-.67s.1-.07.16-.07Z"/><path class="cls-2" d="m1.49,7.03c-.11,0-.21-.09-.21-.21v-.93c0-.11.09-.21.21-.21s.21.09.21.21v.93c0,.11-.09.21-.21.21Z"/><path class="cls-2" d="m2.31,7.03c-.11,0-.21-.09-.21-.21v-.93c0-.11.09-.21.21-.21s.21.09.21.21v.93c0,.11-.09.21-.21.21Z"/><path class="cls-2" d="m3.13,7.03c-.11,0-.21-.09-.21-.21v-.93c0-.11.09-.21.21-.21s.21.09.21.21v.93c0,.11-.09.21-.21.21Z"/><path class="cls-2" d="m3.95,7.03c-.11,0-.21-.09-.21-.21v-.93c0-.11.09-.21.21-.21s.21.09.21.21v.93c0,.11-.09.21-.21.21Z"/><path class="cls-2" d="m4.78,7.03c-.11,0-.21-.09-.21-.21v-.93c0-.11.09-.21.21-.21s.21.09.21.21v.93c0,.11-.09.21-.21.21Z"/></g><path class="cls-1" d="m2.06,3.67h-.35v-.31h.28l-.24-1.02h.45l.21,1.02h.31l.23-1.02h.42l.23,1.02h.31l.21-1.02h.44l-.24,1.02h.28v.31h-.35l-.24,1.01h-.47l-.23-1.01h-.32l-.23,1.01h-.47l-.24-1.01Zm.48.36h.02l.08-.36h-.18l.08.36Zm.7-.67l-.08-.34h-.02l-.08.34h.17Zm.51.67h.02l.08-.36h-.18l.08.36Z"/></svg>