<?xml version="1.0" encoding="UTF-8"?><svg id="_레이어_1" xmlns="http://www.w3.org/2000/svg" viewBox="0 0 9.54 9.3"><defs><style>.cls-1{fill:#ff4235;}.cls-2{fill:#fff;}.cls-3{fill:#444;}.cls-4{fill:#ffa09a;}</style></defs><g><rect class="cls-4" x=".21" y="1.18" width="9.11" height="3.45"/><path class="cls-3" d="m9.33,4.85H.21c-.12,0-.21-.1-.21-.21V1.18c0-.12.1-.21.21-.21h9.11c.12,0,.21.1.21.21v3.45c0,.12-.1.21-.21.21ZM.43,4.42h8.69V1.39H.43v3.03Z"/></g><g><rect class="cls-2" x="4.11" y="-.69" width="1.32" height="7.19" transform="translate(7.68 -1.86) rotate(90)"/><path class="cls-3" d="m8.36,3.78H1.18c-.12,0-.21-.1-.21-.21v-1.32c0-.12.1-.21.21-.21h7.19c.12,0,.21.1.21.21v1.32c0,.12-.1.21-.21.21Zm-6.97-.43h6.76v-.89H1.39v.89Z"/></g><g><circle class="cls-2" cx="4.77" cy="2.91" r="2.69"/><path class="cls-3" d="m4.77,5.81c-1.6,0-2.91-1.3-2.91-2.91S3.17,0,4.77,0s2.91,1.3,2.91,2.91-1.3,2.91-2.91,2.91ZM4.77.43c-1.37,0-2.48,1.11-2.48,2.48s1.11,2.48,2.48,2.48,2.48-1.11,2.48-2.48S6.14.43,4.77.43Z"/></g><g><circle class="cls-1" cx="4.77" cy="2.91" r="1.61"/><path class="cls-3" d="m4.77,4.73c-1.01,0-1.83-.82-1.83-1.83s.82-1.83,1.83-1.83,1.83.82,1.83,1.83-.82,1.83-1.83,1.83Zm0-3.23c-.77,0-1.4.63-1.4,1.4s.63,1.4,1.4,1.4,1.4-.63,1.4-1.4-.63-1.4-1.4-1.4Z"/></g><path class="cls-3" d="m4.77,9.3c-.12,0-.21-.1-.21-.21v-3.49c0-.12.1-.21.21-.21s.21.1.21.21v3.49c0,.12-.1.21-.21.21Z"/><g><rect class="cls-2" x="4.27" y="6.73" width=".99" height="2.35"/><path class="cls-3" d="m5.27,9.3h-.99c-.12,0-.21-.1-.21-.21v-2.35c0-.12.1-.21.21-.21h.99c.12,0,.21.1.21.21v2.35c0,.12-.1.21-.21.21Zm-.78-.43h.57v-1.93h-.57v1.93Z"/></g></svg>