<?xml version="1.0" encoding="UTF-8"?><svg id="_레이어_1" xmlns="http://www.w3.org/2000/svg" viewBox="0 0 45.55 44.82"><defs><style>.cls-1{fill:#ff4235;stroke-width:1.5px;}.cls-1,.cls-2,.cls-3{stroke-linecap:round;stroke-linejoin:round;}.cls-1,.cls-3{stroke:#ff4235;}.cls-2{stroke:#444;stroke-width:2px;}.cls-2,.cls-3{fill:none;}.cls-3{stroke-width:2.5px;}</style></defs><path class="cls-2" d="M19.91,40.83c-3.58,0-7.12-1.59-7.12-1.59C5.84,36.1,1,29.12,1,21,1,9.95,9.95,1,21,1c7.09,0,13.31,3.69,16.87,9.25,0,0,.89,1.5,1.2,3.5"/><line class="cls-2" x1="20.91" y1="21" x2="1" y2="21"/><line class="cls-2" x1="38.07" y1="11" x2="3.92" y2="11"/><line class="cls-2" x1="20.74" y1="31" x2="3.92" y2="31"/><line class="cls-2" x1="21" y1="12.25" x2="21" y2="1"/><line class="cls-2" x1="21" y1="32" x2="21" y2="20.75"/><path class="cls-2" d="M12.71,39.05s-2.92-6.95-2.92-18.17S12.71,2.95,12.71,2.95"/><path class="cls-2" d="M31.82,18.12c-.31-9.69-3.04-15.17-3.04-15.17"/><path class="cls-1" d="M41.86,20.72l-18.79,17.48c-.48.48-1.05.7-1.54.22l-.73-.73c-.48-.48-.26-1.05.22-1.54l17.25-19.01c.48-.48,2.05-1.31,3.36,0,1.53,1.54.7,3.1.22,3.58Z"/><path class="cls-1" d="M29.58,26.28l-10.31-10.31,1.17-1.17c.48-.48,1.27-.48,1.75,0l11.04,7.53"/><path class="cls-1" d="M22.08,39.21l1.35,4.86,1.33-.76c.64-.37.53-1.09.53-1.09l-.77-5.27"/><path class="cls-1" d="M19.97,37.1l-4.86-1.35.76-1.33c.37-.64,1.09-.53,1.09-.53l5.27.77"/><line class="cls-3" x1="25.87" y1="17.09" x2="27.24" y2="15.72"/><path class="cls-1" d="M32.96,29.66l10.31,10.31,1.17-1.17c.48-.48.48-1.27,0-1.76l-7.53-11.04"/><line class="cls-3" x1="42.15" y1="33.37" x2="43.52" y2="32"/></svg>