<?xml version="1.0" encoding="UTF-8"?><svg id="_레이어_1" xmlns="http://www.w3.org/2000/svg" viewBox="0 0 6.39 9.18"><defs><style>.cls-1{fill:#ff4235;}.cls-2{fill:#fff;}.cls-3{fill:#444;}</style></defs><g><g><polygon class="cls-2" points="5.42 .21 4.68 1.08 3.93 .21 3.19 1.08 2.45 .21 1.71 1.08 .97 .21 .21 1.06 .21 8.95 .97 8.1 1.71 8.97 2.45 8.1 3.19 8.97 3.93 8.1 4.68 8.97 5.42 8.1 6.18 8.95 6.18 1.06 5.42 .21"/><path class="cls-3" d="m4.67,9.18h0c-.06,0-.12-.03-.16-.07l-.58-.68-.58.68c-.08.09-.24.09-.32,0l-.58-.68-.58.68c-.08.09-.24.09-.32,0l-.59-.69-.6.67c-.06.06-.15.09-.23.06-.08-.03-.13-.11-.13-.2V1.06c0-.05.02-.1.05-.14L.81.07s.1-.07.16-.07c.06,0,.12.03.16.07l.58.68L2.29.07c.08-.09.24-.09.32,0l.58.68L3.77.07s.1-.07.16-.07h0c.06,0,.12.03.16.07l.58.68.58-.68s.1-.07.16-.07c.06,0,.12.02.16.07l.76.85s.05.09.05.14v7.89c0,.09-.05.17-.13.2-.08.03-.17,0-.23-.06l-.6-.67-.59.69s-.1.07-.16.07Zm-2.22-1.29c.06,0,.12.03.16.07l.58.68.58-.68s.1-.07.16-.07h0c.06,0,.12.03.16.07l.58.68.58-.68s.1-.07.16-.07c.06,0,.12.02.16.07l.39.44V1.14l-.55-.61-.59.69s-.1.07-.16.07h0c-.06,0-.12-.03-.16-.07l-.58-.68-.58.68c-.08.09-.24.09-.32,0l-.58-.68-.58.68c-.08.09-.24.09-.32,0l-.59-.69-.55.61v7.26l.39-.44s.1-.07.16-.07c.06,0,.12.03.16.07l.58.68.58-.68s.1-.07.16-.07Z"/></g><path class="cls-3" d="m1.51,7.17c-.12,0-.21-.09-.21-.21v-.95c0-.12.09-.21.21-.21s.21.09.21.21v.95c0,.12-.09.21-.21.21Z"/><path class="cls-3" d="m2.35,7.17c-.12,0-.21-.09-.21-.21v-.95c0-.12.09-.21.21-.21s.21.09.21.21v.95c0,.12-.09.21-.21.21Z"/><path class="cls-3" d="m3.19,7.17c-.12,0-.21-.09-.21-.21v-.95c0-.12.09-.21.21-.21s.21.09.21.21v.95c0,.12-.09.21-.21.21Z"/><path class="cls-3" d="m4.03,7.17c-.12,0-.21-.09-.21-.21v-.95c0-.12.09-.21.21-.21s.21.09.21.21v.95c0,.12-.09.21-.21.21Z"/><path class="cls-3" d="m4.87,7.17c-.12,0-.21-.09-.21-.21v-.95c0-.12.09-.21.21-.21s.21.09.21.21v.95c0,.12-.09.21-.21.21Z"/></g><path class="cls-1" d="m2.1,3.75h-.36v-.32h.29l-.25-1.04h.46l.22,1.04h.32l.24-1.04h.42l.24,1.04h.32l.22-1.04h.45l-.25,1.04h.29v.32h-.36l-.25,1.03h-.48l-.23-1.03h-.32l-.23,1.03h-.48l-.25-1.03Zm.49.37h.02l.08-.37h-.18l.08.37Zm.71-.69l-.08-.34h-.02l-.08.34h.17Zm.52.69h.02l.08-.37h-.18l.08.37Z"/></svg>