<?xml version="1.0" encoding="utf-8"?>
<!-- Generator: Adobe Illustrator 27.1.1, SVG Export Plug-In . SVG Version: 6.00 Build 0)  -->
<svg version="1.1" id="_레이어_1" xmlns="http://www.w3.org/2000/svg" xmlns:xlink="http://www.w3.org/1999/xlink" x="0px"
	 y="0px" viewBox="0 0 9.3 10.7" style="enable-background:new 0 0 9.3 10.7;" xml:space="preserve">
<style type="text/css">
	.st0{opacity:0.3;}
	.st1{fill:#FFFFFF;}
	.st2{opacity:0.3;fill:#FFFFFF;enable-background:new    ;}
</style>
<g class="st0">
	<path class="st1" d="M4.7,0.4c-1,0-1.8,0.8-1.8,1.7s1.8,3.1,1.8,3.1s1.8-2.2,1.8-3.1S5.7,0.4,4.7,0.4z M4.7,2.8
		C4.3,2.8,4,2.5,4,2.1s0.3-0.7,0.7-0.7c0.4,0,0.7,0.3,0.7,0.7S5,2.8,4.7,2.8z"/>
</g>
<path class="st1" d="M0.2,7.8c-0.1,0-0.1,0-0.1-0.1C0,7.7,0,7.5,0.1,7.4l3.6-3.6c0.1-0.1,0.2-0.1,0.3,0c0.1,0.1,0.1,0.2,0,0.3
	L0.4,7.7C0.4,7.7,0.3,7.8,0.2,7.8L0.2,7.8z"/>
<path class="st1" d="M9.1,7.8C9,7.8,9,7.8,8.9,7.8L5.4,4.2C5.3,4.1,5.3,4,5.4,3.9c0.1-0.1,0.2-0.1,0.3,0l3.6,3.5
	c0.1,0.1,0.1,0.2,0,0.3C9.2,7.8,9.1,7.8,9.1,7.8L9.1,7.8z"/>
<g>
	<path class="st1" d="M7.7,6.5c-0.1,0-0.1,0-0.1-0.1L6.5,5.3c0,0-0.1-0.1-0.1-0.1v-1c0-0.1,0.1-0.2,0.2-0.2h1.1
		c0.1,0,0.2,0.1,0.2,0.2v2.1C7.9,6.3,7.9,6.4,7.7,6.5C7.8,6.5,7.7,6.5,7.7,6.5L7.7,6.5z M6.8,5.1l0.6,0.6V4.4H6.8V5.1z"/>
	<path class="st1" d="M7.9,10.7H1.4c-0.3,0-0.5-0.2-0.5-0.5V6.8c0-0.1,0-0.2,0.1-0.3l2.6-2.6c0.1-0.1,0.2-0.1,0.3,0C4,4,4,4.1,4,4.2
		L1.4,6.8c0,0,0,0,0,0v3.4c0,0,0,0,0,0h6.5c0,0,0,0,0,0V6.8c0,0,0,0,0,0L7.6,6.4c-0.1-0.1-0.1-0.2,0-0.3C7.6,6,7.8,6,7.9,6.1
		l0.4,0.4c0.1,0.1,0.1,0.2,0.1,0.3v3.4C8.4,10.4,8.2,10.7,7.9,10.7z"/>
	<path class="st1" d="M6.6,5.4c-0.1,0-0.1,0-0.1-0.1L5.4,4.2C5.3,4.1,5.3,4,5.4,3.9c0.1-0.1,0.2-0.1,0.3,0L6.8,5
		c0.1,0.1,0.1,0.2,0,0.3C6.7,5.4,6.7,5.4,6.6,5.4L6.6,5.4z"/>
</g>
<g>
	<path class="st1" d="M4.7,5.3c-0.1,0-0.1,0-0.2-0.1C4.3,5,2.7,3,2.7,2c0-1.1,0.9-2,2-2s2,0.9,2,2c0,1-1.6,3-1.8,3.3
		C4.8,5.3,4.7,5.3,4.7,5.3z M4.7,0.5C3.8,0.5,3.1,1.2,3.1,2c0,0.7,1,2.1,1.5,2.8C5.2,4.1,6.2,2.6,6.2,2C6.2,1.2,5.5,0.5,4.7,0.5z
		 M4.7,2.9C4.2,2.9,3.8,2.5,3.8,2s0.4-0.9,0.9-0.9S5.5,1.5,5.5,2S5.1,2.9,4.7,2.9z M4.7,1.5C4.4,1.5,4.2,1.7,4.2,2s0.2,0.4,0.4,0.4
		S5.1,2.2,5.1,2S4.9,1.5,4.7,1.5z"/>
	<path class="st1" d="M4.7,2.9C4.2,2.9,3.8,2.5,3.8,2s0.4-0.9,0.9-0.9S5.5,1.5,5.5,2S5.1,2.9,4.7,2.9z M4.7,1.5
		C4.4,1.5,4.2,1.7,4.2,2s0.2,0.4,0.4,0.4S5.1,2.2,5.1,2S4.9,1.5,4.7,1.5z"/>
</g>
<path class="st1" d="M5.4,10.7H3.9c-0.1,0-0.2-0.1-0.2-0.2V8.3C3.7,8.1,3.8,8,3.9,8h1.5c0.1,0,0.2,0.1,0.2,0.2v2.2
	C5.6,10.6,5.5,10.7,5.4,10.7z M4.1,10.2h1.1V8.5H4.1V10.2z"/>
<polygon class="st2" points="6.8,4 7.5,4 7.5,6 6.8,5.5 "/>
<rect x="3.9" y="8.3" class="st2" width="1.4" height="2"/>
</svg>
