<?xml version="1.0" encoding="UTF-8"?><svg id="_레이어_1" xmlns="http://www.w3.org/2000/svg" viewBox="0 0 9.29 10.7"><defs><style>.cls-1{fill:#ff4235;}.cls-2{fill:#fff;}.cls-3{fill:#444;}</style></defs><g><rect class="cls-1" x="6.63" y="4.14" width="1.07" height="2.37"/><path class="cls-3" d="m7.7,6.73h-1.07c-.12,0-.22-.1-.22-.22v-2.37c0-.12.1-.22.22-.22h1.07c.12,0,.22.1.22.22v2.37c0,.12-.1.22-.22.22Zm-.86-.44h.64v-1.94h-.64v1.94Z"/></g><g><polyline class="cls-2" points="9.07 7.62 4.64 3.19 .22 7.62"/><path class="cls-3" d="m9.07,7.83c-.06,0-.11-.02-.15-.06L4.64,3.5.37,7.77c-.09.09-.22.09-.31,0s-.09-.22,0-.31L4.49,3.04c.08-.08.23-.08.31,0l4.43,4.43c.09.09.09.22,0,.31-.04.04-.1.06-.15.06Z"/></g><g><polygon class="cls-2" points="4.64 3.19 1.12 6.71 1.12 10.48 8.16 10.48 8.16 6.71 4.64 3.19"/><path class="cls-3" d="m8.16,10.7H1.12c-.12,0-.22-.1-.22-.22v-3.77c0-.06.02-.11.06-.15l3.52-3.52c.08-.08.23-.08.31,0l3.52,3.52s.06.1.06.15v3.77c0,.12-.1.22-.22.22Zm-6.82-.44h6.6v-3.46l-3.3-3.3-3.3,3.3v3.46Z"/></g><g><path class="cls-1" d="m6.4,1.97c0,.97-1.76,3.14-1.76,3.14,0,0-1.76-2.17-1.76-3.14S3.67.22,4.64.22s1.76.79,1.76,1.76Z"/><path class="cls-3" d="m4.64,5.33c-.07,0-.13-.03-.17-.08-.18-.23-1.8-2.26-1.8-3.27,0-1.09.89-1.97,1.97-1.97s1.97.89,1.97,1.97c0,1.02-1.62,3.05-1.8,3.27-.04.05-.1.08-.17.08ZM4.64.44c-.85,0-1.54.69-1.54,1.54,0,.66.99,2.08,1.54,2.79.55-.71,1.54-2.13,1.54-2.79,0-.85-.69-1.54-1.54-1.54Z"/></g><g><circle class="cls-2" cx="4.64" cy="1.97" r=".66"/><path class="cls-3" d="m4.64,2.85c-.48,0-.88-.39-.88-.88s.39-.88.88-.88.88.39.88.88-.39.88-.88.88Zm0-1.32c-.24,0-.44.2-.44.44s.2.44.44.44.44-.2.44-.44-.2-.44-.44-.44Z"/></g><g><rect class="cls-1" x="3.88" y="8.28" width="1.53" height="2.2"/><path class="cls-3" d="m5.41,10.7h-1.53c-.12,0-.22-.1-.22-.22v-2.2c0-.12.1-.22.22-.22h1.53c.12,0,.22.1.22.22v2.2c0,.12-.1.22-.22.22Zm-1.31-.44h1.1v-1.77h-1.1v1.77Z"/></g></svg>