<?xml version="1.0" encoding="UTF-8"?><svg id="_레이어_1" xmlns="http://www.w3.org/2000/svg" viewBox="0 0 6.28 9.09"><defs><style>.cls-1{fill:#fff;}.cls-2{fill:#444;}.cls-3{fill:#ffa09a;}</style></defs><path class="cls-1" d="m.2.67s.11-.42.44-.44S4.46.23,4.46.23l1.58,1.57v6.71s-.2.45-.53.41H.61s-.34-.1-.41-.46V.67Z"/><rect class="cls-3" x="1.39" y="4.2" width="3.6" height="3.6"/><g><path class="cls-2" d="m6.1,1.44L4.85.18c-.12-.12-.28-.18-.44-.18H.63c-.35,0-.63.28-.63.63v7.83c0,.35.28.63.63.63h5.03c.35,0,.63-.28.63-.63V1.88c0-.17-.07-.33-.18-.44Zm-.23,7.02c0,.12-.09.21-.21.21H.63c-.12,0-.21-.09-.21-.21V.63c0-.12.09-.21.21-.21h3.78c.06,0,.11.02.15.06l1.25,1.25s.06.09.06.15v6.58Z"/><path class="cls-2" d="m4.61,3.89H1.67c-.35,0-.63.28-.63.63v2.89c0,.35.28.63.63.63h2.94c.35,0,.63-.28.63-.63v-2.89c0-.35-.28-.63-.63-.63Zm-2.07,2.43h.99v1.3h-.99v-1.3Zm.99-.42h-.99v-1.59h.99v1.59Zm-1.86-1.59h.44v.94h-.65v-.73c0-.12.09-.21.21-.21Zm-.21,3.1v-1.75h.65v1.95h-.44c-.12,0-.21-.09-.21-.21Zm3.35,0c0,.12-.09.21-.21.21h-.66v-3.31h.66c.12,0,.21.09.21.21v2.89Z"/></g></svg>