<?xml version="1.0" encoding="utf-8"?>
<!-- Generator: Adobe Illustrator 26.3.1, SVG Export Plug-In . SVG Version: 6.00 Build 0)  -->
<svg version="1.1" id="레이어_1" xmlns="http://www.w3.org/2000/svg" xmlns:xlink="http://www.w3.org/1999/xlink" x="0px"
	 y="0px" viewBox="0 0 32 32" style="enable-background:new 0 0 32 32;" xml:space="preserve">
<style type="text/css">
	.st0{fill:none;}
	.st1{fill:#888888;}
</style>
<g>
	<path class="st0" d="M14.022,14.325c1.584,0,3.165,0,4.748,0c0.182-0.828,0.362-1.656,0.542-2.483c-1.939,0-3.877,0-5.814,0
		C13.672,12.669,13.847,13.497,14.022,14.325z"/>
	<path class="st0" d="M26.522,6.408H5.48c-0.045,0-0.082,0.036-0.082,0.081V19.4h21.206V6.489
		C26.603,6.444,26.567,6.408,26.522,6.408z M14.838,18.059c-0.501,0-0.908-0.407-0.908-0.908c0-0.501,0.407-0.907,0.908-0.907
		c0.502,0,0.908,0.406,0.908,0.907C15.747,17.652,15.34,18.059,14.838,18.059z M18.124,18.059c-0.502,0-0.908-0.407-0.908-0.908
		c0-0.501,0.406-0.907,0.908-0.907c0.501,0,0.908,0.406,0.908,0.907C19.032,17.652,18.625,18.059,18.124,18.059z M20.643,11.398
		c-0.269,1.231-0.537,2.461-0.806,3.691c-0.055,0.258-0.329,0.444-0.581,0.444c-1.908,0-3.816,0-5.723,0
		c-0.036,0-0.074-0.004-0.111-0.012c-0.216-0.018-0.413-0.151-0.472-0.432c-0.268-1.23-0.536-2.46-0.804-3.691
		c-0.013-0.058-0.015-0.112-0.014-0.165c-0.131-0.615-0.261-1.23-0.391-1.844c-0.283,0-0.567,0-0.85,0c-0.779,0-0.776-1.209,0-1.209
		c0.447,0,0.893,0,1.339,0c0.254,0,0.528,0.188,0.582,0.444c0.142,0.67,0.283,1.34,0.426,2.01c2.273,0,4.545,0,6.82,0
		C20.469,10.634,20.727,11.018,20.643,11.398z"/>
	<polygon class="st0" points="24.461,25.596 25.464,25.596 29.568,25.596 26.848,20.607 5.154,20.607 5.152,20.607 2.432,25.596 
		15.521,25.596 19.315,25.596 	"/>
	<path class="st1" d="M18.124,16.244c-0.502,0-0.908,0.406-0.908,0.907c0,0.501,0.406,0.908,0.908,0.908
		c0.501,0,0.908-0.407,0.908-0.908C19.032,16.65,18.625,16.244,18.124,16.244z"/>
	<path class="st1" d="M14.838,16.244c-0.501,0-0.908,0.406-0.908,0.907c0,0.501,0.407,0.908,0.908,0.908
		c0.502,0,0.908-0.407,0.908-0.908C15.747,16.65,15.34,16.244,14.838,16.244z"/>
	<path class="st1" d="M20.061,10.634c-2.275,0-4.547,0-6.82,0c-0.143-0.67-0.284-1.339-0.426-2.01
		c-0.055-0.256-0.329-0.444-0.582-0.444c-0.446,0-0.892,0-1.339,0c-0.776,0-0.779,1.209,0,1.209c0.283,0,0.567,0,0.85,0
		c0.13,0.614,0.26,1.229,0.391,1.844c-0.002,0.053,0.001,0.107,0.014,0.165c0.268,1.231,0.536,2.461,0.804,3.691
		c0.059,0.281,0.255,0.414,0.472,0.432c0.037,0.007,0.074,0.012,0.111,0.012c1.907,0,3.815,0,5.723,0
		c0.252,0,0.526-0.186,0.581-0.444c0.269-1.23,0.537-2.46,0.806-3.691C20.727,11.018,20.469,10.634,20.061,10.634z M18.77,14.325
		c-1.583,0-3.164,0-4.748,0c-0.175-0.828-0.35-1.656-0.525-2.483c1.938,0,3.876,0,5.814,0C19.132,12.669,18.952,13.497,18.77,14.325
		z"/>
	<path class="st1" d="M30.754,25.249l-2.952-5.411c-0.001-0.005-0.005-0.011-0.008-0.015c0.011-0.058,0.015-0.118,0.015-0.178V6.489
		c0-0.711-0.577-1.289-1.288-1.289H5.48C4.768,5.2,4.19,5.778,4.19,6.489v13.156c0,0.06,0.006,0.12,0.017,0.178
		c-0.004,0.004-0.007,0.009-0.011,0.015l-2.951,5.411c-0.18,0.329-0.173,0.717,0.019,1.04c0.19,0.321,0.528,0.514,0.903,0.514
		h13.353c-0.333,0-0.603-0.27-0.603-0.603c0-0.333,0.27-0.604,0.603-0.604H2.432l2.72-4.989h0.002h21.693l2.72,4.989h-4.104
		c0.333,0,0.603,0.27,0.603,0.604c0,0.333-0.27,0.603-0.603,0.603h4.369c0.375,0,0.713-0.193,0.903-0.514
		C30.929,25.966,30.936,25.578,30.754,25.249z M26.603,19.4H5.398V6.489c0-0.045,0.036-0.081,0.082-0.081h21.042
		c0.045,0,0.082,0.036,0.082,0.081V19.4z"/>
	<path class="st1" d="M27.347,26.2c0-0.333-0.27-0.604-0.603-0.604h-3.794c-0.333,0-0.603,0.27-0.603,0.604
		c0,0.333,0.27,0.603,0.603,0.603h3.794C27.076,26.803,27.347,26.533,27.347,26.2z"/>
	<g>
		<path class="st1" d="M26.939,26.2c0-0.333-0.27-0.604-0.603-0.604h-3.794c-0.333,0-0.603,0.27-0.603,0.604
			c0,0.333,0.27,0.603,0.603,0.603h3.794C26.669,26.803,26.939,26.533,26.939,26.2z"/>
		<path class="st1" d="M19.918,26.2c0-0.333-0.27-0.604-0.603-0.604h-3.794c-0.333,0-0.603,0.27-0.603,0.604
			c0,0.333,0.27,0.603,0.603,0.603h3.794C19.648,26.803,19.918,26.533,19.918,26.2z"/>
	</g>
</g>
</svg>
