<svg width="48" height="48" xmlns="http://www.w3.org/2000/svg" xmlns:xlink="http://www.w3.org/1999/xlink"><defs><path id="a" d="M0 0h48v48H0z"/></defs><g fill="none" fill-rule="evenodd"><mask id="b" fill="#fff"><use xlink:href="#a"/></mask><g mask="url(#b)"><g transform="translate(8 4)"><path d="M3 23h26v16a1 1 0 0 1-1 1H4a1 1 0 0 1-1-1V23z" stroke="#1D1D1B" fill="#FFF"/><path stroke="#1D1D1B" fill="#E9E9E9" d="M9 23h14v17H9z"/><rect stroke="#1D1D1B" fill="#FFF" y="14" width="32" height="11" rx="1"/><path d="M1 14.5h30a.5.5 0 0 1 .5.5v3.5H.5V15a.5.5 0 0 1 .5-.5z" fill="#E73939"/><path d="M.5 20.5h31V24a.5.5 0 0 1-.5.5H1a.5.5 0 0 1-.5-.5v-3.5z" fill="#FAB74B"/><path d="M19 19.5a5.49 5.49 0 0 1 3.89 1.61A5.483 5.483 0 0 1 24.5 25a5.483 5.483 0 0 1-1.61 3.89A5.483 5.483 0 0 1 19 30.5h-6a5.483 5.483 0 0 1-3.89-1.61A5.483 5.483 0 0 1 7.5 25a5.49 5.49 0 0 1 1.61-3.89A5.483 5.483 0 0 1 13 19.5z" stroke="#000" fill="#03DAC6"/><path d="M15.632 27.8v-1.104h-2.183l.805-.867c.985-1.061 1.267-1.585 1.267-2.194 0-1.06-.743-1.835-2.003-1.835-1.185 0-2.018.86-2.018 2.007h1.233c0-.444.275-.874.785-.874.544 0 .77.286.77.716 0 .33-.158.71-.832 1.434l-1.839 1.971v.746h4.015zm4.131 0v-1.176h.737V25.55h-.737v-3.591h-1.535l-2.17 3.591v1.075h2.52V27.8h1.185zm-1.184-2.25h-1.322l1.322-2.252v2.251z" fill="#000" fill-rule="nonzero"/><path d="M18.5 2.354a3.735 3.735 0 0 1 .364 5.043l-2.513 3.162a.448.448 0 0 1-.702 0l-2.513-3.162a3.735 3.735 0 0 1 .364-5.043 3.647 3.647 0 0 1 5 0z" stroke="#1D1D1B" fill="#FAB74B"/><circle fill="#FFF" cx="16" cy="5" r="1.5"/></g></g></g></svg>