<svg width="32" height="32" xmlns="http://www.w3.org/2000/svg" xmlns:xlink="http://www.w3.org/1999/xlink"><defs><path id="a" d="M0 0h32v32H0z"/></defs><g fill="none" fill-rule="evenodd"><mask id="b" fill="#fff"><use xlink:href="#a"/></mask><path d="M28 15.5v6.722c0 .982-.934 1.778-2.087 1.778H6.087C4.934 24 4 23.204 4 22.222V9.778C4 8.796 4.934 8 6.087 8h19.826C27.066 8 28 8.796 28 9.778v3.11H6.609" stroke="teal" stroke-linecap="round" stroke-linejoin="round" mask="url(#b)"/><path d="m16.5 17.5-.167 4h-.666l-.167-4h1zm-.5-2a.5.5 0 1 1 0 1 .5.5 0 0 1 0-1z" fill="teal" mask="url(#b)"/></g></svg>