<svg width="32" height="32" xmlns="http://www.w3.org/2000/svg" xmlns:xlink="http://www.w3.org/1999/xlink"><defs><path id="a" d="M0 0h32v32H0z"/></defs><g fill="none" fill-rule="evenodd"><mask id="b" fill="#fff"><use xlink:href="#a"/></mask><path d="M21.999 18a.5.5 0 0 0 .5-.5v-1.001H23.5a.5.5 0 0 0 0-1h-1.001V14.5a.5.5 0 0 0-1 0v.999H20.5a.5.5 0 1 0 0 1h.999V17.5a.5.5 0 0 0 .5.5z" fill="#999" fill-rule="nonzero" mask="url(#b)"/><path d="M26.936 20.946A11.957 11.957 0 0 0 28 16c0-6.627-5.373-12-12-12S4 9.373 4 16s5.373 12 12 12c3.452 0 6.737-1.624 8.928-3.96" stroke="#999" stroke-linecap="round" stroke-linejoin="round" mask="url(#b)"/><path d="M11.004 20v-7.818H8v1.516h1.33V20h1.674zm4.371 0 1.941-3.194c.234-.39.407-.744.518-1.06.11-.317.166-.654.166-1.012 0-.544-.128-1.022-.384-1.434a2.627 2.627 0 0 0-1.035-.96 3.055 3.055 0 0 0-1.437-.34c-.524 0-1.003.114-1.437.34a2.62 2.62 0 0 0-1.035.965c-.256.415-.384.895-.384 1.438 0 .512.12.97.36 1.372.241.403.566.716.976.94.41.224.858.336 1.345.336a.55.55 0 0 0 .212-.038L13.471 20h1.904zm-.23-4.029c-.37 0-.666-.118-.888-.355-.222-.236-.333-.534-.333-.892s.111-.655.333-.892c.222-.236.517-.355.887-.355s.666.119.887.355c.222.237.333.534.333.892s-.11.656-.333.892c-.221.237-.517.355-.887.355z" fill="#999" fill-rule="nonzero" mask="url(#b)"/></g></svg>