<svg width="32" height="32" xmlns="http://www.w3.org/2000/svg" xmlns:xlink="http://www.w3.org/1999/xlink"><defs><path id="a" d="M0 0h32v32H0z"/></defs><g fill="none" fill-rule="evenodd"><mask id="b" fill="#fff"><use xlink:href="#a"/></mask><g mask="url(#b)" stroke="#1D1D1B" stroke-width="1.2"><g transform="rotate(-45 23.4 5.45)"><path d="M0 12.003V4.127c0-.332.165-.641.44-.827L5.076.17A.997.997 0 0 1 5.635 0h13.368c.55 0 .997.446.997.997v11.006c0 .55-.446.997-.997.997H.997A.997.997 0 0 1 0 12.003z" fill="#FFF"/><rect fill="#FAB74B" x="9.412" y="3.545" width="7.059" height="5.909" rx="1.323"/></g></g><path stroke="#1D1D1B" stroke-linecap="round" stroke-linejoin="round" d="M9.51 21 8 22.437m3.51.563L10 24.437"/></g></svg>