<svg width="79" height="94" xmlns="http://www.w3.org/2000/svg"><g fill="none" fill-rule="evenodd"><g fill-rule="nonzero"><path d="M67.803 11.17c-7.915-1.43-15.448-6.116-18.32-8.064A17.89 17.89 0 0 0 39.405 0a17.891 17.891 0 0 0-10.08 3.106c-2.87 1.948-10.403 6.633-18.319 8.063C4.628 12.322 0 17.88 0 24.385V44.97c0 31 35.228 47.157 36.727 47.829l2.677 1.2 2.677-1.2c1.5-.672 36.728-16.829 36.728-47.828V24.385c0-6.506-4.629-12.063-11.006-13.216z" fill="#03CF5D"/><path d="M65.675 44.972h-.001c0 18.286-19.096 30.471-26.269 34.402-7.182-3.936-26.27-16.12-26.27-34.402V24.385a.23.23 0 0 1 .195-.226c10.005-1.808 18.92-7.113 23.345-10.115a4.847 4.847 0 0 1 2.73-.846c.97 0 1.913.293 2.73.846 4.424 3.002 13.34 8.308 23.345 10.115a.23.23 0 0 1 .195.226v20.587z" fill="#FFF"/></g><path d="M43.405 32v11.37L35.529 32H29v21.245h6.84v-11.37l7.876 11.37h6.529V32z" fill="#03CF5D"/></g></svg>