<svg width="53" height="52" xmlns="http://www.w3.org/2000/svg" xmlns:xlink="http://www.w3.org/1999/xlink"><defs><path id="a" d="M0 0h53v52H0z"/></defs><g fill="none" fill-rule="evenodd"><mask id="b" fill="#fff"><use xlink:href="#a"/></mask><rect stroke="#1D1D1B" fill="#D8D8D8" mask="url(#b)" x="11.212" y="6" width="30.577" height="4" rx="2"/><path stroke="#1D1D1B" fill="teal" stroke-linejoin="round" mask="url(#b)" d="M13.25 8h26.5v37h-26.5z"/><path d="M36.692 8v34l-16.322.001a.441.441 0 0 0 .015-.11c0-2.04-1.794-3.713-4.077-3.878V8h20.384z" stroke="#1D1D1B" fill="#FFF" stroke-linejoin="round" mask="url(#b)"/><path stroke="#1D1D1B" stroke-linecap="round" stroke-linejoin="round" mask="url(#b)" transform="rotate(90 26.5 21.5)" d="M23.5 23.029 25 19.97l1.5 3.058L28 19.97l1.5 3.058"/><g mask="url(#b)"><g transform="rotate(-45 54.22 -10.934)"><path d="M8.663 0c4.785 0 8.664 3.7 8.664 8.264 0 4.254-3.369 7.757-7.7 8.214v1.887H7.7v-1.887C3.369 16.02 0 12.518 0 8.264 0 3.7 3.879 0 8.663 0z" stroke="#1D1D1B" fill="#63CCFF" stroke-linejoin="round"/><path d="M10.58 17.496a.918.918 0 0 1 .07 1.834l.42 2.814a2.488 2.488 0 1 1-4.92 0l.422-2.816-.038-.001a.918.918 0 0 1 .107-1.83h3.939z" stroke="#1D1D1B" fill="#FF6551" stroke-linejoin="round"/><circle fill="#FFF" transform="rotate(-45 10.826 5.429)" cx="10.826" cy="5.429" r="2.02"/></g></g><path stroke="#1D1D1B" stroke-linecap="round" stroke-linejoin="round" d="M26.5 19v-1m0 7v-1"/></g></svg>