<?xml version="1.0" encoding="utf-8"?>
<!-- Generator: Adobe Illustrator 27.1.1, SVG Export Plug-In . SVG Version: 6.00 Build 0)  -->
<svg version="1.1" id="레이어_1" xmlns="http://www.w3.org/2000/svg" xmlns:xlink="http://www.w3.org/1999/xlink" x="0px"
	 y="0px" viewBox="0 0 24 24" style="enable-background:new 0 0 24 24;" xml:space="preserve">
<style type="text/css">
	.st0{fill:#FFFFFF;}
</style>
<g>
	<path class="st0" d="M21.7,16.9L18.3,14c-0.6-0.5-1.5-0.5-2,0l-1,1c-0.2,0.2-0.5,0.4-0.6,0.5c-0.7,0.3-2.1,0.5-3.5-0.9l-1.8-1.8
		c-1.4-1.5-1.1-3-0.9-3.5C8.6,9.2,8.7,9,8.9,8.7L10,7.7c0.5-0.5,0.5-1.4,0-2L7.1,2.3l0,0C6.8,2.1,6.4,2,6,2C5.6,2.1,5.2,2.3,4.9,2.5
		L3.5,3.9l0,0c-4.2,5,2,11.4,2,11.4l3.1,3.1c0,0,3.6,3.5,7.4,3.5c1.3,0,2.7-0.4,4-1.5l1.4-1.4c0.3-0.3,0.5-0.7,0.5-1.1v0
		C22,17.6,21.9,17.2,21.7,16.9z"/>
</g>
</svg>
