<svg width="70" height="20" xmlns="http://www.w3.org/2000/svg" xmlns:xlink="http://www.w3.org/1999/xlink"><defs><path id="a" d="M0 0h70v20H0z"/><path id="c" d="M0 0h32.222v20H0z"/></defs><g fill="none" fill-rule="evenodd"><mask id="b" fill="#fff"><use xlink:href="#a"/></mask><use fill="#FFF" xlink:href="#a"/><g mask="url(#b)"><path d="M24.219 5.39c-.744 0-1.35.61-1.35 1.36v3.142c0 1.298-.833 2.265-1.938 2.265s-1.939-.967-1.939-2.265V6.75c0-.763-.577-1.36-1.314-1.36-.744 0-1.35.61-1.35 1.36v3.201c0 2.788 1.98 4.83 4.603 4.83a4.5 4.5 0 0 0 3.31-1.416c.856-.91 1.328-2.143 1.328-3.473V6.75c0-.75-.606-1.36-1.35-1.36" fill="#652C8C"/><mask id="d" fill="#fff"><use xlink:href="#c"/></mask><path d="M31.159 19.694c-.114 0-.228-.018-.34-.056l-3.64-.93A9.837 9.837 0 0 1 22.299 20H9.923C4.452 20 0 15.514 0 10S4.452 0 9.924 0h4.273c.587 0 1.063.48 1.063 1.071 0 .592-.476 1.072-1.063 1.072H9.924c-4.3 0-7.798 3.524-7.798 7.857 0 4.332 3.498 7.857 7.798 7.857h12.374a7.726 7.726 0 0 0 4.183-1.225c.272-.174.606-.216.911-.112l2.384.708-1.007-2.095a1.078 1.078 0 0 1 .11-.918A7.876 7.876 0 0 0 30.097 10c0-4.333-3.498-7.857-7.798-7.857h-4.273c-.587 0-1.063-.48-1.063-1.072A1.066 1.066 0 0 1 18.025 0h4.273c5.473 0 9.924 4.486 9.924 10a10.03 10.03 0 0 1-1.281 4.918l1.225 3.362c.13.386.03.812-.255 1.1a1.06 1.06 0 0 1-.752.314" fill="#AACE36" mask="url(#d)"/><path d="M13.614 11.137c-.36 0-.7.141-.955.398a2.13 2.13 0 0 1-1.522.634 2.127 2.127 0 0 1-1.521-.634c-.423-.426-.665-.985-.665-1.534s.242-1.108.665-1.534a2.13 2.13 0 0 1 1.521-.635c.575 0 1.116.226 1.522.635.255.257.594.398.955.398.36 0 .7-.141.955-.398a1.37 1.37 0 0 0 0-1.923 4.801 4.801 0 0 0-3.432-1.433 4.8 4.8 0 0 0-3.43 1.433 4.924 4.924 0 0 0 0 6.915 4.8 4.8 0 0 0 3.43 1.43 4.802 4.802 0 0 0 3.432-1.43 1.37 1.37 0 0 0 0-1.924 1.338 1.338 0 0 0-.955-.398" fill="#652C8C"/></g></g></svg>