<svg width="48" height="48" xmlns="http://www.w3.org/2000/svg" xmlns:xlink="http://www.w3.org/1999/xlink"><defs><path id="a" d="M0 0h48v48H0z"/></defs><g fill="none" fill-rule="evenodd"><mask id="b" fill="#fff"><use xlink:href="#a"/></mask><circle fill="#CCC" mask="url(#b)" cx="24" cy="24" r="21"/><g stroke="#1D1D1B" stroke-width="1.029" mask="url(#b)"><path d="m34.57 24.115.723.723a1 1 0 0 1 0 1.415l-8.022 8.022h0c-.4.4-1.05.4-1.45 0L12.724 21.18c-.4-.4-.4-1.05 0-1.45L18.453 14c.241-.24.586-.346.921-.281l5.649 1.096c.2.04.385.137.53.282l6.71 6.71" stroke-linecap="round"/><path d="m26.683 21.385 3.21 3.21a1.36 1.36 0 0 1 0 1.924l-2.374 2.374a1.36 1.36 0 0 1-1.924 0l-3.21-3.21a1.36 1.36 0 0 1 0-1.924l2.374-2.374a1.36 1.36 0 0 1 1.924 0z"/><path stroke-linecap="round" stroke-linejoin="round" d="m18.476 17.734-1.515-1.515m-.484 3.515-1.515-1.516"/></g></g></svg>