<svg width="48" height="48" xmlns="http://www.w3.org/2000/svg" xmlns:xlink="http://www.w3.org/1999/xlink"><defs><path id="a" d="M0 0h48v48H0z"/></defs><g fill="none" fill-rule="evenodd"><mask id="b" fill="#fff"><use xlink:href="#a"/></mask><circle fill="#CCC" mask="url(#b)" cx="24" cy="24" r="21"/><g stroke="#1D1D1B" mask="url(#b)" stroke-linejoin="round"><path d="M23.858 13h6.914c.954 0 1.728.856 1.728 1.913v3.036m0 11.36v3.778c0 1.057-.774 1.913-1.728 1.913H17.228c-.954 0-1.728-.856-1.728-1.913V14.913c0-1.057.774-1.913 1.728-1.913h6.63" stroke-linecap="round"/><path d="M35.9 15.25a1.5 1.5 0 0 1 .549 2.049l-4.344 7.524-3.205 2.551.607-4.05 4.344-7.525a1.5 1.5 0 0 1 2.049-.549Z"/><path stroke-linecap="round" d="m33.007 17.26 2.598 1.5m-6.098 4.563 2.598 1.5M19.5 18h9m-9 4h5m-5 4h2"/></g></g></svg>