<svg width="32" height="32" xmlns="http://www.w3.org/2000/svg"><g fill="none" fill-rule="evenodd"><path d="M16 .5c4.28 0 8.155 1.735 10.96 4.54A15.451 15.451 0 0 1 31.5 16c0 4.28-1.735 8.155-4.54 10.96A15.451 15.451 0 0 1 16 31.5c-4.28 0-8.155-1.735-10.96-4.54A15.451 15.451 0 0 1 .5 16c0-4.28 1.735-8.155 4.54-10.96A15.451 15.451 0 0 1 16 .5z" stroke-opacity=".5" stroke="#CCC" fill="#FFF"/><path d="M14 13h-2.61a5.5 5.5 0 0 1 10.11 3h1A6.5 6.5 0 0 0 11 11.84V10h-1v4h4v-1zm4 6h2.61a5.5 5.5 0 0 1-10.11-3h-1A6.5 6.5 0 0 0 21 20.16V22h1v-4h-4v1z" fill="#000"/></g></svg>