<svg width="90" height="97" xmlns="http://www.w3.org/2000/svg" xmlns:xlink="http://www.w3.org/1999/xlink"><defs><filter x="-78.4%" y="-68.7%" width="256.8%" height="237.5%" filterUnits="objectBoundingBox" id="a"><feOffset dx="-1" dy="6" in="SourceAlpha" result="shadowOffsetOuter1"/><feGaussianBlur stdDeviation="4" in="shadowOffsetOuter1" result="shadowBlurOuter1"/><feComposite in="shadowBlurOuter1" in2="SourceAlpha" operator="out" result="shadowBlurOuter1"/><feColorMatrix values="0 0 0 0 0 0 0 0 0 0 0 0 0 0 0 0 0 0 0.05 0" in="shadowBlurOuter1" result="shadowMatrixOuter1"/><feOffset in="SourceAlpha" result="shadowOffsetOuter2"/><feGaussianBlur stdDeviation="11.5" in="shadowOffsetOuter2" result="shadowBlurOuter2"/><feComposite in="shadowBlurOuter2" in2="SourceAlpha" operator="out" result="shadowBlurOuter2"/><feColorMatrix values="0 0 0 0 0.412052763 0 0 0 0 0.412052763 0 0 0 0 0.412052763 0 0 0 0.109129152 0" in="shadowBlurOuter2" result="shadowMatrixOuter2"/><feMerge><feMergeNode in="shadowMatrixOuter1"/><feMergeNode in="shadowMatrixOuter2"/></feMerge></filter><path d="M28.5 9.6c8.56 0 15.5 6.94 15.5 15.5 0 8.56-6.94 15.5-15.5 15.5H9.6c-5.21 0-9.451 4.151-9.596 9.327L0 50.2V0c0 5.21 4.151 9.451 9.327 9.596L9.6 9.6h18.9z" id="b"/></defs><g fill="none" fill-rule="evenodd"><g transform="matrix(-1 0 0 1 67 23)"><use fill="#000" filter="url(#a)" xlink:href="#b"/><use fill-opacity=".9" fill="#FFF" xlink:href="#b"/></g><path d="M34.367 43.967a1.25 1.25 0 0 1 1.771 0l2.362 2.361 2.362-2.361a1.253 1.253 0 0 1 1.771 1.771L40.272 48.1l2.361 2.362c.457.456.487 1.178.091 1.67l-.09.101c-.49.49-1.283.49-1.772 0L38.5 49.872l-2.362 2.361a1.253 1.253 0 1 1-1.771-1.771l2.361-2.362-2.361-2.362a1.253 1.253 0 0 1-.091-1.67z" fill="#ED1D25"/></g></svg>