<svg width="32" height="32" xmlns="http://www.w3.org/2000/svg" xmlns:xlink="http://www.w3.org/1999/xlink"><defs><path id="a" d="M0 0h32v32H0z"/></defs><g fill="none" fill-rule="evenodd"><mask id="b" fill="#fff"><use xlink:href="#a"/></mask><path d="M28 17.895v5.82C28 24.976 26.925 26 25.6 26H6.4C5.075 26 4 24.977 4 23.714V12.286C4 11.023 5.075 10 6.4 10h3.57M22 10h3.58c1.336 0 2.42 1.12 2.42 2.5V15" stroke="#999" stroke-linecap="round" stroke-linejoin="round" mask="url(#b)"/><path d="M9.97 10c0-.451.01-1.118.03-2a2 2 0 0 1 2-2h8a2 2 0 0 1 2 2v2h-5.515" stroke="#999" stroke-linecap="round" stroke-linejoin="round" mask="url(#b)" transform="matrix(-1 0 0 1 31.97 0)"/><circle stroke="#999" mask="url(#b)" cx="16" cy="18" r="4"/><circle stroke="#999" mask="url(#b)" cx="23" cy="14" r="1"/></g></svg>