<svg width="24" height="24" xmlns="http://www.w3.org/2000/svg"><g fill="none" fill-rule="evenodd"><path d="M0 0h24v24H0z"/><path fill="#FFF" d="m5.231 5 3.993-1.612L13.074 3l2.903.388L19.658 5 12.5 20.314z"/><path d="M18 7.14C15.777 5.775 13.234 5 10.533 5c-1.714 0-3.363.312-4.907.888l6.454 13.847L18 7.14z" fill="#FAB74B" fill-rule="nonzero"/><path d="M13.538 13.089a5.763 5.763 0 0 0-3.79.628m5.472-5.333A9.56 9.56 0 0 0 12.527 8a9.544 9.544 0 0 0-4.663 1.211" stroke="#1D1D1B" stroke-width="1.5" stroke-linecap="round" stroke-linejoin="round"/><path d="M20 5.14C17.777 3.775 15.234 3 12.533 3 9.805 3 7.238 3.79 5 5.18L12.545 21 20 5.14z" stroke="#1D1D1B" stroke-width="1.5"/></g></svg>