<svg width="40" height="40" xmlns="http://www.w3.org/2000/svg" xmlns:xlink="http://www.w3.org/1999/xlink"><defs><path id="a" d="M0 0h40v40H0z"/></defs><g fill="none" fill-rule="evenodd"><mask id="b" fill="#fff"><use xlink:href="#a"/></mask><g mask="url(#b)"><g transform="translate(11 4)"><path d="M1.5.5h15A1.5 1.5 0 0 1 18 2v1.5H0V2A1.5 1.5 0 0 1 1.5.5zm0 31h15A1.5 1.5 0 0 0 18 30v-1.5H0V30a1.5 1.5 0 0 0 1.5 1.5z" fill="#A0A0A0"/><rect stroke="#1D1D1B" width="18" height="32" rx="2.158"/><path fill="#FFF" d="M.5 3.5h17v25H.5z"/><circle fill="#1D1D1B" cx="9" cy="30" r="1"/><rect fill="#1D1D1B" x="6" y="1.5" width="6" height="1" rx=".5"/></g></g><g mask="url(#b)"><path d="m16.268 15.608 1.07 1.892H18.5l-1.218-2.047c.3-.113.54-.285.722-.517.18-.232.27-.54.27-.922 0-.289-.05-.53-.15-.723a1.244 1.244 0 0 0-.416-.467 1.755 1.755 0 0 0-.62-.25 3.77 3.77 0 0 0-.771-.074H14.5v5h1.042v-1.892h.726zm-.05-.79h-.676V13.29h.676c.338 0 .595.052.771.158.176.106.265.294.265.565 0 .27-.089.471-.265.604-.176.133-.433.2-.77.2z" fill="#1D1D1B" fill-rule="nonzero"/><path d="m16.439 22.132.501 3.354-1.379.382-.501-3.354 1.379-.382zm3.97-2.492.554 5.84-1.372.38-.554-5.84 1.372-.38zm3.985-2.495.579 8.332-1.367.378-.579-8.332 1.367-.378z" stroke="#1D1D1B" fill="#FAB74B"/></g></g></svg>