<svg width="48" height="48" xmlns="http://www.w3.org/2000/svg"><g fill="none" fill-rule="evenodd"><path d="M0 0h48v48H0z"/><rect fill="#EBB500" transform="rotate(-180 24 24)" x="5" y="10" width="38" height="28" rx="4"/><path d="M32.078 24.065c-.502-.496-1.2-.71-2.133-.657-.777.047-1.393.352-1.864.636l-.001-.021c0-.241.028-.503.055-.757a7.28 7.28 0 0 0 .055-.769c0-.254-.029-.493-.117-.7a.138.138 0 0 0-.134-.084c-.25.006-.74.176-.86.279l-.064.14c-.005.276-.065 1.045-.127 1.139a2.26 2.26 0 0 1-.034.093c-.105 1.099-.107 2.064-.01 2.893.012.083.172.209.297.253.136.05.564-.063.81-.156l.093-.013c.078-.009.123-.074.119-.162l.006-.238c.178-.716.898-1.57 1.748-1.699.481-.075.86.046 1.16.371.042.059.13.573-.188 1.165-.236.44-.708.807-1.328 1.039-.588.22-1.236.31-2.034.282l-.748-.5c-.633-.44-1.419-.989-2.134-1.257-.124-.047-.35-.232-.484-.343l-.074-.06c-.412-.327-1.194-.843-1.823-1.26l-.34-.224c.002-.023.003-.07.003-.07.017-.02.412-.254.412-.254.554-.32.809-.479.864-.56a.492.492 0 0 0 .073-.043l1.372-.769c1.315-.717 2.807-1.53 3.59-2.333l.038-.122.017-.11a.755.755 0 0 0 .012-.457.15.15 0 0 0-.106-.104c-.612-.059-1.401.304-2.118.97-.163.152-.299.225-.443.303l-.11.06c-.792.447-2.575 1.543-3.508 2.135.062-.995.247-2.41.475-3.589l-.025-.141-.096-.178-.073-.128-.022-.006c-.185-.093-.338-.055-.45-.026l-.187.067-.247.09a.136.136 0 0 0-.104.086c-.446 1.068-.818 2.824-.905 4.23a21.572 21.572 0 0 0-2.118-1.161l-.012-.006-.049-.01c-.144-.02-.321-.125-.493-.228l-.338-.217-.518-.328-.136-.031c-.223.037-.65.322-.776.516a.14.14 0 0 0-.024.082c0 .04.012.082.024.12l.023.106.024.063c.248.252.874.672 1.488 1l.712.373 1.09.59c0 .005.186.145.186.145a21.959 21.959 0 0 1 .15.088l-1.98 1.312-1.043.683c-.098.067-.51.25-.6.286-.226.09-.397.231-.469.383l-.027.06.028.04.08.059c-.004 0 .106.07.106.07l.115.078.108.015c.184.008.455-.095.962-.316.466-.204 1.732-.96 2.272-1.283l.232-.138c.095.008.201-.072.294-.142a2.81 2.81 0 0 1 .489-.292l.162-.09v.062c.024 1.64.12 2.832.3 3.75l.003.017.018.037c.09.13.19.518.28.861l.206.684c.004.008.058.065.058.065.117.078.476.215.716.187l.06-.007.037-.084a1.53 1.53 0 0 0 .027-.313 6.4 6.4 0 0 0-.02-.431l-.016-.248a68.37 68.37 0 0 1-.151-3.897v-.088l1.055.66c1.461.938 3.668 2.357 5.002 2.733.07.02.143.004.193-.044l.206-.131.038-.015c.077-.036.129-.164.137-.304 1.125-.055 2.693-.484 3.532-1.53.325-.405.471-.9.471-1.326 0-.348-.098-.648-.275-.814l-.147-.092z" fill="#FFF"/></g></svg>