<svg width="48" height="48" xmlns="http://www.w3.org/2000/svg" xmlns:xlink="http://www.w3.org/1999/xlink"><defs><path id="a" d="M0 0h48v48H0z"/></defs><g fill="none" fill-rule="evenodd"><mask id="b" fill="#fff"><use xlink:href="#a"/></mask><circle fill="#CCC" mask="url(#b)" cx="24" cy="24" r="21"/><circle stroke="#1D1D1B" mask="url(#b)" cx="31" cy="32" r="2"/><circle stroke="#1D1D1B" mask="url(#b)" cx="19" cy="32" r="2"/><circle fill="#1D1D1B" mask="url(#b)" cx="19" cy="32" r="1"/><circle fill="#1D1D1B" mask="url(#b)" cx="31" cy="32" r="1"/><path d="M13.119 25.336v3.012c0 2.209 1.672 4 3.881 4m4.024 0h7.968m3.983 0h4.348v-4.012a3 3 0 0 0-3-3H16.93m6.696-11.208h3.232v11.208m7.079 0-.894-3.372a3 3 0 0 0-2.9-2.232h-3.285 0M21 14.128h-7.881m5.771 4h-5.771m3.44 4h-3.44" stroke="#1D1D1B" stroke-linecap="round" stroke-linejoin="round" mask="url(#b)"/></g></svg>