<?xml version="1.0" encoding="UTF-8"?>
<svg id="_레이어_1" xmlns="http://www.w3.org/2000/svg" version="1.1" viewBox="0 0 64 64">
  <!-- Generator: Adobe Illustrator 29.5.1, SVG Export Plug-In . SVG Version: 2.1.0 Build 141)  -->
  <defs>
    <style>
      .st0 {
        fill: #4c4c4c;
        fill-rule: evenodd;
      }
    </style>
  </defs>
  <path class="st0" d="M49.6,16.3H14.5c-1.9,0-3.5,1.6-3.5,3.5v24.6c0,1.9,1.6,3.5,3.5,3.5h35.1c1.9,0,3.5-1.6,3.5-3.5v-24.6c0-1.9-1.6-3.5-3.5-3.5ZM47.4,25.1s0,.6-.7,1l-13.3,8.4s-.7.4-1.6.4c0,0-.8,0-1.6-.4l-13.3-8.3s-1-.5-.9-1.5c0,0,0-1.1,1-1.6,0,0,.8-.4,1.6.2l13.1,8.2,13-8.2s.5-.3,1.1-.3c0,0,.6,0,1.1.5,0,0,.7.6.4,1.6Z"/>
</svg>