<svg width="53" height="52" xmlns="http://www.w3.org/2000/svg" xmlns:xlink="http://www.w3.org/1999/xlink"><defs><path id="a" d="M0 0h53v52H0z"/></defs><g fill="none" fill-rule="evenodd"><mask id="b" fill="#fff"><use xlink:href="#a"/></mask><g mask="url(#b)"><path fill="#018786" d="m17.335 27.5 7.127 10.692L32.037 27.5l3.2 1.32 6.557 7.257L38.068 48H4.077l.487-4.64 1.399-4.223 1.772-3.645 2.8-3.541 3.085-2.32z"/><path stroke="#1D1D1B" stroke-linecap="round" stroke-linejoin="round" d="m17.3 27.861 7.162 10.775 7.92-11.136"/><path d="M24.462 7c6.192 0 11.211 4.925 11.211 11 0 3.67-1.832 6.921-4.648 8.92 6.397 2.008 11.51 7.144 13.73 13.718.52 1.535-.972 3.989-4.471 7.362H4.077c0-9.669 5.936-17.88 14.189-20.832C15.243 25.2 13.25 21.828 13.25 18c0-6.075 5.02-11 11.212-11z" stroke="#1D1D1B" stroke-linejoin="round"/><path d="M21.404 22.26c1.02.32 2.038.48 3.058.48 1.019 0 2.038-.16 3.057-.48" stroke="#1D1D1B" stroke-linecap="round" stroke-linejoin="round"/></g><g mask="url(#b)"><path d="M29.63 37.837c-.914 3.314-.714 5.52.598 6.617 1.293 1.08 3.89 2.098 7.79 3.054a3.992 3.992 0 0 1 1.872 1.055l.199.199 9.41-9.41-.784-.785a3.992 3.992 0 0 1-.573-.724l-4.854-7.851a3.992 3.992 0 0 0-5.48-1.305l-6.126 3.752-3.689-3.688A2.297 2.297 0 0 0 24.744 32l4.543 4.543c.339.338.47.833.342 1.294z" stroke="#1D1D1B" fill="#FFF" stroke-linejoin="round"/><path d="m37.936 46.967 9.423-9.422c.265.454.495.798.688 1.034.194.236.44.495.737.777L40.09 48.05a4.808 4.808 0 0 0-.936-.651 4.412 4.412 0 0 0-1.219-.43z" fill="#E9E9E9"/><path d="M25.092 29.1a1.787 1.787 0 0 1 2.528 0l1.462 1.462-2.528 2.528-1.462-1.462a1.787 1.787 0 0 1 0-2.528z" fill="#E73939"/><path stroke="#1D1D1B" fill="#FFF" stroke-linecap="round" d="m34.336 41.593-6.156-6.155"/></g></g></svg>