<svg width="32" height="32" xmlns="http://www.w3.org/2000/svg" xmlns:xlink="http://www.w3.org/1999/xlink"><defs><path id="a" d="M0 0h32v32H0z"/></defs><g fill="none" fill-rule="evenodd"><mask id="b" fill="#fff"><use xlink:href="#a"/></mask><path d="M26.936 20.946A11.957 11.957 0 0 0 28 16c0-6.627-5.373-12-12-12S4 9.373 4 16s5.373 12 12 12c3.452 0 6.737-1.624 8.928-3.96" stroke="teal" stroke-linecap="round" stroke-linejoin="round" mask="url(#b)"/><path fill="teal" mask="url(#b)" d="M15.5 4h1v24h-1z"/><path fill="teal" mask="url(#b)" transform="rotate(90 16 16.002)" d="M15.569 3.929h1v24.146h-1z"/><path d="M16 4c-5.039 1.991-6.857 7.31-6.857 12.027C9.143 20.743 11.032 25.98 16 28" stroke="teal" stroke-linecap="round" stroke-linejoin="round" mask="url(#b)"/><path d="M22.857 4C17.818 5.991 16 11.31 16 16.027c0 4.716 1.889 9.953 6.857 11.973" stroke="teal" stroke-linecap="round" stroke-linejoin="round" mask="url(#b)" transform="matrix(-1 0 0 1 38.857 0)"/><g mask="url(#b)" stroke="teal" stroke-linecap="round" stroke-linejoin="round"><path d="M7.068 8.104c2.513 1.946 5.865 2.724 8.959 2.724 3.088 0 6.4-.805 8.895-2.746M7.048 23.916c2.516-1.958 5.877-2.74 8.979-2.74 3.112 0 6.45.818 8.953 2.792"/></g></g></svg>