<svg width="32" height="32" xmlns="http://www.w3.org/2000/svg" xmlns:xlink="http://www.w3.org/1999/xlink"><defs><path id="a" d="M0 0h32v32H0z"/></defs><g fill="none" fill-rule="evenodd"><mask id="b" fill="#fff"><use xlink:href="#a"/></mask><g mask="url(#b)"><g transform="rotate(-45 17.328 4.136)"><path d="M8 0a8 8 0 0 1 .89 15.951L8.888 19H7.11v-3.049A8.001 8.001 0 0 1 8 0z" stroke="#1D1D1B" fill="#63CCFF" stroke-linejoin="round"/><path d="M9.937 17.182c.557 0 1.008.451 1.008 1.008v.04c0 .515-.385.939-.882 1l.47 3.384a2.612 2.612 0 1 1-5.175 0l.47-3.383a1.008 1.008 0 0 1-.883-1v-.041c0-.557.451-1.008 1.008-1.008h3.984z" stroke="#1D1D1B" fill="#FF6551" stroke-linejoin="round"/><circle fill="#FFF" transform="rotate(-45 9.414 4.515)" cx="9.414" cy="4.515" r="2"/></g></g></g></svg>