<svg width="53" height="52" xmlns="http://www.w3.org/2000/svg" xmlns:xlink="http://www.w3.org/1999/xlink"><defs><path id="a" d="M0 0h53v52H0z"/></defs><g fill="none" fill-rule="evenodd"><mask id="b" fill="#fff"><use xlink:href="#a"/></mask><g mask="url(#b)"><path d="M41.392 14.118c3.82 4.002 5.756 8.714 5.807 14.137.052 5.422-1.916 10.362-5.905 14.82l-4.8-5.21c2.367-2.33 3.532-5.478 3.495-9.444-.038-3.966-1.415-7.226-4.13-9.78l5.533-4.523z" fill="#FF3C3C"/><path d="m11.353 13.854 5.069 5.552c-2.273 2.04-3.39 5.129-3.35 9.267.04 4.138 1.302 7.17 3.788 9.097l-4.818 5.027c-4.103-4.196-6.18-9.02-6.232-14.472-.052-5.452 1.795-10.276 5.543-14.471z" fill="#FAB74B"/><path d="M26.651 7.8c6.384.279 11.446 2.583 15.186 6.914l-4.801 4.788c-2.589-2.7-6.027-4.14-10.315-4.324-4.288-.183-7.805 1.299-10.552 4.445l-5.206-5.203c4.074-4.692 9.304-6.899 15.688-6.62z" fill="#FF5100"/><path d="M42.853 33.993c1.99-5.88.52-12.795-4.338-17.653-6.074-6.074-15.362-6.851-21.824-2.195m-3.242 3.126a15.78 15.78 0 0 0-2.686 5.258" stroke="#1D1D1B" stroke-width=".88" stroke-linecap="round" stroke-linejoin="round"/><path d="M47.37 28.264c0 5.664-2.342 10.792-6.127 14.502l-4.76-4.961c4.874-5.247 4.68-13.533-.523-18.737-5.321-5.321-13.868-5.403-19.089-.181-5.095 5.095-5.14 13.358-.193 18.699l-4.969 5.181-.237-.236c-3.646-3.69-5.89-8.722-5.89-14.267 0-11.322 9.354-20.5 20.894-20.5s20.894 9.178 20.894 20.5z" stroke="#1D1D1B" stroke-width=".9" stroke-linejoin="round"/><g transform="rotate(45 5.353 54.994)"><path d="M2.473 5.315 4.077 21.77H0L1.477 5.32a.5.5 0 0 1 .996-.004z" fill="#1D1D1B"/><ellipse stroke="#1D1D1B" fill="#FFF" cx="2.038" cy="21.77" rx="1.538" ry="1.5"/></g></g></g></svg>