<svg width="48" height="48" xmlns="http://www.w3.org/2000/svg" xmlns:xlink="http://www.w3.org/1999/xlink"><defs><path id="a" d="M0 0h48v48H0z"/></defs><g fill="none" fill-rule="evenodd"><mask id="b" fill="#fff"><use xlink:href="#a"/></mask><circle fill="#CCC" mask="url(#b)" cx="24" cy="24" r="21"/><circle fill="#1D1D1B" mask="url(#b)" cx="24" cy="26.5" r="1"/><circle fill="#1D1D1B" mask="url(#b)" cx="24" cy="28.5" r="1"/><path d="M31.5 30.863c-.925-2.801-3.056-4.943-5.682-5.63m-3.678.011C18.62 26.187 16 29.75 16 34m15.5-3.137H24M33 34H15" stroke="#1D1D1B" stroke-linecap="round" stroke-linejoin="round" mask="url(#b)"/><path d="M22 25.291a1.334 1.334 0 0 0 .147-2.535C18.622 21.816 16 18.253 16 14h16a9.96 9.96 0 0 1-.5 3.137c-.92 2.787-3.035 4.922-5.644 5.62A1.334 1.334 0 0 0 26 25.291M17 17.5h9.675M33 14H15" stroke="#1D1D1B" stroke-linecap="round" stroke-linejoin="round" mask="url(#b)"/></g></svg>