<?xml version="1.0" encoding="UTF-8"?>
<svg id="_레이어_1" data-name="레이어_1" xmlns="http://www.w3.org/2000/svg" version="1.1" viewBox="0 0 24 24">
  <!-- Generator: Adobe Illustrator 29.5.1, SVG Export Plug-In . SVG Version: 2.1.0 Build 141)  -->
  <defs>
    <style>
      .st0 {
        fill: #fff;
      }

      .st1 {
        fill: #4c4c4c;
      }
    </style>
  </defs>
  <g>
    <line class="st0" x1="6.2" y1="18.3" x2="6.2" y2="13.2"/>
    <path class="st1" d="M6.2,19.8c-.8,0-1.5-.7-1.5-1.5v-5.1c0-.8.7-1.5,1.5-1.5s1.5.7,1.5,1.5v5.1c0,.8-.7,1.5-1.5,1.5Z"/>
  </g>
  <path class="st1" d="M12,19.8c-.8,0-1.5-.7-1.5-1.5v-9.1c0-.8.7-1.5,1.5-1.5s1.5.7,1.5,1.5v9.1c0,.8-.7,1.5-1.5,1.5Z"/>
  <path class="st1" d="M17.8,19.8c-.8,0-1.5-.7-1.5-1.5V5.1c0-.8.7-1.5,1.5-1.5s1.5.7,1.5,1.5v13.2c0,.8-.7,1.5-1.5,1.5Z"/>
</svg>