<svg width="52" height="52" xmlns="http://www.w3.org/2000/svg" xmlns:xlink="http://www.w3.org/1999/xlink"><defs><path id="a" d="M0 0h52v52H0z"/></defs><g fill="none" fill-rule="evenodd"><mask id="b" fill="#fff"><use xlink:href="#a"/></mask><circle stroke="#1D1D1B" fill="#FAB74B" mask="url(#b)" cx="26" cy="40" r="5"/><rect stroke="#1D1D1B" fill="#FAB74B" mask="url(#b)" x="8" y="34" width="36" height="6" rx="3"/><circle stroke="#1D1D1B" fill="#CE7F00" stroke-linejoin="round" mask="url(#b)" cx="26" cy="10" r="3"/><path d="M11.004 34c2.265 0 3.424-1.726 3.476-5.177V21.52C14.48 15.158 19.638 10 26 10c6.365 0 11.524 5.16 11.524 11.524v7.3C37.576 32.273 38.735 34 41 34z" stroke="#1D1D1B" fill="#FAB74B" stroke-linejoin="round" mask="url(#b)"/><g mask="url(#b)" stroke="#1D1D1B" stroke-linecap="round" stroke-linejoin="round"><path d="M16.048 9.237c-2.846 1.962-4.324 5.138-4.433 9.528m0-9.297c-1.729 1.383-2.593 3.361-2.593 5.935"/></g><g mask="url(#b)" stroke="#1D1D1B" stroke-linecap="round" stroke-linejoin="round"><path d="M36.022 9.237c2.846 1.962 4.324 5.138 4.433 9.528m0-9.297c1.729 1.383 2.593 3.361 2.593 5.935"/></g></g></svg>