<svg width="40" height="40" xmlns="http://www.w3.org/2000/svg" xmlns:xlink="http://www.w3.org/1999/xlink"><defs><path id="a" d="M0 0h40v40H0z"/></defs><g fill="none" fill-rule="evenodd"><mask id="b" fill="#fff"><use xlink:href="#a"/></mask><g mask="url(#b)"><g transform="translate(11 4)"><path d="M1.5.5h15A1.5 1.5 0 0 1 18 2v1.5H0V2A1.5 1.5 0 0 1 1.5.5zm0 31h15A1.5 1.5 0 0 0 18 30v-1.5H0V30a1.5 1.5 0 0 0 1.5 1.5z" fill="#A0A0A0"/><rect stroke="#1D1D1B" width="18" height="32" rx="2.158"/><path fill="#FFF" d="M.5 3.5h17v25H.5z"/><circle fill="#1D1D1B" cx="9" cy="30" r="1"/><rect fill="#1D1D1B" x="6" y="1.5" width="6" height="1" rx=".5"/></g></g><path d="M17.47 19.023a1.19 1.19 0 0 1-.144-.333c.654-.291 1.051-.48 1.19-.566.21-.128.42-.404.234-1.022-.187-.617-1.438-2.46-2.43-3.017-.994-.558-2.758 1.78-2.807 2.712-.05.934-.008 1.43 1.073 3.092.72 1.107 1.634 2.14 2.74 3.099 2.519 2.097 4.492 3.145 5.92 3.145 2.142 0 3.959-1.945 2.984-2.896-.976-.951-1.914-1.585-2.929-1.971-.676-.257-1.158-.083-1.445.522l-.372.766c-1.038-.588-1.735-1.038-2.09-1.35a9.322 9.322 0 0 1-1.924-2.181z" stroke="#1D1D1B" fill="#00C3BD" stroke-linecap="round" stroke-linejoin="round" mask="url(#b)"/></g></svg>