<svg width="53" height="52" xmlns="http://www.w3.org/2000/svg" xmlns:xlink="http://www.w3.org/1999/xlink"><defs><path id="a" d="M0 0h53v52H0z"/></defs><g fill="none" fill-rule="evenodd"><mask id="b" fill="#fff"><use xlink:href="#a"/></mask><g mask="url(#b)"><g transform="translate(5.096 5)"><ellipse stroke="#1D1D1B" fill="#FAB74B" stroke-linejoin="round" cx="18.346" cy="18" rx="18.346" ry="18"/><ellipse stroke="#1D1D1B" fill="#F29B11" cx="18.346" cy="18" rx="15.288" ry="15"/><path stroke="#FFF" stroke-linecap="round" stroke-linejoin="round" d="m25.226 14.85-3.44 6.75-3.44-6.75-3.44 6.75-3.44-6.75"/></g></g><g mask="url(#b)" stroke="#1D1D1B"><g transform="translate(27.52 34)"><path d="M0 12.003v-7.87c0-.335.168-.647.447-.832L5.182.166A.997.997 0 0 1 5.732 0h13.655c.551 0 .998.446.998.997v11.006c0 .55-.447.997-.998.997H.997A.997.997 0 0 1 0 12.003z" fill="#FFF"/><rect fill="#FAB74B" x="9.593" y="3.545" width="7.195" height="5.909" rx="1.323"/><path stroke-linecap="round" stroke-linejoin="round" d="M0 9.26h2.057M0 6.26h2.057"/></g></g></g></svg>