<svg width="64" height="64" xmlns="http://www.w3.org/2000/svg" xmlns:xlink="http://www.w3.org/1999/xlink"><defs><path id="a" d="M0 0h64v64H0z"/></defs><g fill="none" fill-rule="evenodd"><mask id="b" fill="#fff"><use xlink:href="#a"/></mask><path d="M22.827 29.387a4.28 4.28 0 0 1-.467-1.151c2.114-1.01 3.397-1.663 3.848-1.96.677-.444 1.357-1.4.754-3.537-.604-2.138-4.645-8.515-7.853-10.445-3.208-1.93-8.909 6.159-9.068 9.39-.159 3.23-.024 4.95 3.468 10.7 2.328 3.834 5.278 7.41 8.851 10.727C30.5 50.371 36.875 54 41.488 54c6.92 0 12.789-6.735 9.638-10.027-3.15-3.292-6.183-5.487-9.46-6.822-2.185-.89-3.741-.287-4.668 1.806l-1.202 2.654c-3.356-2.037-5.608-3.594-6.755-4.672a31.686 31.686 0 0 1-6.214-7.552z" stroke="#1D1D1B" stroke-width="2" fill="#00C0AA" stroke-linecap="round" stroke-linejoin="round" mask="url(#b)"/><path d="M44.623 26.044c0-3.878-3.303-7.022-7.377-7.022M52 26.044C52 18.288 45.394 12 37.246 12" stroke="#1D1D1B" stroke-width="2" stroke-linecap="round" stroke-linejoin="round" mask="url(#b)"/></g></svg>