<?xml version="1.0" encoding="UTF-8"?><svg id="icons" xmlns="http://www.w3.org/2000/svg" viewBox="0 0 76.54 70.13"><defs><style>.cls-1{fill:#fff;}</style></defs><path class="cls-1" d="M73.1,13.82H18.87l-1.26-5.54c-.23-.99-.87-1.82-1.77-2.29L5.02.39C3.34-.49,1.26.17.39,1.86c-.87,1.69-.22,3.76,1.47,4.64l9.39,4.87,8.05,35.27c.36,1.56,1.75,2.67,3.35,2.67h42.03c1.9,0,3.44-1.54,3.44-3.44s-1.54-3.44-3.44-3.44H25.4l-1.65-7.22h43.74c1.9,0,3.44-1.54,3.44-3.44s-1.54-3.44-3.44-3.44H22.18l-1.74-7.64h52.66c1.9,0,3.44-1.54,3.44-3.44s-1.54-3.44-3.44-3.44Z"/><path class="cls-1" d="M32.05,52.04c-4.99,0-9.04,4.06-9.04,9.04s4.06,9.04,9.04,9.04,9.04-4.06,9.04-9.04-4.06-9.04-9.04-9.04ZM32.05,63.25c-1.19,0-2.16-.97-2.16-2.16s.97-2.16,2.16-2.16,2.16.97,2.16,2.16-.97,2.16-2.16,2.16Z"/><path class="cls-1" d="M58.48,52.04c-4.99,0-9.04,4.06-9.04,9.04s4.06,9.04,9.04,9.04,9.04-4.06,9.04-9.04-4.06-9.04-9.04-9.04ZM58.48,63.25c-1.19,0-2.16-.97-2.16-2.16s.97-2.16,2.16-2.16,2.16.97,2.16,2.16-.97,2.16-2.16,2.16Z"/></svg>