<?xml version="1.0" encoding="utf-8"?>
<!-- Generator: Adobe Illustrator 27.1.1, SVG Export Plug-In . SVG Version: 6.00 Build 0)  -->
<svg version="1.1" id="레이어_1" xmlns="http://www.w3.org/2000/svg" xmlns:xlink="http://www.w3.org/1999/xlink" x="0px"
	 y="0px" viewBox="0 0 32 32" style="enable-background:new 0 0 32 32;" xml:space="preserve">
<style type="text/css">
	.st0{fill:#FFFFFF;}
	.st1{fill:#1D1D1B;}
	.st2{fill:#99E7E5;}
</style>
<g>
	<g>
		<polygon class="st0" points="23.9,25.1 8.5,25.1 6.4,16.1 26.1,16.1 		"/>
		<path class="st1" d="M23.9,25.7H8.5c-0.3,0-0.5-0.2-0.5-0.4l-2.1-9.1c0-0.2,0-0.3,0.1-0.5c0.1-0.1,0.3-0.2,0.4-0.2h19.7
			c0.2,0,0.3,0.1,0.4,0.2c0.1,0.1,0.1,0.3,0.1,0.5l-2.1,9.1C24.4,25.5,24.2,25.7,23.9,25.7z M8.9,24.6h14.6l1.9-8H7L8.9,24.6z"/>
	</g>
	<g>
		<line class="st0" x1="20.5" y1="19.1" x2="19.6" y2="22"/>
		<path class="st1" d="M19.6,22.6c-0.1,0-0.1,0-0.2,0c-0.3-0.1-0.4-0.4-0.4-0.7L20,19c0.1-0.3,0.4-0.4,0.7-0.4
			c0.3,0.1,0.4,0.4,0.4,0.7l-0.9,2.9C20,22.4,19.8,22.6,19.6,22.6z"/>
	</g>
	<g>
		<line class="st0" x1="12.8" y1="22" x2="11.9" y2="19.1"/>
		<path class="st1" d="M12.8,22.6c-0.2,0-0.4-0.1-0.5-0.4l-0.9-2.9c-0.1-0.3,0.1-0.6,0.4-0.7c0.3-0.1,0.6,0.1,0.7,0.4l0.9,2.9
			c0.1,0.3-0.1,0.6-0.4,0.7C12.9,22.6,12.9,22.6,12.8,22.6z"/>
	</g>
	<g>
		<path class="st2" d="M26.3,16.1H6.2c-0.8,0-1.4-0.6-1.4-1.4v0c0-0.8,0.6-1.4,1.4-1.4h20.1c0.8,0,1.4,0.6,1.4,1.4v0
			C27.7,15.4,27,16.1,26.3,16.1z"/>
		<path class="st1" d="M26.3,16.6H6.2c-1.1,0-1.9-0.9-1.9-1.9c0-1.1,0.9-1.9,1.9-1.9h20.1c1.1,0,1.9,0.9,1.9,1.9
			C28.2,15.7,27.3,16.6,26.3,16.6z M6.2,13.8c-0.5,0-0.8,0.4-0.8,0.8c0,0.5,0.4,0.9,0.8,0.9h20.1c0.5,0,0.8-0.4,0.8-0.9
			c0-0.5-0.4-0.8-0.8-0.8H6.2z"/>
	</g>
	<g>
		<line class="st0" x1="16.2" y1="22" x2="16.2" y2="19.1"/>
		<path class="st1" d="M16.2,22.6c-0.3,0-0.5-0.2-0.5-0.5v-2.9c0-0.3,0.2-0.5,0.5-0.5c0.3,0,0.5,0.2,0.5,0.5V22
			C16.8,22.3,16.5,22.6,16.2,22.6z"/>
	</g>
	<path class="st1" d="M10.9,13.8c-0.1,0-0.2,0-0.3-0.1c-0.3-0.1-0.4-0.5-0.2-0.7l3.5-6.4c0.1-0.3,0.5-0.4,0.7-0.2
		c0.3,0.1,0.4,0.5,0.2,0.7l-3.5,6.4C11.2,13.7,11.1,13.8,10.9,13.8z"/>
	<path class="st1" d="M21.6,13.8c-0.2,0-0.4-0.1-0.5-0.3l-3.5-6.4c-0.1-0.3,0-0.6,0.2-0.7c0.3-0.1,0.6,0,0.7,0.2L22,13
		c0.1,0.3,0,0.6-0.2,0.7C21.7,13.8,21.7,13.8,21.6,13.8z"/>
</g>
</svg>
