<svg width="48" height="48" xmlns="http://www.w3.org/2000/svg" xmlns:xlink="http://www.w3.org/1999/xlink"><defs><path id="a" d="M0 0h48v48H0z"/></defs><g fill="none" fill-rule="evenodd"><mask id="b" fill="#fff"><use xlink:href="#a"/></mask><g mask="url(#b)" stroke="#1D1D1B"><g transform="translate(15 7.215)"><rect fill="#FF5100" x="1" y="9" width="22" height="13" rx=".88"/><rect fill="#FF5100" y="5" width="24" height="5" rx=".8"/><path d="m9.135.5.2.01a2.823 2.823 0 0 1 1.816.872c.823.868.888 2.769.869 3.674-.922-.076-2.906-.313-4.047-1.004-.633-.383-1-.929-1.08-1.492a1.628 1.628 0 0 1 .592-1.502C7.995.636 8.667.454 9.335.51Z" fill="#FAB74B"/><path d="m14.865.5-.2.01a2.823 2.823 0 0 0-1.816.872c-.695.732-.829 2.216-.855 3.19.596.255.973.265 1.384.23.895-.076 1.94-.32 2.649-.75.633-.383 1-.929 1.08-1.492a1.628 1.628 0 0 0-.592-1.502c-.51-.422-1.182-.604-1.85-.548Z" fill="#FAB74B"/><path fill="#FAB74B" stroke-linejoin="round" d="M10 5h4v17h-4z"/></g></g><g mask="url(#b)"><g transform="translate(5 15)"><path fill="#FFF" d="m7.83 13.148 2.836 9.99h22.768l2.205-9.99z"/><path stroke="#1D1D1B" stroke-linecap="round" stroke-linejoin="round" d="M14.829 16.82h20.349M0 0h3.275a1.2 1.2 0 0 1 1.163.906l5.535 21.931a1.2 1.2 0 0 0 1.163.907h21.81a1.2 1.2 0 0 0 1.18-.975L36 12.965h0H7.781"/><ellipse stroke="#1D1D1B" fill="#FFF" stroke-linejoin="round" cx="15.765" cy="26.561" rx="2.425" ry="2.439"/><ellipse stroke="#1D1D1B" fill="#FFF" stroke-linejoin="round" cx="27.892" cy="26.561" rx="2.425" ry="2.439"/></g></g></g></svg>