<?xml version="1.0" encoding="UTF-8"?><svg id="_레이어_1" xmlns="http://www.w3.org/2000/svg" viewBox="0 0 30.44 30.7"><defs><style>.cls-1{fill:#fff;}.cls-2{fill:#ff6b06;}.cls-3{fill:#ffb177;}.cls-4{fill:#515151;}</style></defs><g><g><path class="cls-1" d="m29.89,12.77H.56v4.07c0,1.24.18,2.43.5,3.56v9.29h9.41c1.09.29,2.23.46,3.41.46h2.7c1.18,0,2.32-.17,3.41-.46h9.46v-9.51c.28-1.07.44-2.19.44-3.35v-4.07Z"/><path class="cls-4" d="m28.42,30.7H2.02c-1.12,0-2.02-.89-2.02-1.99v-15.95c0-.3.25-.55.56-.55h29.33c.31,0,.56.24.56.55v15.95c0,1.1-.91,1.99-2.02,1.99ZM1.11,13.31v15.4c0,.49.41.9.91.9h26.4c.5,0,.91-.4.91-.9v-15.4H1.11Z"/></g><g><polygon class="cls-1" points=".56 12.77 15.22 21.46 29.89 12.77 15.22 3.43 .56 12.77"/><path class="cls-4" d="m15.22,22.01c-.1,0-.2-.03-.29-.08L.27,13.23C.1,13.14,0,12.96,0,12.77c0-.19.09-.37.25-.47L14.92,2.97c.18-.12.42-.12.6,0l14.67,9.33c.16.1.26.28.25.47,0,.19-.1.36-.27.46l-14.67,8.69c-.09.05-.19.08-.29.08ZM1.61,12.75l13.62,8.07,13.62-8.07L15.22,4.08,1.61,12.75Z"/></g><g><polygon class="cls-1" points="25.25 .55 5.06 .55 5.06 15.46 15.16 21.41 25.25 15.46 25.25 .55"/><path class="cls-4" d="m15.16,21.96c-.1,0-.2-.03-.29-.08l-10.1-5.95c-.17-.1-.27-.28-.27-.47V.55c0-.3.25-.55.56-.55h20.2c.31,0,.56.24.56.55v14.91c0,.19-.1.37-.27.47l-10.1,5.95c-.09.05-.19.08-.29.08Zm-9.54-6.81l9.54,5.63,9.54-5.63V1.09H5.62v14.06Z"/></g><path class="cls-4" d="m3.49,28.2c-.17,0-.34-.08-.45-.22-.18-.24-.13-.59.12-.76l7.58-5.44c.25-.18.6-.13.78.12.18.24.13.59-.12.76l-7.58,5.44c-.1.07-.21.11-.33.11Z"/><path class="cls-4" d="m26.83,28.2c-.11,0-.23-.03-.33-.11l-7.58-5.44c-.25-.18-.3-.52-.12-.76.18-.24.53-.3.78-.12l7.58,5.44c.25.18.3.52.12.76-.11.15-.28.22-.45.22Z"/></g><g><path class="cls-2" d="m7.75,4.59h2.49v.72h-1.74v.76h1.6v.72h-1.6v.8h1.78v.72h-2.53v-3.72Z"/><path class="cls-2" d="m13.83,4.59l-1.32,3.72h-.81l-1.32-3.72h.85l.91,2.74.91-2.74h.79Z"/><path class="cls-2" d="m14.01,4.59h2.49v.72h-1.74v.76h1.6v.72h-1.6v.8h1.78v.72h-2.53v-3.72Z"/><path class="cls-2" d="m16.88,4.59h.63l1.67,2.24v-2.29h.75v3.72h-.63l-1.67-2.24v2.29h-.75v-3.72Z"/><path class="cls-2" d="m23.1,5.32h-1.09v2.99h-.75v-2.99h-1.09v-.74h2.93v.74Z"/></g><rect class="cls-3" x="7.81" y="10.41" width="14.86" height=".41"/><rect class="cls-3" x="7.81" y="12.47" width="14.86" height=".41"/><rect class="cls-3" x="7.81" y="14.52" width="14.86" height=".41"/></svg>