<?xml version="1.0" encoding="UTF-8"?><svg id="ICON" xmlns="http://www.w3.org/2000/svg" xmlns:xlink="http://www.w3.org/1999/xlink" viewBox="0 0 28.9 38.42"><defs><style>.cls-1{fill:#fff;}.cls-2{stroke:#ccc;stroke-linecap:round;stroke-linejoin:round;stroke-width:2px;}.cls-2,.cls-3{fill:none;}.cls-4{opacity:.5;}.cls-5{clip-path:url(#clippath-2);}.cls-6{clip-path:url(#clippath-1);}.cls-7{clip-path:url(#clippath);}.cls-8{fill:#ccc;}</style><clipPath id="clippath"><rect class="cls-3" y="0" width="28.9" height="38.42"/></clipPath><clipPath id="clippath-1"><rect class="cls-3" width="28.9" height="38.42"/></clipPath><clipPath id="clippath-2"><rect class="cls-3" x="1" y="14.2" width="10.43" height="10.43"/></clipPath></defs><g class="cls-7"><line class="cls-2" x1="10.38" y1="22.5" x2="22.68" y2="32.2"/><line class="cls-2" x1="22.68" y1="6.21" x2="10.38" y2="15.92"/><g class="cls-6"><circle class="cls-2" cx="6.21" cy="19.21" r="5.21"/><g class="cls-4"><g class="cls-5"><path class="cls-8" d="m11.43,19.41c0,2.88-2.33,5.21-5.21,5.21s-5.21-2.33-5.21-5.21,2.33-5.21,5.21-5.21,5.21,2.33,5.21,5.21"/></g></g><path class="cls-1" d="m27.9,6.21c0,2.88-2.33,5.21-5.21,5.21s-5.21-2.33-5.21-5.21,2.33-5.21,5.21-5.21,5.21,2.33,5.21,5.21"/><circle class="cls-2" cx="22.68" cy="6.21" r="5.21"/><path class="cls-1" d="m27.9,32.2c0-2.88-2.33-5.21-5.21-5.21s-5.21,2.33-5.21,5.21,2.33,5.21,5.21,5.21,5.21-2.33,5.21-5.21"/><circle class="cls-2" cx="22.68" cy="32.2" r="5.21"/></g></g></svg>