<?xml version="1.0" encoding="utf-8"?>
<!-- Generator: Adobe Illustrator 27.1.1, SVG Export Plug-In . SVG Version: 6.00 Build 0)  -->
<svg version="1.1" id="레이어_1" xmlns="http://www.w3.org/2000/svg" xmlns:xlink="http://www.w3.org/1999/xlink" x="0px"
	 y="0px" viewBox="0 0 64 64" style="enable-background:new 0 0 64 64;" xml:space="preserve">
<style type="text/css">
	.st0{fill:#B5B5B5;}
	.st1{fill-rule:evenodd;clip-rule:evenodd;fill:#B5B5B5;}
	.st2{fill-rule:evenodd;clip-rule:evenodd;fill:#FFFFFF;}
</style>
<g>
	<path class="st0" d="M31.5,20.9c-2.2,0-5.8-0.6-8-1.9c-1.6-0.9-2.7-2.5-2.9-4l0,0c-0.3-1.7,0.4-3.3,1.7-4.4
		c1.3-1.1,2.9-1.6,4.8-1.5c1.7,0.2,3.3,0.9,4.5,2.2c1.4,1.5,2.1,4,2.1,7.8v1.7l-1.7,0.1C31.9,20.8,31.7,20.9,31.5,20.9z M24.3,14.4
		c0.1,0.6,0.5,1.1,1.2,1.5c1.2,0.7,3.1,1.1,4.7,1.3c-0.2-2.3-0.7-3.1-1-3.5c-0.6-0.6-1.4-1-2.2-1.1c-0.8-0.1-1.6,0.2-2.1,0.6
		C24.4,13.5,24.2,13.9,24.3,14.4z"/>
	<path class="st0" d="M32.5,20.9c-0.2,0-0.4,0-0.6,0l-1.7-0.2V19c0-3.8,0.7-6.3,2.1-7.8c1.2-1.3,2.9-2,4.5-2.2
		c1.7-0.2,3.5,0.4,4.8,1.5l0,0c1.4,1.1,2,2.8,1.7,4.4s-1.3,3.1-2.9,4C38.2,20.3,34.6,20.9,32.5,20.9z M37.4,12.6c-0.1,0-0.2,0-0.3,0
		c-0.8,0.1-1.7,0.5-2.2,1.1c-0.4,0.4-0.8,1.2-1,3.5c1.6-0.2,3.5-0.6,4.7-1.3c0.6-0.4,1.1-0.9,1.2-1.5c0.1-0.5-0.1-0.8-0.5-1.1
		C38.8,12.8,38.1,12.6,37.4,12.6z"/>
	<g>
		<path class="st1" d="M48.5,32.1H15.5c-2.3,0-4.1,1.8-4.1,4.1v10.5c0,2.3,1.8,4.1,4.1,4.1h32.8c2.3,0,4.1-1.8,4.1-4.1V36.3
			C52.5,34,50.7,32.1,48.5,32.1z"/>
		<path class="st1" d="M50.3,19.1H13.7c-2.3,0-4.1,1.8-4.1,4.1v1.1c0,2.3,1.8,4.1,4.1,4.1h36.6c2.3,0,4.1-1.8,4.1-4.1v-1.1
			C54.3,21,52.5,19.1,50.3,19.1z"/>
		<path class="st2" d="M29.4,19.1h5.1v31.7h-5.1V19.1z"/>
	</g>
</g>
</svg>
