<?xml version="1.0" encoding="UTF-8"?><svg id="Layer_1" xmlns="http://www.w3.org/2000/svg" viewBox="0 0 14 14"><defs><style>.cls-1{fill:#fff;fill-rule:evenodd;}.cls-2{fill:#79aed6;stroke:#79aed6;}</style></defs><circle class="cls-2" cx="7" cy="7" r="6.5"/><path class="cls-1" d="M6.95,11.5c-.38,0-.75-.3-.75-.8s.38-.7.75-.7.75.3.75.8-.38.7-.75.7ZM7.6,7.6v1.2h-1.2v-2.3h1.1c.7,0,1.2-.6,1.1-1.3,0-.6-.5-1.1-1.1-1.1h-.7c-.7,0-1.2.5-1.2,1.2v.3h-1.2v-.3c0-1.3,1.1-2.3,2.4-2.3h.7c1.3,0,2.3,1.1,2.2,2.4,0,1.2-.9,2.2-2.1,2.2Z"/></svg>