<?xml version="1.0" encoding="utf-8"?>
<!-- Generator: Adobe Illustrator 27.1.1, SVG Export Plug-In . SVG Version: 6.00 Build 0)  -->
<svg version="1.1" id="레이어_1" xmlns="http://www.w3.org/2000/svg" xmlns:xlink="http://www.w3.org/1999/xlink" x="0px"
	 y="0px" viewBox="0 0 48 48" style="enable-background:new 0 0 48 48;" xml:space="preserve">
<style type="text/css">
	.st0{fill:#707070;}
	.st1{fill:#00C0AA;}
</style>
<g>
	<g>
		<path class="st0" d="M30.5,32.5H18.3c-0.3,0-0.6-0.2-0.8-0.5c-0.1-0.3-0.1-0.7,0.2-0.9l10.8-10.8H17.9c-0.5,0-0.8-0.4-0.8-0.8
			s0.4-0.8,0.8-0.8h12.6c0.3,0,0.6,0.2,0.8,0.5c0.1,0.3,0.1,0.7-0.2,0.9L20.3,30.8h10.2c0.5,0,0.8,0.4,0.8,0.8S31,32.5,30.5,32.5z"
			/>
		<path class="st0" d="M17.5,23.9c-2.5,0-4.4-2-4.4-4.4c0-2.5,2-4.4,4.4-4.4c2.5,0,4.4,2,4.4,4.4C21.9,21.9,19.9,23.9,17.5,23.9z
			 M17.5,16.7c-1.5,0-2.8,1.2-2.8,2.8c0,1.5,1.2,2.8,2.8,2.8s2.8-1.2,2.8-2.8C20.3,18,19,16.7,17.5,16.7z"/>
		<g>
			<circle class="st1" cx="30.5" cy="19.5" r="3.6"/>
			<path class="st0" d="M30.5,23.9c-2.5,0-4.4-2-4.4-4.4c0-2.5,2-4.4,4.4-4.4s4.4,2,4.4,4.4C35,21.9,33,23.9,30.5,23.9z M30.5,16.7
				c-1.5,0-2.8,1.2-2.8,2.8c0,1.5,1.2,2.8,2.8,2.8c1.5,0,2.8-1.2,2.8-2.8C33.3,18,32,16.7,30.5,16.7z"/>
		</g>
		<path class="st0" d="M17.5,36.1c-2.5,0-4.4-2-4.4-4.4s2-4.4,4.4-4.4c2.5,0,4.4,2,4.4,4.4S19.9,36.1,17.5,36.1z M17.5,28.9
			c-1.5,0-2.8,1.2-2.8,2.8s1.2,2.8,2.8,2.8s2.8-1.2,2.8-2.8S19,28.9,17.5,28.9z"/>
		<path class="st0" d="M30.5,36.1c-2.5,0-4.4-2-4.4-4.4s2-4.4,4.4-4.4s4.4,2,4.4,4.4S33,36.1,30.5,36.1z M30.5,28.9
			c-1.5,0-2.8,1.2-2.8,2.8s1.2,2.8,2.8,2.8c1.5,0,2.8-1.2,2.8-2.8S32,28.9,30.5,28.9z"/>
	</g>
	<g>
		<g>
			<g>
				<path class="st0" d="M35.6,48h-3.2c-0.5,0-0.8-0.4-0.8-0.8c0-0.5,0.4-0.8,0.8-0.8h3.2c1.5,0,2.7-1.2,2.7-2.7V4.3
					c0-1.5-1.2-2.7-2.7-2.7H12.4c-1.5,0-2.7,1.2-2.7,2.7v39.3c0,1.5,1.2,2.7,2.7,2.7h13.9c0.5,0,0.8,0.4,0.8,0.8
					c0,0.5-0.4,0.8-0.8,0.8H12.4C10,48,8,46.1,8,43.7V4.3C8,1.9,10,0,12.4,0h23.2C38,0,40,1.9,40,4.3v39.3C40,46.1,38,48,35.6,48z"
					/>
			</g>
		</g>
	</g>
	<circle class="st0" cx="24" cy="6.2" r="1.7"/>
</g>
</svg>
