<?xml version="1.0" encoding="UTF-8"?>
<svg id="Layer_1" data-name="Layer 1" xmlns="http://www.w3.org/2000/svg" viewBox="0 0 56 56">
  <defs>
    <style>
      .cls-1 {
        fill: #fff;
        fill-rule: evenodd;
      }

      .cls-2 {
        isolation: isolate;
      }

      .cls-3 {
        fill: #0c071d;
      }
    </style>
  </defs>
  <g>
    <circle id="a" class="cls-3" cx="28" cy="28" r="28"/>
    <path class="cls-1" d="m28,12.3c8.7,0,15.7,7,15.7,15.7s-7,15.7-15.7,15.7c-2.6,0-5.2-.7-7.5-1.9l-3.1,1.5c-.3.2-.7,0-.9-.3-.1-.1-.1-.3,0-.5l.8-3c-3.2-3-5.1-7.1-5.1-11.5.1-8.7,7.1-15.7,15.8-15.7Z"/>
  </g>
  <g class="cls-2">
    <path d="m17.6,26.3c-1,0-1.56.76-1.56,2.05,0,1.35.58,2.05,1.55,2.05.73,0,1.19-.39,1.29-1.04l1.92.02c-.1,1.23-1.18,2.67-3.25,2.67s-3.46-1.31-3.46-3.7c0-2.4,1.53-3.7,3.46-3.7,1.8,0,3.09,1,3.25,2.78h-1.92c-.06-.68-.52-1.12-1.28-1.12Z"/>
    <path d="m21.73,24.74h1.89v2.84h2.66v-2.84h1.9v7.2h-1.9v-2.83h-2.66v2.83h-1.89v-7.2Z"/>
    <path d="m28.88,31.95l2.4-7.2h2.58l2.39,7.2h-2.04l-.43-1.41h-2.41l-.43,1.41h-2.05Zm4.45-2.85l-.74-2.42h-.06l-.74,2.42h1.54Z"/>
    <path d="m35.85,24.74h6.21v1.53h-2.17v5.67h-1.87v-5.67h-2.17v-1.53Z"/>
  </g>
</svg>