<svg width="50" height="50" xmlns="http://www.w3.org/2000/svg" xmlns:xlink="http://www.w3.org/1999/xlink"><defs><filter x="-125%" y="-50%" width="350%" height="225%" filterUnits="objectBoundingBox" id="a"><feOffset dy="1" in="SourceAlpha" result="shadowOffsetOuter1"/><feGaussianBlur stdDeviation="1.5" in="shadowOffsetOuter1" result="shadowBlurOuter1"/><feColorMatrix values="0 0 0 0 0 0 0 0 0 0 0 0 0 0 0 0 0 0 0.166165865 0" in="shadowBlurOuter1"/></filter><filter x="-15.6%" y="-14.8%" width="131.2%" height="137.1%" filterUnits="objectBoundingBox" id="d"><feOffset dy="1" in="SourceAlpha" result="shadowOffsetOuter1"/><feGaussianBlur stdDeviation="1.5" in="shadowOffsetOuter1" result="shadowBlurOuter1"/><feColorMatrix values="0 0 0 0 0 0 0 0 0 0 0 0 0 0 0 0 0 0 0.166165865 0" in="shadowBlurOuter1"/></filter><path d="M2 0a2 2 0 0 1 .8 3.834V7.5a.5.5 0 0 1-.5.5h-.5a.5.5 0 0 1-.5-.5V3.874A2 2 0 0 1 2 0z" id="b"/><path d="M19 0a1 1 0 0 1 1 1h2c5.523 0 10 4.477 10 10v4c0 5.523-4.477 10-10 10H10c-.776 0-1.53-.088-2.256-.255l-4.253 2.142a.572.572 0 0 1-.826-.573l.018-.092.975-3.49A9.98 9.98 0 0 1 0 15v-4C0 5.477 4.477 1 10 1h2a1 1 0 0 1 1-1h6z" id="e"/><radialGradient cx="50%" cy="50.717%" fx="50%" fy="50.717%" r="66.987%" gradientTransform="matrix(0 1 -.84213 0 .927 .007)" id="f"><stop stop-color="#FFF" offset="0%"/><stop stop-color="#93FFF2" offset="100%"/></radialGradient><linearGradient x1="50%" y1="-54.888%" x2="50%" y2="117.704%" id="c"><stop stop-color="#FFF" offset="0%"/><stop stop-color="#93FFF2" offset="100%"/></linearGradient></defs><g fill="none" fill-rule="evenodd"><circle fill="#00C0AA" cx="25" cy="25" r="25"/><g transform="translate(23 7)"><use fill="#000" filter="url(#a)" xlink:href="#b"/><use fill="url(#c)" xlink:href="#b"/></g><g transform="translate(9 13)"><use fill="#000" filter="url(#d)" xlink:href="#e"/><use fill="url(#f)" xlink:href="#e"/></g><rect fill="#3C3C3C" x="14" y="20" width="22" height="12" rx="5.5"/><circle fill="#FFF" cx="29.5" cy="24.5" r="1.5"/><circle fill="#FFF" cx="20.5" cy="24.5" r="1.5"/><path d="M22.223 28.224c.637-.287 4.802-.31 5.517 0 .716.309 0 1.276-2.743 1.276-2.744 0-3.41-.99-2.774-1.276z" fill="#FFF"/></g></svg>