<svg width="40" height="40" xmlns="http://www.w3.org/2000/svg" xmlns:xlink="http://www.w3.org/1999/xlink"><defs><path id="a" d="M0 0h40v40H0z"/></defs><g fill="none" fill-rule="evenodd"><mask id="b" fill="#fff"><use xlink:href="#a"/></mask><g mask="url(#b)"><g transform="translate(11 4)"><path d="M1.5.5h15A1.5 1.5 0 0 1 18 2v1.5H0V2A1.5 1.5 0 0 1 1.5.5zm0 31h15A1.5 1.5 0 0 0 18 30v-1.5H0V30a1.5 1.5 0 0 0 1.5 1.5z" fill="#A0A0A0"/><rect stroke="#1D1D1B" width="18" height="32" rx="2.158"/><path fill="#FFF" d="M.5 3.5h17v25H.5z"/><circle fill="#1D1D1B" cx="9" cy="30" r="1"/><rect fill="#1D1D1B" x="6" y="1.5" width="6" height="1" rx=".5"/></g></g><g stroke="#1D1D1B" fill="#00C0AA" mask="url(#b)" stroke-linejoin="round"><path d="M20 21.5a1.5 1.5 0 1 0 0-3 1.5 1.5 0 0 0 0 3zm5.5 0a1.5 1.5 0 1 0 0-3 1.5 1.5 0 0 0 0 3zm-11 0a1.5 1.5 0 1 0 0-3 1.5 1.5 0 0 0 0 3z"/></g></g></svg>