<?xml version="1.0" encoding="utf-8"?>
<!-- Generator: Adobe Illustrator 27.1.1, SVG Export Plug-In . SVG Version: 6.00 Build 0)  -->
<svg version="1.1" id="레이어_1" xmlns="http://www.w3.org/2000/svg" xmlns:xlink="http://www.w3.org/1999/xlink" x="0px"
	 y="0px" viewBox="0 0 64 64" style="enable-background:new 0 0 64 64;" xml:space="preserve">
<style type="text/css">
	.st0{fill-rule:evenodd;clip-rule:evenodd;fill:#B5B5B5;}
	.st1{fill:#FFFFFF;}
</style>
<g>
	<path class="st0" d="M14.5,16.3h35c1.9,0,3.5,1.6,3.5,3.5v24.4c0,1.9-1.6,3.5-3.5,3.5h-35c-1.9,0-3.5-1.6-3.5-3.5V19.8
		C11,17.8,12.6,16.3,14.5,16.3z"/>
	<path class="st1" d="M32,35.1c-0.6,0-1.2-0.2-1.7-0.5l-13.3-8.3c-0.8-0.5-1-1.5-0.6-2.3c0.5-0.8,1.5-1,2.3-0.6L32,31.6l13-8.2
		c0.8-0.5,1.8-0.3,2.3,0.5c0.5,0.8,0.3,1.8-0.5,2.3l-13.1,8.2C33.2,35,32.6,35.1,32,35.1z"/>
</g>
</svg>
