<?xml version="1.0" encoding="UTF-8"?><svg id="Layer_1" xmlns="http://www.w3.org/2000/svg" viewBox="0 0 29.71 42.96"><defs><style>.cls-1{opacity:.5;}.cls-1,.cls-2{fill:#ccc;}.cls-3{fill:none;}</style></defs><path class="cls-3" d="m.95,3.17S1.47,1.17,3.01,1.1s18.06,0,18.06,0l7.48,7.42v31.74s-.97,2.13-2.52,1.94H2.88s-1.61-.45-1.94-2.19V3.17Z"/><rect class="cls-1" x="6.56" y="19.88" width="17" height="17"/><g><path class="cls-2" d="m28.84,6.79L22.92.87c-.56-.56-1.31-.87-2.1-.87H2.97C1.33,0,0,1.33,0,2.97v37.03c0,1.64,1.33,2.97,2.97,2.97h23.77c1.64,0,2.97-1.33,2.97-2.97V8.89c0-.79-.31-1.54-.87-2.1Zm-1.11,33.21c0,.55-.44.99-.99.99H2.97c-.55,0-.99-.44-.99-.99V2.97c0-.55.44-.99.99-.99h17.85c.26,0,.51.1.7.29l5.92,5.92c.19.19.29.44.29.7v31.11Z"/><path class="cls-2" d="m21.79,18.4H7.91c-1.64,0-2.97,1.33-2.97,2.97v13.68c0,1.64,1.33,2.97,2.97,2.97h13.88c1.64,0,2.97-1.33,2.97-2.97v-13.68c0-1.64-1.33-2.97-2.97-2.97Zm-9.8,11.5h4.7v6.14h-4.7v-6.14Zm4.7-1.98h-4.7v-7.54h4.7v7.54Zm-8.77-7.54h2.1v4.44h-3.09v-3.45c0-.55.44-.99.99-.99Zm-.99,14.67v-8.25h3.09v9.24h-2.1c-.55,0-.99-.44-.99-.99Zm15.86,0c0,.55-.44.99-.99.99h-3.13v-15.66h3.13c.55,0,.99.44.99.99v13.68Z"/></g></svg>