<svg width="58" height="58" xmlns="http://www.w3.org/2000/svg"><g fill="none" fill-rule="evenodd"><circle fill="#F6F6F6" cx="28.8" cy="28.8" r="28.8"/><g transform="translate(19.8 18)"><rect stroke="#666" stroke-width="1.8" x=".9" y=".9" width="16.2" height="17.1" rx="1.8"/><path d="M16.2 21.6H3.6a2.7 2.7 0 0 1-2.7-2.7V18h15.3" stroke="#666" stroke-width="1.8" stroke-linecap="round"/><path d="M9.153 11.785c.524 0 .949.403.949.901s-.425.902-.95.902c-.524 0-.949-.404-.949-.902s.425-.901.95-.901ZM9.094 5.4c1.085 0 2.015.515 2.46 1.362.427.81.35 1.747-.193 2.447-.349.46-.717.699-.969.864-.29.184-.387.258-.426.681a.456.456 0 0 1-.465.405h-.639a.497.497 0 0 1-.349-.147c-.077-.092-.135-.203-.116-.331.078-1.086.542-1.472 1.085-1.84.213-.148.407-.276.6-.534a.81.81 0 0 0 .059-.883c-.117-.202-.388-.534-1.066-.534-.891 0-1.162.516-1.24.939-.038.22-.232.368-.465.368h-.639c-.136 0-.271-.056-.31-.148a.394.394 0 0 1-.116-.35C6.46 6.634 7.293 5.4 9.095 5.4Z" fill="#666"/></g></g></svg>