<svg width="48" height="48" xmlns="http://www.w3.org/2000/svg" xmlns:xlink="http://www.w3.org/1999/xlink"><defs><path id="a" d="M0 0h48v48H0z"/></defs><g fill="none" fill-rule="evenodd"><mask id="b" fill="#fff"><use xlink:href="#a"/></mask><g mask="url(#b)"><g transform="translate(7.99 7.004)"><ellipse stroke="#1D1D1B" cx="30.287" cy="3.485" rx="1.067" ry="1.077"/><path d="m1.73 7.05 18.762-5.076a1.75 1.75 0 0 1 1.402.216l6.561 4.21a1.75 1.75 0 0 1 .61 2.276l-3.605 6.972a1.75 1.75 0 0 1-1.098.886L5.61 21.607a1.75 1.75 0 0 1-2.148-1.24L.495 9.187A1.75 1.75 0 0 1 1.729 7.05z" stroke="#1D1D1B" fill="#FFF"/><path d="m1.847 7.505 2.494-.674 3.623 13.651-2.483.672a1.264 1.264 0 0 1-1.551-.896L.955 9.05a1.264 1.264 0 0 1 .892-1.544z" fill="#FAB74B"/><path d="M2.564 21.445 17.83 6.032a1.944 1.944 0 0 1 1.492-.572l8.813.503a1.944 1.944 0 0 1 1.83 1.832l.5 8.934a1.94 1.94 0 0 1-.56 1.477L14.658 33.601a1.944 1.944 0 0 1-2.763 0l-9.33-9.42a1.944 1.944 0 0 1 0-2.736z" stroke="#1D1D1B" fill="#FFF"/><path d="M15.51 24.342a2.38 2.38 0 0 0 .55-.821 1.62 1.62 0 0 0 .097-.877 1.418 1.418 0 0 0-.413-.77c-.288-.288-.608-.448-.96-.48-.351-.03-.754.097-1.206.384a7.631 7.631 0 0 1-.69.399 1.09 1.09 0 0 1-.426.128.404.404 0 0 1-.308-.128.442.442 0 0 1-.126-.413c.03-.162.129-.329.298-.498.178-.178.365-.276.561-.294a.8.8 0 0 1 .567.181l.772-.772a1.681 1.681 0 0 0-.807-.417 1.732 1.732 0 0 0-.9.057 2.07 2.07 0 0 0-.82.518 2.54 2.54 0 0 0-.563.817 1.61 1.61 0 0 0-.124.85c.038.276.164.521.378.735.33.33.678.492 1.045.487.367-.005.777-.157 1.23-.455.25-.166.454-.286.615-.357a.88.88 0 0 1 .415-.095.5.5 0 0 1 .316.156.487.487 0 0 1 .14.44.877.877 0 0 1-.269.49c-.21.212-.435.33-.673.358a.867.867 0 0 1-.653-.189l-.768.768a1.8 1.8 0 0 0 .875.461c.317.063.636.036.956-.079.32-.115.617-.31.891-.584zm1.958-2.136-.47-.937 1.299-1.298.937.47.834-.835-4.927-2.33-.776.776 2.331 4.926.772-.772zm-.105-2.709-.838.838-.845-1.683 1.683.845zm5.233-2.418-.717-.717-1.672 1.671-2.912-2.912-.747.748 3.629 3.629 2.419-2.42zm2.675-2.676-.703-.704-1.779 1.779-.779-.78 1.598-1.597-.704-.704-1.597 1.598-.74-.739 1.742-1.741-.703-.704-2.49 2.489 3.63 3.629 2.525-2.526z" fill="#1D1D1B" fill-rule="nonzero"/><path d="m2.89 21.824 2.064-2.083 11.362 11.478-2.03 2.068a1.404 1.404 0 0 1-2 .005L2.89 23.8a1.404 1.404 0 0 1 0-1.976z" fill="#E73939"/><path d="M29.52 6.55c1.355-.153 1.967-1.19 1.834-3.11m0-.24c.375-1.504-.13-2.6-1.559-2.913" stroke="#1D1D1B" stroke-linecap="round" stroke-linejoin="round"/></g></g></g></svg>