<svg width="64" height="64" xmlns="http://www.w3.org/2000/svg" xmlns:xlink="http://www.w3.org/1999/xlink"><defs><path id="a" d="M0 0h64v64H0z"/></defs><g fill="none" fill-rule="evenodd"><mask id="b" fill="#fff"><use xlink:href="#a"/></mask><path d="M32 9c12.703 0 23 10.297 23 23 0 12.505-9.98 22.679-22.409 22.993l.017.007-.516-.001L32 55l-.002-.001L15.699 55c-1.528 0-2.767-1.258-2.767-2.81l-.018-7.351-.26-.396A22.892 22.892 0 0 1 9 32C9 19.297 19.297 9 32 9z" stroke="#1D1D1B" stroke-width="2" fill="#7324DA" stroke-linecap="round" stroke-linejoin="round" mask="url(#b)"/><path d="M27.371 37.166c.523 0 1-.083 1.431-.249a3.404 3.404 0 0 0 1.12-.69 2.978 2.978 0 0 0 .956-2.175c0-.337-.06-.65-.18-.94a2.45 2.45 0 0 0-.534-.794 3.66 3.66 0 0 0-.873-.637 3.83 3.83 0 0 0 .826-.927c.193-.316.29-.696.29-1.138a2.194 2.194 0 0 0-.79-1.713 2.746 2.746 0 0 0-.924-.509 3.722 3.722 0 0 0-1.175-.176c-.492 0-.937.07-1.335.21a3.065 3.065 0 0 0-1 .554 2.66 2.66 0 0 0-.61.727c-.14.255-.21.497-.21.727 0 .24.074.43.223.575a.688.688 0 0 0 .488.216c.15 0 .283-.027.398-.08a.467.467 0 0 0 .24-.22c.075-.172.158-.356.248-.55.091-.195.187-.355.29-.479.101-.124.24-.223.414-.298a1.69 1.69 0 0 1 .668-.113c.398 0 .715.123.95.368.234.246.351.54.351.88 0 .447-.147.79-.441 1.03a1.62 1.62 0 0 1-1.053.358h-.272c-.315 0-.551.065-.71.196a.633.633 0 0 0-.24.515c0 .217.067.386.2.508.132.121.32.182.564.182.053 0 .172-.009.358-.026a4.82 4.82 0 0 1 .412-.027c.505 0 .899.147 1.182.442.283.294.425.7.425 1.218 0 .35-.083.658-.249.923a1.672 1.672 0 0 1-1.424.804c-.478 0-.85-.15-1.113-.448-.263-.3-.51-.756-.74-1.372a.517.517 0 0 0-.226-.262.66.66 0 0 0-.358-.11.868.868 0 0 0-.621.236.815.815 0 0 0-.25.621c0 .2.07.452.21.757a3.25 3.25 0 0 0 1.657 1.6c.42.19.896.286 1.427.286zm9.416 0c.641 0 1.235-.073 1.78-.22a7.885 7.885 0 0 0 1.7-.696c.203-.111.37-.226.5-.346a.955.955 0 0 0 .27-.401c.048-.149.073-.347.073-.595v-1.866c0-.336-.06-.589-.176-.757a.787.787 0 0 0-.462-.325 2.855 2.855 0 0 0-.697-.073h-2.238c-.27 0-.484.07-.64.212a.693.693 0 0 0-.237.538c0 .266.094.454.283.565.188.11.466.166.833.166h1.527v1.58a6.508 6.508 0 0 1-1.218.511c-.4.12-.83.18-1.285.18-.939 0-1.67-.308-2.195-.923-.525-.616-.787-1.495-.787-2.637 0-.527.068-1.007.203-1.44.135-.435.33-.8.584-1.1.255-.299.561-.527.92-.684a3.016 3.016 0 0 1 1.222-.235c.442 0 .807.066 1.092.199.286.133.512.296.68.491.169.195.375.483.618.863a.927.927 0 0 0 1.398.117.844.844 0 0 0 .276-.635c0-.23-.08-.493-.24-.79a2.946 2.946 0 0 0-.71-.843c-.314-.266-.724-.486-1.228-.66-.505-.176-1.085-.263-1.74-.263-.797 0-1.51.116-2.139.348a4.372 4.372 0 0 0-1.6 1.007c-.438.438-.77.971-.996 1.6a6.11 6.11 0 0 0-.339 2.078c0 .77.117 1.468.349 2.092a4.427 4.427 0 0 0 1 1.594c.433.438.958.772 1.573 1.003.616.23 1.297.345 2.046.345z" fill="#FFF" fill-rule="nonzero" mask="url(#b)"/></g></svg>