<svg width="58" height="58" xmlns="http://www.w3.org/2000/svg"><g fill="none" fill-rule="evenodd"><circle fill="#F6F6F6" cx="28.8" cy="28.8" r="28.8"/><path d="M32.892 35.113a8.296 8.296 0 0 0-4.632-15.58 8.294 8.294 0 0 0-1.043 16.368m-2.179-.684c-2.328 1.746-3.783 3.492-4.365 5.238m17.863 1.236c-.49-2.918-2.006-5.132-4.547-6.641" stroke="#666" stroke-width="1.8" stroke-linecap="round"/><path d="M29.05 27.422a.77.77 0 0 1 1.118.196.893.893 0 0 1-.184 1.193c-.856.655-1.722.889-2.504.889-1.133 0-2.091-.492-2.592-.912a.894.894 0 0 1-.135-1.2.767.767 0 0 1 1.12-.148c.16.129 1.577 1.207 3.177-.018ZM25.242 23.4c.519 0 .941.451.941 1.006 0 .554-.422 1.005-.941 1.005-.52 0-.942-.45-.942-1.005 0-.555.422-1.006.942-1.006Zm4.416 0c.52 0 .942.451.942 1.006 0 .554-.422 1.005-.942 1.005s-.942-.45-.942-1.005c0-.555.423-1.006.942-1.006Zm-6.004-7.974a.864.864 0 0 0 1.565-.728l-1.117-2.402a.864.864 0 0 0-1.565.727l1.117 2.403Zm.859 1.724a.87.87 0 0 0 .253.61c.161.16.386.253.61.253a.875.875 0 0 0 .61-.254.876.876 0 0 0 .253-.61.866.866 0 0 0-.253-.61.89.89 0 0 0-1.22 0 .862.862 0 0 0-.253.61Zm4.13-.863a.872.872 0 0 0-.253.61.86.86 0 0 0 1.472.61.87.87 0 0 0 .254-.61.871.871 0 0 0-.253-.61c-.322-.323-.903-.323-1.22 0Zm.073-3.107a.862.862 0 0 0 .745-.967c-.03-.232.009-.385.114-.455.141-.094.432-.106.67.035.206.122.296.314.274.586-.026.318-.188.453-.68.789-.435.297-.978.667-1.249 1.361a.863.863 0 1 0 1.608.628c.072-.187.28-.336.614-.564.53-.361 1.333-.908 1.427-2.076.074-.926-.343-1.753-1.115-2.21-.783-.462-1.787-.459-2.498.01-.673.443-.992 1.214-.876 2.116.06.473.496.806.966.746Zm4.944 3.224a.86.86 0 0 0 1.206-.185l1.684-2.295a.863.863 0 1 0-1.39-1.021l-1.685 2.295a.863.863 0 0 0 .184 1.206Z" fill="#666" fill-rule="nonzero"/></g></svg>