<?xml version="1.0" encoding="utf-8"?>
<!-- Generator: Adobe Illustrator 27.1.1, SVG Export Plug-In . SVG Version: 6.00 Build 0)  -->
<svg version="1.1" id="레이어_1" xmlns="http://www.w3.org/2000/svg" xmlns:xlink="http://www.w3.org/1999/xlink" x="0px"
	 y="0px" viewBox="0 0 24 24" style="enable-background:new 0 0 24 24;" xml:space="preserve">
<style type="text/css">
	.st0{filter:url(#Adobe_OpacityMaskFilter);}
	.st1{fill-rule:evenodd;clip-rule:evenodd;fill:#FFFFFF;}
	
		.st2{mask:url(#b_00000116940954252271551240000008051007080363930784_);fill-rule:evenodd;clip-rule:evenodd;fill:#CCCCCC;stroke:#CCCCCC;stroke-linecap:round;stroke-linejoin:round;}
</style>
<g>
	<defs>
		<filter id="Adobe_OpacityMaskFilter" filterUnits="userSpaceOnUse" x="5.5" y="5.5" width="13" height="13">
			<feColorMatrix  type="matrix" values="1 0 0 0 0  0 1 0 0 0  0 0 1 0 0  0 0 0 1 0"/>
		</filter>
	</defs>
	
		<mask maskUnits="userSpaceOnUse" x="5.5" y="5.5" width="13" height="13" id="b_00000116940954252271551240000008051007080363930784_">
		<g class="st0">
			<path id="a_00000106145020708155586500000004762284870388972161_" class="st1" d="M0,0h24v24H0V0z"/>
		</g>
	</mask>
	<path class="st2" d="M9.7,11c-0.1-0.1-0.1-0.2-0.1-0.3c0.6-0.3,1-0.5,1.1-0.6c0.2-0.1,0.4-0.4,0.2-1c-0.2-0.6-1.3-2.4-2.2-3
		C7.7,5.5,6.1,7.8,6,8.8c0,0.9,0,1.4,1,3.1C7.7,13,8.6,14,9.5,14.9C11.9,17,13.7,18,15,18c2,0,3.7-1.9,2.8-2.9
		c-0.9-0.9-1.8-1.6-2.7-1.9c-0.6-0.3-1.1-0.1-1.3,0.5l-0.3,0.8c-1-0.6-1.6-1-1.9-1.3C10.7,12.5,10.1,11.8,9.7,11z"/>
</g>
</svg>
