<?xml version="1.0" encoding="utf-8"?>
<!-- Generator: Adobe Illustrator 27.1.1, SVG Export Plug-In . SVG Version: 6.00 Build 0)  -->
<svg version="1.1" id="레이어_1" xmlns="http://www.w3.org/2000/svg" xmlns:xlink="http://www.w3.org/1999/xlink" x="0px"
	 y="0px" viewBox="0 0 56 56" style="enable-background:new 0 0 56 56;" xml:space="preserve">
<style type="text/css">
	.st0{fill-rule:evenodd;clip-rule:evenodd;fill:#00C3BD;}
	.st1{fill:#FFFFFF;}
	.st2{fill-rule:evenodd;clip-rule:evenodd;fill:#FFB7AC;}
	.st3{fill:#471515;}
	.st4{fill-rule:evenodd;clip-rule:evenodd;fill:#471515;}
	.st5{opacity:0.599;}
	.st6{fill-rule:evenodd;clip-rule:evenodd;fill:#FF5252;}
	.st7{fill-rule:evenodd;clip-rule:evenodd;}
</style>
<circle id="a_00000103263997220808176420000012842225193356605592_" class="st0" cx="28" cy="28" r="28"/>
<path class="st1" d="M18,19.4v-3h3.1v3h1.5v-7.2h-1.5v3H18v-3h-1.5v7.2C16.6,19.4,18,19.4,18,19.4z M29.4,19.4v-1.2H26v-1.7h3.1
	v-1.2H26v-1.7h3.3v-1.2h-4.8v7.2h4.9V19.4z M35.8,19.4v-1.2h-3.1v-6h-1.5v7.2C31.2,19.4,35.8,19.4,35.8,19.4z M38.9,19.4v-2.3h1.3
	c0.5,0,0.9-0.1,1.2-0.2l0.2-0.1c0.4-0.2,0.7-0.5,0.9-0.9s0.3-0.8,0.3-1.3s-0.1-0.9-0.3-1.3c-0.2-0.4-0.5-0.7-0.9-0.9
	s-0.8-0.3-1.4-0.3h-2.8v7.2h1.5V19.4z M38.9,13.5h1c0.3,0,0.5,0.1,0.7,0.1c0.2,0.1,0.3,0.2,0.4,0.4c0.1,0.2,0.1,0.4,0.1,0.6
	c0,0.2,0,0.5-0.1,0.6c-0.1,0.2-0.3,0.3-0.4,0.4c-0.2,0.1-0.5,0.2-0.7,0.2h-1C38.9,15.9,38.9,13.5,38.9,13.5z"/>
<path class="st2" d="M28.8,26.5c-8.7,0-15.8,7.1-15.8,15.8v9.3c4.3,2.8,9.5,4.4,15,4.4c6.2,0,11.9-2,16.6-5.4v-8.3
	C44.6,33.6,37.6,26.5,28.8,26.5z"/>
<g>
	<g transform="translate(7.976 9.223)">
		<path class="st3" d="M19.3,41.9c-0.2,0-0.3-0.1-0.4-0.2c-0.2-0.2-0.2-0.5,0.1-0.7c0.6-0.4,1.3-1.7,1.1-5.2c0-0.3,0.2-0.5,0.5-0.5
			c0.3,0,0.5,0.2,0.5,0.5c0.2,3.3-0.3,5.3-1.6,6.1C19.5,41.9,19.4,41.9,19.3,41.9z"/>
		<path class="st4" d="M27.1,31.4L27.1,31.4c0.5,0,0.9,0.4,0.9,0.9v1.9c0,0.5-0.4,0.9-0.9,0.9l0,0c-0.5,0-0.9-0.4-0.9-0.9v-1.9
			C26.2,31.8,26.6,31.4,27.1,31.4z"/>
		<path class="st3" d="M25,27.6c-0.2,0-0.4-0.1-0.5-0.3c-0.1-0.3,0-0.6,0.3-0.7c0.6-0.2,1.2-0.4,1.8-0.4l0,0c0.6,0,1.1,0.1,1.7,0.3
			c0.3,0.1,0.4,0.4,0.3,0.7c-0.1,0.3-0.4,0.4-0.7,0.3c-0.4-0.2-0.9-0.3-1.3-0.2c-0.5,0-1,0.1-1.4,0.3C25.1,27.6,25,27.6,25,27.6z"/>
		<path class="st4" d="M13.9,31.4L13.9,31.4c-0.5,0-0.9,0.4-0.9,0.9v1.9c0,0.5,0.4,0.9,0.9,0.9l0,0c0.5,0,0.9-0.4,0.9-0.9v-1.9
			C14.9,31.8,14.5,31.4,13.9,31.4z"/>
		<path class="st3" d="M16.2,27.6c-0.1,0-0.2,0-0.2-0.1c-0.5-0.2-1-0.3-1.5-0.3s-0.9,0.1-1.3,0.3c-0.3,0.1-0.6,0-0.7-0.3
			c-0.1-0.3,0-0.6,0.3-0.7c0.5-0.2,1.1-0.3,1.7-0.3c0.7,0,1.3,0.1,1.9,0.4c0.3,0.1,0.4,0.4,0.3,0.7C16.6,27.4,16.4,27.6,16.2,27.6z"
			/>
	</g>
</g>
<g class="st5">
	<g transform="translate(1.581 17.358)">
		<g>
			<circle class="st6" cx="16.2" cy="29.7" r="3.2"/>
		</g>
		<g>
			<circle class="st6" cx="38.3" cy="29.7" r="3.2"/>
		</g>
	</g>
</g>
<path d="M35.7,49.1c-4.6,0-5.6-4.2-5.6-5.8c0-1.1,0.4-4.5,6.1-4.5c1.8,0,3.2,0.5,4.1,1.6c1.1,1.3,1.2,3.1,1.1,3.9
	C41.1,45.3,40.2,49.1,35.7,49.1z M36.2,39.7c-4.5,0-5.2,2.2-5.2,3.6c0,1.4,0.8,4.9,4.7,4.9c3.6,0,4.4-2.9,4.6-4.1
	c0.1-0.5,0.1-2-0.8-3.1C38.8,40.1,37.7,39.7,36.2,39.7z M21.8,49.1c-4.4,0-5.4-3.7-5.6-4.9c-0.1-0.8-0.1-2.6,1.1-3.9
	c0.9-1,2.3-1.6,4.1-1.6c5.6,0,6.1,3.4,6.1,4.5C27.5,44.9,26.4,49.1,21.8,49.1z M21.4,39.7c-1.5,0-2.6,0.4-3.3,1.3
	c-0.9,1.1-0.9,2.6-0.8,3.1c0.2,1.2,1,4.1,4.6,4.1c3.9,0,4.7-3.5,4.7-4.9C26.5,41.9,25.9,39.7,21.4,39.7z"/>
<path class="st7" d="M39.8,40c0.1,0,0.2,0,0.3,0.1c0.9,0.8,1.7,1,2.1,1c0.6,0,0.8,0,0.8,0.2v0.4c0,0.1-0.1,0.1-0.2,0.1
	c-0.2,0-1.2,0.5-1.4,2c0,0.1,0,0,0,0.1L39.8,40L39.8,40z M17.8,40l-1.5,4c0-0.1,0,0,0-0.1c-0.2-1.5-1.2-1.9-1.4-2
	c-0.2,0-0.2-0.1-0.2-0.1v-0.4c0-0.2,0.1-0.2,0.8-0.2c0.4,0,1.2-0.2,2.1-1C17.6,40.1,17.7,40,17.8,40z M28.7,40.4
	c0.8,0,0.9,0.1,1.6,0.2c0.4,0.1,0.8,0,1.2-0.1l-1.1,1.6c-0.2-0.7-0.8-1.1-1.9-1.1c-1,0-1.5,0.4-1.5,1.1l-0.7-1.5c0.3,0,0.6,0,0.8,0
	C27.4,40.6,27.8,40.4,28.7,40.4L28.7,40.4z"/>
<g transform="translate(12.033 24.157)">
	<path id="i_00000082365610974544635150000013582898230856080569_" class="st4" d="M11.9,0.2c6.2-0.5,10.2,0.5,12,2.9
		C25,3,26.7,3,28.5,4c1.2,0.7,1.5,1.3,3.1,3c2.1,2.2,2.4,7.9,0.9,17.3c-0.8-4.6-1.3-7.4-1.6-8.4c-0.4-1.5-2.3-0.8-2.9-1.7
		c-0.6-0.9,0.1-3.5-1.3-5c-0.5-0.5-2.2-1.2-4.2-0.9h-0.3C16.8,6.6,8,7.7,6.7,9.2c-1.4,1.5-0.6,4.1-1.3,5c-0.6,0.9-2.5,0.1-2.9,1.7
		c-0.2,0.6-0.3,1.1-0.4,1.7L2,18c-0.3,1.5-0.7,3.5-1.1,6.3C-0.6,15-0.3,9.2,1.8,7c1-1,1.4-2,1.9-2.9l0.1-0.2C4.6,2,5.8,0.6,11.9,0.2
		L11.9,0.2z"/>
</g>
</svg>
