<?xml version="1.0" encoding="UTF-8"?><svg id="ICON" xmlns="http://www.w3.org/2000/svg" xmlns:xlink="http://www.w3.org/1999/xlink" viewBox="0 0 40.44 36.93"><defs><style>.cls-1{fill:#fff;}.cls-2{stroke:#ccc;stroke-linecap:round;stroke-linejoin:round;stroke-width:2px;}.cls-2,.cls-3{fill:none;}.cls-4{opacity:.5;}.cls-5{clip-path:url(#clippath-2);}.cls-6{clip-path:url(#clippath-1);}.cls-7{clip-path:url(#clippath);}.cls-8{fill:#ccc;}</style><clipPath id="clippath"><rect class="cls-3" y="0" width="40.44" height="36.93"/></clipPath><clipPath id="clippath-1"><rect class="cls-3" width="40.44" height="36.93"/></clipPath><clipPath id="clippath-2"><rect class="cls-3" x="13.57" y="6.19" width="25.87" height="30.13"/></clipPath></defs><g class="cls-7"><g class="cls-6"><path class="cls-2" d="m33.88,5.8h-14.75c-3.07,0-5.56,2.49-5.56,5.56v11.35c0,3.07,2.49,5.56,5.56,5.56h6.6l6.03,7.67v-7.67h2.12c3.07,0,5.56-2.49,5.56-5.56v-11.35c0-3.07-2.49-5.56-5.56-5.56Z"/><g class="cls-4"><g class="cls-5"><path class="cls-8" d="m33.88,6.19h-14.75c-3.07,0-5.56,2.49-5.56,5.56v11.35c0,3.07,2.49,5.56,5.56,5.56h6.6l6.03,7.67v-7.67h2.12c3.07,0,5.56-2.49,5.56-5.56v-11.35c0-3.07-2.49-5.56-5.56-5.56"/></g></g><path class="cls-1" d="m27.76,1H6.56C3.49,1,1,3.49,1,6.56v11.35c0,3.07,2.49,5.56,5.56,5.56h2.12v7.67l6.03-7.67h13.05c3.07,0,5.56-2.49,5.56-5.56V6.56c0-3.07-2.49-5.56-5.56-5.56"/><path class="cls-2" d="m27.76,1H6.56C3.49,1,1,3.49,1,6.56v11.35c0,3.07,2.49,5.56,5.56,5.56h2.12v7.67l6.03-7.67h13.05c3.07,0,5.56-2.49,5.56-5.56V6.56c0-3.07-2.49-5.56-5.56-5.56Z"/><line class="cls-2" x1="9.89" y1="12.23" x2="11.16" y2="12.23"/><line class="cls-2" x1="16.44" y1="12.23" x2="17.71" y2="12.23"/><line class="cls-2" x1="22.99" y1="12.23" x2="24.26" y2="12.23"/></g></g></svg>