<svg width="49" height="48" xmlns="http://www.w3.org/2000/svg"><g fill="none" fill-rule="evenodd"><path d="M.5 0h48v48H.5z"/><g stroke="#1D1D1B"><path d="M12.516 22.384a2.492 2.492 0 0 1 1.754-.763 2.488 2.488 0 0 1 1.774.695l8.748 8.742a2.49 2.49 0 0 1 .732 1.746 2.493 2.493 0 0 1-.701 1.759L23.434 36a2.492 2.492 0 0 1-1.755.763 2.488 2.488 0 0 1-1.774-.695l-8.747-8.742a2.493 2.493 0 0 1-.733-1.747 2.493 2.493 0 0 1 .702-1.758z" fill="#FFCE28"/><path d="M34.055 13.472 19.983 29.3a1 1 0 0 0 .742 1.664c.916.006 1.87-.345 2.862-1.051 1.038.993 2.989 2.258 1.196 4.591-.85 1.29 4.061-4.13 14.731-16.261a2 2 0 0 0-.196-2.836l-2.463-2.122a2 2 0 0 0-2.8.187z" fill="#FB735F"/></g></g></svg>