<svg width="50" height="50" xmlns="http://www.w3.org/2000/svg" xmlns:xlink="http://www.w3.org/1999/xlink"><defs><circle id="a" cx="25" cy="25" r="25"/></defs><g fill="none" fill-rule="evenodd"><mask id="b" fill="#fff"><use xlink:href="#a"/></mask><use fill="#0C071D" xlink:href="#a"/><g mask="url(#b)"><path d="M25 11c7.732 0 14 6.268 14 14s-6.268 14-14 14c-2.424 0-4.704-.616-6.692-1.7l-2.748 1.383a.572.572 0 0 1-.808-.665l.762-2.722A13.963 13.963 0 0 1 11 25c0-7.732 6.268-14 14-14z" fill="#FFF"/><path d="M21.65 29v-7.779h-1.888l-1.918 1.177v1.748l1.713-1.033h.046V29h2.047zm3.483-4.6a.996.996 0 0 0 .513-.14 1.066 1.066 0 0 0 .528-.9.99.99 0 0 0-.15-.515 1.096 1.096 0 0 0-.382-.376 1.037 1.037 0 0 0-1.035 0 1.04 1.04 0 0 0-.381.374.963.963 0 0 0-.137.516.99.99 0 0 0 .137.525 1.037 1.037 0 0 0 .908.517zm0 3.75a.996.996 0 0 0 .513-.141 1.066 1.066 0 0 0 .528-.9.99.99 0 0 0-.15-.515 1.096 1.096 0 0 0-.382-.376 1.037 1.037 0 0 0-1.035 0 1.04 1.04 0 0 0-.381.374.963.963 0 0 0-.137.516.99.99 0 0 0 .137.525 1.037 1.037 0 0 0 .908.517zm6.67.85v-7.779h-1.887l-1.918 1.177v1.748l1.713-1.033h.045V29h2.047z" fill="#0C071D" fill-rule="nonzero"/></g></g></svg>