<?xml version="1.0" encoding="utf-8"?>
<!-- Generator: Adobe Illustrator 27.1.1, SVG Export Plug-In . SVG Version: 6.00 Build 0)  -->
<svg version="1.1" id="레이어_1" xmlns="http://www.w3.org/2000/svg" xmlns:xlink="http://www.w3.org/1999/xlink" x="0px"
	 y="0px" viewBox="0 0 20 20" style="enable-background:new 0 0 20 20;" xml:space="preserve">
<style type="text/css">
	.st0{fill-rule:evenodd;clip-rule:evenodd;}
</style>
<g>
	<path class="st0" d="M7.9,6.8H5c1.8-2.8,5.4-3.6,8.1-1.7c1.7,1.1,2.7,2.9,2.7,5h1.1c0-3.8-3.1-6.9-6.9-6.9c-2,0-4,0.9-5.4,2.5V3.5
		H3.5v4.2h4.2v-1L7.9,6.8L7.9,6.8z M12.1,13.2H15c-1.8,2.8-5.4,3.6-8.1,1.7c-1.7-1-2.7-2.8-2.7-4.9H3.1c0,3.8,3.1,6.9,6.9,6.9
		c2,0,4-0.9,5.4-2.5v1.9h1.1v-4.2h-4.2C12.1,12.1,12.1,13.2,12.1,13.2z"/>
</g>
</svg>
