<?xml version="1.0" encoding="UTF-8"?><svg id="_타이틀" xmlns="http://www.w3.org/2000/svg" xmlns:xlink="http://www.w3.org/1999/xlink" viewBox="0 0 38.07 57.38"><defs><style>.cls-1{fill:#fff;}.cls-2{stroke:#ccc;stroke-linecap:round;stroke-linejoin:round;stroke-width:2px;}.cls-2,.cls-3{fill:none;}.cls-4{clip-path:url(#clippath);}.cls-5{fill:#ccc;}</style><clipPath id="clippath"><rect class="cls-3" width="38.07" height="57.38"/></clipPath></defs><g class="cls-4"><path class="cls-5" d="m24.35,2.11h-10.52c-.33,0-.65.02-.97.06-1.85-.18-3.68-.53-4.52-1.17,0,0-.15,1.37.17,2.97-2.4,1.86-3.98,4.94-3.98,8.43l.47,6.53c0,5.68,3.7,10.28,8.83,10.28h10.52c5.13,0,8.83-4.6,8.83-10.28l.47-6.53c0-5.68-4.16-10.28-9.29-10.28"/><path class="cls-2" d="m24.35,2.11h-10.52c-.33,0-.65.02-.97.06-1.85-.18-3.68-.53-4.52-1.17,0,0-.15,1.37.17,2.97-2.4,1.86-3.98,4.94-3.98,8.43l.47,6.53c0,5.68,3.7,10.28,8.83,10.28h10.52c5.13,0,8.83-4.6,8.83-10.28l.47-6.53c0-5.68-4.16-10.28-9.29-10.28Z"/><path class="cls-2" d="m37.07,56.38v-3.86c0-8.53-6.59-15.45-14.73-15.45h-6.62c-8.13,0-14.72,6.92-14.72,15.45v3.86h36.07Z"/><path class="cls-1" d="m23.99,37.26c0,2.08-2.22,3.76-4.95,3.76s-4.95-1.68-4.95-3.76v-14.26c0-2.08,2.22-3.76,4.95-3.76s4.95,1.69,4.95,3.76v14.26Z"/><path class="cls-2" d="m23.99,37.26c0,2.08-2.22,3.76-4.95,3.76s-4.95-1.68-4.95-3.76v-14.26c0-2.08,2.22-3.76,4.95-3.76s4.95,1.69,4.95,3.76v14.26Z"/><path class="cls-1" d="m9.76,22.41c.29,1.77-.65,3.4-2.09,3.63-1.44.24-2.85-1.01-3.14-2.78-.29-1.77.65-3.4,2.09-3.63s2.85,1.01,3.14,2.78"/><path class="cls-2" d="m9.76,22.41c.29,1.77-.65,3.4-2.09,3.63-1.44.24-2.85-1.01-3.14-2.78-.29-1.77.65-3.4,2.09-3.63s2.85,1.01,3.14,2.78Z"/><path class="cls-1" d="m28.31,22.41c-.29,1.77.65,3.4,2.09,3.63,1.44.24,2.85-1.01,3.14-2.78.29-1.77-.65-3.4-2.09-3.63-1.44-.24-2.85,1.01-3.14,2.78"/><path class="cls-2" d="m28.31,22.41c-.29,1.77.65,3.4,2.09,3.63,1.44.24,2.85-1.01,3.14-2.78.29-1.77-.65-3.4-2.09-3.63-1.44-.24-2.85,1.01-3.14,2.78Z"/><path class="cls-1" d="m27.76,14.83H10.43c-1.42,0-2.58,1.01-2.58,2.25v12.28c0,4.14,3.85,5.9,8.61,5.9h5.28c4.75,0,8.61-1.76,8.61-5.9v-12.28c0-1.24-1.16-2.25-2.58-2.25"/><path class="cls-2" d="m27.76,14.83H10.43c-1.42,0-2.58,1.01-2.58,2.25v12.28c0,4.14,3.85,5.9,8.61,5.9h5.28c4.75,0,8.61-1.76,8.61-5.9v-12.28c0-1.24-1.16-2.25-2.58-2.25Z"/><line class="cls-2" x1="14.53" y1="21.81" x2="14.53" y2="23.43"/><line class="cls-2" x1="23.77" y1="21.81" x2="23.77" y2="23.43"/></g></svg>