<?xml version="1.0" encoding="UTF-8"?><svg id="_레이어_1" xmlns="http://www.w3.org/2000/svg" viewBox="0 0 26.21 27.88"><defs><style>.cls-1{fill:#94e8ff;}.cls-2{fill:red;}.cls-3{fill:#0a5733;}.cls-4{fill:#fdc960;}.cls-5{fill:teal;}.cls-6{fill:#707070;}</style></defs><rect class="cls-4" x="20.76" y="9.35" width=".7" height="5.24" transform="translate(-2.28 18.43) rotate(-45)"/><path class="cls-4" d="M24.91,11.88c.17-.17.26-.38.26-.62s-.09-.45-.26-.62l-2.47-2.47c-.34-.34-.9-.34-1.24,0l-.96.96,3.71,3.71.96-.96Z"/><path class="cls-6" d="M11.31,21.54c-.03.09.02.16.05.19.03.03.1.08.19.05l1.08-.29-1.02-1.02-.29,1.07Z"/><rect class="cls-1" x="13.59" y="13.04" width="7.65" height="5.24" transform="translate(-5.98 16.9) rotate(-45)"/><polygon class="cls-4" points="13.79 21.17 15.55 20.69 12.39 17.53 11.91 19.3 12.85 20.23 13.79 21.17"/><path class="cls-2" d="M15.65,7.07s0,0,0,0c.03,0,.07-.01.1-.02-.04.01-.07.02-.11.02Z"/><path class="cls-2" d="M15.56,7.07s0,0,0,0c0,0,.02,0,.03,0-.01,0-.02,0-.03,0Z"/><path class="cls-2" d="M10.4,7.07s0,0,0,0c.03,0,.07-.01.1-.02-.04.01-.07.02-.11.02Z"/><polygon class="cls-2" points="3.06 2.3 3.06 2.3 3.06 2.3 3.06 2.3"/><path class="cls-2" d="M10.32,7.07s0,0,0,0c0,0,.02,0,.03,0-.01,0-.02,0-.03,0Z"/><polygon class="cls-2" points="8.3 2.3 8.3 2.3 8.3 2.3 8.3 2.3"/><path class="cls-2" d="M5.16,7.07s0,0,0,0c.03,0,.07-.01.1-.02-.04.01-.07.02-.11.02Z"/><path class="cls-2" d="M5.07,7.07s0,0,0,0c0,0,.02,0,.03,0-.01,0-.02,0-.03,0Z"/><path class="cls-3" d="M9.05,1.39s0,0,0,0c.02-.02.03-.03.05-.05-.02.02-.03.03-.05.05Z"/><polygon class="cls-3" points="13.73 2.18 13.73 2.18 13.73 2.18 13.73 2.18"/><polygon class="cls-3" points="13.67 2.23 13.67 2.23 13.67 2.23 13.67 2.23"/><polygon class="cls-3" points="13.56 2.3 13.55 2.3 13.54 2.3 13.56 2.3"/><path class="cls-3" d="M8.73,1.79s0-.01.01-.02c0,0,0,0,0-.01,0,.01-.01.02-.02.03Z"/><path class="cls-3" d="M8.28,2.31s.01,0,.02,0c0,0,0,0,0,0,0,0-.01,0-.02,0Z"/><path class="cls-3" d="M13.52,2.31s.01,0,.02,0h0s-.01,0-.02,0Z"/><path class="cls-3" d="M13.97,1.79s0,0,0,0c0,0,.01-.02.02-.03,0,.01-.01.02-.02.03Z"/><path class="cls-3" d="M14.3,1.39h0s.03-.03.05-.05c-.02.02-.03.03-.05.05Z"/><polygon class="cls-3" points="8.31 2.3 8.3 2.3 8.3 2.3 8.31 2.3"/><polygon class="cls-3" points="13.54 2.3 13.55 2.3 13.54 2.3 13.54 2.3"/><path class="cls-3" d="M3.04,2.31s.01,0,.02,0c0,0,0,0,0,0,0,0-.01,0-.02,0Z"/><path class="cls-5" d="M.07,25.18c0,.52-.1,1.19.09,1.69.34.9,1.2.91,2,.91h8.52c2.59,0,5.28.21,7.87,0,1.45-.12,1.44-1.34,1.44-2.47v-4.51c0-.67-1.05-.68-1.05,0v3.31c0,.66.35,2.34-.45,2.61-.54.19-1.49,0-2.06,0H4c-.69,0-1.68.19-2.35,0-.6-.17-.52-.48-.52-.99V6.7c0-.62-.15-1.45,0-2.05.26-1.04,3.06-.54,3.89-.54h1.11c-.13.95-.6,1.71-1.18,1.94-.21.08-.36.27-.36.5,0,.19.1.35.25.45,0,0-.01,0-.02-.01.02.01.03.02.05.03.02,0,.03.02.05.03,0,0,.02,0,.03,0,0,0,0,0,0,0,.02,0,.03,0,.05.01h0s0,0,0,0c.02,0,.03,0,.05.01.02,0,.03,0,.05,0,0,0,0,0,0,0,.01,0,.02,0,.03,0,0,0-.02,0-.03,0,0,0,.02,0,.03,0s.02,0,.03,0c0,0,.01,0,.02,0,0,0,.01,0,.02,0,0,0,0,0,0,0,.04,0,.07-.01.11-.02-.03.01-.07.02-.1.02.04,0,.07-.01.1-.02,0,0,0,0,0,0,1.01-.36,1.76-1.5,1.91-2.94h4.19c-.13.95-.6,1.71-1.18,1.94-.21.08-.36.27-.36.5,0,.19.1.35.25.45,0,0-.01,0-.02-.01.02.01.03.02.05.03.02,0,.03.02.05.03,0,0,.02,0,.03,0,0,0,0,0,0,0,.02,0,.03,0,.05.01h0s0,0,0,0c.02,0,.03,0,.05.01.02,0,.03,0,.05,0,0,0,0,0,0,0,.01,0,.02,0,.03,0,0,0-.02,0-.03,0,0,0,.02,0,.03,0,0,0,.02,0,.03,0,0,0,.01,0,.02,0,0,0,.01,0,.02,0,0,0,0,0,0,0,.04,0,.07-.01.11-.02-.03.01-.07.02-.1.02.03,0,.07-.01.1-.02,0,0,0,0,0,0,1.01-.36,1.76-1.5,1.91-2.94h2.4c.58,0,1.19-.03,1.79-.04-.12.97-.59,1.75-1.19,1.98-.21.08-.36.27-.36.5,0,.19.1.35.25.45,0,0-.01,0-.02-.01.02.01.03.02.05.03.02,0,.03.02.05.03,0,0,.02,0,.03,0,0,0,0,0,0,0,.02,0,.03,0,.05.01,0,0,0,0,0,0,.02,0,.03,0,.05.01.02,0,.03,0,.05,0,0,0,0,0,0,0,.01,0,.02,0,.03,0,0,0-.02,0-.03,0,0,0,.02,0,.02,0,0,0,.02,0,.03,0,0,0,.01,0,.02,0,0,0,.01,0,.02,0,0,0,0,0,0,0,.04,0,.07-.01.11-.02-.03.01-.07.02-.1.02.04,0,.07-.01.1-.02,0,0,0,0,0,0,1.01-.36,1.77-1.52,1.91-2.97.15,0,.29.02.44.03.34.03.4-.08.66.19.38.4.17,1.45.17,1.99,0,.67,1.05.68,1.05,0,0-1.19.32-2.94-1.25-3.21-.34-.06-.71-.06-1.07-.04-.19-1.74-1.26-3.04-2.59-3.04-.1,0-.21.01-.31.03,0,0,0,0,0,0,0,0-.02,0-.03,0-.03,0-.06.02-.09.02-.06.01-.12.03-.17.04-.01,0-.03,0-.04,0,0,0-.01,0-.02,0-.03.01-.06.03-.09.04-.05.02-.09.04-.14.06-.02,0-.04.02-.06.03,0,0-.02,0-.03.01-.02.01-.04.03-.06.04-.04.02-.08.05-.12.08-.04.02-.08.04-.11.07,0,0,0,0,0,0-.01,0-.02.02-.04.03,0,0,0,0,0,0-.04.03-.09.07-.13.11.04-.04.08-.07.12-.1-.07.05-.13.11-.2.17-.02.02-.04.04-.06.06-.05.05-.1.1-.14.16.03-.04.06-.07.09-.1-.05.05-.1.1-.14.16,0,0,0,0,0,0,0,0,0,0,0,0,0,0-.01.02-.02.02-.05.07-.1.13-.15.2.03-.04.06-.08.09-.12-.13.17-.25.36-.35.56-.17.35.09.76.47.76h0c.06,0,.12-.02.18-.04,0,0,0,0,0,0,0,0,0,0,.01,0,0,0,.02,0,.03-.01.01,0,.03-.01.04-.02,0,0,0,0,0,0,.02-.01.03-.02.05-.04.02-.01.04-.03.06-.05.01-.01.02-.02.04-.04.03-.03.05-.07.07-.11,0,0,0,0,0,0,.04-.08.08-.15.12-.22,0-.01.01-.02.02-.03,0,0,0,0,0,0,0-.01.01-.02.02-.03,0,0-.01.02-.02.03.04-.06.07-.11.11-.17,0,0,.01-.01.02-.02,0,0,0,0,0,0,.06-.07.11-.13.17-.19,0,0-.02.01-.02.02.01-.01.02-.02.03-.03h0s.03-.03.05-.05c-.02.02-.03.03-.05.05.06-.05.11-.1.17-.14,0,0,.01,0,.02-.01.13-.09.27-.15.4-.17.06-.01.12-.02.18-.02.74,0,1.38.88,1.54,2.01h-4.19c-.18-1.75-1.25-3.06-2.59-3.06-.1,0-.21.01-.31.03,0,0,0,0,0,0,0,0-.02,0-.03,0-.03,0-.06.02-.09.02-.06.01-.12.03-.17.04-.01,0-.03,0-.04,0,0,0-.01,0-.02,0-.03.01-.06.03-.09.04-.05.02-.09.04-.14.06-.02,0-.04.02-.06.03,0,0-.02,0-.03.01-.02.01-.04.03-.06.04-.04.02-.08.05-.12.08-.04.02-.08.04-.11.07,0,0,0,0,0,0-.01,0-.02.02-.04.03,0,0,0,0,0,0-.04.03-.09.07-.13.11.04-.04.08-.07.12-.1-.07.05-.13.11-.2.17-.02.02-.04.04-.06.06-.05.05-.1.1-.14.16.03-.04.06-.07.09-.1-.05.05-.1.1-.14.16,0,0,0,0,0,0,0,0,0,0,0,0,0,0-.01.02-.02.02-.05.07-.1.13-.15.2.03-.04.06-.08.09-.12-.13.17-.25.36-.35.56-.17.35.09.76.47.76h0c.06,0,.12-.02.18-.04,0,0,0,0,0,0,0,0,0,0,0,0,0,0,.02,0,.03-.01.01,0,.03-.01.04-.02,0,0,0,0,0,0,.02-.01.03-.02.05-.04,0,0,0,0,0,0,.02-.02.04-.03.06-.05.01-.01.02-.02.04-.04.03-.03.05-.07.07-.11,0,0,0,0,0,0,.04-.08.08-.15.12-.22,0-.02.02-.03.03-.05,0,0,0,.01-.01.02,0-.01.01-.02.02-.03,0,0,0,0,0,.01.03-.05.07-.1.1-.15,0,0,.01-.01.02-.02,0,0,0,0,0,0,.06-.07.11-.13.17-.19,0,0-.02.01-.02.02.01-.01.02-.02.04-.03,0,0,0,0,0,0,.02-.02.03-.03.05-.05-.02.01-.03.03-.05.05.06-.05.11-.1.17-.14,0,0,.01,0,.02-.01.13-.09.27-.15.4-.17.06-.01.12-.02.18-.02.74,0,1.38.88,1.54,2.01h-3.77c-.14,0-.28,0-.42,0-.18-1.75-1.25-3.05-2.59-3.05-.1,0-.21.01-.31.03,0,0,0,0,0,0,0,0-.02,0-.03,0-.03,0-.06.02-.09.02-.06.01-.12.03-.17.04-.01,0-.03,0-.04,0,0,0-.01,0-.02,0-.03.01-.06.03-.09.04-.05.02-.09.04-.14.06-.02,0-.04.02-.06.03,0,0-.02,0-.03.01-.02.01-.04.03-.06.04-.04.02-.08.05-.12.08-.04.02-.08.04-.11.07,0,0,0,0,0,0-.01,0-.02.02-.04.03,0,0,0,0,0,0-.04.03-.09.07-.13.11.04-.04.08-.07.12-.1-.07.05-.13.11-.2.17-.02.02-.04.04-.06.06-.05.05-.1.1-.14.16.03-.04.06-.07.09-.1-.05.05-.1.1-.14.16,0,0,0,0,0,0,0,0,0,0,0,0,0,0-.01.02-.02.02-.05.07-.1.13-.15.2.03-.04.06-.08.09-.12-.13.17-.25.36-.35.56-.17.35.09.76.47.76h0c.06,0,.12-.02.18-.04,0,0,0,0,0,0,0,0,0,0,0,0,0,0,.02,0,.03-.01.01,0,.03-.01.04-.02,0,0,0,0,0,0,.02-.01.03-.02.05-.04,0,0,0,0,0,0,.02-.02.04-.03.06-.05.01-.01.02-.02.04-.04.03-.03.05-.07.07-.11,0,0,0,0,0,0,.04-.08.08-.15.12-.22.01-.02.03-.04.04-.06.03-.05.06-.1.09-.14,0,0,.01-.01.02-.02,0,0,0,0,0,0,.06-.07.11-.13.17-.19,0,0-.01.01-.02.02.01-.01.02-.02.04-.03,0,0,0,0,0,0,.02-.02.03-.03.05-.05-.02.01-.03.03-.05.05.06-.05.11-.1.17-.14,0,0,.01,0,.02-.01.13-.09.27-.15.4-.17.06-.01.12-.02.18-.02.73,0,1.37.86,1.53,1.98-1.55-.05-3.14-.13-4.65.03C-.48,3.26.07,6.04.07,7.4v17.78Z"/><path class="cls-3" d="M3.81,1.39s0,0,0,0c.02-.02.03-.03.05-.05-.02.02-.03.03-.05.05Z"/><polygon class="cls-3" points="8.49 2.18 8.49 2.18 8.49 2.18 8.49 2.18"/><path class="cls-5" d="M10.37,11.88c-1.47,1.78-2.95,3.55-4.42,5.33-.79-1.03-1.57-2.05-2.36-3.08-.41-.53-1.32,0-.91.53.93,1.22,1.86,2.43,2.8,3.65.18.24.58.39.82.11,1.6-1.93,3.2-3.86,4.81-5.79.43-.52-.31-1.26-.74-.74Z"/><path class="cls-5" d="M11.69,16.43c-.08.09-.15.2-.18.32l-.46,1.69h0s-.76,2.82-.76,2.82c-.12.43,0,.88.32,1.2.24.24.55.37.87.37.11,0,.22-.01.33-.04l1.66-.45,2.86-.77h0c.12-.03.23-.1.32-.18.16-.02.32-.09.44-.21l8.56-8.56c.36-.36.56-.85.56-1.36s-.2-1-.56-1.36l-2.47-2.47c-.75-.75-1.97-.75-2.72,0l-8.56,8.56c-.12.12-.19.28-.21.44ZM11.54,21.78c-.09.03-.16-.02-.19-.05-.03-.03-.08-.09-.05-.19l.29-1.07,1.02,1.02-1.08.29ZM21.2,8.17c.34-.34.89-.34,1.24,0l2.47,2.47c.17.17.26.38.26.62s-.09.45-.26.62l-.96.96-3.71-3.71.96-.96ZM19.5,9.87l3.71,3.71-.49.49-3.71-3.71.49-.49ZM18.27,11.11l3.71,3.71-5.41,5.41-3.71-3.71,5.41-5.41ZM12.39,17.53l3.17,3.17-1.77.48-.94-.94-.94-.94.48-1.77Z"/><polygon class="cls-3" points="3.24 2.18 3.24 2.18 3.24 2.18 3.24 2.18"/><polygon class="cls-3" points="3.07 2.3 3.06 2.3 3.06 2.3 3.07 2.3"/></svg>