<svg width="32" height="32" xmlns="http://www.w3.org/2000/svg" xmlns:xlink="http://www.w3.org/1999/xlink"><defs><path id="a" d="M0 0h32v32H0z"/></defs><g fill="none" fill-rule="evenodd"><mask id="b" fill="#fff"><use xlink:href="#a"/></mask><g mask="url(#b)" stroke="#1D1D1B" stroke-linecap="round" stroke-linejoin="round"><path d="M11.413 14.694a2.14 2.14 0 0 1-.233-.576c1.057-.505 1.698-.831 1.924-.98.338-.222.678-.7.377-1.768-.302-1.07-2.323-4.258-3.927-5.223-1.604-.965-4.454 3.08-4.533 4.695-.08 1.615-.013 2.475 1.733 5.35 1.164 1.917 2.64 3.705 4.426 5.364C15.25 25.186 18.437 27 20.744 27c3.46 0 6.394-3.368 4.82-5.014-1.576-1.646-3.092-2.743-4.731-3.41-1.093-.445-1.87-.144-2.334.902l-.601 1.328c-1.678-1.019-2.804-1.798-3.378-2.337a15.843 15.843 0 0 1-3.107-3.775z" fill="#00C0AA"/><path d="M22.312 13.022c0-1.939-1.652-3.511-3.689-3.511M26 13.022C26 9.144 22.697 6 18.623 6"/></g></g></svg>