<svg width="49" height="48" xmlns="http://www.w3.org/2000/svg"><g transform="translate(.5)" fill="none" fill-rule="evenodd"><path d="M0 0h48v48H0z"/><path d="M27 9c5.523 0 10 4.477 10 10v.016A7.501 7.501 0 0 1 36.5 34h-25a7.5 7.5 0 0 1-2.472-14.583 6 6 0 0 1 8.91-4.65A10 10 0 0 1 27 9z" stroke="#1D1D1B" fill="#00C0AA"/><circle stroke="#1D1D1B" fill="#0573E8" stroke-linecap="round" stroke-linejoin="round" cx="32" cy="33" r="8"/><g stroke="#FFF" stroke-linecap="round" stroke-linejoin="round"><path d="M28 33.125v-1.05a2 2 0 0 1 2-2h3.93"/><path d="m32.668 28.446 1.721 1.63-1.747 1.654m3.358.993v1.05a2 2 0 0 1-2 2h-3.93 0"/><path d="m31.332 37.403-1.721-1.63 1.747-1.654"/></g></g></svg>