<svg width="70" height="20" xmlns="http://www.w3.org/2000/svg" xmlns:xlink="http://www.w3.org/1999/xlink"><defs><path id="a" d="M0 0h70v20H0z"/><path id="c" d="M0 0h10.447v13H0z"/><path id="e" d="M0 0h8.948v9.217H0z"/></defs><g fill="none" fill-rule="evenodd"><mask id="b" fill="#fff"><use xlink:href="#a"/></mask><use fill="#FFF" xlink:href="#a"/><g mask="url(#b)"><g transform="translate(0 3)"><mask id="d" fill="#fff"><use xlink:href="#c"/></mask><path d="M10.447 11.674v-6.1H5.346l.357 2.305h2.114v2.23c-.492.277-.97.403-1.641.403-2.1 0-3.157-1.655-3.157-4.012 0-2.344 1.02-3.941 3.123-3.941 1.254 0 2.329.472 3.245 1.07L9.794.927C8.823.362 7.57 0 6.07 0 2.31 0 0 2.63 0 6.517 0 10.386 2.136 13 6 13c1.677 0 3.177-.471 4.447-1.326" fill="#0070B8" mask="url(#d)"/></g><path d="M20.368 11.986c0-1.996-1.056-2.94-3.702-3.94-1.52-.598-1.857-.907-1.857-1.546 0-.58.442-.974 1.363-.974.932 0 2.08.36 3.173 1.012l.46-2.612c-1.062-.527-2.083-.836-3.672-.836-2.328 0-4.162 1.286-4.162 3.703 0 2.07 1.057 2.888 3.492 3.849 1.713.674 2.065 1.002 2.065 1.708 0 .744-.6 1.126-1.466 1.126-1.216 0-2.608-.473-3.863-1.16l-.44 2.649a9.768 9.768 0 0 0 4.25.94c2.42 0 4.359-1.195 4.359-3.919" fill="#0070B8"/><path d="M26.523 11.398c1.405-.95 3.312-2.187 3.312-4.54 0-2.586-2.127-3.762-4.105-3.762-2.949 0-4.138 2.412-4.306 2.789L23.7 6.98c.142-.262.775-1.304 1.833-1.304.685 0 1.352.578 1.352 1.476 0 .724-.792 1.27-1.779 1.962-1.564 1.097-3.509 2.461-3.509 5.265 0 .368.04.776.126 1.283h8.115V13.15h-5.005c0-.55.776-1.135 1.69-1.753" fill="#34BBD9"/><path d="M36.17 9.43c-.644 0-1.168-.54-1.168-1.203s.524-1.202 1.168-1.202c.645 0 1.17.54 1.17 1.202 0 .664-.525 1.203-1.17 1.203" fill="#FEFEFE"/><g transform="translate(31.052 6.783)"><mask id="f" fill="#fff"><use xlink:href="#e"/></mask><path d="M5.119 2.405c-.515 0-.934-.43-.934-.96s.419-.961.934-.961c.514 0 .934.43.934.96s-.42.961-.934.961M5.83.13A2.359 2.359 0 0 0 5.119 0c-.776 0-1.404.647-1.404 1.444 0 .543.28 1.006.72 1.262.194.112.688.265.827.342.59.324.991.964.991 1.701 0 1.065-.839 1.93-1.874 1.93-.982 0-1.788-.778-1.868-1.767L0 5.473c.409 2.134 2.237 3.744 4.431 3.744 2.495 0 4.517-2.08 4.517-4.648 0-2.066-1.306-3.833-3.117-4.44" fill="#34BBD9" mask="url(#f)"/></g><path d="m31.835 3.268-.494 5.803h2.526l.322-3.297h2.902c1.717 0 2.341-1.432 2.341-2.506h-7.597z" fill="#34BBD9"/></g></g></svg>