<?xml version="1.0" encoding="utf-8"?>
<!-- Generator: Adobe Illustrator 27.1.1, SVG Export Plug-In . SVG Version: 6.00 Build 0)  -->
<svg version="1.1" id="레이어_1" xmlns="http://www.w3.org/2000/svg" xmlns:xlink="http://www.w3.org/1999/xlink" x="0px"
	 y="0px" viewBox="0 0 24 24" style="enable-background:new 0 0 24 24;" xml:space="preserve">
<style type="text/css">
	.st0{fill:#333333;}
</style>
<g id="_레이어_1-2">
	<path class="st0" d="M17.8,4.3c0.8,0,1.5,0.6,1.5,1.5v12.6c0,0.8-0.6,1.5-1.5,1.5s-1.5-0.6-1.5-1.5V5.7C16.4,4.9,17,4.3,17.8,4.3z
		 M6.2,13.9c0.8,0,1.5,0.6,1.5,1.5v2.9c0,0.8-0.6,1.5-1.5,1.5s-1.5-0.6-1.5-1.5v-2.9C4.7,14.6,5.4,13.9,6.2,13.9z M12,9.1
		c0.8,0,1.5,0.6,1.5,1.5v7.7c0,0.8-0.6,1.5-1.5,1.5s-1.5-0.6-1.5-1.5v-7.7C10.5,9.7,11.2,9.1,12,9.1z"/>
</g>
</svg>
