<svg width="20" height="20" xmlns="http://www.w3.org/2000/svg"><g fill="none" fill-rule="evenodd"><path d="M0 0h20v20H0z"/><path d="m15.479 14.298-.44 1.905a1.452 1.452 0 0 1-1.73 1.105c-2.703-.624-5.04-2.53-6.544-4.965C5.26 9.91 4.592 6.944 5.225 4.201A1.451 1.451 0 0 1 6.96 3.105l1.876.433c.202.047.351.22.37.428l.28 3.067a.495.495 0 0 1-.15.402L8.262 8.463c.153.711.525 1.536.998 2.296.474.76 1.05 1.454 1.612 1.906l1.38-.532a.476.476 0 0 1 .422.04l2.595 1.601a.481.481 0 0 1 .21.524Z" fill="#FFF" fill-rule="nonzero"/></g></svg>