<svg width="72" height="117" xmlns="http://www.w3.org/2000/svg" xmlns:xlink="http://www.w3.org/1999/xlink"><defs><path id="a" d="M0 0h72v117H0z"/></defs><g fill="none" fill-rule="evenodd"><mask id="b" fill="#fff"><use xlink:href="#a"/></mask><g mask="url(#b)"><path d="M70.876 48.115c-7.937.647-16.352-1.949-19.6-3.095-3.39-1.196-7-1.34-10.44-.418a17.58 17.58 0 0 0-8.833 5.582c-2.24 2.617-8.23 9.072-15.427 12.48-5.798 2.748-8.784 9.302-7.1 15.585l5.328 19.886c8.023 29.942 45.883 36.525 47.49 36.79l2.87.474 2.249-1.845c1.26-1.034 30.756-25.664 22.733-55.607l-5.328-19.885c-1.684-6.284-7.547-10.467-13.942-9.947Z" fill="#03CF5D" fill-rule="nonzero"/><path d="M77.516 81.039c4.72 17.616-10.391 34.246-16.234 39.87-7.882-1.952-29.275-8.799-33.994-26.412l-5.314-19.832a.23.23 0 0 1 .128-.268c9.098-4.304 16.252-11.7 19.707-15.724a4.772 4.772 0 0 1 2.391-1.514 4.773 4.773 0 0 1 2.828.115c5.004 1.759 14.898 4.586 24.929 3.764.115-.01.216.06.245.168l5.314 19.833Z" fill="#FFF" fill-rule="nonzero"/><path stroke="#03CF5D" stroke-width="10" stroke-linecap="round" stroke-linejoin="round" d="m45.087 87.515 5.425 2.116 7.627-11.36"/></g></g></svg>