<svg width="50" height="50" xmlns="http://www.w3.org/2000/svg" xmlns:xlink="http://www.w3.org/1999/xlink"><defs><path d="M3.494 0H7v9.775H4.887A4.887 4.887 0 0 1 0 4.887V3.494A3.494 3.494 0 0 1 3.494 0z" id="c"/><path d="M3.494 0H7v9.775H4.887A4.887 4.887 0 0 1 0 4.887V3.494A3.494 3.494 0 0 1 3.494 0z" id="d"/><path d="M10.683.1c5.51-.41 9.04.44 10.588 2.553.944-.09 2.45-.09 4.049.818 1.028.585 1.348 1.164 2.725 2.619 1.83 1.933 2.09 7.015.78 15.247a210.63 210.63 0 0 0-.943-5.35l-.126-.63a19.343 19.343 0 0 0-.331-1.418c-.396-1.344-2.022-.673-2.594-1.468-.573-.795.057-3.106-1.144-4.41-.443-.48-1.957-1.079-3.747-.825l-.235.038c-4.818-1.521-12.546-.518-13.747.787-1.2 1.304-.571 3.615-1.144 4.41-.572.795-2.198.124-2.594 1.468-.088.298-.198.771-.331 1.419l-.126.63c-.25 1.279-.563 3.062-.943 5.35C-.49 13.104-.23 8.022 1.6 6.09 4.345 3.191 2.417.716 10.683.1z" id="i"/><filter x="-112.3%" y="-112.6%" width="324.6%" height="325.2%" filterUnits="objectBoundingBox" id="g"><feGaussianBlur stdDeviation="2.096" in="SourceGraphic"/></filter><filter x="-112.3%" y="-112.6%" width="324.6%" height="325.2%" filterUnits="objectBoundingBox" id="h"><feGaussianBlur stdDeviation="2.096" in="SourceGraphic"/></filter><circle id="a" cx="25" cy="25" r="25"/><rect id="e" x="0" y="0" width="28" height="39" rx="13.976"/></defs><g fill="none" fill-rule="evenodd"><mask id="b" fill="#fff"><use xlink:href="#a"/></mask><use fill="#FFF" xlink:href="#a"/><g mask="url(#b)"><use fill="#FFA99A" xlink:href="#c" transform="translate(7.5 37.45)"/><use fill="#FFA99A" transform="matrix(-1 0 0 1 42.5 37.45)" xlink:href="#d"/><g transform="translate(11 23.075)"><mask id="f" fill="#fff"><use xlink:href="#e"/></mask><use fill="#FFB7AC" xlink:href="#e"/><g mask="url(#f)"><g transform="translate(7.063 8.143)"><path d="M6.723 8.132c.143 2.682-.253 4.357-1.186 5.026" stroke="#471515" stroke-width=".907" stroke-linecap="round" stroke-linejoin="round"/><rect fill="#471515" x="11.667" y="4.301" width="1.667" height="3.321" rx=".833"/><path d="M13.388.45a3.765 3.765 0 0 0-1.35-.242c-.514 0-.997.094-1.45.282" stroke="#471515" stroke-width=".907" stroke-linecap="round" stroke-linejoin="round"/><rect fill="#471515" transform="matrix(-1 0 0 1 1.667 0)" y="4.301" width="1.667" height="3.321" rx=".833"/><path d="M0 .45A3.765 3.765 0 0 1 1.35.208c.514 0 .997.094 1.45.282" stroke="#471515" stroke-width=".907" stroke-linecap="round" stroke-linejoin="round"/></g></g><g mask="url(#f)" fill="#FF5252" opacity=".599"><g transform="translate(1.4 15.326)"><ellipse filter="url(#g)" cx="2.8" cy="2.793" rx="2.8" ry="2.793"/><ellipse filter="url(#h)" cx="22.4" cy="2.793" rx="2.8" ry="2.793"/></g></g></g><path d="M23.427 37.864c0-1.279-.673-3.56-4.977-3.56s-4.23 3.646-4.121 4.325c.107.679.745 3.977 4.515 3.977 3.77 0 4.583-3.462 4.583-4.742zm3.153 0c0-1.279.673-3.56 4.978-3.56 4.304 0 4.229 3.646 4.12 4.325-.107.679-.745 3.977-4.514 3.977-3.77 0-4.584-3.462-4.584-4.742z" stroke="#000" stroke-width=".825"/><path d="M34.74 35.03c.068-.002.147.035.234.11.783.677 1.506.871 1.836.871.562 0 .688.039.688.215v.387c.013.056-.048.098-.182.126-.19.039-1.07.463-1.236 1.743-.01.086-.026.032-.04.124l-1.3-3.577zm-19.48 0-1.3 3.576c-.014-.092-.03-.038-.04-.124-.166-1.28-1.047-1.704-1.236-1.743-.134-.028-.195-.07-.182-.126v-.387c0-.176.126-.215.688-.215.33 0 1.053-.194 1.836-.87.087-.076.166-.113.235-.112zm9.639.281c.718 0 .808.125 1.38.208.38.055.748.027 1.103-.083l-.94 1.448c-.196-.627-.747-.941-1.654-.941-.907 0-1.36.314-1.36.941l-.656-1.365c.264.024.494.036.69.036.293 0 .718-.244 1.437-.244z" fill="#000"/><use fill="#471515" xlink:href="#i" transform="translate(10.18 21)"/></g><path d="M15.513 16v-2.638h2.756V16h1.324V9.635H18.27v2.636h-2.756V9.635h-1.321V16h1.32zm10.035 0v-1.094h-2.962v-1.544h2.729V12.27h-2.729v-1.542h2.95V9.635h-4.27V16h4.282zm5.674 0v-1.094h-2.737v-5.27h-1.321V16h4.058zm2.773 0-.001-2.072h1.144c.4 0 .753-.063 1.06-.188l.18-.082a1.86 1.86 0 0 0 .794-.753c.182-.324.272-.696.272-1.12 0-.422-.09-.795-.268-1.118a1.88 1.88 0 0 0-.785-.758c-.344-.182-.752-.274-1.225-.274h-2.492V16h1.32zm0-5.28h.926c.257 0 .472.044.646.132a.88.88 0 0 1 .39.371c.086.16.13.347.13.563 0 .215-.044.404-.13.566a.884.884 0 0 1-.39.376 1.4 1.4 0 0 1-.643.133l-.93.001V10.72z" fill="#000" fill-rule="nonzero" mask="url(#b)"/></g></svg>