<svg width="48" height="48" xmlns="http://www.w3.org/2000/svg" xmlns:xlink="http://www.w3.org/1999/xlink"><defs><path id="a" d="M0 0h48v48H0z"/></defs><g fill="none" fill-rule="evenodd"><mask id="b" fill="#fff"><use xlink:href="#a"/></mask><g mask="url(#b)"><g transform="rotate(45 7.343 37.4)"><rect stroke="#1D1D1B" fill="#FFF" stroke-linejoin="round" width="20" height="33" rx="1.98"/><path d="M1.986.55h16.028c.79 0 1.43.64 1.43 1.43v2.97H.556V1.98c0-.79.64-1.43 1.43-1.43z" fill="#00C0AA"/><rect fill="#1D1D1B" x="6.667" y="2.2" width="6.667" height="1" rx=".5"/><path d="M1.986 32.45h16.028c.79 0 1.43-.64 1.43-1.43v-2.97H.556v2.97c0 .79.64 1.43 1.43 1.43z" fill="#00C0AA"/></g></g><g transform="rotate(45 -6.218 39.617)" stroke="#1D1D1B"><path d="M20 10.703v1.3c0 .55-.446.997-.997.997H.997A.997.997 0 0 1 0 12.003V4.127c0-.332.165-.641.44-.827L5.076.17A.997.997 0 0 1 5.635 0h13.368c.55 0 .997.446.997.997v1.93h0" fill="#FFF" stroke-linecap="round" stroke-linejoin="round"/><path stroke-linecap="round" stroke-linejoin="round" d="M24.927 4.86h-5.771m3.44 4h-3.44"/><rect fill="#FAB74B" x="9.412" y="3.545" width="7.059" height="5.909" rx="1.323"/></g></g></svg>