<?xml version="1.0" encoding="UTF-8"?><svg id="_레이어_1" xmlns="http://www.w3.org/2000/svg" viewBox="0 0 23.79 31.39"><defs><style>.cls-1{fill:#fff;}.cls-2{fill:#515151;}.cls-3{fill:#3578ff;}</style></defs><g><path class="cls-3" d="m23.27,27.38l-16.64,3.48-3.19-15.25c-.96-4.59,1.98-9.1,6.58-10.06h0c4.59-.96,9.1,1.98,10.06,6.58l3.19,15.25Z"/><path class="cls-2" d="m6.64,31.39c-.1,0-.2-.03-.28-.08-.12-.08-.2-.19-.22-.33l-3.19-15.25c-1.02-4.87,2.11-9.66,6.98-10.68,4.87-1.02,9.66,2.11,10.68,6.98l3.19,15.25c.03.14,0,.28-.07.39-.08.12-.19.2-.33.22l-16.64,3.48s-.07.01-.11.01ZM11.77,5.89c-.54,0-1.09.06-1.64.17-2.09.44-3.88,1.66-5.04,3.44-1.17,1.78-1.57,3.91-1.13,6l3.08,14.74,15.62-3.27-3.08-14.74c-.79-3.76-4.11-6.35-7.81-6.35Z"/></g><g><path class="cls-1" d="m8.07,5.29h1.9c4.17,0,7.55,3.38,7.55,7.55v16.53H.52V12.84c0-4.17,3.38-7.55,7.55-7.55Z"/><path class="cls-2" d="m17.52,29.89H.52c-.29,0-.52-.23-.52-.52v-15.58C0,8.82,4.05,4.77,9.02,4.77s9.02,4.05,9.02,9.02v15.58c0,.29-.23.52-.52.52Zm-16.48-1.04h15.96v-15.06c0-4.4-3.58-7.98-7.98-7.98S1.04,9.39,1.04,13.79v15.06Z"/></g><g><circle class="cls-1" cx="9.02" cy="10.28" r="1.42"/><path class="cls-2" d="m9.02,12.22c-1.07,0-1.94-.87-1.94-1.94s.87-1.94,1.94-1.94,1.94.87,1.94,1.94-.87,1.94-1.94,1.94Zm0-2.83c-.49,0-.9.4-.9.9s.4.9.9.9.9-.4.9-.9-.4-.9-.9-.9Z"/></g><path class="cls-3" d="m4.05,18.57c0-1.59.84-2.51,2.01-2.51s2.02.92,2.02,2.51-.85,2.54-2.02,2.54-2.01-.95-2.01-2.54Zm2.7,0c0-1.11-.32-1.46-.69-1.46s-.69.35-.69,1.46.32,1.5.69,1.5.69-.38.69-1.5Zm3.87-2.51h1.09l-4.28,8.25h-1.09l4.28-8.25Zm-.65,5.71c0-1.59.85-2.52,2.01-2.52s2.01.93,2.01,2.52-.85,2.54-2.01,2.54-2.01-.95-2.01-2.54Zm2.7,0c0-1.12-.32-1.46-.69-1.46s-.69.34-.69,1.46.32,1.49.69,1.49.69-.37.69-1.49Z"/><path class="cls-2" d="m9.61,11.52c-.18,0-.35-.09-.45-.26L4.09,2.69c-.33-.56-.34-1.23-.01-1.79.32-.56.9-.9,1.55-.9h7.12c.64,0,1.21.33,1.54.88.32.55.33,1.21.03,1.77l-1.68,3.04c-.14.25-.46.34-.71.2-.25-.14-.34-.46-.2-.71l1.68-3.04c.13-.24.13-.51-.01-.74-.14-.23-.37-.37-.64-.37h-7.12c-.27,0-.51.14-.65.38-.13.23-.13.51,0,.75l5.07,8.57c.15.25.06.57-.18.71-.08.05-.17.07-.26.07Z"/></svg>